<?xml version="1.0" encoding="UTF-8" standalone="no"?>
<svg width="330px" height="324px" viewBox="0 0 330 324" version="1.1" xmlns="http://www.w3.org/2000/svg" xmlns:xlink="http://www.w3.org/1999/xlink" xmlns:sketch="http://www.bohemiancoding.com/sketch/ns">
    <!-- Generator: Sketch 3.3.1 (12002) - http://www.bohemiancoding.com/sketch -->
    <title>Om</title>
    <desc>Created with Sketch.</desc>
    <defs></defs>
    <g id="Page-1" stroke="none" stroke-width="1" fill="none" fill-rule="evenodd" sketch:type="MSPage">
        <g id="Om" sketch:type="MSLayerGroup" transform="translate(-925.000000, -796.000000)" stroke="#979797" fill="black"> <!--fill="#FFFFFF"-->
            <path d="M945.28366,806.648675 C945.28366,806.648675 1003.6397,814.955084 1017.37453,807.127021 C975.759525,881.341713 948.234919,931.791015 961.235971,1004.31858 C974.237023,1076.84614 1020.9141,1075.34 1026.01819,1075.33999 C1031.12228,1075.33998 1087.6343,1073.61406 1087.6343,1023.11304 C1087.63429,972.612023 1035.30835,966.296563 1015.92638,988.594578 C1017.37453,946.231888 1026.01819,891.034675 1056.16434,858.649379 C1048.34172,852.026878 1017.37453,863.096701 1017.37453,863.096701 L1042.87883,807.026827 C1042.87883,807.026827 1153.36837,816.005505 1166.65712,803.901419 C1143.94893,852.485831 1136.96455,844.672106 1126.69392,861.832964 C1106.2129,861.832963 1215.54846,1066.02841 1215.54846,1066.02841 C1215.54846,1066.02841 1201.00549,946.260978 1197.47886,895.284843 C1193.95223,844.308708 1161.72758,862.395343 1161.72758,862.395343 L1179.10865,807.127021 C1179.10865,807.127021 1237.77562,803.392174 1254.18588,796.903829 C1222.1759,852.172151 1218.63225,1095.59856 1231.4846,1117.44734 C1244.33695,1139.29612 1112.61645,888.584771 1079.69682,879.748305 C1038.6863,905.213752 1031.09643,926.290059 1026.01819,966.296563 C1079.69682,899.004947 1140.8716,956.244833 1140.8716,1004.31858 C1140.87159,1052.39233 1103.27134,1094.87782 1038.6863,1094.87783 C974.101258,1094.87783 940.331493,1030.68901 945.28366,950.769721 C950.235826,870.850436 939.277705,866.619654 926.250792,859.269936 C926.250792,826.24792 945.28366,806.648675 945.28366,806.648675 L945.28366,806.648675 Z" id="Path-1" sketch:type="MSShapeGroup"></path>
        </g>
    </g>
</svg>