<?xml version="1.0" encoding="utf-8"?>
<!-- Generator: Adobe Illustrator 15.0.0, SVG Export Plug-In . SVG Version: 6.00 Build 0)  -->
<!DOCTYPE svg PUBLIC "-//W3C//DTD SVG 1.1//EN" "http://www.w3.org/Graphics/SVG/1.1/DTD/svg11.dtd">
<svg version="1.1" id="Layer_2" xmlns="http://www.w3.org/2000/svg" xmlns:xlink="http://www.w3.org/1999/xlink" x="0px" y="0px"
	 width="2100px" height="2728px" viewBox="0 0 2100 2728" enable-background="new 0 0 2100 2728" xml:space="preserve">
<path fill="none" stroke="#000000" stroke-width="3" stroke-linejoin="round" stroke-miterlimit="10" d="M1863,87
	c26.5-11,25,30-10.5,28c-19.634-1.106-41-17-25.5-42.5c10.743-17.674,34.365-16.858,52.5-16c22.037,1.042,40.053,14.367,44.5,36.5
	c4.908,24.428-5,33-30,43"/>
<path fill="none" stroke="#000000" stroke-width="3" stroke-linejoin="round" stroke-miterlimit="10" d="M1928,52
	c24.539,0.904,47.188,18.397,57,42c6.886,16.561,9,30.5,5,41c-2.971,7.797-9.912,23.033-16.5,28"/>
<path fill="none" stroke="#000000" stroke-width="3" stroke-linejoin="round" stroke-miterlimit="10" d="M2028,146.5
	c-8.5,9.5-49.5-5.5-50.5,31c-14.5-24.5-85-1.5-68,48.5c3.642,10.71,15.4,20.218,25.5,24.5"/>
<path fill="none" stroke="#000000" stroke-width="3" stroke-linejoin="round" stroke-miterlimit="10" d="M1994,246
	c-9.731-12.502-19.767-11.13-32-10"/>
<path fill="none" stroke="#000000" stroke-width="3" stroke-linejoin="round" stroke-miterlimit="10" d="M1972,231
	c-11.492-0.39-23.78,2.445-32.26,10.747C1933.893,247.471,1928,265,1936,272"/>
<path fill="none" stroke="#000000" stroke-width="3" stroke-linejoin="round" stroke-miterlimit="10" d="M1899,284
	c4-19,14-21.633,33-23"/>
<path fill="none" stroke="#000000" stroke-width="3" stroke-linejoin="round" stroke-miterlimit="10" d="M1834,285
	c-14-40.5,34-70,65.5-59.5"/>
<path fill="none" stroke="#000000" stroke-width="3" stroke-linejoin="round" stroke-miterlimit="10" d="M1830,277
	c-17.5-16.5-81,16.5-70,54c2.557,8.717,7.5,16.5,12,21"/>
<path fill="none" stroke="#000000" stroke-width="3" stroke-linejoin="round" stroke-miterlimit="10" d="M1759.5,334
	c-22.5-8.5-54.5,24-51,61.5c2.65,28.393,32.919,41.498,58.5,48c15.341,3.9,37.5,7.5,48.5,4.5"/>
<path fill="none" stroke="#000000" stroke-width="3" stroke-linejoin="round" stroke-miterlimit="10" d="M1814,428
	c-0.484,16.383,5.192,35.499,20.001,44.665c14.458,8.95,37.333,12,52.667,10"/>
<path fill="none" stroke="#000000" stroke-width="3" stroke-linejoin="round" stroke-miterlimit="10" d="M1856,348
	c-16.135,11.736-21.083,39.853-9.999,54.665c12.41,16.585,35.937,22.13,55.999,23.335"/>
<path fill="none" stroke="#000000" stroke-width="3" stroke-linejoin="round" stroke-miterlimit="10" d="M1951.334,348.665
	c-34,5.333-18.781,54.987-3.333,69.333c9.333,8.667,28.667,18.667,42.999,22.002"/>
<path fill="none" stroke="#000000" stroke-width="3" stroke-linejoin="round" stroke-miterlimit="10" d="M2029,399
	c-31.175,2.803-54.809-3.086-70.999-31.002c-19.333-33.333,1.727-56.907,32.667-50.667c13.417,2.707,35.333,22.667,9.332,24.668"/>
<path fill="none" stroke="#000000" stroke-width="3" stroke-linejoin="round" stroke-miterlimit="10" d="M1982,459
	c10.001-30.335,30.669-20.003,46.668-27.668"/>
<path fill="none" stroke="#000000" stroke-width="3" stroke-linejoin="round" stroke-miterlimit="10" d="M1967,449
	c-13.763-1.165-33.891,3.183-43.666,13.665c-10.209,10.948-14.666,24.667-5.334,37.335"/>
<path fill="none" stroke="#000000" stroke-width="3" stroke-linejoin="round" stroke-miterlimit="10" d="M1916,499
	c-8-12.336-25.333-14.336-38-9"/>
<path fill="none" stroke="#000000" stroke-width="3" stroke-linejoin="round" stroke-miterlimit="10" d="M1874,491
	c-21.333,4.997-28,22.997-19,44"/>
<path fill="none" stroke="#000000" stroke-width="3" stroke-linejoin="round" stroke-miterlimit="10" d="M1859.333,539.997
	c6,6,13.655,11.798,22.667,15.003"/>
<path fill="none" stroke="#000000" stroke-width="3" stroke-linejoin="round" stroke-miterlimit="10" d="M1924.667,531.33
	c-9.667,1.664-18.985,2.402-32,13.333c-16.667,14-8.667,26,0.333,34.336"/>
<path fill="none" stroke="#000000" stroke-width="3" stroke-linejoin="round" stroke-miterlimit="10" d="M1889.333,574.664
	c-27.333-9.333-50.666,18-32.333,42.336"/>
<path fill="none" stroke="#000000" stroke-width="3" stroke-linejoin="round" stroke-miterlimit="10" d="M1873.333,567.997
	c-14-34.667-96.666-14-80,31.333"/>
<path fill="none" stroke="#000000" stroke-width="3" stroke-linejoin="round" stroke-miterlimit="10" d="M1784,590.664
	c-19.333-5.333-68,44-36,76"/>
<path fill="none" stroke="#000000" stroke-width="3" stroke-linejoin="round" stroke-miterlimit="10" d="M1737.333,651.33
	c-20.666,0.667-52.666,32.423-52.666,59.333c0.002,45.895,42,61.333,91.333,52.336"/>
<path fill="none" stroke="#000000" stroke-width="3" stroke-linejoin="round" stroke-miterlimit="10" d="M1840,660
	c-18,5.33-23.935,27.205-12,43.997c13.068,18.388,40.667,26,63.333,20.667"/>
<path fill="none" stroke="#000000" stroke-width="3" stroke-linejoin="round" stroke-miterlimit="10" d="M1780,744.664
	c-4.667,24.667,28.667,40.667,47.333,42.667c18.008,1.929,37.135,1.564,54.667-3.333"/>
<path fill="none" stroke="#000000" stroke-width="3" stroke-linejoin="round" stroke-miterlimit="10" d="M1878,753.997
	c2.667,48,68,55.333,105.333,21.333"/>
<path fill="none" stroke="#000000" stroke-width="3" stroke-linejoin="round" stroke-miterlimit="10" d="M2028.667,755.997
	c-21.334,34-72.667,20.997-91.334-18"/>
<path fill="none" stroke="#000000" stroke-width="3" stroke-linejoin="round" stroke-miterlimit="10" d="M1980,671
	c20.001,4.331,13.181,14.906-3.332,20.331c-10.929,3.59-24.667-8.667-28.667-22c-5.55-18.5,14.91-35.17,29.333-38.667
	c24.777-6.006,54.667,8,52.666,36.335"/>
<path fill="none" stroke="#000000" stroke-width="3" stroke-linejoin="round" stroke-miterlimit="10" d="M1972,622
	c0.336-9.521-2.008-12.007,7.596-17.178c5.766-3.104,13.072-5.491,15.072-9.491"/>
<path fill="none" stroke="#000000" stroke-width="3" stroke-linejoin="round" stroke-miterlimit="10" d="M1988.668,597.998
	c8.635-6.443,35.333-8,43.333,2"/>
<path fill="none" stroke="#000000" stroke-width="3" stroke-linejoin="round" stroke-miterlimit="10" d="M1716.5,359.5
	c-30.375,2.722-62,9.5-93.5,12.5c-43.794,4.171-74.969,4.876-118.5,7c-20.5,1-59.714,4.193-77.942,9.278
	c-9.42,2.628-13.368,5.249-4.058,10.722c13.354,7.849,47.356,4.113,62,4c25.512-0.197,71.529,1.776,97,0.5
	c48.912-2.45,80.053-4.933,129-4.5"/>
<path fill="none" stroke="#000000" stroke-width="3" stroke-linejoin="round" stroke-miterlimit="10" d="M1851,235
	c-95.5,9-161,14.5-263.5,18.5c-72.511,2.83-147.048,8.283-220,9.5c-65.145,1.087-119.494,0.112-170,5
	c-15.5,1.5-67.389-1.959-71.5,10c-5.5,16,68.5,14.5,102,15c113.846,1.699,199.511,9.231,313,7.5c75.818-1.157,162-1.5,229-3"/>
<path fill="none" stroke="#000000" stroke-width="3" stroke-linejoin="round" stroke-miterlimit="10" d="M1776,144
	c0.5,31,42.517,58.374,81,52c8.749-1.449,23-5,29-7.5c-1,6.5,7.5,17.5,14,9.5"/>
<path fill="none" stroke="#000000" stroke-width="3" stroke-linejoin="round" stroke-miterlimit="10" d="M1758,116
	c-16,4.5-41-4-54.5-19c-9.24-10.267-15.5-34.5,4.5-42"/>
<path fill="none" stroke="#000000" stroke-width="3" stroke-linejoin="round" stroke-miterlimit="10" d="M1695,62
	c-24,11.5-40.5,14.5-58-8.5"/>
<path fill="none" stroke="#000000" stroke-width="3" stroke-linejoin="round" stroke-miterlimit="10" d="M1675,70
	c-12,11.5-28.174,42.876-10.182,68.889C1677,156.5,1698.467,171.082,1724,174.5c14.669,1.964,31.579-0.152,44-5"/>
<path fill="none" stroke="#000000" stroke-width="3" stroke-linejoin="round" stroke-miterlimit="10" d="M1650,135
	c-10.5,6.5-36.5,9-50.44,7.159C1580.896,139.694,1540,120,1538.5,92"/>
<path fill="none" stroke="#000000" stroke-width="3" stroke-linejoin="round" stroke-miterlimit="10" d="M1541.5,103
	c-11,7.5-33,6-47.5,2c-27.463-7.576-46-23-58.5-48"/>
<path fill="none" stroke="#000000" stroke-width="3" stroke-linejoin="round" stroke-miterlimit="10" d="M1437,63
	c-4,5.5-59.585,2.062-89-0.5c-28.215-2.457-64.729-4.438-93.5-3c-20,1-33-4.5-45.5-5"/>
<path fill="none" stroke="#000000" stroke-width="3" stroke-linejoin="round" stroke-miterlimit="10" d="M1460,88
	c-22.825-0.067-43.69-2.717-66.5-3.5c-19.97-0.686-36.708-0.569-56.5-3.5c-18.203-2.696-44-2-62.5-1c-13.946,0.754-17.5-7-37-3.5
	c-26.264,4.714-35.502,0.533-54.556-2.445c-16.945-2.648-37.686-3.08-53.944,1.445c-38.192,10.629-74.995,20.106-114,11
	c-36.794-8.591-75.075-19.12-111.064-3.895C851,105,812.625,123.518,736.5,90.5c-41.5-18-76.167,22.747-120.5,31
	c-31.301,5.827-65.5-3-96-22C497.636,85.568,488.5,69,454,76c-10.665,2.164-36,15.5-19,34c9.222,10.036,32.847-19.6,42.095,15.014
	C481.5,141.5,455,157.5,437,161"/>
<path fill="none" stroke="#000000" stroke-width="3" stroke-linejoin="round" stroke-miterlimit="10" d="M1111.5,56
	c-16.5,0-22.083,8.146-33.5,11c-18,4.5-30.128,6.05-49.5,4.5c-25-2-30-14.5-55-13"/>
<path fill="none" stroke="#000000" stroke-width="3" stroke-linejoin="round" stroke-miterlimit="10" d="M909.5,58
	c-11.5,2.5-29.255,12.556-52,20c-27.5,9-59.693,8.386-88.345-4.334C739.5,60.5,701.2,57.881,666,71.5
	c-25.232,9.762-61.056,37.032-90.5,29.5c-21.5-5.5-37.89-18.385-53-27c-15.016-8.561-22-13.5-37.5-12.5"/>
<path fill="none" stroke="#000000" stroke-width="3" stroke-linejoin="round" stroke-miterlimit="10" d="M450.5,61
	c-14.643-0.628-35.606,10.784-37,28c-1.314,16.233,6.5,24.5,22.5,22"/>
<path fill="none" stroke="#000000" stroke-width="3" stroke-linejoin="round" stroke-miterlimit="10" d="M299,144
	c5.5,9,22.735,18.395,35.5,21.5c18.5,4.5,36.588,6.028,52.5,5c22.749-1.47,35.435-3.031,57.626-8.616"/>
<path fill="none" stroke="#000000" stroke-width="3" stroke-linejoin="round" stroke-miterlimit="10" d="M326.5,164
	c-20,39-51.634,51.098-96.5,52.5c-16,0.5-40.5-1.5-46-15.5"/>
<path fill="none" stroke="#000000" stroke-width="3" stroke-linejoin="round" stroke-miterlimit="10" d="M372.5,65
	c-16.6,25.039-70,39.5-81.5,4"/>
<path fill="none" stroke="#000000" stroke-width="3" stroke-linejoin="round" stroke-miterlimit="10" d="M297,92
	c-14,19.5-44.5,20-63,2"/>
<path fill="none" stroke="#000000" stroke-width="3" stroke-linejoin="round" stroke-miterlimit="10" d="M127.5,101.5
	c-19,21-6,43,12,55c13.998,9.332,26.907,10.182,43.5,9.5"/>
<path fill="none" stroke="#000000" stroke-width="3" stroke-linejoin="round" stroke-miterlimit="10" d="M180,115
	c-3.713,2.668-6.782,7.611-2.76,11.442c4.02,3.828,10.812,2.999,15.431,0.944c5.028-2.237,12.552-7.651,11.993-13.938
	c-0.471-5.3-5.228-9.773-9.067-12.946c-8.451-6.984-19.695-13.085-30.892-13.113C149.275,87.349,127,99.5,115.5,110"/>
<path fill="none" stroke="#000000" stroke-width="3" stroke-linejoin="round" stroke-miterlimit="10" d="M158,84
	c-13-23-43.878-13.287-66.5-0.5c-23,13-23,49.5-15,65.5c7.523,15.045,21.722,27.532,37.5,34"/>
<path fill="none" stroke="#000000" stroke-width="3" stroke-linejoin="round" stroke-miterlimit="10" d="M188.5,221.5
	c-19.5,13.5-69.718,25.055-93.5,14c-7.818-3.634-15-7.5-21-11"/>
<path fill="none" stroke="#000000" stroke-width="3" stroke-linejoin="round" stroke-miterlimit="10" d="M903.466,168.602
	C891,188,952.473,185.769,960,186c228,7,406,9,609.836,2.205C1634.837,186.038,1699.959,184,1765,184"/>
<path fill="none" stroke="#000000" stroke-width="3" stroke-linejoin="round" stroke-miterlimit="10" d="M1561,136
	c-32-4-90.518,4.655-133,5c-123,1-206.935,7.55-335,13c-47,2-152,8-185,9"/>
<path fill="none" stroke="#000000" stroke-width="3" stroke-linejoin="round" stroke-miterlimit="10" d="M1992,776.663
	c37.333,40-29.899,29.677-27.334,62c3.334,42,31.933,31.451,38,50.667c4,12.667,5.334,31.333,26,36"/>
<path fill="none" stroke="#000000" stroke-width="3" stroke-linejoin="round" stroke-miterlimit="10" d="M1939.333,804.663
	c-21.946,10.566-38.897,27.029-35.333,57.333c2.666,22.667,23.333,52.667,54,52.667c-6,10.667-3.193,27.209,12.666,45.333
	c23.334,26.667,50.667,14,59.334,38.667"/>
<path fill="none" stroke="#000000" stroke-width="3" stroke-linejoin="round" stroke-miterlimit="10" d="M1934,1965.334
	c8.002,8.666,1.008,13.65-4.327,15.954c-6.387,2.758-14.4-5.489-17.561-10.091c-8.439-12.288-7.097-24.947,2.556-36.53
	c6.667-8,41.334-14.667,50.667-10.667c43.718,18.736,39.102,59.278,30,84.667c-12.667,35.333-48.172,41.95-79.333,34
	c-31.304-7.986-63.525-32.861-67.334-67.333c-1.457-13.187,6-28.667,17.334-38"/>
<path fill="none" stroke="#000000" stroke-width="3" stroke-linejoin="round" stroke-miterlimit="10" d="M1974.67,1916.667
	c8.667,0.667,23.334-5.333,31.334,2c12.666-1.333,27.423,12.834,33.996,25.334"/>
<path fill="none" stroke="#000000" stroke-width="3" stroke-linejoin="round" stroke-miterlimit="10" d="M1895.333,1888.667
	c-27.329-16.666-6.76-43.295,22.671-51.333c7.788-2.127,16.909,5.593,21.08,11.932c-5.382-9.377-10.617-16.514-5.008-27.144
	c4.567-8.653,10.955-12.782,19.924-16.121"/>
<path fill="none" stroke="#000000" stroke-width="3" stroke-linejoin="round" stroke-miterlimit="10" d="M1979.337,1799.334
	c12.785,0.044,19.515,4.726,26.663,14.667"/>
<path fill="none" stroke="#000000" stroke-width="3" stroke-linejoin="round" stroke-miterlimit="10" d="M2024.667,1687.334
	c-20.663,2-47.33,2.667-61.33,26c-3.275,5.459-3.808,16.896-2.67,23.333"/>
<path fill="none" stroke="#000000" stroke-width="3" stroke-linejoin="round" stroke-miterlimit="10" d="M1959.337,1728.667
	c-21.33,0.666-48.355,4.383-59.333,25.334c-11.98,22.868-2,58,23.996,66.666"/>
<path fill="none" stroke="#000000" stroke-width="3" stroke-linejoin="round" stroke-miterlimit="10" d="M1902.667,1804.667
	c-22.665-14-48.667-10.42-67.999,5.333c-18,14.667-42,46-18.668,62.001"/>
<path fill="none" stroke="#000000" stroke-width="3" stroke-linejoin="round" stroke-miterlimit="10" d="M1706.001,1968.666
	c5.179-18.701,13.718-35.828,35.334-39.332"/>
<path fill="none" stroke="#000000" stroke-width="3" stroke-linejoin="round" stroke-miterlimit="10" d="M1752.001,1938.666
	c-15.162-12.984-20.614-32.179-10.666-49.332c10.85-18.709,28.667-26,50.666-31.335"/>
<path fill="none" stroke="#000000" stroke-width="3" stroke-linejoin="round" stroke-miterlimit="10" d="M1822.002,2040
	c-31.326-5.279-44-36.666-28.001-64.001"/>
<path fill="none" stroke="#000000" stroke-width="3" stroke-linejoin="round" stroke-miterlimit="10" d="M1949.334,2121.999
	c-17.999,7.335-39.999,7.335-46.667-16"/>
<path fill="none" stroke="#000000" stroke-width="3" stroke-linejoin="round" stroke-miterlimit="10" d="M1926.667,2167.332
	c-11.999,3.335-21.999,4.002-33.332-3.332"/>
<path fill="none" stroke="#000000" stroke-width="3" stroke-linejoin="round" stroke-miterlimit="10" d="M1876.667,2156.666
	c10.668-6.666,26.001-28.666,20.001-46.666c-6.968-20.903-25.975-43.553-46.666-50c-10.425-3.248-29.334-4.666-38-4.666
	c-6.782-19.898-21.198-27.062-35.4-31.986c-19.267-6.681-47.932-2.68-58.6,7.986"/>
<path fill="none" stroke="#000000" stroke-width="3" stroke-linejoin="round" stroke-miterlimit="10" d="M1741.335,2081.334
	c7.883-23.986-32.667-38.667-44.668-26.003c-5.281-15.588-15.067-23.388-29.999-29.997c-20.757-9.188-42.666,1.333-50.666-4"/>
<path fill="none" stroke="#000000" stroke-width="3" stroke-linejoin="round" stroke-miterlimit="10" d="M1704.668,2043.334
	c19.334-10.667,23.468-31.576,18.667-47.334c-8.64-28.355-38.667-47.333-63.333-46c-2-16.666-29.023-23.596-44-28
	c-22.667-6.666-44.667,5.334-53.334,14c-0.966,0.966-30-17.333-45.333-4c-12.493,0.783-42.667,20.667-28,36.667"/>
<path fill="none" stroke="#000000" stroke-width="3" stroke-linejoin="round" stroke-miterlimit="10" d="M1825.334,2248.667
	c28.668-14.001,39.509-33.941,40.668-60.001c0.337-7.593,0.668-19.334-4-26.667"/>
<path fill="none" stroke="#000000" stroke-width="3" stroke-linejoin="round" stroke-miterlimit="10" d="M1806.001,2270
	c10.668-10.667,37.334-14.001,64.668-34.001c26.315-19.255,51.938-40.591,69.333-68c20.588-32.438,26.224-59.53,43.333-93.333
	c5.282-10.438,20.983-31.751,30.667-38.667c11.286-8.061,17.05-6.419,27.999-13.999"/>
<path fill="none" stroke="#000000" stroke-width="3" stroke-linejoin="round" stroke-miterlimit="10" d="M1812.667,2275.333
	c20.123-15.479,44.933-17.104,66.333-29.333c21.421-12.24,45.002-33.334,50.335-35.334c7.721-2.896,29.334-20,38-46"/>
<path fill="none" stroke="#000000" stroke-width="3" stroke-linejoin="round" stroke-miterlimit="10" d="M1746.001,2164.667
	c-10.669,5.334-4.399,12.363,1.331,16.667c6.776,5.09,17.86,4.592,26,3.334"/>
<path fill="none" stroke="#000000" stroke-width="3" stroke-linejoin="round" stroke-miterlimit="10" d="M1769.334,2184
	c33.332-31.332-18.229-61.2-52.668-51.999c-34.577,9.238-48,56-12,79.333c12.621,8.181,24.801,7.159,39.335,7.333"/>
<path fill="none" stroke="#000000" stroke-width="3" stroke-linejoin="round" stroke-miterlimit="10" d="M1718.668,2130.002
	c-6.002-30.668-55.233-27.504-73.626-5.395c-4.829,5.806-9.346,16.325-9.71,24.061"/>
<path fill="none" stroke="#000000" stroke-width="3" stroke-linejoin="round" stroke-miterlimit="10" d="M1632,2206.669
	c2.667,44.667,42.381,70.31,84,68c12-0.666,30.974-4.885,40.666-10.667"/>
<path fill="none" stroke="#000000" stroke-width="3" stroke-linejoin="round" stroke-miterlimit="10" d="M1556.666,2114.002
	c27.333-13.334,65.623-2.549,77.333,32.666c5.001,15.039,6.004,31.3,2,46.666c-3.013,11.564-8.603,28.754-17.395,37.356
	c-9.304,9.103-22.844,4.808-30.604,17.312"/>
<path fill="none" stroke="#000000" stroke-width="3" stroke-linejoin="round" stroke-miterlimit="10" d="M1480.666,2244.668
	c7.076,6.187,11.926,10.765,21.522,12.106c8.733,1.222,15.66,0.793,24.478,1.228c16.994,0.838,35.957,0.241,50.02-10.179
	c7.332-5.433,14.347-10.525,23.98-9.155"/>
<path fill="none" stroke="#000000" stroke-width="3" stroke-linejoin="round" stroke-miterlimit="10" d="M1532.666,2151.335
	c20.666-2.667,14.694,7.582,4.945,14.848c-12.279,9.151-27.442,5.084-36.279-4.182c-20.266-21.247,12.348-44.216,31.557-44.306
	c25.202-0.118,57.091,16.778,57.11,44.306c0.021,30.899-35.991,47.173-62.885,47.239c-37.782,0.094-77.782-20.572-72.448-49.906"/>
<path fill="none" stroke="#000000" stroke-width="3" stroke-linejoin="round" stroke-miterlimit="10" d="M1455.999,2067.334
	c-2.666-32.665,20.001-38.665,40-41.333"/>
<path fill="none" stroke="#000000" stroke-width="3" stroke-linejoin="round" stroke-miterlimit="10" d="M1419.332,2104.668
	c-9.667-26.729,12.001-49.332,36.668-45.999"/>
<path fill="none" stroke="#000000" stroke-width="3" stroke-linejoin="round" stroke-miterlimit="10" d="M1455.332,2049.334
	c-17.455-7.219-29.137-18.283-33.825-37.57c-3.508-14.43,15.79-41.131,35.825-48.43c10.236-3.729,16.651-3.526,27.334-2.666"/>
<path fill="none" stroke="#000000" stroke-width="3" stroke-linejoin="round" stroke-miterlimit="10" d="M1472.002,2247.334
	c-10,9.334-28.335-0.892-43.333-1.333c-22.667-0.667-58-20-64-46.667"/>
<path fill="none" stroke="#000000" stroke-width="3" stroke-linejoin="round" stroke-miterlimit="10" d="M1370.669,2196.001
	c-30.831,13.946-66.634,9.775-88.666-16.664c-20-24-25.334-61.333,1.999-75.336c8.495-4.353,15.334-18,44-20"/>
<path fill="none" stroke="#000000" stroke-width="3" stroke-linejoin="round" stroke-miterlimit="10" d="M1326.002,2090.668
	c10.667-28.667,42.667-61.334,83.398-57.582c9.02,0.831,20.455,4.854,29.269,6.915"/>
<path fill="none" stroke="#000000" stroke-width="3" stroke-linejoin="round" stroke-miterlimit="10" d="M1389.335,2274.668
	c-16.001-12.667-11.333-30,2.668-39.999"/>
<path fill="none" stroke="#000000" stroke-width="3" stroke-linejoin="round" stroke-miterlimit="10" d="M1345.336,2233.335
	c17.333-7.333,20.666-5.334,20.666-23.333"/>
<path fill="none" stroke="#000000" stroke-width="3" stroke-linejoin="round" stroke-miterlimit="10" d="M1323.336,2219.335
	c6.667-2,14.001-8.667,14-16.666"/>
<path fill="none" stroke="#000000" stroke-width="3" stroke-linejoin="round" stroke-miterlimit="10" d="M1264.669,2193.335
	c8,7.335,17.756,1.288,24-2.666"/>
<path fill="none" stroke="#000000" stroke-width="3" stroke-linejoin="round" stroke-miterlimit="10" d="M1246.003,2172.002
	c10,6.002,18,2.67,27.333-4.665"/>
<path fill="none" stroke="#000000" stroke-width="3" stroke-linejoin="round" stroke-miterlimit="10" d="M1265.336,2214.002
	c6.667,1.999,14.795-3.99,23.334-3.334c17.333,1.333,35.898,7.642,49.19,18.167c14.469,11.458,18.488,21.096,26.81,36.5"/>
<path fill="none" stroke="#000000" stroke-width="3" stroke-linejoin="round" stroke-miterlimit="10" d="M1186.003,2214.002
	c27.235-8.875,63.333,4.668,62.002,29.334c14.664-8.666,35.923,4.166,40.664,15.334"/>
<path fill="none" stroke="#000000" stroke-width="3" stroke-linejoin="round" stroke-miterlimit="10" d="M1251.336,2228.669
	c18.366-9.183,13.178-26.636,1.391-41.393c-18.058-22.606-55.391-37.272-74.724-13.272c1.333-15.334-17.71-21.663-32.126-24.027
	c-11.205-1.838-30.541-5.307-44.541,12.027"/>
<path fill="none" stroke="#000000" stroke-width="3" stroke-linejoin="round" stroke-miterlimit="10" d="M1139.336,2128.002
	c3.333,8.002-2.667,14.002-8,19.335"/>
<path fill="none" stroke="#000000" stroke-width="3" stroke-linejoin="round" stroke-miterlimit="10" d="M1134.003,2085.337
	c10.667,16.669,19.333,44,44.666,58c25.627,14.162,62,14.667,86.667-6.667"/>
<path fill="none" stroke="#000000" stroke-width="3" stroke-linejoin="round" stroke-miterlimit="10" d="M1269.336,2108.002
	c36-31.998-53.333-85.333-85.333-29.332c-5.768,10.093-1.389,27.047,7.974,34.164c11.454,8.709,21.995,4.273,31.359-4.164
	c12.667-4.666,12.519-18.973-3.333-19.333"/>
<path fill="none" stroke="#000000" stroke-width="3" stroke-linejoin="round" stroke-miterlimit="10" d="M1216.669,2096.67
	c-24-2-1.33-26.012,12.165-23.096c20.502,4.43,31.725,21.452,15.794,33.685c-6.295,4.834-14.456,6.04-20.625,11.41"/>
<path fill="none" stroke="#000000" stroke-width="3" stroke-linejoin="round" stroke-miterlimit="10" d="M1312.003,2039.335
	c12-0.667,34.153-3.453,46.666,7.334"/>
<path fill="none" stroke="#000000" stroke-width="3" stroke-linejoin="round" stroke-miterlimit="10" d="M1334.669,2068.669
	c4.667-26.667-36.666-31.334-58.666-26.667"/>
<path fill="none" stroke="#000000" stroke-width="3" stroke-linejoin="round" stroke-miterlimit="10" d="M1304.003,2084.669
	c1.094-12.517-5.615-22.605-14-28c-9.279-5.97-26.534-8.66-37.334-7.334"/>
<path fill="none" stroke="#000000" stroke-width="3" stroke-linejoin="round" stroke-miterlimit="10" d="M1249.336,2013.335
	c11.333,0.667,32,20.667,20,35.334"/>
<path fill="none" stroke="#000000" stroke-width="3" stroke-linejoin="round" stroke-miterlimit="10" d="M1202.669,2122.002
	c-14.001,6.67-33.61-15.588-39.308-27.549c-10.693-22.448-22.027-35.781-46.692-39.784"/>
<path fill="none" stroke="#000000" stroke-width="3" stroke-linejoin="round" stroke-miterlimit="10" d="M1131.334,2036.005
	c6.656,0.003,19.217,0.192,23.334,6.667"/>
<path fill="none" stroke="#000000" stroke-width="3" stroke-linejoin="round" stroke-miterlimit="10" d="M1162.669,2046.002
	c5.332,4.003,12.071,13.371,20.665,16.003c10.09,3.09,14.57-4.254,24.002-5.336"/>
<path fill="none" stroke="#000000" stroke-width="3" stroke-linejoin="round" stroke-miterlimit="10" d="M1161.336,2040.669
	c-6.667-15.331-2.604-27.99,10.445-36.219c10.222-6.445,12.222-15.112,39.161-14.36c14.983,0.418,27.622,7.88,36.153,20.908
	c11.573,17.674-4.272,24.572-18.427,30.34c-18,7.334-30-14.666-12.666-18.669"/>
<path fill="none" stroke="#000000" stroke-width="3" stroke-linejoin="round" stroke-miterlimit="10" d="M1220.669,2030.002
	c14-5.33,8.396-16.111-0.309-19.979c-10.378-4.611-29.024-2.018-27.024,5.982c-9.019,4.245-13.427,8.739-10.667,18.667
	c3.177,11.429,18.902,18.418,30,17.333"/>
<path fill="none" stroke="#000000" stroke-width="3" stroke-linejoin="round" stroke-miterlimit="10" d="M1110.005,2274.673
	c-5.456-2.597-14.372-10.79-15.005-17.006c-1.1-10.792,10.397-16.121,18-19"/>
<path fill="none" stroke="#000000" stroke-width="3" stroke-linejoin="round" stroke-miterlimit="10" d="M1112.333,2242.667
	c5.27-5.387,19.123-4.479,22,2.666c4.394,10.912-6.333,16.667-10.328,6.007"/>
<path fill="none" stroke="#000000" stroke-width="3" stroke-linejoin="round" stroke-miterlimit="10" d="M1075.338,2276.007
	c-9.004-22.34,2.991-31.681,18.662-35.674"/>
<path fill="none" stroke="#000000" stroke-width="3" stroke-linejoin="round" stroke-miterlimit="10" d="M1019.338,2246.673
	c-20.338-17.34,19.434-54.907,40.662-44.34c5.956,2.965,11,8.334,8.671,14.34"/>
<path fill="none" stroke="#000000" stroke-width="3" stroke-linejoin="round" stroke-miterlimit="10" d="M951.667,2242.667
	c9.333-9.667,19-15,35.667-14c7.037,0.422,27.333,6.333,23,14.666"/>
<path fill="none" stroke="#000000" stroke-width="3" stroke-linejoin="round" stroke-miterlimit="10" d="M1017.337,2213.342
	c-37.004-29.009,15.663-69.342,50.33-62.009c10.45,2.211,20.333,6.667,29.671,14.676"/>
<path fill="none" stroke="#000000" stroke-width="3" stroke-linejoin="round" stroke-miterlimit="10" d="M919.337,2238.009
	c5.33-20.009,14.663-28.342,36.33-39.009c22.734-11.192,42.667-2.333,50.667,5.333"/>
<path fill="none" stroke="#000000" stroke-width="3" stroke-linejoin="round" stroke-miterlimit="10" d="M867.333,2268.667
	c-2.337-15.676,9.247-25.052,22.333-31c10.615-4.825,20.508-8.707,32.333-6.667"/>
<path fill="none" stroke="#000000" stroke-width="3" stroke-linejoin="round" stroke-miterlimit="10" d="M1005.333,2196.667
	c-4-2-9.333-7.333-11-13"/>
<path fill="none" stroke="#000000" stroke-width="3" stroke-linejoin="round" stroke-miterlimit="10" d="M987.667,2098.666
	c-13.671,24.658,7.333,57.334,36.333,62"/>
<path fill="none" stroke="#000000" stroke-width="3" stroke-linejoin="round" stroke-miterlimit="10" d="M1040.004,2146.676
	C1011,2147.333,993,2106.333,1014,2089.333c19.868-16.084,45.333-17.667,68.902-2.062c23.316,15.438,14.098,26.395,9.098,32.062"/>
<path fill="none" stroke="#000000" stroke-width="3" stroke-linejoin="round" stroke-miterlimit="10" d="M1088.004,2116.676
	c-10.67,7.324-25.67,5.99-35.004-4.676c-4.357-4.979-0.667-8.334,4-8"/>
<path fill="none" stroke="#000000" stroke-width="3" stroke-linejoin="round" stroke-miterlimit="10" d="M1062.333,2111.666
	c1-2.666,7.703-6.019,7-7.333c-7.667-14.333-40.459-18.54-46,1.667c-5.667,20.666,29.333,38.666,53,38.666
	c13.742,0,29.678-5.246,40.667-13.666"/>
<path fill="none" stroke="#000000" stroke-width="3" stroke-linejoin="round" stroke-miterlimit="10" d="M1117.338,2134.009
	c29.662-27.009-5.452-64.729-31.338-75.676c-22.242-9.405-48.686-7.47-71.667-2.333c-28.333,6.333-25.667,22-36,20.666"/>
<path fill="none" stroke="#000000" stroke-width="3" stroke-linejoin="round" stroke-miterlimit="10" d="M961.337,2114.676
	c1.663-16.01,2.996-28.01,22.663-35.01"/>
<path fill="none" stroke="#000000" stroke-width="3" stroke-linejoin="round" stroke-miterlimit="10" d="M1151.337,2018.676
	c0.619-12.112-2.298-19.503-11.746-27.309c-4.955-4.094-17.586-14.021-28.253-6.021"/>
<path fill="none" stroke="#000000" stroke-width="3" stroke-linejoin="round" stroke-miterlimit="10" d="M1069.337,1970.009
	c-10.337-7.676,3.724-18.046,5.996-16.342c4,3,8.531,0.426,12.333,1c4.794,0.724,7.45,3.872,0.338,7.346"/>
<path fill="none" stroke="#000000" stroke-width="3" stroke-linejoin="round" stroke-miterlimit="10" d="M1048,1980.667
	c-25.333-17.667,1.667-40.334,21.932-44.22c18.276-3.505,52.073,9.565,53.406,26.898c1.028,13.366-11.835,16.233-21.333,12.667"/>
<path fill="none" stroke="#000000" stroke-width="3" stroke-linejoin="round" stroke-miterlimit="10" d="M1062.671,2009.346
	c8.667-5.33,19.673-6.489,25.642,3.991c8.357,14.676-4.691,23.882-14.309,28.009c-18.83,8.08-54.565-1.137-55.333-28
	c-0.667-23.333,21.605-27.638,31.995-33.679c28.667-16.666,58.004-3.654,76.004,23.679c16.764,25.455,0.667,46-24,58"/>
<path fill="none" stroke="#000000" stroke-width="3" stroke-linejoin="round" stroke-miterlimit="10" d="M1061.337,2012.676
	c10.073,11.252-2.004,15.324-13.67,6.991c-9.947-7.104-3.024-16.604,5.333-22c17.991-11.615,42.678-7.021,50,13.333
	c4.77,13.257-2.666,25.667-19,25.667"/>
<path fill="none" stroke="#000000" stroke-width="3" stroke-linejoin="round" stroke-miterlimit="10" d="M991.337,2034.009
	c10.591-3.966,22.093-4.435,33.663-3.009"/>
<path fill="none" stroke="#000000" stroke-width="3" stroke-linejoin="round" stroke-miterlimit="10" d="M987.337,2027.343
	c0.084-10.646,3.404-17.749,10.667-25.997c6.862-7.791,20.667-13.333,24.667-16.666"/>
<path fill="none" stroke="#000000" stroke-width="3" stroke-linejoin="round" stroke-miterlimit="10" d="M931.338,2052.679
	c6.025-0.829,17.727-3.611,20,4c2.229,7.466-0.417,16.239-14.015,19.5c-15.985,3.833-40.985-3.367-43.318-24.833
	c-1.982-18.234,21.333-36.667,40-34c12.771-6.262,29.091-5.854,38.667-1.334c17.962,8.481,26.667,27.334,22,44.667"/>
<path fill="none" stroke="#000000" stroke-width="3" stroke-linejoin="round" stroke-miterlimit="10" d="M935.338,2059.346
	c-8.757,7.981-18.177,3.698-19.333-7.334c-1.267-12.085,11.885-20.4,22-21.333c24.51-2.259,39.686,19.432,24,38
	c-8.296,9.82-28,20-21.333,38"/>
<path fill="none" stroke="#000000" stroke-width="3" stroke-linejoin="round" stroke-miterlimit="10" d="M846.672,2047.346
	c15.333-12.667,28.431-14.395,48-8.667"/>
<path fill="none" stroke="#000000" stroke-width="3" stroke-linejoin="round" stroke-miterlimit="10" d="M888.667,2206.333
	c8.333,8.667,16.333,2,23.667-0.333"/>
<path fill="none" stroke="#000000" stroke-width="3" stroke-linejoin="round" stroke-miterlimit="10" d="M844.667,2233.667
	c14,10,18.333,20,9,31"/>
<path fill="none" stroke="#000000" stroke-width="3" stroke-linejoin="round" stroke-miterlimit="10" d="M984.671,2194.012
	c23.333-28.666,1.668-61.492-22.667-78c-11.722-7.952-22.766-9.29-34.667-9.333c-4-15.333-17.333-31.904-35.333-40
	c-11.059-4.975-38.68-12.188-49.867-1.401c7.201-8.599-4.979-22.03-16.963-30.875c-10.373-7.656-46.502-24.391-75.169-1.724"/>
<path fill="none" stroke="#000000" stroke-width="3" stroke-linejoin="round" stroke-miterlimit="10" d="M798,2228.333
	c31.879,17.968,79-3.333,92.667-27c6.112-10.584,11-30.333,5-41.667"/>
<path fill="none" stroke="#000000" stroke-width="3" stroke-linejoin="round" stroke-miterlimit="10" d="M773.333,2230
	c15-14,26.116-10.459,33-22c11.333-19,14-49-5-64"/>
<path fill="none" stroke="#000000" stroke-width="3" stroke-linejoin="round" stroke-miterlimit="10" d="M757.333,2256.666
	c5.667-8.333,15-12,15.667-18.333c1.25-11.871-8-17.667-13.667-24.667"/>
<path fill="none" stroke="#000000" stroke-width="3" stroke-linejoin="round" stroke-miterlimit="10" d="M769.667,2275.666
	c9.333-9,7.667-17.333,1.333-26"/>
<path fill="none" stroke="#000000" stroke-width="3" stroke-linejoin="round" stroke-miterlimit="10" d="M779.667,2096.333
	c2.679-12.122-4.843-22.111-12.667-30.333c-11.754-12.353-32.667-17.667-45.014-4.79c2.971-4.812-2.538-13.104-5.653-16.543
	c-5.787-6.386-15.779-11.208-23.333-14.334c-9.667-4-33-5-37,1.667"/>
<path fill="none" stroke="#000000" stroke-width="3" stroke-linejoin="round" stroke-miterlimit="10" d="M726.667,2046.666
	c6.511-2.316,15.667-8.333,19.333-21.666c2.294-8.342-1.549-21.464-5.667-29c-17.667-32.333-53.667-40.667-74.609-31.385
	c-4.937-15.716-22.083-22.275-37.058-24.282c-14.619-1.959-39.667-2.332-54.333,13.334"/>
<path fill="none" stroke="#000000" stroke-width="3" stroke-linejoin="round" stroke-miterlimit="10" d="M575.333,1956.667
	c-12.944-22.882-49.903-19.686-67.81-5.216c-7.337,5.929-13.176,14.86-11.857,24.549c-3.667-6.667-11.591-5.712-19-4.667
	c-26,3.667-46.667,31-42.899,56.042c3.019,20.063,17.955,38.737,39.912,38.714"/>
<path fill="none" stroke="#000000" stroke-width="3" stroke-linejoin="round" stroke-miterlimit="10" d="M517.667,2025.667
	c-17.165,8.9-39.333,17.333-42.667,38c-0.644,3.99-0.333,10.333,2,13.666"/>
<path fill="none" stroke="#000000" stroke-width="3" stroke-linejoin="round" stroke-miterlimit="10" d="M468,2069.333
	c-13.333,8-37.596,15.707-37.667,34c-0.015,3.743,2.333,11.667,7.333,15"/>
<path fill="none" stroke="#000000" stroke-width="3" stroke-linejoin="round" stroke-miterlimit="10" d="M683.667,2217.667
	c9.847-7.953,17.548-25.505,18.667-37.667c4.436-48.211-42-89.334-87.333-89.667c-6.97-0.051-22.333,1.333-33,9
	c-5.574,4.006-3.904,15.587,0.667,15"/>
<path fill="none" stroke="#000000" stroke-width="3" stroke-linejoin="round" stroke-miterlimit="10" d="M575,2155.333
	c7.051-1.963,13.288-1.237,15.874,6.526c2.162,6.489-0.735,11.686-6.649,14.609c-13.211,6.534-30.644,4.379-41.88-5.052
	c-12.227-10.261-12.395-26.346-2.5-38.299c9.188-11.099,24.165-17.64,38.361-18.709c15.393-1.16,31.888,5.813,43.894,15.07
	c12.751,9.832,20.688,24.581,21.692,40.844c1.543,25.01-21.791,30.343-30.457,40.677"/>
<path fill="none" stroke="#000000" stroke-width="3" stroke-linejoin="round" stroke-miterlimit="10" d="M588.333,2234.333
	c-35.008,20.334-133.008,10.334-115-51"/>
<path fill="none" stroke="#000000" stroke-width="3" stroke-linejoin="round" stroke-miterlimit="10" d="M456.333,2222.333
	c-25.675,11.667-47.533,14.147-77.313-3.68c-21.527-12.887-39.028-35.986-15.028-61.319"/>
<path fill="none" stroke="#000000" stroke-width="3" stroke-linejoin="round" stroke-miterlimit="10" d="M391.333,2271
	c-26.008,7.667-38.608,9.23-60.675-0.333c-26.54-11.501-49.034-36.679-35.333-65.333"/>
<path fill="none" stroke="#000000" stroke-width="3" stroke-linejoin="round" stroke-miterlimit="10" d="M264.667,2233.333
	c-17.34-2.665-27.074-4.932-38.007-21.332c-28-42,10.667-82,42.667-91.333"/>
<path fill="none" stroke="#000000" stroke-width="3" stroke-linejoin="round" stroke-miterlimit="10" d="M280.667,2133.333
	c-14.126-22.138,4.661-48.664,20.661-59.331c18.11-12.074,38.667-22,63.333-10.667"/>
<path fill="none" stroke="#000000" stroke-width="3" stroke-linejoin="round" stroke-miterlimit="10" d="M359.995,2062.669
	c0.667-34,58-56.667,76.672-31.002"/>
<path fill="none" stroke="#000000" stroke-width="3" stroke-linejoin="round" stroke-miterlimit="10" d="M352.667,1983.333
	c5.994,4.669,18.347,4.217,25.994,12.669c12.667,14,10.106,21.716,5.333,32"/>
<path fill="none" stroke="#000000" stroke-width="3" stroke-linejoin="round" stroke-miterlimit="10" d="M298.661,2000.002
	c22.667,11.333,28,42.667,5.339,57.331"/>
<path fill="none" stroke="#000000" stroke-width="3" stroke-linejoin="round" stroke-miterlimit="10" d="M224.66,2024.668
	c26,5.333,32,50.667,3.333,65.333"/>
<path fill="none" stroke="#000000" stroke-width="3" stroke-linejoin="round" stroke-miterlimit="10" d="M223.327,2089.335
	c6.667,1.333,15.618,6.69,18,15.333c2.795,10.14-4.07,18.523-1.333,28"/>
<path fill="none" stroke="#000000" stroke-width="3" stroke-linejoin="round" stroke-miterlimit="10" d="M78.66,2076.67
	c37.532,14.465,57.333,44.666,76.878,83.223c11.883,23.442,30.5,42.161,51.789,58.11c15.502,11.614,38.588,18.463,56.667,24.667
	c18.229,6.255,36,17.333,50.104,19.995c0.092,0.383-0.37-0.17-0.764-0.665"/>
<path fill="none" stroke="#000000" stroke-width="3" stroke-linejoin="round" stroke-miterlimit="10" d="M145.333,2191.333
	c5.781,4.504,22.583,19.43,31.327,25.337c24.667,16.666,46.667,30.666,78,40.666c23.895,7.626,40,14,60.007,19.997"/>
<path fill="none" stroke="#000000" stroke-width="3" stroke-linejoin="round" stroke-miterlimit="10" d="M72.667,1986.667
	c9.994,25.334,35.895,30.569,62.661,38.001c21.382,5.937,35.713,28.355,27.333,50.667c-3.62,9.639-15.333,20.666-22.661,24.665"/>
<path fill="none" stroke="#000000" stroke-width="3" stroke-linejoin="round" stroke-miterlimit="10" d="M138.661,2021.335
	c10.667,4,18.506,4.478,40,4c30-0.667,61.328-17.999,72-36"/>
<path fill="none" stroke="#000000" stroke-width="3" stroke-linejoin="round" stroke-miterlimit="10" d="M194.667,1932
	c4.663,18.001,20.853,0.482,19.33-9.999c-1.955-13.451-18.146-27.129-30.667-30.334c-35.704-9.14-72.214,16.128-55.333,59.667
	c16.885,43.551,78.268,48.254,114.003,27.333"/>
<path fill="none" stroke="#000000" stroke-width="3" stroke-linejoin="round" stroke-miterlimit="10" d="M245.33,1971.335
	c2.667,11.334,19.606,23.402,38,27.334c15.04,3.214,32.667-2,46.667-6c14.869-4.248,27.226-11.34,32-22.667"/>
<path fill="none" stroke="#000000" stroke-width="3" stroke-linejoin="round" stroke-miterlimit="10" d="M74,1921.333
	c-1.337-46.666,55.33-66.666,79.997-29.332"/>
<path fill="none" stroke="#000000" stroke-width="3" stroke-linejoin="round" stroke-miterlimit="10" d="M357.998,1949.334
	c4.667,17.334,30,18,51.335,0.666"/>
<path fill="none" stroke="#000000" stroke-width="3" stroke-linejoin="round" stroke-miterlimit="10" d="M403.999,1960.666
	c14.665-7.998,43.332-31.331,38.665-54.665c-13.437-67.184-70.667-63.333-88.667-61.333"/>
<path fill="none" stroke="#000000" stroke-width="3" stroke-linejoin="round" stroke-miterlimit="10" d="M354.666,1860.666
	c11.984-24.279-3.411-48.562-24.668-61.998c-16.958-10.719-40.667-10.667-55.333-6"/>
<path fill="none" stroke="#000000" stroke-width="3" stroke-linejoin="round" stroke-miterlimit="10" d="M241.998,1813.334
	c6.667-11.333,22.667-12,28-28c6.7-20.101-0.667-34.666-14.667-54.666c-18.452-26.359-53.333-33.334-69.333-19.334"/>
<path fill="none" stroke="#000000" stroke-width="3" stroke-linejoin="round" stroke-miterlimit="10" d="M77.331,1683.334
	c27.333-34.666,117.333-23.333,110.667,30.667"/>
<path fill="none" stroke="#000000" stroke-width="3" stroke-linejoin="round" stroke-miterlimit="10" d="M153.998,1780.668
	c14-15.334,46-4.667,53.333,12.666c18.806,9.079,24,27.334,8,42.667"/>
<path fill="none" stroke="#000000" stroke-width="3" stroke-linejoin="round" stroke-miterlimit="10" d="M207.331,1830.001
	c32-18,84.667,20,55.333,60"/>
<path fill="none" stroke="#000000" stroke-width="3" stroke-linejoin="round" stroke-miterlimit="10" d="M296.664,1882.668
	c24,6.666,36,26,15.333,49.333"/>
<path fill="none" stroke="#000000" stroke-width="3" stroke-linejoin="round" stroke-miterlimit="10" d="M209.99,1515.335
	c2.667-21.333,32.976-38.235,46-20c6.667,9.334-11.66,24.914-21.333,24.667c-17.132-0.438-36.667-16-62.667,11.333
	c-12.385,13.021-20.99,26.665-20.667,44c0.175,9.363,1.39,16.394-5.618,22.533C133,1609,130.5,1635,147.5,1630
	c7.75-2.279,17.021-10.226,24-11c9.869-1.095,18.368,2.848,27.823-1.665c13.851-6.609,25.747-22.226,38-11.333
	c12,10.667,38.177,21.498,69.333,11.333c24.855-8.109,27.488-26.253,44.344-41.335c16.4-14.675,64.323-9.331,28.324,17.336"/>
<path fill="none" stroke="#000000" stroke-width="3" stroke-linejoin="round" stroke-miterlimit="10" d="M221.323,1495.335
	c-2-18.666,10.667-32,20.021-40.662c16.665-15.433,25.629-16.494,48.646-16.004c29.451,0.628,56.667,23.333,80.886,34.708
	c22.978,10.792,52.585,15.366,77.534,13.728c19.768-1.299,41.765-17.055,50.247-33.77"/>
<path fill="none" stroke="#000000" stroke-width="3" stroke-linejoin="round" stroke-miterlimit="10" d="M244.656,1445.335
	c30.667-33.333,77.333-28.666,114-19.333c40.249,10.245,69.333,13.333,80.667,1.333"/>
<path fill="none" stroke="#000000" stroke-width="3" stroke-linejoin="round" stroke-miterlimit="10" d="M426.656,1406.669
	c-7.333,18-69.333,17.333-103.333,12"/>
<path fill="none" stroke="#000000" stroke-width="3" stroke-linejoin="round" stroke-miterlimit="10" d="M429.99,1487.335
	c-5.333,10-30,16.667-52.134,18.004c-8.199,0.495-16.383,3.066-9.2-4.67c8.667-9.334,28-8,36-6"/>
<path fill="none" stroke="#000000" stroke-width="3" stroke-linejoin="round" stroke-miterlimit="10" d="M380.656,1476.669
	c-30.854,10.33-57.333,18.666-73.33,49.329c10.663-6.663,13.996,8.671,45.33,14.004c17.201,2.928,41.36,1.961,58-3.333
	c39.25-12.489,61.333-28,82.001-66.666"/>
<path fill="none" stroke="#000000" stroke-width="3" stroke-linejoin="round" stroke-miterlimit="10" d="M373.323,1475.335
	c-39.978-2.951-77.333-0.666-104.666,36.668"/>
<path fill="none" stroke="#000000" stroke-width="3" stroke-linejoin="round" stroke-miterlimit="10" d="M284.657,1502.67
	c-12.016,11.339-28.258,19.621-22.001,37.999c10.667,31.333,68,34,92.001,26.001"/>
<path fill="none" stroke="#000000" stroke-width="3" stroke-linejoin="round" stroke-miterlimit="10" d="M505.99,1457.335
	c-8.667,31.334-30.541,69.724-64.327,90.701c-22.697,14.093-46.833,18.302-73.007,19.299"/>
<path fill="none" stroke="#000000" stroke-width="3" stroke-linejoin="round" stroke-miterlimit="10" d="M503.991,1462.003
	c16.7,26.14,2.5,60.612-13.923,81.948c-11.944,15.517-27.411,31.384-52.744,41.384c-20.963,8.275-36,3.334-55.333,10
	c20,14,53.997,18.055,80.667,12.667c28.019-5.66,49.351-17.569,68.034-31.199c16.633-12.134,38.633-54.134,47.966-83.468"/>
<path fill="none" stroke="#000000" stroke-width="3" stroke-linejoin="round" stroke-miterlimit="10" d="M601.324,1492.003
	C601.99,1514.002,569,1550,541.5,1574c0.51-2.002,1.5-10,1.5-10"/>
<path fill="none" stroke="#000000" stroke-width="3" stroke-linejoin="round" stroke-miterlimit="10" d="M642.66,1507.316
	C622.5,1529,591.653,1558.232,559,1575c-18.5,9.5-47.5,24.5-55,19.5"/>
<path fill="none" stroke="#000000" stroke-width="3" stroke-linejoin="round" stroke-miterlimit="10" d="M382.657,1596.67
	C371,1605,347,1606.5,333.5,1598.5"/>
<path fill="none" stroke="#000000" stroke-width="3" stroke-linejoin="round" stroke-miterlimit="10" d="M411.323,1346.002
	c2,27.333-46,44-60,52.667c-8.962,5.549-13.333,12.666-26,14"/>
<path fill="none" stroke="#000000" stroke-width="3" stroke-linejoin="round" stroke-miterlimit="10" d="M603.5,1544.5
	c3.853,4.563,10.294,5.427,14.919,8.631c-4.187,6.387-4.198,16.682,4.677,17.462c4.266,0.376,7.729-4.532,12.086-1.938
	c9.818,5.846,0.507,19.109,9.818,18.846c7.131-0.207,12.747-3.51,15,4c1.5,5,0,11,9,11c8.062,0,8,14.5,20.5,16"/>
<path fill="none" stroke="#000000" stroke-width="3" stroke-linejoin="round" stroke-miterlimit="10" d="M688.5,1524
	c4.5,5,13,15,18,21.5"/>
<path fill="none" stroke="#000000" stroke-width="3" stroke-linejoin="round" stroke-miterlimit="10" d="M638,1524
	c14,17,35,35,52,50"/>
<path fill="none" stroke="#000000" stroke-width="3" stroke-linejoin="round" stroke-miterlimit="10" d="M677.5,1459
	c0,9.5,44,31.5,68,51c3.115,2.53,58.5,40,80,47.5"/>
<path fill="none" stroke="#000000" stroke-width="3" stroke-linejoin="round" stroke-miterlimit="10" d="M840,1557
	c9-11.5,28.232-23.421,45-16c21.994,9.733,35.371,32.47,38.5,55c5,36,23.855,65.287,53.5,80.5c38,19.5,89,14.5,118.5-21.5
	c14.903-18.187,14.866-40.998,15.5-64c0.754-27.338-16.771-54.913-28-50c-8,3.5-19.5,19-32-1.5
	c-4.21-6.904,5.431-21.819,10.016-27.39c28.484-34.61,10.575-59.569-12.016-79.61c-19.78-17.548-43.645-27.723-69.5-31
	c-18.5,4-57.559,0.318-74.999,21.499c-2.396,2.909-16.75,6.384-11.441,10.986c-2.655,3.045-7.259,3.387-11.06,4.015"/>
<path fill="none" stroke="#000000" stroke-width="3" stroke-linejoin="round" stroke-miterlimit="10" d="M930.729,1459.543
	C958.5,1464,982.5,1472,996.5,1495.5c11.938,20.039,22,38.5,19,67c-10,6-13,15.5-20,17.5c-25.097,7.171-58.702-9.797-70.5-27"/>
<path fill="none" stroke="#000000" stroke-width="3" stroke-linejoin="round" stroke-miterlimit="10" d="M913.5,1458
	c23.189-8.407,54.484-8.773,75.077,5.772c30.829,21.777,48.651,53.408,54.923,87.728c1.85,10.119-2.5,21,0,30.5
	c3.17,12.047-26.009,34.119-36,33.5c-56.5-3.5-66.036-42.052-94-66.5c-9.234-8.074-19.973-8.832-32-12"/>
<path fill="none" stroke="#000000" stroke-width="3" stroke-linejoin="round" stroke-miterlimit="10" d="M1077.5,1481
	c11.887,0.64,18.308,26.081,20.5,34.5c3.203,12.299,3.5,24-8.5,35.5"/>
<path fill="none" stroke="#000000" stroke-width="3" stroke-linejoin="round" stroke-miterlimit="10" d="M711.5,1380
	c29.225,18.644,78,6,137.5,37c32.179,16.766,54.538,38.895,76.5,67c7.027,8.993,22.565,24.803,35,24
	c4.805-0.31,12.083-6.029,8.5-6.5c-6.218-0.817-1-5-7-10c-8.768-7.307-18.5-2-25.5-5"/>
<path fill="none" stroke="#000000" stroke-width="3" stroke-linejoin="round" stroke-miterlimit="10" d="M758,1595
	c10.5,22,42.5,25.5,64.5,14"/>
<path fill="none" stroke="#000000" stroke-width="3" stroke-linejoin="round" stroke-miterlimit="10" d="M758.5,1586
	c-8,2-12.5-1-14.026-8.823C746.5,1601.5,705,1578,703,1558.5c-0.539-5.256,4.5-12.5,7.5-17"/>
<path fill="none" stroke="#000000" stroke-width="3" stroke-linejoin="round" stroke-miterlimit="10" d="M708.5,1555.5
	c4.5,6,10.5,16,18,10.5"/>
<path fill="none" stroke="#000000" stroke-width="3" stroke-linejoin="round" stroke-miterlimit="10" d="M729,1565
	c-1.5-4.5-4.453-7.596-3.5-9.5"/>
<path fill="none" stroke="#000000" stroke-width="3" stroke-linejoin="round" stroke-miterlimit="10" d="M712.5,1542
	c4.5,10.5,11.151,13.261,23.5,13c10.426-0.22,17.101,5.708,25,11.5c7.5,5.5,23.088-3.707,34.5-6.5c13.497-3.304,43.14-2.945,57-0.5
	c25.554,4.51,54,17,63.5,22"/>
<path fill="none" stroke="#000000" stroke-width="3" stroke-linejoin="round" stroke-miterlimit="10" d="M749,1591
	c-8.5,23.5,10.958,55.083,37,65.5c45,18,60.317-8.688,99-1c17.53,3.483,43,11.5,61,0"/>
<path fill="none" stroke="#000000" stroke-width="3" stroke-linejoin="round" stroke-miterlimit="10" d="M697,1574.5
	c2,5.5,18.5,15.5,20,4.5"/>
<path fill="none" stroke="#000000" stroke-width="3" stroke-linejoin="round" stroke-miterlimit="10" d="M695,1589
	c10.5,9,16.5,10,21,0"/>
<path fill="none" stroke="#000000" stroke-width="3" stroke-linejoin="round" stroke-miterlimit="10" d="M693.5,1578
	c-3.5,9.5-2.807,18.419,3.5,26c5.842,7.022,16.225,11.571,24.902,7.775c4.393-1.922,7.709-5.008,8.098-9.775
	c4.391,1.639,12.66,2.301,16,5"/>
<path fill="none" stroke="#000000" stroke-width="3" stroke-linejoin="round" stroke-miterlimit="10" d="M696,1607
	c-3,11,3.5,19.5,11.5,24.5c4.013,2.508,12.653,3.526,17,1.5c4.631-2.158,9.5-8.5,12.5-9c5.864-0.978,12,3,13.5-4.5"/>
<path fill="none" stroke="#000000" stroke-width="3" stroke-linejoin="round" stroke-miterlimit="10" d="M706,1636
	c5,7.5,12,14,19.5,16c10.969,2.925,16.845-1.211,20.5-10.5c2.867-7.286,12.5-1,10.5-8.5"/>
<path fill="none" stroke="#000000" stroke-width="3" stroke-linejoin="round" stroke-miterlimit="10" d="M727,1653
	c3,11,15,18,25.5,18.5c8.722,0.415,6.84-10.03,15-17.5c3.239-2.965,7.5,2.5,8.5-3.5"/>
<path fill="none" stroke="#000000" stroke-width="3" stroke-linejoin="round" stroke-miterlimit="10" d="M798,1559
	c-27.916-9.707-64.181-20.099-92-30c-59-21-112.688-36.066-169-61c-40.043-17.729-91.277-34.895-111-78
	c-13.437-29.364,0.904-56.456,18.257-80.756C458,1290,492,1276,516,1290"/>
<path fill="none" stroke="#000000" stroke-width="3" stroke-linejoin="round" stroke-miterlimit="10" d="M826,1406
	c-20-22-51-44-80-60c-39.566-21.83-88-24-123-16c-51.178,11.698-55.315-0.509-83-25c-26-23-58-73-109-47
	c-35.567,18.132-31,71-10,100"/>
<path fill="none" stroke="#000000" stroke-width="3" stroke-linejoin="round" stroke-miterlimit="10" d="M429.333,1293.333
	c9.333,5.333,12.667-10.667,34-15.333c15.804-3.457,32,0,46,6.667"/>
<path fill="none" stroke="#000000" stroke-width="3" stroke-linejoin="round" stroke-miterlimit="10" d="M585.333,1320
	c-4.171,6.228-0.35,9,3.333,13.333"/>
<path fill="none" stroke="#000000" stroke-width="3" stroke-linejoin="round" stroke-miterlimit="10" d="M636,1327.333
	c-18,2-53.371-44.75-75.333-63.333c-17.333-14.667-41.804-26.016-63.182-30.751c-12.131-2.687-46.152,4.084-52.152,17.417"/>
<path fill="none" stroke="#000000" stroke-width="3" stroke-linejoin="round" stroke-miterlimit="10" d="M670,1325.333
	c-32.667-8.667-78.667-85.333-124.233-92.653c-12.355-1.985-38.549-14.598-45.767,1.319"/>
<path fill="none" stroke="#000000" stroke-width="3" stroke-linejoin="round" stroke-miterlimit="10" d="M612.667,1252.667
	c-25.333-21.333-48.667-20-67.333-21.333"/>
<path fill="none" stroke="#000000" stroke-width="3" stroke-linejoin="round" stroke-miterlimit="10" d="M626.667,1228.667
	c-25.436-12.718-51.333-14-83.333-6.667c-4.946,1.133-16.217-5.769-17.333,2"/>
<path fill="none" stroke="#000000" stroke-width="3" stroke-linejoin="round" stroke-miterlimit="10" d="M538.667,1220
	c12-7.333,15.214-34.563,49.368-37.252C606,1181.333,646.667,1190,656,1198.667c12.33,11.449,23.853,12.097,46.667,12
	c23.165-0.099,48.667-8,65.333-19.333"/>
<path fill="none" stroke="#000000" stroke-width="3" stroke-linejoin="round" stroke-miterlimit="10" d="M1017.999,1350.667
	c-6.667,5.333-7.333,10-16.667,16c-27.8,17.871-87.333,20-130.667,14c-83.794-11.603-136.996-50.755-180.804-121.494
	c-9.738-15.724-14.914-32.307-17.196-50.506"/>
<path fill="none" stroke="#000000" stroke-width="3" stroke-linejoin="round" stroke-miterlimit="10" d="M1023.332,1356.667
	c-6.667,2.667-13.439,16.578-19.977,24.452c-9.424,11.351-24.69,19.549-35.357,20.882"/>
<path fill="none" stroke="#000000" stroke-width="3" stroke-linejoin="round" stroke-miterlimit="10" d="M884.666,1384
	c6.667,10.667,30.667,22,50,21.333"/>
<path fill="none" stroke="#000000" stroke-width="3" stroke-linejoin="round" stroke-miterlimit="10" d="M1026.666,1362
	c0.019,18.616-2.667,30.667-23.333,46"/>
<path fill="none" stroke="#000000" stroke-width="3" stroke-linejoin="round" stroke-miterlimit="10" d="M829.332,1372.667
	c15.333,21.333,51.333,52,70.667,47.333"/>
<path fill="none" stroke="#000000" stroke-width="3" stroke-linejoin="round" stroke-miterlimit="10" d="M748.5,1300
	c14.5-9,15.5-71,35-91"/>
<path fill="none" stroke="#000000" stroke-width="3" stroke-linejoin="round" stroke-miterlimit="10" d="M731.5,1314
	c16.897,1.838,47-8.5,45-20c-2.025-11.647-4.166-32.796-1-44.5c5.071-18.747,12.5-31,17.5-40.5"/>
<path fill="none" stroke="#000000" stroke-width="3" stroke-linejoin="round" stroke-miterlimit="10" d="M771.5,1210
	c-12.832,11.5-16.089,28.899-19.5,50.5c-3,19-17,36.5-31.5,41"/>
<path fill="none" stroke="#000000" stroke-width="3" stroke-linejoin="round" stroke-miterlimit="10" d="M847,1217.5
	c20,14,29.5,73.5,36.332,77.167"/>
<path fill="none" stroke="#000000" stroke-width="3" stroke-linejoin="round" stroke-miterlimit="10" d="M837.332,1213.333
	C853.5,1237,865.5,1281.5,858.1,1303.896c-0.37,1.119,27.9-3.896,68.4,18.604c-13.5-12-22.982-33.305-32.5-51.5
	c-12.502-23.901-27-53.5-42.001-65"/>
<path fill="none" stroke="#000000" stroke-width="3" stroke-linejoin="round" stroke-miterlimit="10" d="M745.332,1192
	c-12,5.333-50.667,18.667-80,4"/>
<path fill="none" stroke="#000000" stroke-width="3" stroke-linejoin="round" stroke-miterlimit="10" d="M926.666,1178.667
	c-34,4-50,18.667-118,16c-79.298-3.109-90-28.667-125.333-28.667"/>
<path fill="none" stroke="#000000" stroke-width="3" stroke-linejoin="round" stroke-miterlimit="10" d="M579.332,1144
	c8,15.333,36.667,41.333,69.333,43.333c27.314,1.672,64.667,8,99.333-1.333"/>
<path fill="none" stroke="#000000" stroke-width="3" stroke-linejoin="round" stroke-miterlimit="10" d="M873.999,1189.333
	c22.667,13.333,59.386,12.978,92,7.333c34.667-6,58-40.667,56-72.667"/>
<path fill="none" stroke="#000000" stroke-width="3" stroke-linejoin="round" stroke-miterlimit="10" d="M1011.999,1100.667
	c20,21.333,3.106,42.622-11.333,48.667c-26.642,11.152-66.479,1.782-92.667-5.333c-56.505-15.352-106.612-41.187-166.258-36.992
	c-34.791,2.447-67.855,12.188-99.742,22.992c-18.188,6.163-37.333,17.333-52,10c-9.544-4.772-20-21.333-4-38"/>
<path fill="none" stroke="#000000" stroke-width="3" stroke-linejoin="round" stroke-miterlimit="10" d="M619.999,1153.333
	c12.839-11.084,42.129-20.931,58-24.667c28.49-6.707,44.324-10.668,74-11.333"/>
<path fill="none" stroke="#000000" stroke-width="3" stroke-linejoin="round" stroke-miterlimit="10" d="M639.999,1151.333
	c52.667-25.333,117.376-41.121,234.667,2.667c13.927,5.199,52.667,18.667,64,13.333"/>
<path fill="none" stroke="#000000" stroke-width="3" stroke-linejoin="round" stroke-miterlimit="10" d="M785.999,1129.333
	c1.333-2.667,4-14,4-19.333"/>
<path fill="none" stroke="#000000" stroke-width="3" stroke-linejoin="round" stroke-miterlimit="10" d="M805.332,1122
	c14.667,6,34,7.333,71.333,22c9.362,3.678,44,15.333,57.333,17.333c14.014,2.102,26.4,8.433,25.956,13.283
	c-1.289,14.051-11.289,15.384-19.956,18.717"/>
<path fill="none" stroke="#000000" stroke-width="3" stroke-linejoin="round" stroke-miterlimit="10" d="M864.666,1197.333
	c18.667,8.667,68.667,24,96.667,0"/>
<path fill="none" stroke="#000000" stroke-width="3" stroke-linejoin="round" stroke-miterlimit="10" d="M980.666,1192
	c-9.333,32.667-81.333,33.333-120.667,12"/>
<path fill="none" stroke="#000000" stroke-width="3" stroke-linejoin="round" stroke-miterlimit="10" d="M863,1196
	c-9,16-46.5,28.5-71.5,12"/>
<path fill="none" stroke="#000000" stroke-width="3" stroke-linejoin="round" stroke-miterlimit="10" d="M839,1194.5
	c-6.5,12-22.5,17-36,18.5"/>
<path fill="none" stroke="#000000" stroke-width="3" stroke-linejoin="round" stroke-miterlimit="10" d="M808.666,1194.667
	C799.5,1213,762,1211.5,747.5,1207.5"/>
<path fill="none" stroke="#000000" stroke-width="3" stroke-linejoin="round" stroke-miterlimit="10" d="M793.5,1193.5
	c-4.5,3.5-16.166,10.333-23.5,12"/>
<path fill="none" stroke="#000000" stroke-width="3" stroke-linejoin="round" stroke-miterlimit="10" d="M625.5,1154.5
	c7,10.5,37,28.5,40.5,33"/>
<path fill="none" stroke="#000000" stroke-width="3" stroke-linejoin="round" stroke-miterlimit="10" d="M975.227,1146.958
	C996,1142,1005.638,1128.877,1010.5,1107c4-18,0-40.5-13.273-52.042"/>
<path fill="none" stroke="#000000" stroke-width="3" stroke-linejoin="round" stroke-miterlimit="10" d="M1053,1243
	c9-36.5-17.125-65.228-39-86"/>
<path fill="none" stroke="#000000" stroke-width="3" stroke-linejoin="round" stroke-miterlimit="10" d="M1022,1139.5
	c21,3,40.427,18.319,48.623,38.452c10.037,24.655,10.173,41.92-6.123,61.548c-15.512,18.684-50.5,43-55.5,69
	c-4.66,24.233,17.312,50.061,27.731,69.759c7.269,13.741,8.131,29.731,0.269,46.241"/>
<path fill="none" stroke="#000000" stroke-width="3" stroke-linejoin="round" stroke-miterlimit="10" d="M1063,1163
	c0.896-1.099,2.008-1.87,2.609-3.462c11.437,16.569,21.047,27.407,26.891,46.962c13,43.5-5.5,75-23,109.5
	c-13.82,27.245-2.902,62.346-1,84.5c1.928,22.455-0.5,44-7.5,63.5"/>
<path fill="none" stroke="#000000" stroke-width="3" stroke-linejoin="round" stroke-miterlimit="10" d="M1073.5,1411
	c5-33.5,10-45.5,19.5-78c6.713-22.966,2.5-44,4.5-66"/>
<path fill="none" stroke="#000000" stroke-width="3" stroke-linejoin="round" stroke-miterlimit="10" d="M1080,1177
	c47,27.5,71.798,80.728,75.5,138c2.794,43.236-4.5,91.5-28.5,123.5c-13.016,17.354-26.5,28.5-42,41"/>
<path fill="none" stroke="#000000" stroke-width="3" stroke-linejoin="round" stroke-miterlimit="10" d="M1192,1340.5
	c-4.5-22.5-6.511-53.744-18-78c-13.5-28.5-41.5-66-77.5-79"/>
<path fill="none" stroke="#000000" stroke-width="3" stroke-linejoin="round" stroke-miterlimit="10" d="M1075,1173
	c15.5,2,19.629-1.202,27.5-1c39,1,85.644,11.638,116,49c26,32,48,98,36.5,186c-6.722,51.433-27.5,126.5-64.5,154.5
	c-14.375,10.879-9.318,16.214-21,22.5c-19.097,10.276-35.705,17.057-58,8"/>
<path fill="none" stroke="#000000" stroke-width="3" stroke-linejoin="round" stroke-miterlimit="10" d="M1105,1561.5
	c3-3,6.938-7.605,4-10.5c15.358,9.958,32.245,2.935,45.5-5.5c11-7,14.618-15.148,22-23c23.5-1.5,49.157-78.534,58-122.5
	c11.076-55.071,6.5-134-10.5-158"/>
<path fill="none" stroke="#000000" stroke-width="3" stroke-linejoin="round" stroke-miterlimit="10" d="M1072,1167.5
	c34.5-10,115-22.5,192.129,29.892c21.448,14.569,35.358,36.1,39.371,56.608c8.921,45.593-28.985,92.98-24.002,128.478
	c7.002-0.978,22.002-15.485,32.502-15.978c32-1.5,56.5,71,24.5,139.5c-7.567,16.199-15.112,31.136-27.436,44.025
	C1296.689,1562.971,1285,1579.5,1268.5,1585"/>
<path fill="none" stroke="#000000" stroke-width="3" stroke-linejoin="round" stroke-miterlimit="10" d="M1248,1590.5
	c-22.5,13-35.853,10.209-45,5.5c-5.223-2.688-9.146-3.587-13.486,1.221c-8.392,9.293-10.896,20.758-16.514,31.779
	c-13,25.5-35,29-74.5,21.5"/>
<path fill="none" stroke="#000000" stroke-width="3" stroke-linejoin="round" stroke-miterlimit="10" d="M1333.5,1512
	c-6,8.5-17.813,16.286-24.5,28c-6.275,10.991-10.915,19.677-21.5,27.5c-11.5,8.5-28.799,12.729-39.5,24.5
	c-10,11-23.158,24.984-36.8,34.378C1196.5,1636.5,1183,1638.5,1169,1637"/>
<path fill="none" stroke="#000000" stroke-width="3" stroke-linejoin="round" stroke-miterlimit="10" d="M1022.092,1125.106
	C1136.086,1140.105,1247,1179,1325,1185c41.423,14.897,138.266,19.327,191,13c53.01-6.36,81.868-8.51,111-9
	c18.726-0.314,37.566-0.087,63-4c44.908-16.373,105-142,24-162"/>
<path fill="none" stroke="#000000" stroke-width="3" stroke-linejoin="round" stroke-miterlimit="10" d="M978,960
	c9.287,5.174,17.432,13.485,27,16.5c36.5,11.5,57.5,12.5,139.5,43c54.252,20.179,132.5,43.5,158.5,60"/>
<path fill="none" stroke="#000000" stroke-width="3" stroke-linejoin="round" stroke-miterlimit="10" d="M1283,1097
	c30-50.5,166-23.5,244.5,1.5c39.507,12.582,72.989,23.042,87.5,27c5.5,1.5,13,2.5,14-2.5"/>
<path fill="none" stroke="#000000" stroke-width="3" stroke-linejoin="round" stroke-miterlimit="10" d="M1637,1152.333
	c-11.333-7.333-9.411-24.609-7.333-35c5-25,19.333-57.333,27-67.667c6.219-11.968,9-24.333,21-32.667
	c-1-4.333,4.333-13.667,12-16.667c10.824-4.235,24-7,24.333-22.667c10.742,0.316,14.333,3.667,14.633,12.801
	c0.239,7.291-4.892,15.143-8.633,21.199c-7,11.333-26.666,20-26.333,6.333"/>
<path fill="none" stroke="#000000" stroke-width="3" stroke-linejoin="round" stroke-miterlimit="10" d="M1683.333,1043.667
	c5.123-2.018,22.667-12.333,11.667-19.667"/>
<path fill="none" stroke="#000000" stroke-width="3" stroke-linejoin="round" stroke-miterlimit="10" d="M1687,1074
	c12.667-3.667,15-31.667,7.667-36.333"/>
<path fill="none" stroke="#000000" stroke-width="3" stroke-linejoin="round" stroke-miterlimit="10" d="M1689,1083
	c3.667-1.333,6.829-10.959,6.333-16.333"/>
<path fill="none" stroke="#000000" stroke-width="3" stroke-linejoin="round" stroke-miterlimit="10" d="M1725.333,1069.667
	c-8.933,11.018-19.333,22.667-10.666,33.667"/>
<path fill="none" stroke="#000000" stroke-width="3" stroke-linejoin="round" stroke-miterlimit="10" d="M1681.667,1008
	c-3.334-23,5.708-48.431,18.666-64c11.877-14.269,27.167-22.64,35.667-33c3.715-4.527,2.097-16.186,7-16.667
	c17-1.667,13.159,18.775,10.333,26c-3.411,8.722-19,37.667-26.333,19.667"/>
<path fill="none" stroke="#000000" stroke-width="3" stroke-linejoin="round" stroke-miterlimit="10" d="M1727.667,941
	c-0.666,4.667,0.666,7,2.044,7.333c-9.711,8.334-8.429,24.347-15.711,24.334"/>
<path fill="none" stroke="#000000" stroke-width="3" stroke-linejoin="round" stroke-miterlimit="10" d="M1730.667,926
	c4.334-2.667,5.666-6.333,9-3c2.917,2.917,8.199-13.444,7.666-16"/>
<path fill="none" stroke="#000000" stroke-width="3" stroke-linejoin="round" stroke-miterlimit="10" d="M1759,905.667
	c4.333-6,7-18.333,14.667-29c17.825,5.216,15.682,27.35,9.999,41c-3.187,7.653-10.459,20.177-15.999,26.333
	c-6,6.667-15.667,11.333-9.667-0.667"/>
<path fill="none" stroke="#000000" stroke-width="3" stroke-linejoin="round" stroke-miterlimit="10" d="M1757,950.333
	c-3.565,15.073-11.667,29.667-18.333,34c-2.184,1.419-0.064,14.549-6.472,25.749c-3.195,5.585-4.528,15.251-4.195,18.585"/>
<path fill="none" stroke="#000000" stroke-width="3" stroke-linejoin="round" stroke-miterlimit="10" d="M1736.333,1041.333
	c5.334-4.333,6.412-11.554,10.334-21.333c3.212-8.007,7.017-16.697,5.666-23c4-1.333,6.308-5.016,13-15.333
	c8-12.333,8.334-18.667,4.667-22c8.667,1,12.984-8.896,18.333-18.667c4.413-8.062,17-29.333,2.667-34.333"/>
<path fill="none" stroke="#000000" stroke-width="3" stroke-linejoin="round" stroke-miterlimit="10" d="M1796,929.333
	c5.667,4.333,3.732,18.442-0.667,28.667c-4.186,9.724-8.666,16-12.666,16.333c1.333,10.667-4.418,20.052-7,24
	c-3.041,4.648-9.667,12.667-10.667,14c-1.333,1.667-0.259,13.265-2.667,18.667c-2.181,4.891-4.619,9.102-4.333,10
	c2.333,7.333-3.667,13.333-6.667,16.667"/>
<path fill="none" stroke="#000000" stroke-width="3" stroke-linejoin="round" stroke-miterlimit="10" d="M1762.667,914.667
	c7.666-3,14.07-15.379,14-24.667"/>
<path fill="none" stroke="#000000" stroke-width="3" stroke-linejoin="round" stroke-miterlimit="10" d="M1703,996
	c3.333,13,8,0.667,12,4.667c4.055-1.663,5.13-9.198,6.333-13.333"/>
<path fill="none" stroke="#000000" stroke-width="3" stroke-linejoin="round" stroke-miterlimit="10" d="M915,1112
	c7-4.5,9.05,12.968-0.878,9.466C906.498,1118.776,907,1110,915.5,1110"/>
<path fill="none" stroke="#000000" stroke-width="3" stroke-linejoin="round" stroke-miterlimit="10" d="M796.5,1070.5
	c-2,17,4.5,39.5,23,45.5"/>
<path fill="none" stroke="#000000" stroke-width="3" stroke-linejoin="round" stroke-miterlimit="10" d="M742,1065.5
	c-3,21-21,42.5-34.5,46.5"/>
<path fill="none" stroke="#000000" stroke-width="3" stroke-linejoin="round" stroke-miterlimit="10" d="M639,1071.5
	c-6,5.5-1,15,5.5,15c10.994,0,5.5-11.5-4.5-11.5"/>
<path fill="none" stroke="#000000" stroke-width="3" stroke-linejoin="round" stroke-miterlimit="10" d="M634,1132
	c-50.5-6-86.297-81.65-76.5-131c13.5-68,57-97.5,42-118.5C553.205,817.687,476,776,371,663c-24.446-26.308-109-129-141-186
	c-35-45-35-90,1.822-139.993C256.274,303.809,308,288,327,323"/>
<path fill="none" stroke="#000000" stroke-width="3" stroke-linejoin="round" stroke-miterlimit="10" d="M914.5,755
	c-31.5,6.5-59.5,32.5-70,65C829.855,865.33,858,925.5,874,931.5"/>
<path fill="none" stroke="#000000" stroke-width="3" stroke-linejoin="round" stroke-miterlimit="10" d="M883,889.5
	c-19,4.5-12.26,41.46,0.545,59.608C892.074,961.196,908,969,919,967c6.851-1.246,14,2.5,18.5-11.5"/>
<path fill="none" stroke="#000000" stroke-width="3" stroke-linejoin="round" stroke-miterlimit="10" d="M906.5,868
	c5.129,9.114,20,17,29.5,3"/>
<path fill="none" stroke="#000000" stroke-width="3" stroke-linejoin="round" stroke-miterlimit="10" d="M826.5,861.5
	c-3,16,7.674,36.127,19,42.5"/>
<path fill="none" stroke="#000000" stroke-width="3" stroke-linejoin="round" stroke-miterlimit="10" d="M804,864
	c-5,20,16.5,51,42.5,54"/>
<path fill="none" stroke="#000000" stroke-width="3" stroke-linejoin="round" stroke-miterlimit="10" d="M781,869.5
	c-1.5,38.5,36.5,72,76,65.5"/>
<path fill="none" stroke="#000000" stroke-width="3" stroke-linejoin="round" stroke-miterlimit="10" d="M932.5,898.5
	c-0.429-0.041-4.793-2.956-4.911-4.915L932,890.5c6,8-5.5,22,12,45.5c2.821,3.788,7.243,10.299,14,10.75
	c11.25,0.75-2.86-10.463-5.25-14c-3.906-5.781-3.714-8.497-3.25-9.75c0.705-1.901-3.5-4.063-7.25-5.75"/>
<path fill="none" stroke="#000000" stroke-width="3" stroke-linejoin="round" stroke-miterlimit="10" d="M1044,951.5
	c-2.75,6.75-21.25,8.5-30.5,9c-26.231,1.418-44.491-0.768-67-6.75c0,0,2.141-1.764,3-2.75c-2.815-0.031-6.2-0.039-8.82-1.077
	C928.25,945,926.25,929,930.5,921.75"/>
<path fill="none" stroke="#000000" stroke-width="3" stroke-linejoin="round" stroke-miterlimit="10" d="M1140,866.75
	c-6.75,33-33.5,52.25-50.5,64.75c-10.113,7.436-26.749,15.708-38,21.5"/>
<path fill="none" stroke="#000000" stroke-width="3" stroke-linejoin="round" stroke-miterlimit="10" d="M1061,959
	c-13.75,3-10.736-11.17-10.537-19.412c0.271-11.202-6.213-18.338-16.713-22.838"/>
<path fill="none" stroke="#000000" stroke-width="3" stroke-linejoin="round" stroke-miterlimit="10" d="M1032.5,919
	c1.183,7.307,0.391,14.579,3,21.75c2.305,6.333,9.061,10.395,15,12.5"/>
<path fill="none" stroke="#000000" stroke-width="3" stroke-linejoin="round" stroke-miterlimit="10" d="M1057,950
	c8.25-9.25-0.25-21-4.75-31"/>
<path fill="none" stroke="#000000" stroke-width="3" stroke-linejoin="round" stroke-miterlimit="10" d="M1083.5,936.5
	c8.843-9.624-1.558-25.357-10.5-30.5"/>
<path fill="none" stroke="#000000" stroke-width="3" stroke-linejoin="round" stroke-miterlimit="10" d="M1079,896.5
	c-7.42,9.277-24.5,18.25-35.563,17.813c-6.979-0.276-12.937-8.313-4.687-13.313"/>
<path fill="none" stroke="#000000" stroke-width="3" stroke-linejoin="round" stroke-miterlimit="10" d="M1035.75,911.75
	c-6,10.5-22,26.75-28.75,23c-0.5,5.25-6.5,8.25-7.75,9.75c-5.75,9.25-17.429,6.219-18.5-4c-0.358-3.417-0.75-7.5,0.25-10.75
	c0.978-3.179-4.668-6.069-6.276-8.897c-4.796-8.438,0.276-15.603,5.526-19.103c4.25,2.25,5.181,7.243,6.25,8.25"/>
<path fill="none" stroke="#000000" stroke-width="3" stroke-linejoin="round" stroke-miterlimit="10" d="M980.082,939.465
	c-5.75,4.25-10,3.027-13.082,5.035"/>
<path fill="none" stroke="#000000" stroke-width="3" stroke-linejoin="round" stroke-miterlimit="10" d="M1053.25,863
	c3.58-12.953,5.111-22.796-3-33.5c-9.535-12.584-28.639-23.35-28-41"/>
<path fill="none" stroke="#000000" stroke-width="3" stroke-linejoin="round" stroke-miterlimit="10" d="M995.25,823.5
	c-0.75,7,17.317,12.538,27.5,31.5c7.25,13.5,1.75,23,6.75,30c-2.5,2.75-6.5,6.5-8.5,8"/>
<path fill="none" stroke="#000000" stroke-width="3" stroke-linejoin="round" stroke-miterlimit="10" d="M973.5,812.5
	c-0.75,20,11.4,21.996,24.25,29.75c12.917,7.795,23.75,23.25,17.25,48.5c-1-6.5-11.317-15.687-15.75-20.5
	c-8.75-9.5-12.5-24.25-9.5-32.5"/>
<path fill="none" stroke="#000000" stroke-width="3" stroke-linejoin="round" stroke-miterlimit="10" d="M489,671
	c9.5-5,17.978-9.378,18.738-17.399C509.5,635,490.756,601.751,463,574.5c-55-54-137.5-117-173.5-135.514"/>
<path fill="none" stroke="#000000" stroke-width="3" stroke-linejoin="round" stroke-miterlimit="10" d="M277,441.5
	c18-1,25-17,32.105-26.423c7.946-10.538,19.636-32.934,26.895-47.577c11.026-22.242,27.505-38.977,17-62c-6.884-15.087-5.5-31-1-43
	c-25.5-0.5-25,41-21,45c6.5,10,10,7,12-0.5"/>
<path fill="none" stroke="#000000" stroke-width="3" stroke-linejoin="round" stroke-miterlimit="10" d="M503.5,626.5
	c37.339,21.236,70.407,48.334,104,70c38.382,24.754,77.068,43.912,117,65C769,785,827,785.5,873,750"/>
<path fill="none" stroke="#000000" stroke-width="3" stroke-linejoin="round" stroke-miterlimit="10" d="M1267.25,1025.75
	c52.5-47.75,54.75-147,34.5-195.75c-39.556-95.227-108.587-166.194-193-183.25c-21.003-4.243-39.779-3.901-61.5-4.25
	c-1.249-0.02,8.5,3.259,7.25,3.25c-71-0.5-132.479,26.034-190.5,44.25c-64.5,20.25-144.25,8-188-46.25
	c-30.117-37.345-47.5-90.75-37.5-138.25"/>
<path fill="none" stroke="#000000" stroke-width="3" stroke-linejoin="round" stroke-miterlimit="10" d="M578,460
	c8,39,8.5,83,19,122.5c17.028,64.057,56.5,114,113,146.5c57.956,33.337,144.432,18.767,213.5-5.5
	c55.5-19.5,93.572-21.65,143.024-9.101C1128,730,1190.5,794.5,1114,814"/>
<path fill="none" stroke="#000000" stroke-width="3" stroke-linejoin="round" stroke-miterlimit="10" d="M1133.5,823
	c15-7.5,36-31,26-57.5c-17.871-47.359-70.25-65.179-98-68.5c-37.765-4.52-67.769-3.565-104.5,6c-48,12.5-101.616,33.119-151,34.5
	c-71.5,2-132-34.5-165-82c-38.235-55.035-40-121-47-181.5"/>
<path fill="none" stroke="#000000" stroke-width="3" stroke-linejoin="round" stroke-miterlimit="10" d="M1123.75,815.5
	c7.5,31.5,15.329,61.171,40.75,87.5c35,36.25,70.146,46.576,91,63c10.511,8.278,22.209,26.44,21.25,40.25
	c-0.42,6.042-1.25,13.75-11.25,15.25"/>
<path fill="none" stroke="#000000" stroke-width="3" stroke-linejoin="round" stroke-miterlimit="10" d="M720.667,679.333
	c-47.667-69-38.98-140.816-18-188"/>
<path fill="none" stroke="#000000" stroke-width="3" stroke-linejoin="round" stroke-miterlimit="10" d="M743.333,690.333
	c-17-16-34.891-55.949-39.333-87.333c-2.937-20.746-6.667-56,3.333-85c3.333,15.667,15.325,41.851,31.332,48.667"/>
<path fill="none" stroke="#000000" stroke-width="3" stroke-linejoin="round" stroke-miterlimit="10" d="M859.999,690.667
	c-62.667,0.667-113.333-29.333-122.667-79.333c-4.035-21.617,0.015-42.924,8-55.333c-20-20.667-45.333-52-44-77.333"/>
<path fill="none" stroke="#000000" stroke-width="3" stroke-linejoin="round" stroke-miterlimit="10" d="M651,511.5
	c-16.5-4.5-33.887-24.659-57-37.5c-13.5-7.5-21-20.5-25-31.5"/>
<path fill="none" stroke="#000000" stroke-width="3" stroke-linejoin="round" stroke-miterlimit="10" d="M635.983,522.981
	C628,516.5,607,505,595.5,491.5"/>
<path fill="none" stroke="#000000" stroke-width="3" stroke-linejoin="round" stroke-miterlimit="10" d="M333,310
	c-3,8.5-4,23.5,7,18.5"/>
<path fill="none" stroke="#000000" stroke-width="3" stroke-linejoin="round" stroke-miterlimit="10" d="M303.5,345
	c-1-8.5,23.15-19.422,27.5-22.5"/>
<path fill="none" stroke="#000000" stroke-width="3" stroke-linejoin="round" stroke-miterlimit="10" d="M340,361
	c17.5-12.5,38.493-27.754,47-50.5c8.472-22.651,7.157-43.718,7.5-67c0.143-9.665,5-23.5,10.5-28.5"/>
<path fill="none" stroke="#000000" stroke-width="3" stroke-linejoin="round" stroke-miterlimit="10" d="M356,310.5
	c0.5-3,6.067-8.83,9.5-11.5c4.5-3.5,7.5-30,15-34.5c-15-7-0.634-41.041,7-47.5c6.5-5.5,13-6,15,0"/>
<path fill="none" stroke="#000000" stroke-width="3" stroke-linejoin="round" stroke-miterlimit="10" d="M392,222
	c-2.5,7.5-4.5,18-4.411,21.438c2-1.143,3.581-3.295,6.411-2.938"/>
<path fill="none" stroke="#000000" stroke-width="3" stroke-linejoin="round" stroke-miterlimit="10" d="M386,217
	c-2-8,6-24.5,7-34.5c-22-1.5-25.286,17.606-28,27.5c-2.146,7.818-6.5,23-0.5,29c-8,5.5-7.5,22-12.5,27"/>
<path fill="none" stroke="#000000" stroke-width="3" stroke-linejoin="round" stroke-miterlimit="10" d="M385,215.5
	c-4.824-5.059-4.089-23.072,3-26c0.572,1.376,1.995,5.021,2,6.5"/>
<path fill="none" stroke="#000000" stroke-width="3" stroke-linejoin="round" stroke-miterlimit="10" d="M367.5,199l-3-5.5
	c-14.5,1-16,20.5-21.5,31c-2.138,4.082-3.094,16.46,2.5,18.5c-8-1.5-23,37.5-15,38c-8.5,7-5.5,18.5-14,22.5"/>
<path fill="none" stroke="#000000" stroke-width="3" stroke-linejoin="round" stroke-miterlimit="10" d="M347.5,207.5
	c-1.73-2.303-3.657-4.639-5.497-3.988C326.5,209,320,232,329,241.5c-9-0.5-10.614,7.011-14,16c-3.478,9.232-9,15.5-3.976,21.562
	C303.5,279.5,293.692,298.411,292,304"/>
<path fill="none" stroke="#000000" stroke-width="3" stroke-linejoin="round" stroke-miterlimit="10" d="M342.5,272
	c-1.206,5.604-4,12-2.5,18.5c1.715,7.431,2.217,4.355,8.5,3"/>
<path d="M969.5,711c1.5,1,4.65,4.627,6,9.5c1.361,4.911-1.201,9.339-2.424,13.924C1004,724,991.476,706.149,1007.5,713.5
	c-0.435-2.39-2.5-7-2.5-7c-3-0.5-6-0.5-16.5,0.5C980.65,707.748,969.5,711,969.5,711z"/>
<ellipse cx="1005" cy="865" rx="4.5" ry="5"/>
<ellipse transform="matrix(0.9662 -0.2579 0.2579 0.9662 -205.8782 300.3425)" cx="1041.736" cy="934.821" rx="3.524" ry="4.75"/>
<path fill="none" stroke="#000000" stroke-width="3" stroke-linejoin="round" stroke-miterlimit="10" d="M959.75,736.75
	c17-4.25,13.5-18,1.25-24"/>
<path fill="none" stroke="#000000" stroke-width="3" stroke-linejoin="round" stroke-miterlimit="10" d="M943.5,734
	c0.5-4,6.25-1.25,5.436-7.301c-0.281-2.085-4.976-5.786-7.186-5.199"/>
<path fill="none" stroke="#000000" stroke-width="3" stroke-linejoin="round" stroke-miterlimit="10" d="M928.75,742
	c-4.448,0.204-8.583,0.35-10.75-4.5c-2.468-5.523,6.75-10,9.25-15.25"/>
<path fill="none" stroke="#000000" stroke-width="3" stroke-linejoin="round" stroke-miterlimit="10" d="M931.75,737.25
	c4.082,0.799,8.25,4.75,6.25,9.25c-2.75-6.25-7.25,2-12.25,1.25"/>
<path fill="none" stroke="#000000" stroke-width="3" stroke-linejoin="round" stroke-miterlimit="10" d="M897.5,744.75
	c-5.25,0.5-6.5-4.75,0.25-4.75"/>
<path fill="none" stroke="#000000" stroke-width="3" stroke-linejoin="round" stroke-miterlimit="10" d="M878.25,737
	c-15.5,11.25,3.75,24,13,20.25"/>
<path fill="none" stroke="#000000" stroke-width="3" stroke-linejoin="round" stroke-miterlimit="10" d="M970.75,729.75
	c2.917-0.833,5.813-3.309,7-6.25"/>
<path d="M1128.037,807.961c-1.066-23.302-9.239-44.759-20.615-64.878c-6.334-11.203-22.246-11.472-27.134-23.8
	c16.844,8.605,33.771,15.38,47.676,28.726c12.454,11.954,26.828,27.711,18.786,45.492
	C1143.952,799.685,1135.092,807.363,1128.037,807.961z"/>
<path fill="none" stroke="#000000" stroke-width="3" stroke-linejoin="round" stroke-miterlimit="10" d="M1157.334,888
	c-6.667-18,32.333-93.667,124-85.333"/>
<path fill="none" stroke="#000000" stroke-width="3" stroke-linejoin="round" stroke-miterlimit="10" d="M1165.001,896.667
	c-2.334-15.333,27-79.333,93.333-81.333c9.275-0.28,18.212-3.416,29-2.333"/>
<path fill="none" stroke="#000000" stroke-width="3" stroke-linejoin="round" stroke-miterlimit="10" d="M1208.667,930.333
	c0-26.333,31.334-70.667,101.667-65"/>
<path fill="none" stroke="#000000" stroke-width="3" stroke-linejoin="round" stroke-miterlimit="10" d="M1218.001,933.333
	c1.666-26.333,34.333-62,94.666-59"/>
<path fill="none" stroke="#000000" stroke-width="3" stroke-linejoin="round" stroke-miterlimit="10" d="M1259.001,967
	c-0.334-21,33-32.333,47-31"/>
<path fill="none" stroke="#000000" stroke-width="3" stroke-linejoin="round" stroke-miterlimit="10" d="M1264.334,970
	c7.25-12.5,23.667-22.333,31.667-23.333c4.761-0.595,9.651-3.136,12-2"/>
<path fill="none" stroke="#000000" stroke-width="3" stroke-linejoin="round" stroke-miterlimit="10" d="M1305.334,1351.667
	c3-5.667,12.667-16.667,9.333-35.667"/>
<path fill="none" stroke="#000000" stroke-width="3" stroke-linejoin="round" stroke-miterlimit="10" d="M1328.001,1371
	c2-59-12.667-83.667-23-102.333"/>
<path fill="none" stroke="#000000" stroke-width="3" stroke-linejoin="round" stroke-miterlimit="10" d="M1315.001,1287.667
	c15.666,22.333,29.667,32.667,40,47.667s34.506,80.297,88.666,94c55.334,14,112-17.338,113.667-40.667
	c0.667-9.333-35,0.666-54.333,20.333"/>
<path fill="none" stroke="#000000" stroke-width="3" stroke-linejoin="round" stroke-miterlimit="10" d="M1347.334,1331.667
	c0,0,2.667-16.333,12.667-10c-10-12,24.662-50.938,59.333-64.667c49.667-19.667,65.369,16.792,81.667,15.667
	c5-2.333,11.999-9.667,19.333-18.333c7.487-8.848,7.479-22.108,11.667-27c43.667-51,166.017-47.74,193.666,14.667
	c18.378,41.48-24.334,89.667,3.666,145.334c9.847,19.577,35.668,19.666,54.668,16.333c0,0-20.999,31.335-67.333-5.999
	c-41.667-42.001-19.334-79.334-71.334-113.334c-43.667-34-177.667-5.667-256,73c-4.2,4.218-8.134,11.062-12,15.667"/>
<path fill="none" stroke="#000000" stroke-width="3" stroke-linejoin="round" stroke-miterlimit="10" d="M1451.667,1251
	c14-12,54.334-38,79.334-22"/>
<path fill="none" stroke="#000000" stroke-width="3" stroke-linejoin="round" stroke-miterlimit="10" d="M1460.334,1422.333
	c33-54.333,119.334-90,156.334-54"/>
<path fill="none" stroke="#000000" stroke-width="3" stroke-linejoin="round" stroke-miterlimit="10" d="M1401.001,1397.334
	c-3.667-17.667,62.333-84,144.333-96.334c118.678-17.85,125.333,61,149,65"/>
<path fill="none" stroke="#000000" stroke-width="3" stroke-linejoin="round" stroke-miterlimit="10" d="M1663.667,1426.667
	c31.667-3.333,74.667,2.667,79-14"/>
<path fill="none" stroke="#000000" stroke-width="3" stroke-linejoin="round" stroke-miterlimit="10" d="M1370.001,1498.667
	c0,0,25.069,19.054,77.667-31.667c18.666-18,49-35.333,55.666-38"/>
<path fill="none" stroke="#000000" stroke-width="3" stroke-linejoin="round" stroke-miterlimit="10" d="M1390.334,1460.334
	c0,0,7.913,14.826,26.334,10.333c27.333-6.667,35.666-12.667,47.333-17.667"/>
<path d="M1328.334,1520c-1.054-3.162-15.666,16.334-19.096,21.207c-2.743,3.898-14.568,20.356-16.237,23.793
	c-0.698,1.438,17.235-15.938,19.667-18.333C1316.002,1543.385,1329.334,1523,1328.334,1520z"/>
<path fill="none" stroke="#000000" stroke-width="3" stroke-linejoin="round" stroke-miterlimit="10" d="M1541.334,1519.334
	c28.666-12.667,66.936-8.916,107.333-26.667c44-19.334,78.333-44.333,113.666-77"/>
<path fill="none" stroke="#000000" stroke-width="3" stroke-linejoin="round" stroke-miterlimit="10" d="M1659.333,1487.667
	c-7.333,18.333-29.886,22.854-42.833,30.833c-43,26.5-43.5,16-52.167,20.833"/>
<path fill="none" stroke="#000000" stroke-width="3" stroke-linejoin="round" stroke-miterlimit="10" d="M1792.667,1376.334
	c10,7.333-11.667,21.666-18.334,29.333"/>
<path fill="none" stroke="#000000" stroke-width="3" stroke-linejoin="round" stroke-miterlimit="10" d="M1720.333,1333.667
	c4,22.667,33.334,48.333,52,35.333"/>
<path fill="none" stroke="#000000" stroke-width="3" stroke-linejoin="round" stroke-miterlimit="10" d="M1750.667,1357.667
	C1797,1387,1853,1386,1906,1379c25-3,46.333-11,72.333-11c14,1,25.667-9,37.667-15c1-1-6.334-17.667-21-14"/>
<path fill="none" stroke="#000000" stroke-width="3" stroke-linejoin="round" stroke-miterlimit="10" d="M1962,1353
	c11.333-5,17.294-1.269,27.333-10c6.835-5.943,10.667-11,20.667-15.667c10.828-5.053-0.667-22.333-12.667-19.333
	c-1.727,0.432-2.954-2.214-4.666-2"/>
<path fill="none" stroke="#000000" stroke-width="3" stroke-linejoin="round" stroke-miterlimit="10" d="M1953.667,1337.333
	c6.822-4.616,15.995-5.113,23-9.333c7.307-4.403,9.492-14.51,15-20.667c5.666-6.333,11.666-5,12.666-9.333
	c0.606-2.628-2.333-12-8.333-11.333c-1.373-2.616-7.261-3.279-10.333-3"/>
<path fill="none" stroke="#000000" stroke-width="3" stroke-linejoin="round" stroke-miterlimit="10" d="M1945.333,1321
	c5.864-3.254,14.38-6.349,20-10c7.142-4.64,7.39-12.43,11.334-19.333c6.666-11.667,18.666-10,17.666-15.667
	c-0.653-3.702-2.667-13-13-9.667"/>
<path fill="none" stroke="#000000" stroke-width="3" stroke-linejoin="round" stroke-miterlimit="10" d="M1935.333,1307
	c4-4.333,10.829-6.251,15.334-9.333c6.333-4.333,7-19.333,22.666-36"/>
<path fill="none" stroke="#000000" stroke-width="3" stroke-linejoin="round" stroke-miterlimit="10" d="M1977,1266.667
	c-9.001-0.151-15.669-10.818-25-7.333c-3.393,1.267-11.333,8-14,11.333c-0.705,0.882,7.428-0.318,6.333,0
	c-10.333,3-10.852,9.567-11.382,13.748c-10.951-10.748-30.79-11.734-41.618-10.415c-20.439,2.49-37.196,9.51-58,7
	c-20.405-2.462-35.333-12-59.333-10.333c-15.109,1.049-36.667,4.667-46.667,19.667"/>
<path fill="none" stroke="#000000" stroke-width="3" stroke-linejoin="round" stroke-miterlimit="10" d="M1962,1264.333
	c-4.333,10.333-14.333,9.333-4,20.667"/>
<path fill="none" stroke="#000000" stroke-width="3" stroke-linejoin="round" stroke-miterlimit="10" d="M1986,1272
	c-5.333,3.667-14.667,9-7,15.667"/>
<path fill="none" stroke="#000000" stroke-width="3" stroke-linejoin="round" stroke-miterlimit="10" d="M1994.333,1291.333
	c-4.666,4-14.666,11-10,17"/>
<path fill="none" stroke="#000000" stroke-width="3" stroke-linejoin="round" stroke-miterlimit="10" d="M2005,1317.667
	c-8.666,3.667-19.333,15.333-10.333,19"/>
<path fill="none" stroke="#000000" stroke-width="3" stroke-linejoin="round" stroke-miterlimit="10" d="M1996.333,1363
	c0,0,0-4.333-1.391-5.283c-2.026-0.03-5.324,0.452-4.609-2.05c2.716-9.505,10-8,20.334-5.667"/>
<path fill="none" stroke="#000000" stroke-width="3" stroke-linejoin="round" stroke-miterlimit="10" d="M1708,1460
	c-48.5,71-172.5,171-279,214.5c-66.161,27.023-95,25.5-178-1c-29.992-9.576-47.465-33.137-57-31"/>
<path fill="none" stroke="#000000" stroke-width="3" stroke-linejoin="round" stroke-miterlimit="10" d="M564.5,1573
	c73,80.5,170.426,116.518,287.775,169.591C977,1799,1129,1833,1317.577,1804.567C1556.674,1768.518,1658.5,1592.5,1746,1606.5"/>
<path fill="none" stroke="#000000" stroke-width="3" stroke-linejoin="round" stroke-miterlimit="10" d="M826.5,1663
	c150,87,317.363,124.813,504,88c104.129-20.538,171.729-52.938,223.5-84c45-27,113.892-75.09,154.501-84.995
	c27.333-6.667,54.499-4.005,51.999-10.005"/>
<path fill="none" stroke="#000000" stroke-width="3" stroke-linejoin="round" stroke-miterlimit="10" d="M874,1653.5
	c98,66,275.497,109.041,466,73c221.989-41.998,249-156.5,418.555-170.92"/>
<path fill="none" stroke="#000000" stroke-width="3" stroke-linejoin="round" stroke-miterlimit="10" d="M782.5,1671.5
	c13.807,3.186,19.5-0.5,26.5,17c7.627,19.067,23.5-7,38,20.5c5.915,11.218,14.926-2.922,23,4c5.153,4.424,5,14.5,16.477,13.521
	c7.718-0.658,10.377-2.982,17.523,1.979c5.816,4.038,4,11.5,15,13c6.84,0.933,13.68-3.85,19.948,0.57
	c5.148,3.631,7.243,9.655,13.552,11.93c10.578,3.807,17.963-6.527,28,2.5c9.521,8.566,16.902,12.89,28.757,7.59
	c14.743-6.59,22.963,8.301,32.743,11.41c9.537,3.031,12.868-4.379,22.138-2.173c6.883,1.639,10.358,8.438,16.862,10.673
	c8.237,2.831,12.728-4.125,21.147-3.204c7.51,0.821,10.613,9.609,18.274,10.22c8.246,0.657,14.352-7.819,22.76-5.493
	c6.861,1.897,9.318,10.478,18.818,6.478c6.174-2.6,11.156-8.408,16.5-6.5c5.745,2.052,5.18,9.839,11.5,8
	c6.496-1.891,11.699-10.148,19-4c4.806,4.048,8.112,8.308,15.5,8c12-0.5,15.608-23.639,30.021-8.44
	c8.479,8.94,22.979-12.56,35.979-9.06c7.986,2.15,6.668,7.955,14.729,1.511c13.771-11.011,15.93,3.245,25.457-0.308
	c3.712-1.383,4.436-5.696,7.671-7.455c4.69-2.549,9.991-1.139,15.092-0.669c7.182,0.663,11.784-3.697,17.052-7.579
	c6.485-4.78,9.439-3.525,15.5-0.5c11.949,5.966,16.9-13.926,30-11.5c13.5,2.5,20.688-13.922,28.881-14.138
	c5.314-0.14,6.989,4.095,12.119,2.638c6.665-1.894,13.36-11.221,19.5-14.5c6.466-3.453,7.646,0.264,14-2
	c5.229-1.863,9.106-8.831,13.5-11.5c4.759-2.891,8.801,0.167,14-1c9.379-2.105,9.457-13.541,18-17c7.1-2.875,11.614,1.731,17-5
	c8-10,13-19,23.5-17.5c10.774,1.539,10.551-6.916,16.806-15.029c6.246-8.104,16.167-3.641,21.694-11.471c6-8.5,14.425-12.093,19-12
	c6.087,0.123,9.223-7.519,13.417-11.339c4.895-4.458,10.147-4.042,15.583-7.661c6.563-4.37,13-14,24-13
	c7.469,0.679,18.961-13.335,39-12.5c12,0.5,17.5-4,27.5-6"/>
<path fill="none" stroke="#000000" stroke-width="3" stroke-linejoin="round" stroke-miterlimit="10" d="M1915.667,1604.002
	c2.5,28-18.203,49.839-47.167,48.498c-27-1.25-51.371-21.44-50-47.5c1.5-28.5,18.505-45.25,47.5-45.25
	S1913.532,1580.092,1915.667,1604.002z"/>
<g>
	<path fill="none" stroke="#000000" stroke-width="3" stroke-linejoin="round" stroke-miterlimit="10" d="M1898.334,1571.002
		c16.333-17.833,28.5-30.001,44.5-43.834"/>
	<path fill="none" stroke="#000000" stroke-width="3" stroke-linejoin="round" stroke-miterlimit="10" d="M1828.001,1633.672
		c-15.333,15.666-38.667,38.166-52.333,51.5"/>
	<path fill="none" stroke="#000000" stroke-width="3" stroke-linejoin="round" stroke-miterlimit="10" d="M1905.001,1577.502
		c17-19.834,37.666-33.167,49.833-49.667"/>
	<path fill="none" stroke="#000000" stroke-width="3" stroke-linejoin="round" stroke-miterlimit="10" d="M1826.501,1631.505
		c-7.5,6.5-17.532,11.692-26.667,17.833c-10.166,6.834-19.166,15.667-30,23.834"/>
	<path fill="none" stroke="#000000" stroke-width="3" stroke-linejoin="round" stroke-miterlimit="10" d="M1908.667,1582.335
		c17.901-9.882,35.334-27,60-37.833"/>
	<path fill="none" stroke="#000000" stroke-width="3" stroke-linejoin="round" stroke-miterlimit="10" d="M1824.834,1628.505
		c-14,4.667-47.333,24-69.333,26.833"/>
	<path fill="none" stroke="#000000" stroke-width="3" stroke-linejoin="round" stroke-miterlimit="10" d="M1910.834,1586.668
		c1.5-8.166,8.98-5.996,13-8.5c13.525-8.423,32.529-19.316,48.833-25"/>
	<path fill="none" stroke="#000000" stroke-width="3" stroke-linejoin="round" stroke-miterlimit="10" d="M1912.834,1591.168
		c18.333-10,43.667-17,65.167-27.5"/>
	<path fill="none" stroke="#000000" stroke-width="3" stroke-linejoin="round" stroke-miterlimit="10" d="M1928.001,1592.002
		c19.833-8.833,36.667-16.335,55.833-21.001"/>
	<path fill="none" stroke="#000000" stroke-width="3" stroke-linejoin="round" stroke-miterlimit="10" d="M1821.168,1622.338
		c-9.167,3.667-17.834,4.668-28.334,6.334c-14.845,2.355-29,6.499-41.5,11.666"/>
	<path fill="none" stroke="#000000" stroke-width="3" stroke-linejoin="round" stroke-miterlimit="10" d="M1915.167,1593.835
		c19.5-3.167,48.334-4.834,69.834-12.668"/>
	<path fill="none" stroke="#000000" stroke-width="3" stroke-linejoin="round" stroke-miterlimit="10" d="M1818.668,1612.671
		c-4.667,9.5-30.167,3.167-68.5,12.5"/>
	<path fill="none" stroke="#000000" stroke-width="3" stroke-linejoin="round" stroke-miterlimit="10" d="M1916.501,1600.167
		c25,0.833,43.833-3.333,71.166-3"/>
	<path fill="none" stroke="#000000" stroke-width="3" stroke-linejoin="round" stroke-miterlimit="10" d="M1917.001,1607
		c20.533-4.52,32.666,0,53.666-1.666"/>
	<path fill="none" stroke="#000000" stroke-width="3" stroke-linejoin="round" stroke-miterlimit="10" d="M1818.834,1605.838
		c-4.666,5-12.961,2.671-29.833,4.5c-11.685,1.267-24.167,2.667-41.833,4.333"/>
	<path fill="none" stroke="#000000" stroke-width="3" stroke-linejoin="round" stroke-miterlimit="10" d="M1916.667,1612.5
		c22.333-4.333,62.5,5.334,81.334,2.667"/>
	<path fill="none" stroke="#000000" stroke-width="3" stroke-linejoin="round" stroke-miterlimit="10" d="M1813.334,1603.005
		c-11.166,1.5-13-1-21.5-1.667c-19.563-1.535-42.742-2.193-45.833-0.833"/>
	<path fill="none" stroke="#000000" stroke-width="3" stroke-linejoin="round" stroke-miterlimit="10" d="M1916.001,1617.333
		c28-0.833,48.167,11.834,70.667,11.834"/>
	<path fill="none" stroke="#000000" stroke-width="3" stroke-linejoin="round" stroke-miterlimit="10" d="M1807.168,1596.338
		c-15.5-4.5-36-5.5-54.667-11.667"/>
	<path fill="none" stroke="#000000" stroke-width="3" stroke-linejoin="round" stroke-miterlimit="10" d="M1914.334,1623.167
		c10.5-1.166,18.345,5.771,28,8c17.334,4,33.563,11.696,40.667,8.833"/>
	<path fill="none" stroke="#000000" stroke-width="3" stroke-linejoin="round" stroke-miterlimit="10" d="M1941.501,1637.667
		c4.5,6.666,22,13,28.5,19.333"/>
	<path fill="none" stroke="#000000" stroke-width="3" stroke-linejoin="round" stroke-miterlimit="10" d="M1821.334,1588.67
		c-4.075-1.465-6.598-3.122-11-4.166c-14.888-3.531-38-12.167-53.333-14"/>
	<path fill="none" stroke="#000000" stroke-width="3" stroke-linejoin="round" stroke-miterlimit="10" d="M1912.501,1629.5
		c8.333,2.167,17.246,11.856,28.167,18c13.333,7.5,27.166,16.5,33.333,24.333"/>
	<path fill="none" stroke="#000000" stroke-width="3" stroke-linejoin="round" stroke-miterlimit="10" d="M1817.001,1579.504
		c-20.167-5-46.167-21.167-59-24.167"/>
	<path fill="none" stroke="#000000" stroke-width="3" stroke-linejoin="round" stroke-miterlimit="10" d="M1909.168,1634.5
		c12.5,10,43.5,32.833,55,39.667"/>
	<path fill="none" stroke="#000000" stroke-width="3" stroke-linejoin="round" stroke-miterlimit="10" d="M1824.501,1579.504
		c-17.5-10-50-27-60.167-39.834"/>
	<path fill="none" stroke="#000000" stroke-width="3" stroke-linejoin="round" stroke-miterlimit="10" d="M1911.834,1640.333
		c9.5,19.834,21.834,21.5,46.5,49.667"/>
	<path fill="none" stroke="#000000" stroke-width="3" stroke-linejoin="round" stroke-miterlimit="10" d="M1828.168,1574.837
		c-12.5-9.167-33.58-27.334-51.334-44.167"/>
	<path fill="none" stroke="#000000" stroke-width="3" stroke-linejoin="round" stroke-miterlimit="10" d="M1902.834,1641.168
		c18.833,23.333,28.701,43.341,40,51.833"/>
	<path fill="none" stroke="#000000" stroke-width="3" stroke-linejoin="round" stroke-miterlimit="10" d="M1830.834,1572.169
		c-19.167-20-28.167-35.667-39.167-42.667c-6.277-3.995-9.278-6.122-11.666-10.667"/>
	<path fill="none" stroke="#000000" stroke-width="3" stroke-linejoin="round" stroke-miterlimit="10" d="M1900.167,1642.335
		c3,11.666,8.793,21.489,14,30.333c10.5,17.833,12.334,34.333,19.667,37.833"/>
	<path fill="none" stroke="#000000" stroke-width="3" stroke-linejoin="round" stroke-miterlimit="10" d="M1836.001,1567.835
		c-9.667-21.166-31.334-41-39.667-60.5"/>
	<path fill="none" stroke="#000000" stroke-width="3" stroke-linejoin="round" stroke-miterlimit="10" d="M1901.167,1660.835
		c3.667,22.5,13.334,26.5,13.5,38.166"/>
	<path fill="none" stroke="#000000" stroke-width="3" stroke-linejoin="round" stroke-miterlimit="10" d="M1893.501,1648.001
		c1.5,25.167,14.633,50.076,21.333,63.5"/>
	<path fill="none" stroke="#000000" stroke-width="3" stroke-linejoin="round" stroke-miterlimit="10" d="M1844.501,1563.835
		c-12-16.167-26.5-54.834-35.5-65.167"/>
	<path fill="none" stroke="#000000" stroke-width="3" stroke-linejoin="round" stroke-miterlimit="10" d="M1888.334,1649.002
		c-4.333,27,16.5,57.5,8.334,66.166"/>
	<path fill="none" stroke="#000000" stroke-width="3" stroke-linejoin="round" stroke-miterlimit="10" d="M1848.834,1562.335
		c0.667-4.833-7.288-10.067-9.833-23.334c-2.334-12.166-12.334-28.5-14.167-49.666"/>
	<path fill="none" stroke="#000000" stroke-width="3" stroke-linejoin="round" stroke-miterlimit="10" d="M1879.501,1651.835
		c-0.5,11.667,3.4,21.54,4.456,32.034c1.907,18.971,2.428,35.247,8.544,38.466"/>
	<path fill="none" stroke="#000000" stroke-width="3" stroke-linejoin="round" stroke-miterlimit="10" d="M1870.668,1652.667
		c4.833,25.333,1.667,47.333,2.5,66.833"/>
	<path fill="none" stroke="#000000" stroke-width="3" stroke-linejoin="round" stroke-miterlimit="10" d="M1853.334,1561.169
		c0-35.333-12.833-54.667-9.666-72"/>
	<path fill="none" stroke="#000000" stroke-width="3" stroke-linejoin="round" stroke-miterlimit="10" d="M1868.834,1669.667
		c0.333,17.166-5.283,22.76-4.333,44.333"/>
	<path fill="none" stroke="#000000" stroke-width="3" stroke-linejoin="round" stroke-miterlimit="10" d="M1860.501,1560.169
		c0.813-22.263,0.833-56.667,0.833-79.5"/>
	<path fill="none" stroke="#000000" stroke-width="3" stroke-linejoin="round" stroke-miterlimit="10" d="M1864.001,1652
		c0.5,21.333-9.169,41.896-10.667,71.333"/>
	<path fill="none" stroke="#000000" stroke-width="3" stroke-linejoin="round" stroke-miterlimit="10" d="M1868.334,1560.002
		c-0.666-25.333,7.334-58.333,7.334-79.166"/>
	<path fill="none" stroke="#000000" stroke-width="3" stroke-linejoin="round" stroke-miterlimit="10" d="M1856.668,1651
		c-3.334,21.5-13.167,49.5-17.667,67.333"/>
	<path fill="none" stroke="#000000" stroke-width="3" stroke-linejoin="round" stroke-miterlimit="10" d="M1872.834,1551.002
		c3-22.333,20.167-55.666,16.5-69.333"/>
	<path fill="none" stroke="#000000" stroke-width="3" stroke-linejoin="round" stroke-miterlimit="10" d="M1852.001,1649
		c-1.167,11.333-6.646,19.182-12.833,36c-5.334,14.5-10,28.834-14,34.167"/>
	<path fill="none" stroke="#000000" stroke-width="3" stroke-linejoin="round" stroke-miterlimit="10" d="M1874.834,1559.836
		c12-18.167,20.5-52.167,28.667-71.667"/>
	<path fill="none" stroke="#000000" stroke-width="3" stroke-linejoin="round" stroke-miterlimit="10" d="M1911.31,1564.25
		c9.856-17.417,17.856-19.25,31.356-36.917"/>
	<path fill="none" stroke="#000000" stroke-width="3" stroke-linejoin="round" stroke-miterlimit="10" d="M1843.501,1646
		c-7.334,12.833-12.789,24.807-19.667,37.333c-6.002,10.933-12.723,22.005-13.5,25.5"/>
	<path fill="none" stroke="#000000" stroke-width="3" stroke-linejoin="round" stroke-miterlimit="10" d="M1883.001,1561.836
		c12.833-17.167,21.167-46.834,36-66.334"/>
	<path fill="none" stroke="#000000" stroke-width="3" stroke-linejoin="round" stroke-miterlimit="10" d="M1837.831,1643.352
		c-14.497,20.981-29.92,41.803-41.83,59.815"/>
	<path fill="none" stroke="#000000" stroke-width="3" stroke-linejoin="round" stroke-miterlimit="10" d="M1923.001,1513.669
		c4.167-2.5,4.581-7.536,5.667-11.167"/>
	<path fill="none" stroke="#000000" stroke-width="3" stroke-linejoin="round" stroke-miterlimit="10" d="M1892.168,1566.169
		c8.166-17.834,20.5-33.5,29.5-49.834"/>
	<path fill="none" stroke="#000000" stroke-width="3" stroke-linejoin="round" stroke-miterlimit="10" d="M1834.501,1639.167
		c-12.5,20.833-37.5,41-50.501,57.333"/>
	<path fill="none" stroke="#000000" stroke-width="3" stroke-linejoin="round" stroke-miterlimit="10" d="M1894.834,1567.835
		c18.167-15.833,29-40.666,47.334-53.5"/>
</g>
<path fill="none" stroke="#000000" stroke-width="3" stroke-linejoin="round" stroke-miterlimit="10" d="M1909.168,1613.334
	c2.666,1.833,5.166,4,8.333,4.167"/>
<path fill="none" stroke="#000000" stroke-width="3" stroke-linejoin="round" stroke-miterlimit="10" d="M1923.334,1567.335
	c9-8.5,22.167-15.833,29.5-24.667"/>
<path fill="none" stroke="#000000" stroke-width="3" stroke-linejoin="round" stroke-miterlimit="10" d="M1843.667,1657.667
	c-0.334,2-1.667,4.333-1.667,4.333"/>
<path fill="none" stroke="#000000" stroke-width="3" stroke-linejoin="round" stroke-miterlimit="10" d="M418,1269.5
	c-12.5-18-35.713-64.326-44.5-98c-6.66-25.525-7.993-46.824-9-51c-30.5-126.5-13-238.5-60-375
	C290.287,704.221,258,643,229.616,602.046c-9.831-14.185-20.495-26.648-30.709-40.426c-9.76-13.165-21.108-25.495-33.25-36.49
	c-16.157-14.63-32.714-37.85-46.239-54.592C107,463,86.729,434.487,74.5,415.5"/>
<path fill="none" stroke="#000000" stroke-width="3" stroke-linejoin="round" stroke-miterlimit="10" d="M408,1336
	c-29-44-81.5-93-100.207-184.251C290.12,1065.543,275.5,958,267,892c-9.884-76.747-36.787-151.825-78.078-217.736
	C177.009,655.247,163.892,636.627,150,619c-16.369-20.77-52.5-64.5-74.5-72.5"/>
<path fill="none" stroke="#000000" stroke-width="3" stroke-linejoin="round" stroke-miterlimit="10" d="M383,1382
	c-65-61.5-128-179.5-152-257.5c-21.903-71.187-58.28-311.863-90.5-379.5c-12.968-27.223-31.5-58.5-63.5-73"/>
<path fill="none" stroke="#000000" stroke-width="3" stroke-linejoin="round" stroke-miterlimit="10" d="M217,902.5
	c-0.973,12.045,17,9.999,14.5,26.503c-1.477,9.736-6.704,15.902-0.614,25.074c4.734,7.131,12.593,8.581,8.615,17.922
	c-11.5,27,3.246,18.539,8,31.5c3.796,10.351-5.578,19.744-2.003,30.49c2.583,7.764,13.003,11.827,13.003,20.01c0,6-9,15.5,2,29
	c3.646,4.475,11.626,3.661,8.736,11.292C265.222,1104.894,262,1111,274.5,1122c7.978,7.021,1.115,21.012,2,29.5
	c0.907,8.697,20.799,9.908,17,17c-7.5,14-1,22.5,14.5,30.5c6.297,3.25-3.554,4.958-1.5,11.5
	c2.519,8.026,16.229,11.195,13.743,20.049C314.5,1251,336,1250,333.5,1255.5c-6.057,13.325,10.849,13.458,8.836,18.664
	c-2.836,7.336-1.709,12.162,5.413,17.281C352,1294.5,356,1294.647,356,1300.5c0,5.5-1,8,10.5,15.5
	c15.336,10.002,6.797,16.86,15,22.5c8,5.5,0.5,7,7,13"/>
<path fill="none" stroke="#000000" stroke-width="3" stroke-linejoin="round" stroke-miterlimit="10" d="M79,610
	c9,3,21.75,6.25,16.75,18.75c-2.166,5.414,16.25,5,21.25,8c5.999,3.999,5.25,10.248,3.001,17.496
	c-1.428,4.604,18.551,9.237,21.749,12.004c6.728,5.82-3.023,12.551,0.5,19c2.983,5.46,15.821,5.535,19.75,10.25
	c4.609,6.913-2.466,15.679,1.25,22.75c3.033,5.772,12.266,9.033,14.75,15.25c2.354,5.893-5.084,12.792-1.5,18.25
	c2.771,4.22,13.613,9.161,16,13.5c2.75,5-8.431,15.371-2.5,25.75c4,4,9,7.75,11,12.75c1.75,4.5-7,16.5-3,23.25
	c4,6.75,16.178,14.441,14.75,16.25c-3.75,4.75-9.716,18.039-7,24c3.025,6.64,13.726,6.985,16.5,13.75
	c1.406,3.43-4.633,9.786-4.75,15.5"/>
<path fill="none" stroke="#000000" stroke-width="3" stroke-linejoin="round" stroke-miterlimit="10" d="M75.5,499.5
	c5.181-4.469,22.094,5.59,26.5,9.5c7.542,6.693-6.146,16.464,2.96,19.626C119,533.5,138,534,137,540.5
	c-1.032,6.706-6.58,10.184-1.5,16.5c7.507,9.301,24.179,4.529,28.314,19.386c1.345,4.835-1.901,9.671-0.851,13.975
	c2.019,8.267,13.383,7.955,19.382,10.777C206.5,612.5,184.976,625.931,193,636c6.442,8.083,22.188,4.628,28.732,12.952
	c4.556,5.794,1.178,12.564,2.722,19.016c1.933,8.075,7.844,8.81,14.006,13.096C258.5,695,237,707,251.43,719.699
	c6.413,5.644,12.361,9.468,13.07,18.301c0.676,8.421-6.985,13.79-2,21c5.86,8.474,18.289,17.992,14,28
	c-7.5,17.5-3.463,22.422,10,30.5c5,3-4.42,19.215,3.24,28.628c4.058,4.986,6.76,8.372,6.26,10.872c-1.393,6.962-9.168,13.37-8,21.5
	c1.031,7.181,9.48,8.157,11.918,14.114c4.799,11.73-11.861,22.364-1.418,31.886c17,15.5-0.668,24.228,0.598,36.084
	c0.681,6.377,4.186,9.512,5.902,15.416c2.16,7.43-2.765,12.708-2,20c1.467,13.977,15.5,17.5,10,25.5c-7.17,10.429-7.682,14.275,2,31
	c5.845,10.096-6.609,21.661,0.992,30.491c4.82,5.6,12.508,13.009,10.508,16.509c-4.154,7.269-5.521,18.229-1.854,26.943
	c2.454,5.832,8.222,7.87,8.891,14.634c0.799,8.072-6.037,9.923,2.539,17.776c4.315,3.952,0.893,11.492,1.924,16.646
	c2,10,15.486,5.767,12.751,18.597C348,1207,357.808,1210.021,360,1216.5c1.828,5.402-3.224,4.78,0,9.5
	c4.571,6.694,9.323,8.048,11.5,17.5c3.528,15.314,21.5,43,29.5,50"/>
<polygon fill="none" stroke="#000000" stroke-width="3" stroke-linejoin="round" stroke-miterlimit="10" points="2045.632,2669 
	68.421,2669 67.421,51.21 2044.632,51.21 "/>
<line fill="none" stroke="#000000" stroke-width="3" stroke-linejoin="round" stroke-miterlimit="10" x1="2045.632" y1="2279" x2="68.421" y2="2279"/>
</svg>
