<?xml version="1.0" encoding="UTF-8" standalone="no"?>
<svg width="147px" height="190px" viewBox="0 0 147 190" version="1.1" xmlns="http://www.w3.org/2000/svg" xmlns:xlink="http://www.w3.org/1999/xlink" xmlns:sketch="http://www.bohemiancoding.com/sketch/ns">
    <!-- Generator: Sketch 3.3.1 (12002) - http://www.bohemiancoding.com/sketch -->
    <title>Flag</title>
    <desc>Created with Sketch.</desc>
    <defs></defs>
    <g id="Page-1" stroke="none" stroke-width="1" fill="none" fill-rule="evenodd" sketch:type="MSPage">
        <g id="Flag" sketch:type="MSLayerGroup">
            <g id="LOTOS" transform="translate(54.000000, 152.000000)" stroke="#000000" stroke-width="0.7498" sketch:type="MSShapeGroup">
                <g id="Group" transform="translate(0.000000, 19.000000)" fill="#FFFFFF">
                    <g transform="translate(0.000000, 8.000000)" id="Shape">
                        <g>
                            <g>
                                <path d="M3.291,6.184 C5.08,6.184 6.538,4.997 6.538,3.543 C6.538,2.089 5.08,0.902 3.291,0.902 C1.503,0.902 0.045,2.089 0.045,3.543 C0.045,4.997 1.503,6.184 3.291,6.184 L3.291,6.184 Z"></path>
                                <path d="M8.062,9.402 C10.274,9.402 12.078,8.032 12.078,6.352 C12.078,4.671 10.274,3.301 8.062,3.301 C5.85,3.301 4.046,4.671 4.046,6.352 C4.046,8.032 5.85,9.402 8.062,9.402 L8.062,9.402 Z"></path>
                            </g>
                            <g transform="translate(15.000000, 0.000000)">
                                <path d="M9.519,6.184 C11.307,6.184 12.765,4.997 12.765,3.543 C12.765,2.089 11.307,0.902 9.519,0.902 C7.731,0.902 6.272,2.089 6.272,3.543 C6.272,4.997 7.73,6.184 9.519,6.184 L9.519,6.184 Z"></path>
                                <path d="M4.748,9.402 C6.96,9.402 8.764,8.032 8.764,6.352 C8.764,4.671 6.96,3.301 4.748,3.301 C2.536,3.301 0.732,4.671 0.732,6.352 C0.732,8.032 2.536,9.402 4.748,9.402 L4.748,9.402 Z"></path>
                            </g>
                        </g>
                        <path d="M13.904,10.527 C16.659,10.527 18.905,8.926 18.905,6.964 C18.905,5.002 16.659,3.401 13.904,3.401 C11.15,3.401 8.904,5.002 8.904,6.964 C8.904,8.926 11.15,10.527 13.904,10.527 L13.904,10.527 Z"></path>
                    </g>
                    <g transform="translate(3.000000, 0.000000)" id="Shape">
                        <g>
                            <path d="M5.406,8.445 C4.388,6.224 5.49,2.713 6.166,0.931 C11.522,4.597 12.696,9.91 10.777,11.249 C9.7,12.002 6.736,11.347 5.406,8.445 L5.406,8.445 Z"></path>
                            <path d="M1.947,10.596 C0.248,8.155 0.809,3.708 1.235,1.428 C8.446,4.664 11.002,10.777 8.99,12.797 C7.862,13.931 4.169,13.786 1.947,10.596 L1.947,10.596 Z"></path>
                        </g>
                        <g transform="translate(10.000000, 0.000000)">
                            <path d="M6.403,8.445 C7.421,6.224 6.319,2.713 5.643,0.931 C0.287,4.597 -0.888,9.91 1.032,11.249 C2.109,12.002 5.072,11.347 6.403,8.445 L6.403,8.445 Z"></path>
                            <path d="M9.862,10.596 C11.561,8.155 11,3.708 10.574,1.428 C3.363,4.664 0.807,10.777 2.819,12.797 C3.947,13.931 7.641,13.786 9.862,10.596 L9.862,10.596 Z"></path>
                        </g>
                    </g>
                    <path d="M9.534,8.635 C9.534,5.968 11.599,2.588 13.904,0.907 C16.209,2.588 18.275,5.968 18.275,8.635 C18.275,14.733 9.534,14.733 9.534,8.635 L9.534,8.635 Z" id="Shape"></path>
                </g>
                <path d="M12.278,0.063 L12.278,21.391 M15.531,2.406 L15.531,21.39" id="Shape"></path>
            </g>
            <g id="CURTAIN_x5F_RIGHT" transform="translate(96.000000, 49.000000)" stroke="#000000" sketch:type="MSShapeGroup">
                <g id="Group" stroke-width="0.7498" fill="#FFFFFF">
                    <path d="M3.237,4.086 C3.672,13.92 4.605,38.346 7.052,57.698 C7.861,64.089 8.795,72.514 11.765,79.593 C13.076,82.717 14.796,85.568 16.997,87.935 C14.751,88.554 12.767,89.587 11.207,90.912 C10.153,90.231 9.19,89.425 8.352,88.476 C-3.373,75.22 3.577,39.58 0.424,0.96 C0.312,-0.425 2.3,3.044 3.237,4.086 L3.237,4.086 Z" id="Shape"></path>
                    <path d="M2.608,3.898 C2.143,8.633 2.773,25.802 3.916,42.833 C4.509,51.669 4.812,61.854 6.58,71.015 C7.597,76.274 10.131,84.03 14.329,88.92 C13.963,89.092 13.608,89.277 13.266,89.474 C10.574,87.178 8.611,84.055 7.184,80.582 C0.29,63.796 3.454,22.068 1.823,2.085 C1.709,0.701 1.671,2.856 2.608,3.898 L2.608,3.898 Z" id="Shape"></path>
                </g>
                <g id="Group" transform="translate(5.000000, 40.000000)">
                    <path d="M35.681,3.856 C35.681,3.856 36.368,4.731 35.305,6.731 C34.243,8.731 32.992,8.356 33.055,10.606 C33.118,12.856 34.243,13.856 33.743,15.731 C33.242,17.606 31.492,19.231 31.492,19.231 C31.492,19.231 32.816,16.183 31.43,15.231 C25.841,11.391 27.129,7.22 31.493,6.361 C32.839,6.097 34.241,5.037 35.681,3.856 L35.681,3.856 Z" id="Shape" stroke-width="0.7498" fill="#FFFFFF"></path>
                    <path d="M4.311,34.638 C6.566,34.638 8.405,32.546 8.405,29.982 C8.405,27.418 6.566,25.326 4.311,25.326 C2.057,25.326 0.217,27.418 0.217,29.982 C0.217,32.546 2.057,34.638 4.311,34.638 L4.311,34.638 Z" id="Shape" stroke-width="0.7498" fill="#FFFFFF"></path>
                    <ellipse id="Oval" stroke-width="0.749833148" fill="#FFFFFF" transform="translate(39.271257, 36.426254) rotate(253.507642) translate(-39.271257, -36.426254) " cx="39.2712567" cy="36.4262539" rx="6.31227905" ry="4.09318095"></ellipse>
                    <g id="Shape" stroke-width="0.7498">
                        <path d="M34.463,0.155 C39.515,2.972 36.622,7.147 32.191,8.378 C30.311,8.9 30.03,11.306 31.776,12.593 C34.142,14.336 34.672,16.339 34.242,18.114 C33.689,20.397 32.204,21.673 30.349,22.374 C27.37,23.5 25.188,23.464 23.049,23.062 C21.752,22.819 19.658,22.184 17.527,21.797 C13.056,20.985 10.911,22.268 10.09,24.077 C8.784,26.962 9.826,29.204 11.818,30.431 C15.716,32.834 20.493,31.164 23.714,28.701 C25.441,27.38 27.508,25.271 30.36,24.555 C32.838,23.933 36.576,24.243 38.961,25.624 C41.107,26.866 41.392,29.069 41.107,30.16 C40.447,32.679 35.287,33.303 37.199,36.852 C38.45,39.175 40.886,38.218 43.095,39.879 C46.06,42.108 44.271,45.853 41.738,48.265 C38.907,50.96 34.622,52.629 31.106,53.386 C29.812,51.17 27.242,49.407 24.025,48.532 C24.889,48.374 25.727,48.169 26.535,47.9 C30.468,46.591 34.693,43.086 33.859,38.505 C33.257,35.199 29.298,33.394 25.454,33.933 C25.271,33.959 24.908,34.025 24.76,34.136 C22.273,35.992 17.82,38.218 13.236,39.293 C8.406,40.425 4.669,39.946 2.645,38.428 C1.134,37.292 0.561,35.644 1.015,34.307 C1.842,31.868 5.444,32.32 5.28,30.277 C5.082,27.809 1.497,29.132 0.311,25.276 C-0.644,22.17 1.927,19.441 4.983,17.763 C6.734,16.801 8.645,16.185 10.143,16.04 C13.037,15.761 15.876,16.601 18.717,18.339 C18.717,18.339 22.154,18.276 23.404,17.338 C24.654,16.4 26.904,15.088 26.779,12.525 C26.654,9.962 26.154,8.962 27.529,7.587 C28.904,6.212 30.342,6.212 31.904,5.399 C33.466,4.586 33.904,4.899 34.217,3.211 C34.53,1.523 34.399,0.154 34.463,0.155 L34.463,0.155 Z" fill="#FFFFFF"></path>
                        <path d="M28.556,50.586 C30.671,50.202 32.727,49.487 34.535,48.477 C38.407,46.315 40.962,42.703 41.304,39.015"></path>
                        <path d="M38.687,38.264 C39.146,42.133 36.547,46.269 32.445,48.56 C31.094,49.315 29.592,49.889 28.034,50.265"></path>
                        <path d="M39.16,32.452 C38.617,31.876 38,31.413 37.328,31.055 C32.19,28.32 27.157,31.361 23.209,34.524 C20.118,36.999 19.752,37.061 21.109,36.287 L22.922,34.988 C27.112,31.819 33.418,29.765 37.028,34.379"></path>
                        <path d="M4.467,28.79 C3.843,26.034 4.537,22.693 7.363,20.474 C10.893,17.701 14.509,19.216 17.679,21.174 C18.02,21.384 18.365,21.605 18.712,21.83 C18.85,21.918 19.52,22.241 19.365,22.181 C18.858,21.985 17.676,21.195 16.727,20.802 C13.781,19.584 10.869,19.836 8.982,21.367 C7.534,22.542 6.689,24.472 6.896,27.069 C7.119,29.87 8.989,32.536 11.825,33.413 C17.826,35.268 20.653,31.503 24.83,27.856"></path>
                        <path d="M10.893,39.724 C15.456,39.052 18.988,35.661 20.487,33.474 C21.987,31.286 21.59,31.076 23.151,29.389 C23.905,28.575 18.315,36.128 11.242,34.696 C8.762,34.194 6.479,32.818 5.308,30.93"></path>
                        <path d="M32.582,8.208 C32.817,7.927 33.051,7.642 33.252,7.315 C33.576,6.792 33.776,6.16 33.911,5.276 C34.02,4.557 34.035,6.651 32.083,7.667 C27.901,9.842 29.849,12.003 29.398,15.173 C29.291,15.93 28.98,16.705 28.248,17.514 C27.31,18.551 25.934,19.088 24.365,19.424 C22.828,19.753 21.517,19.6 19.583,19.058"></path>
                        <path d="M32.505,21.042 C30.201,23.46 24.227,23.063 21.88,21.12 C21.388,20.713 20.555,19.955 19.721,19.248 C19.02,18.652 18.08,18.073 17.818,17.808 C17.296,17.281 20.808,21.319 26.79,19.567 C28.076,19.191 29.033,18.649 29.729,17.937 C30.893,16.747 31.362,15.078 31.343,12.902 C31.342,12.717 31.331,12.504 31.32,12.276"></path>
                    </g>
                </g>
            </g>
            <g id="CURTAIN_x5F_LEFT" transform="translate(0.000000, 49.000000)" stroke="#000000" stroke-width="0.7498" sketch:type="MSShapeGroup">
                <g id="Group" transform="translate(12.000000, 0.000000)" fill="#FFFFFF">
                    <path d="M24.323,4.086 C24.086,13.92 23.641,38.346 21.581,57.698 C20.901,64.089 20.135,72.514 17.307,79.593 C14.824,85.81 10.697,90.946 4.324,93.336 L2.324,94.086 C4.503,94.086 6.461,94.092 8.325,93.94 C13.106,93.552 17.872,91.976 20.898,88.475 C32.358,75.219 24.695,39.579 27.074,0.959 C27.159,-0.425 25.24,3.044 24.323,4.086 L24.323,4.086 Z" id="Shape"></path>
                    <path d="M24.948,3.898 C25.509,8.633 25.222,25.802 24.421,42.833 C24.005,51.669 23.906,61.854 22.32,71.015 C20.666,80.572 14.161,98.376 1.292,92.243 C-0.674,91.305 4.648,93.499 6.512,93.347 C14.645,92.69 19.289,87.287 21.909,80.582 C28.466,63.796 24.468,22.068 25.698,2.085 C25.783,0.701 25.865,2.856 24.948,3.898 L24.948,3.898 Z" id="Shape"></path>
                </g>
                <g id="Group" transform="translate(0.000000, 36.000000)">
                    <path d="M5.333,29.228 C5.333,29.228 5.811,30.703 8.136,31.097 C12.359,31.814 18.512,28.046 20.456,30.117 C21.825,31.575 21.203,33.282 19.913,34.575 C18.001,36.493 14.249,37.224 9.299,36.695 C5.452,36.283 0.352,41.167 4.318,42.772 C7.204,43.94 -4.186,50.018 6.895,54.478 C9.265,55.431 13.192,55.156 10.885,49.437 C8.865,44.429 8.056,38.699 18.957,38.478 C23.61,38.383 26.828,35.954 28.094,32.494 C29.035,29.92 28.886,27.618 27.981,25.919 C26.092,22.378 21.94,22.771 18.947,24.256 C16.113,25.662 15.921,27.296 13.852,28.468 C10.351,30.447 5.33,29.228 5.333,29.228 L5.333,29.228 Z" id="Shape" fill="#FFFFFF"></path>
                    <path d="M29.225,43.711 C29.225,43.711 28.59,48.86 24.671,53.022 C23.332,54.444 20.964,56.217 18.204,57.417 C14.673,58.95 10.538,59.907 7.277,59.646 C5.26,59.485 3.392,58.482 2.311,57.246 C0.908,55.642 0.83,53.644 3.474,52.587 C5.037,51.962 7.287,51.462 8.224,50.087 C9.798,47.778 8.15,46.317 6.157,45.278 C4.904,44.625 3.483,44.225 2.398,43.47 C0.96,42.47 0.419,41.017 0.773,39.657 C1.261,37.779 2.853,36.583 4.679,36.043 C6.177,35.6 7.832,35.599 9.163,36.024 C10.726,36.524 15.476,38.087 18.85,36.212 C25.538,32.496 24.186,26.914 19.163,27.649 C16.6,28.024 14.413,29.524 12.413,30.274 C10.413,31.024 6.288,32.149 3.788,30.337 C1.288,28.524 -0.024,25.462 0.913,23.024 C3.145,17.22 8.409,18.555 8.629,17.303 C8.816,16.24 9.316,13.74 8.316,12.553 C7.316,11.365 6.191,9.678 7.628,8.365 C9.066,7.052 10.565,7.177 10.878,5.427 C11.191,3.677 9.565,0.802 9.565,0.802 C9.565,0.802 10.878,1.302 12.19,2.24 C13.502,3.178 15.503,5.115 14.628,6.865 C13.753,8.615 12.815,9.287 13.628,10.599 C14.571,12.123 18.639,12.426 17.976,16.202 C17.56,18.581 14.283,19.303 12.231,19.405 C6.956,19.669 7.135,25.579 10.566,26.677 C11.565,26.997 13.816,27.052 13.816,27.052 C14.417,25.251 16.179,23.616 18.18,22.525 C20.099,21.477 22.5,21.134 24.272,21.662 C27.161,22.521 27.55,24.744 25.706,26.911 C24.471,28.363 23.857,29.928 26.694,30.21 C29.943,30.533 30.434,33.807 28.754,36.147 C28.115,37.036 27.199,37.974 26.15,38.61 C22.185,41.008 19.95,39.997 16.754,39.616 C16.754,39.616 10.706,42.054 10.644,45.429 C10.577,49.052 13.402,50.156 16.563,50.042 C21.165,49.877 24.103,47.956 27.504,45.169 C28.577,44.288 29.206,43.693 29.225,43.711 L29.225,43.711 Z" id="Shape" fill="#FFFFFF"></path>
                    <path d="M12.104,5.691 C13.196,7.602 11.746,8.402 10.715,9.379 C9.264,10.753 9.867,11.732 10.791,13.187 C11.413,14.167 11.805,15.655 11.51,16.795 C11.132,18.256 9.623,18.483 8.05,18.741 C4.611,19.304 2.333,22.655 3.304,25.295 C3.601,26.102 4.306,26.891 5.227,27.477 C8.163,29.34 11.006,28.518 13.482,27.209 C13.52,27.189 13.806,26.987 13.827,26.966 C13.848,26.942 13.721,27.177 13.71,27.207 C13.245,28.603 10.531,31.179 8.525,31.243" id="Shape"></path>
                    <path d="M13.727,27.129 C10.932,27.942 9.184,28.14 7.604,27.421 C5.772,26.588 4.672,24.819 5.112,22.938 C5.602,20.84 7.154,19.88 8.948,19.363 C10.919,18.795 13.312,18.901 13.902,17.446 C14.344,16.354 13.981,15.277 13.355,14.317 C12.791,13.449 12.041,12.873 11.537,12.231 C10.734,11.211 10.833,10.457 11.218,9.826 C11.676,9.072 12.54,8.493 12.76,7.849 C13.009,7.115 12.114,5.705 12.114,5.705" id="Shape"></path>
                    <path d="M7.004,45.714 C7.564,42.686 10.141,39.64 14.243,38.418 C14.617,38.307 14.526,38.292 14.856,38.486 C15.719,38.993 16.294,39.377 17.351,39.691" id="Shape"></path>
                    <path d="M6.267,51.516 C6.987,52.675 8.02,53.657 9.39,54.331 C11.736,55.486 14.836,55.725 17.907,54.848 C22.663,53.49 24.725,51.921 27.454,48.811 C27.796,48.422 28.476,47.004 28.134,47.473 C27.188,48.767 23.453,50.639 21.785,51.377 C20.145,52.103 18.474,52.654 17.01,52.949 C13.986,53.558 10.872,53.331 8.593,51.081 C8.36,50.851 8.152,50.608 7.968,50.354" id="Shape"></path>
                    <path d="M25.896,30.104 C26.319,33.447 23.99,37.469 17.852,37.823 C16.065,37.926 14.239,37.532 12.542,37.636 C10.712,37.748 9.046,38.366 7.116,40.488 C6.033,41.678 5.321,43.14 5.04,44.772" id="Shape"></path>
                    <path d="M10.634,30.766 C11.676,30.208 13.53,29.433 15.218,28.375 C16.97,27.277 18.336,25.588 20.472,25.463 C21.854,25.383 23.876,25.968 25.046,27.746" id="Shape"></path>
                </g>
            </g>
            <g id="SHIELD" transform="translate(39.000000, 47.000000)" stroke="#000000" stroke-width="0.7498" fill="#FFFFFF" sketch:type="MSShapeGroup">
                <g id="Group" transform="translate(2.000000, 27.000000)">
                    <g transform="translate(26.000000, 0.000000)">
                        <g transform="translate(0.000000, 1.000000)">
                            <path d="M0.82,16.705 L5.169,20.202 L9.577,16.705 L9.577,0.366 L0.82,0.366 L0.82,16.705 Z" id="Shape"></path>
                            <path d="M0.82,16.705 L5.169,20.202 L9.577,16.705 L9.577,13.332 L5.165,16.97 L0.82,13.34 L0.82,16.705 Z" id="Shape"></path>
                            <circle id="Oval" cx="5.198" cy="21.524" r="1.175"></circle>
                        </g>
                        <g transform="translate(8.000000, 1.000000)">
                            <path d="M1.665,16.962 L6.218,20.188 L10.405,16.43 L9.413,0.121 L0.672,0.653 L1.665,16.962 Z" id="Shape"></path>
                            <path d="M1.665,16.962 L6.218,20.188 L10.405,16.43 L10.2,13.063 L6.018,16.962 L1.46,13.603 L1.665,16.962 Z" id="Shape"></path>
                            <circle id="Oval" cx="6.328" cy="21.505" r="1.176"></circle>
                        </g>
                        <g transform="translate(16.000000, 0.000000)">
                            <path d="M2.524,17.398 L7.266,20.342 L11.217,16.337 L9.235,0.118 L0.542,1.18 L2.524,17.398 Z" id="Shape"></path>
                            <path d="M2.524,17.398 L7.266,20.342 L11.217,16.337 L10.808,12.988 L6.868,17.135 L2.116,14.059 L2.524,17.398 Z" id="Shape"></path>
                            <circle id="Oval" cx="7.454" cy="21.65" r="1.176"></circle>
                        </g>
                    </g>
                    <g>
                        <g transform="translate(18.000000, 1.000000)">
                            <path d="M8.886,16.705 L4.537,20.202 L0.129,16.705 L0.129,0.366 L8.886,0.366 L8.886,16.705 Z" id="Shape"></path>
                            <path d="M8.886,16.705 L4.537,20.202 L0.129,16.705 L0.129,13.332 L4.542,16.97 L8.886,13.34 L8.886,16.705 Z" id="Shape"></path>
                            <circle id="Oval" cx="4.508" cy="21.524" r="1.175"></circle>
                        </g>
                        <g transform="translate(9.000000, 1.000000)">
                            <path d="M9.042,16.962 L4.488,20.188 L0.301,16.43 L1.293,0.121 L10.034,0.653 L9.042,16.962 Z" id="Shape"></path>
                            <path d="M9.042,16.962 L4.488,20.188 L0.301,16.43 L0.506,13.063 L4.689,16.962 L9.246,13.603 L9.042,16.962 Z" id="Shape"></path>
                            <circle id="Oval" cx="4.378" cy="21.505" r="1.176"></circle>
                        </g>
                        <g>
                            <path d="M9.183,17.398 L4.44,20.342 L0.489,16.337 L2.471,0.118 L11.164,1.18 L9.183,17.398 Z" id="Shape"></path>
                            <path d="M9.183,17.398 L4.44,20.342 L0.489,16.337 L0.898,12.988 L4.838,17.135 L9.591,14.059 L9.183,17.398 Z" id="Shape"></path>
                            <circle id="Oval" cx="4.252" cy="21.65" r="1.176"></circle>
                        </g>
                    </g>
                </g>
                <g id="Group" transform="translate(1.000000, 13.000000)">
                    <g transform="translate(27.000000, 0.000000)">
                        <g transform="translate(0.000000, 2.000000)">
                            <path d="M0.819,16.985 L5.304,20.592 L9.849,16.985 L9.849,0.139 L0.819,0.139 L0.819,16.985 Z" id="Shape"></path>
                            <path d="M0.819,16.985 L5.304,20.592 L9.849,16.985 L9.849,13.508 L5.299,17.259 L0.819,13.516 L0.819,16.985 Z" id="Shape"></path>
                            <circle id="Oval" cx="5.334" cy="21.954" r="1.212"></circle>
                        </g>
                        <g transform="translate(8.000000, 1.000000)">
                            <path d="M1.938,18.25 L6.634,21.577 L10.951,17.702 L9.928,0.887 L0.915,1.435 L1.938,18.25 Z" id="Shape"></path>
                            <path d="M1.938,18.25 L6.634,21.577 L10.951,17.702 L10.739,14.23 L6.426,18.25 L1.728,14.787 L1.938,18.25 Z" id="Shape"></path>
                            <circle id="Oval" cx="6.746" cy="22.935" r="1.212"></circle>
                        </g>
                        <g transform="translate(17.000000, 0.000000)">
                            <path d="M2.073,18.669 L6.962,21.704 L11.035,17.574 L8.992,0.853 L0.029,1.947 L2.073,18.669 Z" id="Shape"></path>
                            <path d="M2.073,18.669 L6.962,21.704 L11.035,17.574 L10.613,14.122 L6.553,18.397 L1.652,15.226 L2.073,18.669 Z" id="Shape"></path>
                            <circle id="Oval" cx="7.157" cy="23.054" r="1.212"></circle>
                        </g>
                    </g>
                    <g>
                        <g transform="translate(18.000000, 2.000000)">
                            <path d="M9.887,16.985 L5.402,20.592 L0.857,16.985 L0.857,0.139 L9.887,0.139 L9.887,16.985 Z" id="Shape"></path>
                            <path d="M9.887,16.985 L5.402,20.592 L0.857,16.985 L0.857,13.508 L5.407,17.259 L9.887,13.516 L9.887,16.985 Z" id="Shape"></path>
                            <circle id="Oval" cx="5.373" cy="21.954" r="1.212"></circle>
                        </g>
                        <g transform="translate(9.000000, 1.000000)">
                            <path d="M9.768,18.25 L5.072,21.577 L0.755,17.702 L1.779,0.887 L10.791,1.435 L9.768,18.25 Z" id="Shape"></path>
                            <path d="M9.768,18.25 L5.072,21.577 L0.755,17.702 L0.967,14.23 L5.28,18.25 L9.979,14.787 L9.768,18.25 Z" id="Shape"></path>
                            <circle id="Oval" cx="4.96" cy="22.935" r="1.212"></circle>
                        </g>
                        <g>
                            <path d="M9.634,18.669 L4.744,21.704 L0.671,17.574 L2.714,0.853 L11.677,1.947 L9.634,18.669 Z" id="Shape"></path>
                            <path d="M9.634,18.669 L4.744,21.704 L0.671,17.574 L1.093,14.122 L5.153,18.397 L10.054,15.226 L9.634,18.669 Z" id="Shape"></path>
                            <circle id="Oval" cx="4.549" cy="23.054" r="1.212"></circle>
                        </g>
                    </g>
                </g>
                <g id="Group">
                    <g transform="translate(28.000000, 0.000000)">
                        <g transform="translate(0.000000, 1.000000)">
                            <path d="M0.818,17.791 L5.443,21.51 L10.131,17.791 L10.131,0.416 L0.818,0.416 L0.818,17.791 Z" id="Shape"></path>
                            <path d="M0.818,17.791 L5.443,21.51 L10.131,17.791 L10.131,14.204 L5.438,18.073 L0.818,14.213 L0.818,17.791 Z" id="Shape"></path>
                            <circle id="Oval" cx="5.474" cy="22.915" r="1.25"></circle>
                        </g>
                        <g transform="translate(9.000000, 1.000000)">
                            <path d="M1.224,18.064 L6.066,21.495 L10.519,17.498 L9.463,0.155 L0.168,0.721 L1.224,18.064 Z" id="Shape"></path>
                            <path d="M1.224,18.064 L6.066,21.495 L10.519,17.498 L10.301,13.918 L5.852,18.064 L1.006,14.492 L1.224,18.064 Z" id="Shape"></path>
                            <circle id="Oval" cx="6.182" cy="22.896" r="1.25"></circle>
                        </g>
                        <g transform="translate(17.000000, 0.000000)">
                            <path d="M2.645,18.465 L7.687,21.596 L11.889,17.336 L9.781,0.089 L0.537,1.218 L2.645,18.465 Z" id="Shape"></path>
                            <path d="M2.645,18.465 L7.687,21.596 L11.889,17.336 L11.453,13.774 L7.265,18.184 L2.211,14.913 L2.645,18.465 Z" id="Shape"></path>
                            <circle id="Oval" cx="7.888" cy="22.987" r="1.25"></circle>
                        </g>
                    </g>
                    <g>
                        <g transform="translate(19.000000, 1.000000)">
                            <path d="M9.889,17.791 L5.263,21.51 L0.575,17.791 L0.575,0.416 L9.889,0.416 L9.889,17.791 Z" id="Shape"></path>
                            <path d="M9.889,17.791 L5.263,21.51 L0.575,17.791 L0.575,14.204 L5.268,18.073 L9.889,14.213 L9.889,17.791 Z" id="Shape"></path>
                            <circle id="Oval" cx="5.232" cy="22.915" r="1.25"></circle>
                        </g>
                        <g transform="translate(10.000000, 1.000000)">
                            <path d="M9.482,18.064 L4.641,21.495 L0.188,17.498 L1.243,0.155 L10.538,0.721 L9.482,18.064 Z" id="Shape"></path>
                            <path d="M9.482,18.064 L4.641,21.495 L0.188,17.498 L0.405,13.918 L4.854,18.064 L9.7,14.492 L9.482,18.064 Z" id="Shape"></path>
                            <circle id="Oval" cx="4.524" cy="22.896" r="1.25"></circle>
                        </g>
                        <g>
                            <path d="M10.062,18.465 L5.02,21.596 L0.817,17.336 L2.925,0.089 L12.169,1.218 L10.062,18.465 Z" id="Shape"></path>
                            <path d="M10.062,18.465 L5.02,21.596 L0.817,17.336 L1.253,13.774 L5.441,18.184 L10.495,14.913 L10.062,18.465 Z" id="Shape"></path>
                            <circle id="Oval" cx="4.818" cy="22.987" r="1.25"></circle>
                        </g>
                    </g>
                </g>
            </g>
            <g id="CURTAIN_x5F_BOTTOM" transform="translate(24.000000, 120.000000)" stroke="#000000" stroke-width="0.7498" sketch:type="MSShapeGroup">
                <path d="M94,24.033 C96.16,23.512 98.073,23.672 99.486,24.467 C101.493,25.598 102.504,28.028 100.948,30.416 C99.65,32.411 97.505,32.894 95.767,32.574 C92.568,31.986 92.219,29.381 95.777,29.106 C97.589,28.966 98.496,28.35 98.665,27.609 C99.239,25.087 93.209,22.751 89.163,24.784 C86.553,26.095 85.385,29.192 85.822,31.921 C86.687,37.323 93.855,38.215 98.282,37.854 C99.751,37.734 101.227,37.421 102.601,36.842 C107.789,34.654 109.664,31.467 109.914,28.654 C110.164,25.841 109.289,22.654 106.851,20.654 C104.413,18.654 101.413,17.029 96.163,15.904 C90.913,14.779 80.913,17.654 76.163,20.904 C71.413,24.154 39.475,26.279 34.6,24.904 C29.725,23.529 19.849,20.279 14.474,20.279 C11.729,20.279 1.177,21.724 0.209,23.936 C-0.92,26.517 3.868,29.181 9.546,30.072 C14.467,30.845 19.807,30.82 21.519,30.668 C27.198,30.163 32.449,28.647 39.476,26.905 C39.469,27.046 39.447,27.188 39.472,27.324 C40.362,31.964 46.444,35.637 52.73,37.349 C60.203,39.385 68.076,38.589 75.141,35.399 C77.258,34.443 79.332,33.217 81.351,31.654 C82.408,30.836 84.132,29.443 86.15,28.043" id="Shape"></path>
                <g id="Group">
                    <g transform="translate(10.000000, 2.000000)" id="Shape" fill="#FFFFFF">
                        <path d="M2.563,0.857 C1.195,1.401 0.141,2.451 0.346,4.143 C0.658,6.719 3.097,6.907 3.19,8.518 C3.251,9.579 5.787,8.275 6.776,6.061 C7.337,4.808 7.401,3.263 6.243,1.69 C5.523,0.716 4.345,0.148 2.563,0.857 L2.563,0.857 Z"></path>
                        <path d="M2.312,0.965 C1.069,1.535 0.154,2.557 0.346,4.144 C0.658,6.72 3.097,6.908 3.19,8.519 C3.241,9.406 5.021,8.639 6.182,7.071 C5.494,7.447 4.936,7.463 4.909,6.973 C4.816,5.361 2.378,5.173 2.065,2.598 C1.987,1.966 2.086,1.424 2.312,0.965 L2.312,0.965 Z"></path>
                    </g>
                    <g transform="translate(66.000000, 2.000000)" id="Shape" fill="#FFFFFF">
                        <path d="M5.204,0.857 C6.571,1.401 7.626,2.451 7.421,4.143 C7.109,6.719 4.67,6.907 4.577,8.518 C4.516,9.579 1.98,8.275 0.991,6.061 C0.43,4.808 0.366,3.263 1.524,1.69 C2.243,0.716 3.422,0.148 5.204,0.857 L5.204,0.857 Z"></path>
                        <path d="M5.455,0.965 C6.698,1.535 7.613,2.557 7.421,4.144 C7.109,6.72 4.67,6.908 4.577,8.519 C4.526,9.406 2.746,8.639 1.585,7.071 C2.273,7.447 2.831,7.463 2.858,6.973 C2.951,5.361 5.389,5.173 5.702,2.598 C5.779,1.966 5.68,1.424 5.455,0.965 L5.455,0.965 Z"></path>
                    </g>
                    <g id="Shape">
                        <path d="M16.007,2.079 C13.806,8.66 9.137,15.332 1.669,22.486 C1.236,22.9 0.794,23.317 0.342,23.735 C0.178,23.886 0.961,23.276 1.364,23.115 C3.548,22.237 7.34,23.532 8.828,24.205 C11.149,25.255 14.001,27.137 17.787,30.61 C24.918,37.152 29.615,36.163 36.682,31.269 C39.014,29.655 41.552,27.894 43.481,27.428 C46.413,26.72 50.013,26.954 48.516,30.171 C48.133,30.995 47.305,31.666 47.063,32.078 C46.54,32.968 46.633,33.939 48.813,35.654 C51.783,37.989 55.711,38.266 59.604,37.48 C64.829,36.424 70.102,33.338 73.319,30.328 C75.437,28.347 77.388,26.706 79.587,24.448 C83.815,20.108 93.361,15.003 101.882,17.89 C104.835,18.891 101.495,17.165 97.13,15.77 C89.965,13.478 84.295,15.879 76.703,12.245 C73.835,10.871 71.37,8.94 69.944,6.391 C67.881,2.703 66.819,0.828 66.819,0.828 C66.819,0.828 15.88,1.829 16.007,2.079 L16.007,2.079 Z" fill="#FFFFFF"></path>
                        <path d="M16.007,2.079 C15.87,2.487 15.724,2.896 15.568,3.307 C15.785,2.887 15.991,2.468 16.187,2.05 C16.068,2.061 16.002,2.07 16.007,2.079 L16.007,2.079 L16.007,2.079 Z M4.938,19.197 C3.915,20.283 2.826,21.379 1.669,22.486 C1.236,22.9 0.794,23.317 0.342,23.735 C0.178,23.886 0.961,23.276 1.364,23.115 C3.548,22.237 7.34,23.532 8.828,24.205 C16.019,27.457 19.365,33.448 24.522,34.904 C27.56,35.761 31.228,35.047 36.681,31.269 C39.013,29.655 41.551,27.894 43.48,27.428 C44.864,27.094 47.177,26.75 48.41,27.739 C46.535,23.603 41.626,23.142 37.686,25.662 C33.176,28.548 28.36,33.032 19.412,26.985 C14.747,23.833 10.958,19.326 4.938,19.197 L4.938,19.197 L4.938,19.197 Z M48.5,30.205 C52.23,37.685 68.973,33.229 73.739,29.937 L73.318,30.329 C70.101,33.34 64.828,36.426 59.603,37.481 C55.71,38.267 51.782,37.99 48.812,35.655 C46.632,33.94 46.539,32.968 47.062,32.079 C47.302,31.672 48.11,31.014 48.5,30.205 L48.5,30.205 Z" fill="#FFFFFF"></path>
                        <path d="M57.645,9.033 C61.568,19.096 74.919,18.653 82.64,16.513 C85.952,15.595 89.341,14.588 94.036,15.001"></path>
                        <path d="M64.473,5.408 C66.269,10.096 70.669,13.447 76.317,14.846"></path>
                        <path d="M51.785,10.783 C54.275,17.541 60.655,22.799 69.629,22.439"></path>
                        <path d="M47.41,10.783 C50.988,20.014 59.058,27.745 69.753,28.287"></path>
                        <path d="M42.285,10.783 C43.328,18.097 45.494,23.9 48.426,27.781"></path>
                        <path d="M37.479,9.338 C37.508,12.74 37.882,15.439 38.523,17.244"></path>
                        <path d="M61.483,4.908 C62.633,9.909 64.507,12.26 69.191,14.158"></path>
                        <path d="M54.921,8.658 C56.071,13.659 57.945,16.01 62.629,17.908"></path>
                        <path d="M34.671,10.221 C33.163,15.794 33.976,18.277 35.723,21.806"></path>
                        <path d="M31.733,10.533 C28.156,17.343 28.589,19.716 28.212,25.28"></path>
                        <path d="M22.898,6.339 C19.829,13.6 17.703,14.902 13.595,18.976"></path>
                        <path d="M25.71,6.945 C23.755,14.576 21.829,16.243 18.346,20.975"></path>
                        <path d="M19.152,4.118 C17.412,10.194 15.697,11.52 12.595,15.289"></path>
                    </g>
                </g>
                <path d="M2.305,22.904 C2.21,23.524 2.412,24.083 2.809,24.578 C4.165,26.278 6.937,27.069 9.831,27.451 C11.48,27.669 13.17,27.753 14.661,27.797" id="Shape"></path>
                <path d="M46.485,27.043 C47.759,29.261 43.222,28.98 44.363,33.645" id="Shape"></path>
                <path d="M97.577,28.719 C96.1,29.081 95.728,30.704 97.384,31.252 C98.533,31.632 100.417,31.308 101.238,29.949" id="Shape"></path>
            </g>
            <g id="CURTAIN_x5F_CENTRAL" transform="translate(35.000000, 93.000000)" stroke="#000000" stroke-width="0.7498" sketch:type="MSShapeGroup">
                <g id="Group">
                    <path d="M13.174,35.747 C15.17,35.742 18.016,34.893 21.091,33.872 C24.155,32.856 27.447,31.669 30.384,30.985 C33.184,31.673 36.313,32.874 39.261,33.91 C42.23,34.954 45.024,35.833 47.08,35.849 C52.909,36.094 55.438,29 61.685,30.782 C60.427,28.03 59.286,25.43 58.309,22.904 C57.346,20.413 56.526,17.982 55.92,15.546 C55.323,13.143 54.923,10.724 54.775,8.226 C54.629,5.757 54.715,3.206 55.096,0.508 C52.599,2.334 48.995,4.127 44.953,5.598 C40.894,7.075 36.406,8.224 32.219,8.748 C28.098,8.327 23.856,7.291 20.126,5.935 C16.438,4.593 13.243,2.94 11.151,1.228 C11.08,3.857 10.755,6.345 10.221,8.763 C9.68,11.207 8.923,13.584 7.973,15.938 C7.009,18.323 5.847,20.7 4.546,23.128 C3.229,25.586 1.752,28.11 0.159,30.768 C6.293,29.037 7.563,35.952 13.174,35.747 L13.174,35.747 Z" id="Shape" fill="#FFFFFF"></path>
                    <path d="M47.092,35.878 C40.672,35.823 35.306,35.793 29.983,35.776 C24.685,35.76 19.416,35.758 13.177,35.775 C7.572,35.98 6.294,29.064 0.158,30.792 C1.133,29.167 1.853,28.183 2.686,26.65 C7.628,26.221 9.298,31.359 14.396,31.161 C21.201,31.127 25.773,31.109 30.367,31.112 C34.974,31.114 39.617,31.135 46.612,31.175 C51.898,31.385 54.53,26.112 59.695,26.53 C60.323,28.108 60.926,29.126 61.698,30.805 C55.449,29.029 52.922,36.124 47.092,35.878 L47.092,35.878 Z" id="Shape"></path>
                    <g transform="translate(9.000000, 5.000000)" id="Shape">
                        <g>
                            <path d="M4.03,10.457 C5.052,10.449 5.777,11.237 5.65,12.227 C5.524,13.217 4.581,14.039 3.546,14.044 C2.511,14.05 1.798,13.242 1.935,12.253 C2.072,11.263 3.009,10.465 4.03,10.457 L4.03,10.457 Z"></path>
                            <path d="M3.895,11.478 C4.331,11.474 4.644,11.813 4.588,12.235 C4.533,12.657 4.122,13.004 3.685,13.006 C3.248,13.009 2.947,12.667 3.003,12.245 C3.061,11.824 3.46,11.48 3.895,11.478 L3.895,11.478 Z"></path>
                            <path d="M1.277,10.697 C1.794,10.693 2.158,11.092 2.087,11.588 C2.016,12.084 1.543,12.492 1.024,12.495 C0.504,12.499 0.144,12.097 0.215,11.601 C0.286,11.105 0.76,10.701 1.277,10.697 L1.277,10.697 Z"></path>
                            <path d="M6.439,12.18 C6.958,12.177 7.333,12.578 7.271,13.08 C7.208,13.583 6.726,13.997 6.205,14 C5.683,14.003 5.32,13.594 5.385,13.092 C5.449,12.591 5.921,12.184 6.439,12.18 L6.439,12.18 Z"></path>
                            <path d="M2.981,13.991 C3.501,13.988 3.864,14.396 3.796,14.905 C3.728,15.414 3.248,15.827 2.728,15.829 C2.207,15.832 1.837,15.424 1.907,14.916 C1.977,14.407 2.463,13.994 2.981,13.991 L2.981,13.991 Z"></path>
                            <path d="M5.211,7.169 C5.725,7.148 6.106,7.526 6.055,8.014 C6.004,8.502 5.555,8.917 5.037,8.939 C4.52,8.96 4.145,8.575 4.193,8.087 C4.241,7.599 4.696,7.189 5.211,7.169 L5.211,7.169 Z"></path>
                            <path d="M6.063,4.063 C6.575,4.028 6.96,4.381 6.929,4.861 C6.897,5.34 6.46,5.76 5.949,5.798 C5.437,5.834 5.046,5.473 5.077,4.993 C5.108,4.513 5.552,4.099 6.063,4.063 L6.063,4.063 Z"></path>
                            <path d="M6.747,0.784 C7.253,0.734 7.649,1.07 7.64,1.538 C7.629,2.007 7.213,2.432 6.702,2.483 C6.191,2.534 5.792,2.192 5.804,1.722 C5.815,1.253 6.241,0.835 6.747,0.784 L6.747,0.784 Z"></path>
                            <path d="M2.425,15.817 C2.832,15.815 3.127,16.135 3.071,16.538 C3.014,16.94 2.636,17.267 2.228,17.268 C1.819,17.27 1.526,16.949 1.581,16.547 C1.637,16.146 2.018,15.819 2.425,15.817 L2.425,15.817 Z"></path>
                            <path d="M4.732,8.938 C5.133,8.922 5.441,9.219 5.403,9.604 C5.365,9.989 4.998,10.319 4.595,10.334 C4.192,10.35 3.896,10.048 3.935,9.661 C3.976,9.274 4.331,8.953 4.732,8.938 L4.732,8.938 Z"></path>
                            <path d="M5.651,5.808 C6.053,5.782 6.36,6.064 6.332,6.442 C6.305,6.82 5.964,7.148 5.561,7.176 C5.157,7.204 4.852,6.919 4.879,6.539 C4.905,6.16 5.248,5.835 5.651,5.808 L5.651,5.808 Z"></path>
                            <path d="M6.404,2.501 C6.801,2.461 7.111,2.73 7.101,3.102 C7.092,3.472 6.765,3.803 6.364,3.841 C5.963,3.878 5.644,3.614 5.656,3.244 C5.667,2.873 6.007,2.54 6.404,2.501 L6.404,2.501 Z"></path>
                            <path d="M1.428,18.851 C1.643,18.892 1.886,18.75 1.954,18.533 C2.022,18.316 1.912,18.109 1.698,18.068 C1.483,18.027 1.253,18.169 1.177,18.386 C1.103,18.603 1.213,18.81 1.428,18.851 L1.428,18.851 Z"></path>
                            <path d="M2.709,18.665 C2.92,18.031 2.58,17.42 1.953,17.298 C1.327,17.175 0.643,17.592 0.428,18.229 C0.224,18.834 0.607,20.154 0.778,20.801 C1.332,20.298 2.507,19.271 2.709,18.665 L2.709,18.665 Z"></path>
                        </g>
                        <g transform="translate(37.000000, 0.000000)">
                            <path d="M4.713,10.142 C3.644,10.151 2.753,10.967 2.719,11.975 C2.684,12.983 3.523,13.809 4.599,13.802 C5.675,13.796 6.576,12.959 6.6,11.948 C6.624,10.937 5.781,10.133 4.713,10.142 L4.713,10.142 Z"></path>
                            <path d="M4.682,11.183 C4.229,11.186 3.842,11.537 3.828,11.967 C3.814,12.397 4.175,12.746 4.63,12.743 C5.085,12.74 5.473,12.386 5.484,11.956 C5.496,11.525 5.135,11.18 4.682,11.183 L4.682,11.183 Z"></path>
                            <path d="M7.555,10.34 C7.011,10.344 6.57,10.762 6.557,11.269 C6.545,11.776 6.962,12.184 7.509,12.18 C8.055,12.177 8.5,11.759 8.512,11.251 C8.524,10.743 8.099,10.335 7.555,10.34 L7.555,10.34 Z"></path>
                            <path d="M1.913,11.941 C1.375,11.945 0.917,12.359 0.896,12.87 C0.876,13.381 1.298,13.793 1.837,13.79 C2.377,13.787 2.833,13.365 2.854,12.854 C2.874,12.343 2.45,11.938 1.913,11.941 L1.913,11.941 Z"></path>
                            <path d="M5.209,13.742 C4.666,13.745 4.212,14.167 4.196,14.685 C4.18,15.203 4.605,15.622 5.15,15.619 C5.695,15.616 6.156,15.192 6.169,14.675 C6.183,14.158 5.751,13.738 5.209,13.742 L5.209,13.742 Z"></path>
                            <path d="M4.044,6.805 C3.515,6.796 3.045,7.187 3.014,7.684 C2.982,8.182 3.379,8.593 3.917,8.607 C4.454,8.62 4.916,8.216 4.948,7.72 C4.98,7.224 4.573,6.813 4.044,6.805 L4.044,6.805 Z"></path>
                            <path d="M3.686,3.651 C3.162,3.628 2.693,3.998 2.641,4.487 C2.589,4.975 2.976,5.391 3.505,5.418 C4.035,5.444 4.492,5.064 4.545,4.576 C4.598,4.087 4.21,3.676 3.686,3.651 L3.686,3.651 Z"></path>
                            <path d="M3.524,0.32 C3.008,0.283 2.539,0.636 2.472,1.115 C2.406,1.593 2.772,2.015 3.292,2.055 C3.813,2.094 4.287,1.73 4.352,1.249 C4.416,0.77 4.041,0.357 3.524,0.32 L3.524,0.32 Z"></path>
                            <path d="M5.469,15.604 C5.043,15.606 4.695,15.937 4.68,16.347 C4.665,16.757 5.002,17.088 5.429,17.086 C5.856,17.084 6.219,16.748 6.229,16.34 C6.239,15.931 5.894,15.602 5.469,15.604 L5.469,15.604 Z"></path>
                            <path d="M4.234,8.6 C3.817,8.592 3.46,8.902 3.429,9.296 C3.398,9.69 3.724,10.017 4.143,10.025 C4.561,10.034 4.925,9.723 4.948,9.329 C4.972,8.935 4.651,8.608 4.234,8.6 L4.234,8.6 Z"></path>
                            <path d="M3.813,5.422 C3.403,5.403 3.032,5.698 2.992,6.084 C2.953,6.469 3.252,6.8 3.669,6.818 C4.087,6.838 4.456,6.541 4.491,6.153 C4.526,5.765 4.224,5.44 3.813,5.422 L3.813,5.422 Z"></path>
                            <path d="M3.594,2.063 C3.185,2.033 2.82,2.316 2.769,2.694 C2.717,3.073 3.001,3.403 3.41,3.431 C3.817,3.46 4.185,3.182 4.241,2.803 C4.296,2.425 4.002,2.093 3.594,2.063 L3.594,2.063 Z"></path>
                            <path d="M5.995,18.698 C5.767,18.742 5.548,18.598 5.509,18.376 C5.469,18.154 5.619,17.94 5.853,17.898 C6.086,17.857 6.306,17.997 6.345,18.216 C6.385,18.438 6.223,18.655 5.995,18.698 L5.995,18.698 Z"></path>
                            <path d="M4.695,18.518 C4.582,17.872 5.033,17.245 5.711,17.114 C6.388,16.983 7.039,17.403 7.157,18.052 C7.269,18.669 6.64,20.029 6.351,20.695 C5.854,20.179 4.805,19.139 4.695,18.518 L4.695,18.518 Z"></path>
                        </g>
                    </g>
                </g>
                <g id="Group" transform="translate(16.000000, 33.000000)" fill="#FFFFFF">
                    <path d="M2.96,0.319 C7.519,0.43 9.824,3.407 13.551,4.959 C10.087,5.482 5.931,5.859 2.488,4.68 C-0.463,3.667 -0.776,0.229 2.96,0.319 L2.96,0.319 Z" id="Shape"></path>
                    <path d="M30.557,0.319 C25.998,0.43 23.692,3.407 19.966,4.959 C23.43,5.482 27.586,5.859 31.029,4.68 C33.979,3.667 34.293,0.229 30.557,0.319 L30.557,0.319 Z" id="Shape"></path>
                </g>
                <path d="M32.759,39.236 C38.956,39.327 42.619,32.737 49.072,34.267 C45.246,23.747 44.48,14.82 45.822,7.801 C37.524,11.251 28.828,11.351 19.696,7.801 C21.037,14.82 20.272,23.747 16.446,34.267 C22.897,32.737 26.561,39.327 32.759,39.236 L32.759,39.236 Z" id="Shape" fill="#FFFFFF"></path>
                <path d="M32.759,39.268 C38.956,39.359 42.619,32.769 49.072,34.298 C48.509,32.753 48.014,31.81 47.582,30.335 C42.021,30.03 38.464,35.039 32.76,34.955 C27.055,35.039 23.497,30.03 17.937,30.335 C17.504,31.81 17.009,32.753 16.447,34.298 C22.897,32.769 26.561,39.358 32.759,39.268 L32.759,39.268 Z" id="Shape"></path>
                <g id="Group" transform="translate(22.000000, 19.000000)">
                    <g>
                        <path d="M4.844,4.735 C5.954,4.735 6.86,3.83 6.86,2.719 C6.86,1.61 5.955,0.704 4.844,0.704 C3.733,0.704 2.828,1.609 2.828,2.719 C2.828,3.83 3.733,4.735 4.844,4.735 L4.844,4.735 Z" id="Shape"></path>
                        <circle id="Oval" cx="4.844" cy="2.72" r="0.86"></circle>
                        <circle id="Oval" cx="1.875" cy="1.97" r="1.016"></circle>
                        <circle id="Oval" cx="7.703" cy="3.689" r="1.016"></circle>
                        <circle id="Oval" cx="4.219" cy="5.689" r="1.016"></circle>
                        <circle id="Oval" cx="3.891" cy="7.486" r="0.795"></circle>
                        <circle id="Oval" cx="3.354" cy="9.577" r="0.433"></circle>
                        <path d="M4.605,9.807 C4.74,9.117 4.291,8.448 3.6,8.313 C2.911,8.178 2.242,8.628 2.107,9.318 C1.978,9.977 2.586,11.409 2.859,12.106 C3.375,11.563 4.478,10.464 4.605,9.807 L4.605,9.807 Z" id="Shape"></path>
                    </g>
                    <g transform="translate(12.000000, 0.000000)">
                        <path d="M4.672,4.735 C5.782,4.735 6.688,3.83 6.688,2.719 C6.688,1.61 5.783,0.704 4.672,0.704 C3.563,0.704 2.657,1.609 2.657,2.719 C2.657,3.83 3.563,4.735 4.672,4.735 L4.672,4.735 Z" id="Shape"></path>
                        <circle id="Oval" cx="4.672" cy="2.72" r="0.86"></circle>
                        <circle id="Oval" cx="7.641" cy="1.97" r="1.016"></circle>
                        <circle id="Oval" cx="1.813" cy="3.689" r="1.016"></circle>
                        <circle id="Oval" cx="5.297" cy="5.689" r="1.016"></circle>
                        <circle id="Oval" cx="5.625" cy="7.486" r="0.795"></circle>
                        <circle id="Oval" cx="6.162" cy="9.577" r="0.433"></circle>
                        <path d="M4.91,9.807 C4.775,9.117 5.225,8.448 5.915,8.313 C6.605,8.178 7.274,8.628 7.409,9.318 C7.538,9.977 6.93,11.409 6.656,12.106 C6.141,11.563 5.039,10.464 4.91,9.807 L4.91,9.807 Z" id="Shape"></path>
                    </g>
                </g>
                <g id="Group" transform="translate(12.000000, 2.000000)" fill="#FFFFFF">
                    <path d="M40.974,5.261 C36.951,3.445 31.99,7.721 31.787,12.736 C28.3,3.313 38.051,-4.854 40.974,5.261 L40.974,5.261 Z" id="Shape"></path>
                    <path d="M0.543,5.261 C4.566,3.445 9.527,7.721 9.73,12.736 C13.217,3.313 3.466,-4.854 0.543,5.261 L0.543,5.261 Z" id="Shape"></path>
                </g>
            </g>
            <g id="BODY" transform="translate(36.000000, 26.000000)" stroke="#000000" stroke-width="0.7498" sketch:type="MSShapeGroup">
                <g id="Group" transform="translate(0.000000, 15.000000)">
                    <path d="M56.149,2.503 C64.382,17.491 65.72,45.42 54.024,59.238 C51.138,62.562 51.012,53.577 45.374,57.08 C39.893,60.632 49.48,73.065 31.758,73.065 C14.036,73.065 23.623,60.631 18.143,57.08 C12.503,53.577 12.379,62.563 9.493,59.238 C-2.2,45.412 -0.869,17.498 7.368,2.503 L9.025,2.503 C7.576,7.584 6.767,13.235 6.767,19.19 C6.767,41.35 17.956,59.315 31.759,59.315 C45.561,59.315 56.75,41.35 56.75,19.19 C56.75,13.236 55.941,7.585 54.492,2.503 L56.149,2.503 L56.149,2.503 Z" id="Shape" fill="#FFFFFF"></path>
                    <path d="M48.086,56.15 C54.858,48.307 59.25,35.708 59.25,21.502 C59.25,13.758 57.944,6.493 55.66,0.214 C58.331,6.95 59.875,14.897 59.875,23.408 C59.875,36.904 55.998,48.982 49.893,57.058" id="Shape"></path>
                    <path d="M20.012,60.446 C23.574,63.087 27.556,64.564 31.759,64.564 C35.94,64.564 39.904,63.102 43.451,60.486" id="Shape"></path>
                    <path d="M13.632,57.068 C7.523,48.992 3.642,36.909 3.642,23.408 C3.642,14.896 5.186,6.95 7.857,0.214 C5.573,6.493 4.267,13.758 4.267,21.502 C4.267,35.757 8.689,48.395 15.501,56.232" id="Shape"></path>
                    <path d="M43.313,63.562 C39.79,66.053 35.877,67.44 31.759,67.44 C27.622,67.44 23.694,66.041 20.156,63.529" id="Shape"></path>
                </g>
                <path d="M54.498,18.367 C60.511,15.349 36.684,-0.185 31.758,0.069 C26.833,-0.185 3.006,15.349 9.018,18.367 C10.346,21.327 53.171,21.327 54.498,18.367 L54.498,18.367 Z" id="Shape" fill="#FFFFFF"></path>
            </g>
            <g id="HORNS" transform="translate(13.000000, 24.000000)" stroke="#000000" stroke-width="0.7498" sketch:type="MSShapeGroup">
                <g id="Group" transform="translate(27.000000, 18.000000)" fill="#FFFFFF">
                    <path d="M12,9.293 C23.395,10.217 31.865,10.217 43.26,9.293 C48.489,8.869 52.464,7.953 55.446,6.801 L55.446,2.942 C55.264,3.029 55.074,3.105 54.876,3.169 C47.9,5.401 38.638,6.578 29.25,6.699 C18.784,6.835 8.163,5.657 0.386,3.169 C0.279,3.135 0.174,3.097 0.072,3.055 L0.072,6.895 C3.024,8.003 6.92,8.882 12,9.293 L12,9.293 Z" id="Shape"></path>
                    <path d="M12,7.235 C23.395,8.158 31.865,8.159 43.26,7.235 C48.489,6.81 52.464,5.895 55.446,4.742 L55.446,0.883 C55.264,0.97 55.074,1.047 54.876,1.11 C47.9,3.342 38.638,4.52 29.25,4.641 C18.784,4.776 8.163,3.599 0.386,1.11 C0.279,1.076 0.174,1.038 0.072,0.997 L0.072,4.837 C3.024,5.945 6.92,6.823 12,7.235 L12,7.235 Z" id="Shape"></path>
                </g>
                <g id="Group" transform="translate(0.000000, 15.000000)">
                    <g id="Shape">
                        <g transform="translate(0.000000, 4.000000)">
                            <path d="M6.435,7.553 C5.726,8.819 0.388,12.496 1.497,15.302 C2.546,17.955 7.553,15.859 9.343,15.088 C14.576,12.836 13.599,15.34 15.05,15.851 C15.779,16.109 17.083,16.154 18.842,15.647 C21.032,15.014 23.298,14.127 25.261,12.387 C27.78,10.154 29.805,7.264 30.547,5.019 C31.969,0.718 24.649,-0.055 17.883,0.804 C11.257,1.646 8.738,2.847 7.404,3.786 C3.656,6.426 7.71,5.273 6.435,7.553 L6.435,7.553 Z" fill="#FFFFFF"></path>
                            <path d="M6.164,4.434 C5.405,5.195 5.111,5.93 6.642,6.038 C7.498,6.098 8.745,6.025 9.272,6.521 C9.686,6.911 9.878,8.13 8.536,8.413 C4.387,9.286 0.72,10.351 0.102,14.993 C-0.297,17.998 3.879,17.41 5.664,16.753 C8.171,15.829 9.342,13.335 11.13,12.43 C12.332,11.821 13.88,11.882 13.943,13.383 C14.006,14.883 14.131,16.413 15.631,16.32 C19.222,16.095 23.711,12.741 26.129,8.949 C30.021,2.846 24.242,1.106 18.223,1.09 C14.135,1.078 9.178,1.411 6.164,4.434 L6.164,4.434 Z" fill="#FFFFFF"></path>
                            <path d="M13.954,12.938 C15.036,12.947 16.165,12.761 17.241,12.434 C18.877,11.936 21.036,10.797 22.353,9.092 C26.611,3.586 21.319,2.613 16.5,3.426 C14.339,3.789 12.571,4.639 11.286,5.382 C10.549,5.809 9.983,6.277 9.568,6.761"></path>
                            <path d="M8.72,8.421 C8.511,9.44 8.84,10.431 9.532,11.203 C9.99,11.714 10.541,12.099 11.153,12.376"></path>
                            <path d="M14.728,4.78 C12.493,6.074 12.428,7.874 13.451,9.015 C14.735,10.449 17.024,10.53 19.06,9.911 C20.25,9.548 21.821,8.72 22.78,7.48 C25.878,3.473 22.027,2.766 18.521,3.357 C16.948,3.622 15.662,4.239 14.728,4.78 L14.728,4.78 Z" fill="#FFFFFF"></path>
                            <path d="M17.464,4.716 C15.975,5.578 15.931,6.778 16.612,7.537 C17.467,8.492 18.993,8.547 20.349,8.134 C21.142,7.893 22.188,7.341 22.827,6.515 C24.89,3.846 22.326,3.374 19.99,3.768 C18.943,3.944 18.086,4.355 17.464,4.716 L17.464,4.716 Z" fill="#FFFFFF"></path>
                            <path d="M7.968,8.568 C7.102,9.995 6.71,10.861 6.452,13.302"></path>
                            <path d="M15.751,16.098 C20.108,16.007 23.88,10.9 24.783,5.035"></path>
                        </g>
                        <path d="M21.852,0.799 C20.853,2.008 18.659,5.631 19.641,7.105 C20.204,7.949 21.11,8.449 22.579,8.324 C24.048,8.199 25.05,7.676 25.05,7.676 C25.05,7.676 24.269,7.731 23.675,7.324 C21.851,6.076 23.2,3.528 24.267,2.386 C24.267,2.386 22.854,1.286 22.267,0.815 C22.01,0.608 22.064,0.541 21.852,0.799 L21.852,0.799 Z" fill="#FFFFFF"></path>
                    </g>
                    <g transform="translate(78.000000, 0.000000)" id="Shape">
                        <g transform="translate(0.000000, 4.000000)">
                            <path d="M25.082,7.553 C25.791,8.819 31.129,12.496 30.02,15.302 C28.972,17.955 23.965,15.859 22.175,15.088 C16.941,12.836 17.919,15.34 16.468,15.851 C15.739,16.109 14.435,16.154 12.676,15.647 C10.486,15.014 8.22,14.127 6.257,12.387 C3.737,10.154 1.713,7.264 0.971,5.019 C-0.451,0.718 6.868,-0.055 13.635,0.804 C20.261,1.646 22.78,2.847 24.114,3.786 C27.86,6.426 23.806,5.273 25.082,7.553 L25.082,7.553 Z" fill="#FFFFFF"></path>
                            <path d="M25.353,4.434 C26.112,5.195 26.406,5.93 24.875,6.038 C24.019,6.098 22.772,6.025 22.245,6.521 C21.831,6.911 21.639,8.13 22.981,8.413 C27.13,9.286 30.797,10.351 31.415,14.993 C31.814,17.998 27.638,17.41 25.853,16.753 C23.346,15.829 22.175,13.335 20.387,12.43 C19.185,11.821 17.637,11.882 17.574,13.383 C17.511,14.883 17.386,16.413 15.886,16.32 C12.295,16.095 7.806,12.741 5.388,8.949 C1.496,2.846 7.275,1.106 13.294,1.09 C17.382,1.078 22.339,1.411 25.353,4.434 L25.353,4.434 Z" fill="#FFFFFF"></path>
                            <path d="M17.563,12.938 C16.481,12.947 15.352,12.761 14.276,12.434 C12.64,11.936 10.481,10.797 9.163,9.092 C4.905,3.586 10.198,2.613 15.017,3.426 C17.178,3.789 18.946,4.639 20.231,5.382 C20.968,5.809 21.534,6.277 21.949,6.761"></path>
                            <path d="M22.797,8.421 C23.006,9.44 22.676,10.431 21.984,11.203 C21.527,11.714 20.976,12.099 20.364,12.376"></path>
                            <path d="M16.789,4.78 C19.024,6.074 19.089,7.874 18.066,9.015 C16.782,10.449 14.493,10.53 12.457,9.911 C11.267,9.548 9.696,8.72 8.737,7.48 C5.639,3.473 9.49,2.766 12.996,3.357 C14.568,3.622 15.854,4.239 16.789,4.78 L16.789,4.78 Z" fill="#FFFFFF"></path>
                            <path d="M14.053,4.716 C15.542,5.578 15.585,6.778 14.905,7.537 C14.05,8.492 12.524,8.547 11.168,8.134 C10.375,7.893 9.329,7.341 8.69,6.515 C6.627,3.846 9.191,3.374 11.527,3.768 C12.573,3.944 13.431,4.355 14.053,4.716 L14.053,4.716 Z" fill="#FFFFFF"></path>
                            <path d="M23.549,8.568 C24.415,9.995 24.807,10.861 25.065,13.302"></path>
                            <path d="M15.766,16.098 C11.409,16.007 7.637,10.9 6.734,5.035"></path>
                        </g>
                        <path d="M9.665,0.799 C10.664,2.008 12.858,5.631 11.876,7.105 C11.313,7.949 10.407,8.449 8.938,8.324 C7.469,8.199 6.466,7.676 6.466,7.676 C6.466,7.676 7.248,7.731 7.841,7.324 C9.665,6.076 8.317,3.528 7.25,2.386 C7.25,2.386 8.663,1.286 9.249,0.815 C9.507,0.608 9.452,0.541 9.665,0.799 L9.665,0.799 Z" fill="#FFFFFF"></path>
                    </g>
                </g>
                <path d="M39.134,22.235 C50.529,23.158 58.999,23.159 70.394,22.235 C94.415,20.286 91.974,7.979 88.322,9.859 C86.26,10.922 85.135,15.109 82.01,16.109 C75.033,18.341 65.771,19.519 56.383,19.64 C45.917,19.775 35.296,18.598 27.519,16.109 C24.394,15.109 23.268,10.921 21.206,9.859 C17.516,7.959 15.138,20.291 39.134,22.235 L39.134,22.235 Z" id="Shape" fill="#FFFFFF"></path>
                <path d="M80.847,15.151 C86.19,13.328 83.135,10.517 82.948,10.603 C81.174,11.413 82.424,12.45 81.786,12.755 C79.953,13.634 77.147,11.021 79.98,10.177 C78.288,8.284 81.02,5.677 82.81,7.421 C83.744,5.368 85.884,6.154 86.534,7.215 C86.943,7.882 86.905,8.789 86.93,9.587 C86.949,10.172 86.901,10.844 87.454,9.805 C88.226,8.359 86.981,7.728 87.585,5.65 C87.92,4.498 89.809,3.573 90.601,4.638 C91.029,5.215 91.06,5.95 90.787,3.49 C90.688,2.603 91.252,1.687 92.059,1.219 C93.261,0.523 95.014,1.093 95.333,2.464 C95.486,3.124 95.293,3.879 94.959,4.556 C97.075,0.432 100.545,6.013 97.132,6.76 L97.151,6.802 C98.159,6.805 98.974,7.622 98.974,8.63 C98.974,9.783 97.923,10.64 96.801,10.426 C97.986,13.256 92.947,13.973 93.298,10.92 C92.225,11.237 91.13,10.44 91.13,9.302 C91.13,8.37 91.89,7.527 92.818,7.614 C93.338,7.664 93.609,7.996 93.751,8.438 C94.047,9.359 95.089,8.88 95.501,8.009 C95.907,7.151 95.485,5.969 94.068,5.707 C92.65,5.445 90.817,6.988 90.286,8.457 C89.096,11.751 87.067,14.871 83.5,16.637 C77.841,19.438 66.89,20.597 55.782,20.68 C43.993,20.768 32.025,19.609 26.018,16.637 C22.451,14.871 20.422,11.751 19.231,8.457 C18.701,6.988 16.868,5.445 15.45,5.707 C14.033,5.969 13.611,7.15 14.017,8.009 C14.429,8.88 15.471,9.359 15.767,8.438 C15.909,7.996 16.18,7.664 16.7,7.614 C17.628,7.526 18.388,8.37 18.388,9.302 C18.388,10.44 17.293,11.238 16.22,10.92 C16.572,13.973 11.532,13.256 12.717,10.426 C11.595,10.64 10.544,9.783 10.544,8.63 C10.544,7.622 11.359,6.805 12.367,6.802 L12.386,6.76 C8.972,6.013 12.443,0.432 14.559,4.556 C14.225,3.879 14.032,3.124 14.185,2.464 C14.504,1.093 16.257,0.523 17.459,1.219 C18.267,1.687 18.83,2.603 18.731,3.49 C18.458,5.95 18.489,5.216 18.917,4.638 C19.709,3.573 21.597,4.497 21.933,5.65 C22.537,7.728 21.291,8.359 22.064,9.805 C22.618,10.844 22.57,10.172 22.588,9.587 C22.613,8.789 22.575,7.882 22.984,7.215 C23.633,6.154 25.774,5.368 26.708,7.421 C28.497,5.677 31.23,8.284 29.538,10.177 C32.371,11.021 29.565,13.634 27.732,12.755 C27.094,12.449 28.344,11.412 26.57,10.603 C26.404,10.527 23.98,12.885 27.032,14.49 C35.75,19.074 70.794,18.581 80.847,15.151 L80.847,15.151 Z" id="Shape" fill="#FFFFFF"></path>
                <g id="Group" transform="translate(19.000000, 13.000000)" fill="#FFFFFF">
                    <g id="Shape">
                        <path d="M3.292,10.188 C5.23,10.187 5.977,10.626 7.5,9.442 C9.203,8.117 10.688,5.863 10.55,3.623 C10.465,2.23 9.422,1.945 10.082,1.727 C10.577,1.564 11.262,1.692 11.77,2.186 C12.3,2.704 12.541,3.525 12.565,4.457 C12.608,6.167 12.086,7.83 11.147,9.188 C7.464,14.51 2.389,11.091 3.292,10.188 L3.292,10.188 Z"></path>
                        <path d="M3.003,9.393 C4.65,9.393 5.524,9.285 6.819,8.277 C8.052,7.318 9.048,5.904 9.328,4.433 C9.445,3.815 9.469,3.17 9.259,2.47 C9.244,2.421 9.232,2.366 9.169,2.336 C9.169,2.336 8.523,1.981 8.721,1.802 C8.821,1.712 9.571,1.642 9.85,1.741 C10.725,2.053 11.096,2.96 11.123,4.041 C11.16,5.495 10.717,6.907 9.918,8.062 C8.561,10.024 5.686,11.903 3.264,10.17 C2.938,9.938 2.946,9.449 3.003,9.393 L3.003,9.393 Z"></path>
                        <path d="M0.833,8.758 C2.648,8.757 3.611,8.638 5.039,7.529 C6.398,6.472 7.495,4.914 7.804,3.293 C7.933,2.611 7.958,1.901 7.727,1.13 C7.711,1.076 7.698,1.016 7.628,0.983 C7.628,0.983 6.916,0.59 7.134,0.395 C7.244,0.295 8.071,0.217 8.378,0.327 C9.342,0.671 9.751,1.671 9.781,2.862 C9.821,4.465 9.334,6.021 8.453,7.293 C6.957,9.455 3.789,11.525 1.12,9.616 C0.762,9.358 0.771,8.819 0.833,8.758 L0.833,8.758 Z"></path>
                    </g>
                    <g transform="translate(58.000000, 0.000000)" id="Shape">
                        <path d="M10.225,10.188 C8.287,10.187 7.54,10.626 6.017,9.442 C4.314,8.117 2.829,5.863 2.966,3.623 C3.052,2.23 4.094,1.945 3.434,1.727 C2.94,1.564 2.255,1.692 1.747,2.186 C1.217,2.704 0.976,3.525 0.952,4.457 C0.909,6.167 1.43,7.83 2.37,9.188 C6.053,14.51 11.128,11.091 10.225,10.188 L10.225,10.188 Z"></path>
                        <path d="M10.514,9.393 C8.867,9.393 7.993,9.285 6.697,8.277 C5.464,7.318 4.468,5.904 4.189,4.433 C4.071,3.815 4.048,3.17 4.258,2.47 C4.273,2.421 4.285,2.366 4.347,2.336 C4.347,2.336 4.993,1.981 4.796,1.802 C4.695,1.712 3.945,1.642 3.666,1.741 C2.792,2.053 2.421,2.96 2.394,4.041 C2.357,5.495 2.8,6.907 3.599,8.062 C4.956,10.024 7.831,11.903 10.253,10.17 C10.578,9.938 10.57,9.449 10.514,9.393 L10.514,9.393 Z"></path>
                        <path d="M12.684,8.758 C10.869,8.757 9.905,8.638 8.478,7.529 C7.119,6.472 6.021,4.914 5.713,3.293 C5.584,2.611 5.559,1.901 5.79,1.13 C5.806,1.076 5.819,1.016 5.889,0.983 C5.889,0.983 6.601,0.59 6.383,0.395 C6.273,0.295 5.445,0.217 5.139,0.327 C4.175,0.671 3.766,1.671 3.736,2.862 C3.695,4.465 4.183,6.021 5.064,7.293 C6.56,9.455 9.728,11.525 12.397,9.616 C12.755,9.358 12.746,8.819 12.684,8.758 L12.684,8.758 Z"></path>
                    </g>
                </g>
            </g>
            <g id="TOP" transform="translate(58.000000, 0.000000)" sketch:type="MSShapeGroup">
                <g id="Group" transform="translate(2.000000, 29.000000)" stroke="#000000" stroke-width="0.7498" fill="#FFFFFF">
                    <circle id="Oval" cx="1.57" cy="1.457" r="1.046"></circle>
                    <circle id="Oval" cx="13.945" cy="1.457" r="1.046"></circle>
                    <circle id="Oval" cx="5.445" cy="2.957" r="1.047"></circle>
                    <circle id="Oval" cx="10.07" cy="2.957" r="1.047"></circle>
                </g>
                <g id="Group" transform="translate(0.000000, 24.000000)" stroke="#000000">
                    <g>
                        <ellipse id="Oval" stroke-width="0.749812911" fill="#FFFFFF" transform="translate(3.118465, 3.712871) rotate(-51.830545) translate(-3.118465, -3.712871) " cx="3.1184652" cy="3.7128708" rx="2.50804319" ry="1.99003427"></ellipse>
                        <ellipse id="Oval" stroke-width="0.749812911" fill="#FFFFFF" transform="translate(16.399677, 3.696550) rotate(231.830545) translate(-16.399677, -3.696550) " cx="16.3996772" cy="3.69655" rx="2.50804319" ry="1.99003427"></ellipse>
                        <path d="M2.578,4.378 C2.768,3.203 3.216,2.154 4.652,1.739" id="Shape" stroke-width="0.7498"></path>
                        <path d="M16.938,4.378 C16.748,3.203 16.299,2.154 14.864,1.739" id="Shape" stroke-width="0.7498"></path>
                        <ellipse id="Oval" stroke-width="0.749777723" fill="#FFFFFF" transform="translate(6.224562, 5.130094) rotate(-74.650405) translate(-6.224562, -5.130094) " cx="6.2245622" cy="5.1300944" rx="2.65192121" ry="2.10493746"></ellipse>
                        <ellipse id="Oval" stroke-width="0.749777723" fill="#FFFFFF" transform="translate(13.278512, 5.154963) rotate(254.650405) translate(-13.278512, -5.154963) " cx="13.2785123" cy="5.1549625" rx="2.65192121" ry="2.10493746"></ellipse>
                        <path d="M6.01,6.005 C6,4.789 6.418,3.672 6.95,2.581" id="Shape" stroke-width="0.7498"></path>
                        <path d="M13.507,6.005 C13.517,4.789 13.099,3.672 12.567,2.581" id="Shape" stroke-width="0.7498"></path>
                    </g>
                    <path d="M9.758,8.557 C10.981,8.557 11.978,7.301 11.978,5.76 C11.978,4.22 10.981,2.964 9.758,2.964 C8.536,2.964 7.539,4.22 7.539,5.76 C7.539,7.301 8.536,8.557 9.758,8.557 L9.758,8.557 Z" id="Shape" stroke-width="0.7498" fill="#FFFFFF"></path>
                    <path d="M9.758,6.714 L9.758,2.971" id="Shape" stroke-width="0.7498"></path>
                </g>
                <path d="M9.759,28.032 C13.234,28.032 16.067,26.736 16.067,25.149 C16.067,23.561 13.234,22.266 9.759,22.266 C6.283,22.266 3.45,23.561 3.45,25.149 C3.45,26.736 6.283,28.032 9.759,28.032 L9.759,28.032 Z" id="Shape" stroke="#000000" stroke-width="0.7498" fill="#FFFFFF"></path>
                <path d="M9.758,24.516 C12.159,24.516 14.118,23.621 14.118,22.524 C14.118,21.427 12.159,20.532 9.758,20.532 C7.357,20.532 5.399,21.428 5.399,22.524 C5.398,23.621 7.356,24.516 9.758,24.516 L9.758,24.516 Z" id="Shape" stroke="#000000" stroke-width="0.7498" fill="#FFFFFF"></path>
                <path d="M7.648,17.345 L11.867,17.345 C12.383,17.345 12.805,17.767 12.805,18.283 L12.805,20.533 C12.805,21.049 12.362,21.32 11.867,21.471 C10.462,21.899 9.054,21.917 7.648,21.471 C7.157,21.315 6.71,21.049 6.71,20.533 L6.71,18.283 C6.711,17.767 7.133,17.345 7.648,17.345 L7.648,17.345 Z" id="Shape" stroke="#000000" stroke-width="0.7498" fill="#FFFFFF"></path>
                <g id="Group" transform="translate(2.000000, 0.000000)">
                    <g stroke="#000000" id="Shape">
                        <g transform="translate(0.000000, 2.000000)">
                            <g>
                                <g transform="translate(3.000000, 12.000000)">
                                    <path d="M3.779,0.738 C4.232,1.612 4.081,3.001 3.585,3.937 C2.436,6.104 0.068,4.815 1.213,2.657 C1.709,1.722 2.8,0.84 3.779,0.738 L3.779,0.738 Z" stroke-width="0.4997" fill="#FFFFFF"></path>
                                    <path d="M2.281,3.516 L3.319,1.591" stroke-width="0.216"></path>
                                </g>
                                <g transform="translate(1.000000, 11.000000)">
                                    <path d="M5.104,0.805 C5.087,1.789 4.294,2.94 3.414,3.528 C1.374,4.89 -0.098,2.631 1.935,1.275 C2.815,0.688 4.194,0.43 5.104,0.805 L5.104,0.805 Z" stroke-width="0.4997" fill="#FFFFFF"></path>
                                    <path d="M2.467,2.537 L4.295,1.336" stroke-width="0.216"></path>
                                </g>
                                <g transform="translate(0.000000, 9.000000)">
                                    <path d="M5.483,1.904 C5.001,2.762 3.756,3.398 2.703,3.498 C0.26,3.727 0.038,1.042 2.47,0.813 C3.524,0.714 4.859,1.142 5.483,1.904 L5.483,1.904 Z" stroke-width="0.4997" fill="#FFFFFF"></path>
                                    <path d="M2.339,2.177 L4.518,1.988" stroke-width="0.216"></path>
                                </g>
                                <g transform="translate(0.000000, 7.000000)">
                                    <path d="M5.508,2.051 C4.845,2.78 3.491,3.121 2.442,2.983 C0.009,2.66 0.395,-0.008 2.816,0.314 C3.865,0.453 5.071,1.169 5.508,2.051 L5.508,2.051 Z" stroke-width="0.4997" fill="#FFFFFF"></path>
                                    <path d="M2.382,1.613 L4.549,1.916" stroke-width="0.216"></path>
                                </g>
                                <g transform="translate(1.000000, 4.000000)">
                                    <path d="M4.73,3.725 C3.834,4.132 2.455,3.911 1.545,3.367 C-0.56,2.108 0.849,-0.19 2.944,1.064 C3.854,1.606 4.68,2.741 4.73,3.725 L4.73,3.725 Z" stroke-width="0.4997" fill="#FFFFFF"></path>
                                    <path d="M2.033,2.086 L3.903,3.222" stroke-width="0.216"></path>
                                </g>
                                <g transform="translate(2.000000, 2.000000)">
                                    <path d="M4.412,4.276 C3.443,4.452 2.161,3.9 1.412,3.151 C-0.323,1.416 1.604,-0.468 3.331,1.259 C4.08,2.009 4.603,3.31 4.412,4.276 L4.412,4.276 Z" stroke-width="0.4997" fill="#FFFFFF"></path>
                                    <path d="M2.197,2.028 L3.732,3.586" stroke-width="0.216"></path>
                                </g>
                                <g transform="translate(4.000000, 0.000000)">
                                    <path d="M2.889,5.363 C1.943,5.091 1.038,4.026 0.701,3.022 C-0.083,0.698 2.481,-0.134 3.262,2.18 C3.599,3.185 3.488,4.582 2.889,5.363 L2.889,5.363 Z" stroke-width="0.4997" fill="#FFFFFF"></path>
                                    <path d="M1.902,2.365 L2.586,4.443" stroke-width="0.216"></path>
                                </g>
                            </g>
                            <g transform="translate(8.000000, 0.000000)">
                                <g transform="translate(0.000000, 12.000000)">
                                    <path d="M0.736,0.738 C0.284,1.612 0.435,3.001 0.931,3.937 C2.079,6.104 4.447,4.815 3.302,2.657 C2.807,1.722 1.716,0.84 0.736,0.738 L0.736,0.738 Z" stroke-width="0.4997" fill="#FFFFFF"></path>
                                    <path d="M2.235,3.516 L1.196,1.591" stroke-width="0.216"></path>
                                </g>
                                <g transform="translate(1.000000, 11.000000)">
                                    <path d="M0.412,0.805 C0.429,1.789 1.221,2.94 2.101,3.528 C4.142,4.89 5.613,2.631 3.581,1.275 C2.701,0.688 1.322,0.43 0.412,0.805 L0.412,0.805 Z" stroke-width="0.4997" fill="#FFFFFF"></path>
                                    <path d="M3.05,2.537 L1.222,1.336" stroke-width="0.216"></path>
                                </g>
                                <g transform="translate(2.000000, 9.000000)">
                                    <path d="M0.033,1.904 C0.515,2.762 1.759,3.398 2.813,3.498 C5.255,3.727 5.477,1.042 3.046,0.813 C1.992,0.714 0.656,1.142 0.033,1.904 L0.033,1.904 Z" stroke-width="0.4997" fill="#FFFFFF"></path>
                                    <path d="M3.178,2.177 L0.998,1.988" stroke-width="0.216"></path>
                                </g>
                                <g transform="translate(2.000000, 7.000000)">
                                    <path d="M0.009,2.051 C0.671,2.78 2.026,3.121 3.075,2.983 C5.507,2.66 5.122,-0.008 2.701,0.314 C1.651,0.453 0.445,1.169 0.009,2.051 L0.009,2.051 Z" stroke-width="0.4997" fill="#FFFFFF"></path>
                                    <path d="M3.134,1.613 L0.968,1.916" stroke-width="0.216"></path>
                                </g>
                                <g transform="translate(1.000000, 4.000000)">
                                    <path d="M0.785,3.725 C1.681,4.132 3.061,3.911 3.97,3.367 C6.076,2.108 4.666,-0.19 2.571,1.064 C1.661,1.606 0.837,2.741 0.785,3.725 L0.785,3.725 Z" stroke-width="0.4997" fill="#FFFFFF"></path>
                                    <path d="M3.482,2.086 L1.613,3.222" stroke-width="0.216"></path>
                                </g>
                                <g transform="translate(1.000000, 2.000000)">
                                    <path d="M0.104,4.276 C1.073,4.452 2.356,3.9 3.105,3.151 C4.839,1.416 2.912,-0.468 1.185,1.259 C0.437,2.009 -0.086,3.31 0.104,4.276 L0.104,4.276 Z" stroke-width="0.4997" fill="#FFFFFF"></path>
                                    <path d="M2.319,2.028 L0.783,3.586" stroke-width="0.216"></path>
                                </g>
                                <g>
                                    <path d="M0.628,5.363 C1.573,5.091 2.478,4.026 2.816,3.022 C3.599,0.698 1.036,-0.134 0.255,2.18 C-0.082,3.185 0.028,4.582 0.628,5.363 L0.628,5.363 Z" stroke-width="0.4997" fill="#FFFFFF"></path>
                                    <path d="M1.613,2.365 L0.93,4.443" stroke-width="0.216"></path>
                                </g>
                            </g>
                        </g>
                        <g transform="translate(6.000000, 15.000000)">
                            <path d="M1.758,0.269 C2.571,0.824 3.098,2.118 3.106,3.176 C3.125,5.63 0.428,5.618 0.411,3.176 C0.403,2.117 0.944,0.823 1.758,0.269 L1.758,0.269 Z" stroke-width="0.4997" fill="#FFFFFF"></path>
                            <path d="M1.758,3.425 L1.758,1.237" stroke-width="0.216"></path>
                        </g>
                        <path d="M7.758,6.232 C8.335,5.839 8.769,5.074 8.974,4.283 C9.06,4.039 9.109,3.749 9.106,3.412 L9.105,3.375 L9.105,3.362 L9.106,3.325 C9.109,2.988 9.06,2.698 8.974,2.454 C8.769,1.664 8.335,0.898 7.758,0.505 C7.107,0.949 6.63,1.866 6.47,2.758 C6.433,2.93 6.412,3.119 6.41,3.325 L6.41,3.362 L6.41,3.375 L6.41,3.412 C6.412,3.619 6.432,3.808 6.47,3.979 C6.63,4.871 7.106,5.789 7.758,6.232 L7.758,6.232 Z" stroke-width="0.4997" fill="#FFFFFF"></path>
                        <path d="M7.758,3.077 L7.758,5.737" stroke-width="0.216"></path>
                        <path d="M7.758,5.56 C9.683,6.873 10.929,9.934 10.947,12.44 C10.989,18.246 4.61,18.219 4.569,12.44 C4.552,9.934 5.833,6.872 7.758,5.56 L7.758,5.56 Z" stroke-width="0.4997" fill="#FFFFFF"></path>
                    </g>
                    <path d="M7.758,7.33 C7.974,7.467 8.113,7.786 8.115,8.047 C8.12,8.651 7.405,8.649 7.4,8.047 C7.399,7.786 7.542,7.467 7.758,7.33 L7.758,7.33 Z" id="Shape" fill="#000000"></path>
                    <path d="M9.187,9.071 C9.111,9.464 8.426,10.481 7.473,9.646 C7.37,9.556 7.268,9.466 7.115,9.525 C6.919,9.601 6.833,9.731 6.829,9.864 L6.829,9.865 C6.827,9.926 6.841,9.99 6.867,10.051 L6.867,10.051 C6.895,10.114 6.937,10.176 6.99,10.227 C7.411,10.632 7.814,10.03 8.292,10.443 C8.514,10.635 8.54,10.86 8.458,11.059 C8.331,11.373 8.144,11.319 7.873,11.491 C6.977,12.088 8.162,12.493 8.381,12.447 L8.391,12.547 C7.816,12.56 7.556,12.427 7.345,12.109 C7.184,11.643 7.424,11.3 7.841,11.137 L7.841,11.137 C8.008,11.072 8.073,10.958 8.048,10.877 C7.989,10.697 7.696,10.779 7.577,10.802 C7.192,10.874 6.873,10.807 6.645,10.587 C6.543,10.489 6.463,10.373 6.41,10.25 L6.41,10.249 C6.355,10.122 6.327,9.985 6.332,9.851 C6.342,9.529 6.524,9.221 6.937,9.062 C7.37,8.896 7.584,9.083 7.801,9.273 C8.321,9.728 8.355,9.093 8.372,9.075 L9.187,9.071 L9.187,9.071 Z" id="Shape" stroke="#000000" stroke-width="0.216" fill="#000000"></path>
                </g>
            </g>
        </g>
    </g>
</svg>