<?xml version="1.0" encoding="UTF-8" standalone="no"?>
<svg width="1201px" height="1681px" viewBox="0 0 1201 1681" version="1.1" xmlns="http://www.w3.org/2000/svg" xmlns:xlink="http://www.w3.org/1999/xlink" xmlns:sketch="http://www.bohemiancoding.com/sketch/ns">
    <!-- Generator: Sketch 3.3.1 (12002) - http://www.bohemiancoding.com/sketch -->
    <title>GyalwaChogyang</title>
    <desc>Created with Sketch.</desc>
    <defs></defs>
    <g id="Page-1" stroke="none" stroke-width="1" fill="none" fill-rule="evenodd" sketch:type="MSPage">
        <g id="GyalwaChogyang" sketch:type="MSLayerGroup" transform="translate(2.000000, 2.000000)" stroke="#979797">
            <path d="M928.23959,1078.08846 C1089.61939,973.849489 1196.44434,792.39013 1196.44434,585.980469 C1196.44434,262.66521 934.345532,0.56640625 611.030273,0.56640625 C287.715014,0.56640625 25.6162109,262.66521 25.6162109,585.980469 C25.6162109,730.853487 78.2406711,863.435405 165.416781,965.653411 L165.416781,965.653411" id="Saint" stroke-width="5" sketch:type="MSShapeGroup"></path>
            <g id="Head" transform="translate(379.000000, 437.000000)" stroke-width="4" sketch:type="MSShapeGroup">
                <path d="M106.484041,194.541501 C154.446224,166.563563 180.000002,213.999999 180.000002,213.999999 C180.000002,213.999999 158.443073,186.547804 106.484041,194.541501 Z" id="Path-2" fill="#9B9B9B"></path>
                <path d="M252,222.999999 C283,185 326.310708,226.51629 326.310708,226.51629 C326.310708,226.51629 283,205 252,222.999999 Z" id="Path-2-Copy" fill="#9B9B9B"></path>
                <path d="M60.9999998,196.999995 C60.9999989,173.461647 34.9842432,160.01576 15.0000008,180.000002 C3.8304895,191.169514 -1.00000012,218.999995 0.999999992,243.999995 C3.00000011,268.999995 15.1652176,271.795845 11.9999999,285.999995 C8.99999987,299.462717 -4.00000013,320.00001 15.0000004,328.00001 C31.4951836,334.94535 51.5354079,300.365227 58.5218619,264.585938 C51.5354079,296.669915 47.3458436,336.081312 58.5218612,370.402834 C73.5234412,416.472649 114.056713,465.006313 185.999995,473.00001 C257.943277,480.993707 306.018913,448.971646 330.000004,413.00001 C353.981095,377.028374 360.000004,328.00001 360.000004,328.00001 C360.000004,328.00001 347.739719,385.00001 369.000004,385.00001 C390.260288,385.00001 385.003146,366.990555 389.000004,355.00001 C392.996861,343.009465 406.009449,344.974798 418.000004,313.00001 C429.990558,281.025222 426.984246,247.996843 407.000004,243.999995 C387.015761,240.003146 374.000004,259.999995 366.279178,256.999995" id="Path-5"></path>
                <path d="M61.3131835,197.128138 C61.3131822,160.730474 20.4101561,166.07813 12.03125,180.128149 C12.0312499,140.128149 25.2044983,71.5546908 74.3131866,41.535158 C123.421875,11.5156251 196.171875,-30.44141 327.363281,36.0195305 C458.554687,102.480471 437.609375,215.199213 422.906243,257.128141 C402.969445,228.526579 374.313187,260.128138 366.592362,257.128138 C358.871537,254.128138 352.31949,200.112386 360.313187,180.128143 C368.306884,160.143901 371.31949,164.109234 379.313187,140.128143 C387.306884,116.147052 367.291127,84.1249916 339.313187,80.1281431 C311.335248,76.1312946 278.661719,98.7452809 238.693219,90.7515839 C198.724719,82.7578869 184.284824,48.1281431 148.313187,48.1281431 C112.341551,48.1281431 74.3131874,73.1470508 74.3131873,97.1281417 C74.3131872,121.109233 97.3100375,123.153358 93.3131873,155.128145 C89.3163371,187.102933 61.3131809,197.128143 61.3131835,197.128138 Z" id="Path-5-Copy" fill="#9B9B9B"></path>
                <path d="M167,307 C156,317 166,324.622114 176,329 C186,333.377886 182.000001,343 195,346 C208,349 212.999997,338 223.999997,340 C234.999997,342 240.996845,332.773371 236.999997,325" id="Path-6"></path>
                <path d="M113,409 C144.974788,480.943273 231,468.294235 258,435.549385" id="Path-8"></path>
                <path d="M127.469859,256.726131 C127.469859,248.732434 137.461981,240.738737 143.457253,256.726131 C138.961914,258.227539 135.463557,258.053711 127.469859,256.726131 Z" id="Path-15" fill="#9B9B9B"></path>
                <path d="M93,229 C93,229 135,213 162,242" id="Path-16"></path>
                <path d="M344,283 C344,283 325,292 307,274 C289,256 260,264 243,279 C243,279 291.009766,288.927734 310.563477,282.999999" id="Path-17"></path>
                <path d="M276.87793,282.666992 C267.03711,284.955078 267.064453,269.898437 273.467774,269.898437 C279.871094,269.898437 286.718749,280.378906 276.87793,282.666992 Z" id="Path-18" fill="#9B9B9B"></path>
                <path d="M243.59375,262.275391 C235.800781,271.824219 234.933594,281.289062 234.933594,281.289062" id="Path-21"></path>
                <path d="M165.638672,386.378906 C176.0625,404.962891 199.923828,411.306641 218.828125,396.443359" id="Path-23"></path>
                <path d="M139,359 C166.977939,390.974788 218.395799,395.383925 250.370587,379.396531" id="Path-7"></path>
                <path d="M64.9999999,237.745039 C64.9999999,237.745039 74.012606,245 89.9999999,245 C105.987394,245 117,237 130,239 C143,241 158,247 168.000003,266.999999 C156.009458,266.999999 151.000003,257.999999 134.000003,257.999999 C113.577352,257.999999 94.2522646,249.735585 94.2522646,249.735585" id="Path-14"></path>
                <path d="M256.552734,255.740234 C256.552734,255.740234 285.277344,240.085938 314.001953,261.080078" id="Path-19"></path>
                <path d="M174.908203,251.15625 C179.380859,258.732422 177.839844,275.726562 177.839844,275.726562" id="Path-20"></path>
                <path d="M164.511719,365.982422 C182.027344,362.59375 192.269531,376.441406 192.269531,376.441406 C192.269531,376.441406 207.630859,367.41211 218.771484,373.447266" id="Path-22"></path>
                <path d="M62.6972656,212.349609 C52.3222656,223.789062 51.6015626,213.058595 48.6347657,198.828125 C45.6679688,184.597655 24.4296875,193.503906 20.9160156,212.691406 C17.4023437,231.878906 19.4667969,285.986329 48.6347656,263.416016" id="Path-38"></path>
                <path d="M52.65625,241.085938 C44.2792973,211.021484 23.8066407,252.593749 44.2792969,252.59375" id="Path-39"></path>
                <path d="M374.669922,267.482422 C384.675781,287.886719 384.876953,263.955078 398.509766,263.955078 C412.142578,263.955078 415.84375,274.892578 408.357422,290.824219 C400.871094,306.755859 408.193428,317.75603 386.523438,327.958984 C378.085937,331.931641 373.105469,314.9375 386.523438,310.382812 C399.941406,305.828125 384.148438,290.824219 377.654297,298.451172" id="Path-40"></path>
                <path d="M368.904297,338.023438 C376.71875,351.59375 385.267578,335.326172 378.580078,342.779297 C371.892578,350.232422 371.064453,361.878906 374.822266,367.09375" id="Path-41"></path>
                <path d="M27.0351562,285.636719 C36.6328125,289.128906 25.8261719,294.357422 22.4375,305.623047" id="Path-42"></path>
            </g>
            <g id="Horse" transform="translate(549.000000, 284.000000)" stroke-width="4" sketch:type="MSShapeGroup">
                <path d="M60.3886719,87.5683594 C63.625,104.867188 57.3378906,112.097656 45.484375,112.097656 C33.6308594,112.097656 23.4570312,92.3476563 23.4570312,85.2910156 C23.4570312,78.234375 27.34375,70.3164063 18.9414062,65.0390625 C10.5390625,59.7617188 -1.88085938,54.5371094 0.8359375,42.7246094 C3.55273437,30.9121094 1.95703077,44.3164062 7.62304669,47.8789062 C13.2890626,51.4414062 18.9414065,50.1367188 25.796875,55.4003906 C32.6523435,60.6640625 33.5605472,75.3105469 36.1445315,68.7753906 C38.7285159,62.2402344 35.9355472,52.0800781 30.8445399,42.7246094 C25.7535327,33.3691406 13.8164065,31.1484375 18.9414065,11.9179688" id="Path-25"></path>
                <path d="M5.56054688,20.4042969 C5.56054688,33.9257812 9.27539062,45.3847656 21.8671875,45.3847656" id="Path-26"></path>
                <path d="M24.4238281,3.81054687 C36.7304688,-1.91992188 37.140625,0.753906085 46.1269531,6.81054671 C55.1132812,12.8671873 55.0722656,19.0898437 46.1269531,26.7988289" id="Path-29"></path>
                <path d="M52.9492188,14.1445312 C64.3457031,20.046875 73.1152344,35.4160156 86.0742188,42.8886719 C99.0332031,50.3613281 131.757812,65.890625 121.806641,111.691406" id="Path-31"></path>
                <path d="M108.101562,73.4472656 C117.109375,87.1425781 118.208984,94.8388672 118.208984,109.84668" id="Path-33"></path>
                <path d="M101.138672,86.65625 C107.193359,94.5800781 110.993164,98.5292969 110.993164,107.898438" id="Path-34"></path>
                <path d="M110.728516,90.8925781 C116.783203,98.8164062 114.650391,99.8349609 114.650391,109.204102" id="Path-34-Copy"></path>
                <path d="M104.138672,130.845703 C98.9101562,148.117188 80.6523438,158.320312 80.6523438,158.320312" id="Path-37-Copy"></path>
                <path d="M134.932617,111.195312 C126.876953,124.620117 116.865234,146.242188 118.816406,170.568359" id="Path-40"></path>
                <path d="M99.2392579,101.939453 C101,107.291016 122.177956,109.234819 126.174805,117.228516 C130.171653,125.222213 128.331055,135.368164 131.067383,143.202148 C133.803711,151.036133 139.853516,153.870117 139.853516,153.870117 C139.853516,153.870117 125.889648,160.438519 117.768555,143.202148 C109.647461,125.965778 108.486328,135.737305 92.2216797,125.740234" id="Path-10" fill="#FFFFFF"></path>
                <path d="M126.799805,77.0087891 C153.888672,70.3867189 155.134765,84.6699221 171.944337,82.7285156 C161.689371,96.401804 142.479315,96.6239342 130.488769,112.611328 C133.90869,100.56543 130.946289,84.3359374 126.799805,77.0087891 Z" id="Path-13" fill="#FFFFFF"></path>
                <path d="M71.625,55.9873047 C67.6281516,59.9841532 65.8539593,73.6301047 73.8476562,77.6269531 C77.8445047,65.6364077 87.6123948,63.9810017 71.625,55.9873047 Z" id="Path-11"></path>
                <path d="M76.3408203,71.2792969 C78.0449219,68.2060547 76.9870957,69.0243094 68.8017578,64.9316406 C68.8017578,69.3974609 68.8017578,72.4599609 73.8476562,77.6269531 C75.7981703,71.7754108 74.6367187,74.3525391 76.3408203,71.2792969 Z" id="Path-11-Copy" fill="#9B9B9B"></path>
                <path d="M25.1894531,2.61132812 C25.1894531,7.07714844 22.5853251,12.9638672 27.6312235,18.1308594 C33.3134764,7.72949219 26.2636718,12.203125 25.1894531,2.61132812 Z" id="Path-11-Copy-2" fill="#9B9B9B"></path>
                <path d="M41.3164063,119.048828 C41.3164063,131.792969 31.895576,135.306191 19.7265625,154.394531 C40.4658889,192.118691 105.758583,189.447991 119.947266,171" id="Path-24" fill="#FFFFFF"></path>
                <path d="M38.625,110.798828 C38.625,123.439453 50.5644531,131.447266 60.9394531,131.447266" id="Path-27"></path>
                <path d="M116.253906,64.4335938 C132.991211,92.5136719 135.272461,102.774414 107.586914,160.517578" id="Path-32"></path>
                <path d="M94.4726562,127.853516 C88.0546875,147.779297 59.1367188,155.939453 59.1367188,155.939453" id="Path-36"></path>
                <path d="M102.138672,130.845703 C96.9101562,148.117188 78.6523438,158.320312 78.6523438,158.320312" id="Path-37"></path>
                <path d="M112.548828,135.394531 C109.076172,144.054688 104.417969,152.888672 97.1386719,160.638672" id="Path-39"></path>
            </g>
            <g id="Body" transform="translate(0.000000, 862.000000)" stroke-width="4" sketch:type="MSShapeGroup">
                <path d="M477.164062,12.4023438 C469.175781,34.2773438 461.855469,39.1835938 433.0625,47.8203125" id="Path-43"></path>
                <path d="M458.300781,15.859375 C418.925781,29.2929688 418.687497,122.925781 539.874997,147.328125 C661.062498,171.730469 711.957026,83.4867477 660.664062,40.4296875" id="Path-44"></path>
                <path d="M649.84375,39.5976562 C639.816406,76.4179688 663.980469,88.5742188 675.539062,88.5742188" id="Path-45"></path>
                <path d="M507.78125,44.515625 C527.449219,66.5703125 571.507812,76.1679688 595.605469,65.7929688" id="Path-46"></path>
                <path d="M490.277344,60.9296875 C535.074219,106.335938 577.351562,100.542969 614.6875,88.9179688" id="Path-47"></path>
                <path d="M465.597656,73.3085938 C515.597656,134.339844 581.71875,140.535156 630.941406,116.921875" id="Path-48"></path>
                <path d="M448.050782,0.08203125 C388.144531,35.7890625 357.753908,104.816406 468.511719,209.550781 C502.707034,167.910156 499.218752,167.855469 541.722656,150.339844 C588.128901,185.273438 602.867182,215.648438 621.894526,243.859375 C621.894526,243.859375 772.519537,132.351562 666.136719,32.2070312" id="Path-49"></path>
                <path d="M430.855469,2.171875 C381.242188,33.7265625 355.15625,57.6328125 332.40625,108.34375" id="Path-50"></path>
                <path d="M376.128906,27.671875 C335.542969,53.3242188 321.308594,50.9179688 301.335938,88.9648438" id="Path-51"></path>
                <path d="M408.011719,14.5078125 C317.730469,14.5078125 237.78125,49.6640625 169.804688,103.097656" id="Path-52"></path>
                <path d="M108.578125,182.824219 C83.6171875,139.808594 135.136721,89.246094 166.511719,131.359375 C197.886717,173.472657 144.76172,224.992188 166.511718,300.011719 C188.261715,375.031249 282.269528,401.863284 239.210933,457.99219" id="Path-53"></path>
                <path d="M118.195312,175.515625 C139.335938,141.527344 156.351562,158.5 168.683594,179.335938" id="Path-54"></path>
                <path d="M147.320312,115.707031 C198.976562,95.9960938 221.628906,115.707032 245.117188,115.707032" id="Path-55"></path>
                <path d="M117.238281,185.546875 C76.4296875,222.871094 47.9960938,384.617188 47.9960938,384.617188 C47.9960938,384.617188 -4.93359374,656.039062 0.625000008,684.359375 C6.18359376,712.679687 0.624999999,747.90625 35.2460952,758.75 C69.8671904,769.59375 160.414655,753.347296 346.621095,622.285156 C379.359376,599.242188 419.390626,562.269531 431.953125,534.152344 C441.91797,528.792969 481.843751,502.585938 502.609384,434.925781 C523.375017,367.265625 503.300804,385.160156 508.816408,369.882812 C514.332011,354.605469 502.265626,323.640625 508.816408,300.945312 C515.367189,278.25 521.457024,284.582031 508.816408,274.25 C496.175792,263.917969 467.60546,291.585938 467.605469,309.515625 C467.605478,327.445312 474.98046,333.433594 481.84375,333.433594" id="Path-56"></path>
                <path d="M360.011719,370.964844 C353.832032,361.066406 337.386718,333.857422 320.941406,336.283203 C330.185547,327.734375 315.183594,319.855469 323.261719,301.601562" id="Path-57"></path>
                <path d="M311.160156,290.097656 C305.953125,308.417969 326.203125,307.234374 326.203125,292.218749 C326.203125,277.203124 346.105468,230.636719 312.285156,230.636719 C299.082031,221.035156 321.660156,241.914063 303.160156,274.652344 C284.660157,307.390625 274.324218,342.792969 337.925781,388.519531 C346.074219,401.742188 327.175781,465.382813 365.71875,515.847656 C294.820313,532.234375 136.851563,558.015625 45.5625,642.59375" id="Path-58"></path>
                <path d="M225.460938,167.171875 C235.117187,242.175781 199.387004,231.186931 230.53125,319.152344 C245.722252,362.058594 293.578128,397.578125 269.492188,453.164062" id="Path-61"></path>
                <path d="M364.722656,350.101562 C389.601562,331.78125 387.863281,347.890625 409.40625,336.863281" id="Path-62"></path>
                <path d="M319.167969,243.597656 C319.167969,270.140625 316.412109,263.408203 309.029297,266.535156" id="Path-63"></path>
                <path d="M499.332031,290.322266 C485.220703,313.873047 493.755859,317.386719 503.283203,315.128906" id="Path-65"></path>
                <path d="M404.853516,254.382813 C420.632812,233.720703 429.049288,217.351563 436.238281,187.232422 C446.841797,187.232422 464.294922,209.796876 446.841797,229.373047 C429.388672,248.949218 425.25046,291.066406 429.049288,336.93554" id="Path-67"></path>
                <path d="M365.71875,280.076172 C418.066406,222.845704 462.632813,268.298829 484.867188,236.63086 C498.363281,236.63086 497.455078,263.398438 487.363281,269.820313 C477.271484,276.242188 457.789063,278.980469 444.476563,269.820313 C426.015625,289.703125 407.800781,290.322266 407.800781,290.322266" id="Path-60" fill="#FFFFFF"></path>
                <path d="M468.066406,254.638672 C480.310547,262.910156 483.974609,255.923828 487.927734,251.298828" id="Path-64"></path>
                <path d="M471.078125,328.996094 C463.716797,347.359375 467.191406,349.046875 478.066406,355.603516" id="Path-68"></path>
                <path d="M469.990234,351.878906 C452.017578,365.818359 441.275391,375.535156 443.705078,402.042969" id="Path-69"></path>
                <path d="M346.097656,337.019531 C337.929687,301.117188 354.597656,285.0625 385.113281,289.921875 C415.628906,294.78125 421.613282,329.421872 434.074219,345.3125 C446.535156,361.203128 462.5625,368.410156 462.5625,368.410156 C462.5625,368.410156 459.394532,397.535153 434.867188,380.605469 C410.339843,363.675784 402.226563,346.23047 402.226562,336.160156 C402.226562,326.089843 389.082032,338.335938 375.570312,320.753906 C362.058593,303.171875 378.417969,343.632812 378.417969,343.632812" id="Path-59" fill="#FFFFFF"></path>
                <path d="M438.564453,351.742188 C433.548828,374.445312 447.501954,375.119141 456.988282,367.326172" id="Path-66"></path>
                <path d="M440.023438,198.099609 C443.626953,211.841797 436.097656,213.927734 433.208984,221.982422" id="Path-70"></path>
                <path d="M391.111328,375.832031 C419.021484,400.445312 413.445312,410.314453 413.445312,418.890625" id="Path-71"></path>
                <path d="M686.734375,24.296875 C751.5,55.203125 743.476562,135.375 726.890625,187.515625 C710.304688,239.65625 698.316406,364.136719 723.277344,452.949219" id="Path-72"></path>
                <path d="M720.417969,42.2851562 C783.417969,97.6601562 776.753906,175.976563 794.769531,319.789062" id="Path-73"></path>
                <path d="M753.515625,71.7851562 C817.367188,137.761719 801.390625,239.714844 836.421875,289.382812" id="Path-74"></path>
                <path d="M774.984375,90.6484375 C878.421875,155.234375 966.5,264.976562 966.5,264.976562" id="Path-75"></path>
                <path d="M596.78125,309.394531 C535.707031,349.078125 539.527344,375.246094 539.527344,408.636719" id="Path-76"></path>
                <path d="M856.214844,207.097656 C896.453125,231.070312 917.328125,263.628906 917.328125,263.628906" id="Path-77"></path>
                <path d="M540.898438,155.46875 C523.96875,198.527344 499.398438,219.625 499.398438,219.625" id="Path-78"></path>
                <path d="M559.507812,226.277344 C539.714844,197.484375 541.921875,155.246094 541.921875,155.246094" id="Path-79"></path>
                <path d="M192.75,375.304688 C192.75,413.378906 203.558594,437.269531 192.75,455.894531 C181.941406,474.519531 167,562.425781 167,562.425781" id="Path-80"></path>
                <path d="M209.265625,379.140625 C220.988281,410.222656 225.074219,436.015625 200.542969,450.683594" id="Path-81"></path>
                <path d="M201.320312,451.210938 C196.847656,478.351562 196.695312,494.882812 328.578125,442.058594" id="Path-82"></path>
                <path d="M194.875,452.949219 C184.804687,496.492188 210.374999,514.160156 210.374999,549.84375 C255.335938,533.1875 355.73438,501.396484 355.73438,501.396484" id="Path-83"></path>
                <path d="M499.726562,460.851562 C626.570312,446.429688 712.15625,497.046875 712.15625,497.046875" id="Path-84"></path>
                <path d="M506.960938,424.294922 C519.789062,440.574219 522.525391,458.136719 522.525391,458.136719 C522.525391,458.136719 507.898438,431.378906 530.101562,422.71875 C552.304688,414.058594 658,398.710937 715.099609,432.414062" id="Path-85"></path>
                <path d="M559.472656,438.941406 C649.019531,438.941406 679.166016,453.375 718.037109,472.888672" id="Path-86"></path>
                <path d="M1047.04688,381.296875 C1057.46484,320.265625 999.171875,274.085938 967.875,266.75 C936.578125,259.414062 899.179688,247.828125 816.730469,303.472656 C734.28125,359.117188 684.960938,614.109364 657.960938,669.765614 C630.960938,725.421864 576.546875,793.773418 560.824219,815.21875" id="Path-87"></path>
                <path d="M1057.40234,432.589844 C1074.19531,391.738281 998.757812,315.261719 886.640625,359.359375 C774.523438,403.457031 683.710938,657.046872 651.433594,687.421875" id="Path-88"></path>
                <path d="M1080.42188,528.683594 C1080.42188,433.316406 1024.97266,369.941406 923.453125,390.996094 C821.933594,412.050781 783.25,505.460937 659.367188,691.722656" id="Path-89"></path>
            </g>
        </g>
    </g>
</svg>