<?xml version="1.0" encoding="UTF-8" standalone="no"?>
<svg width="127px" height="188px" viewBox="0 0 127 188" version="1.1" xmlns="http://www.w3.org/2000/svg" xmlns:xlink="http://www.w3.org/1999/xlink" xmlns:sketch="http://www.bohemiancoding.com/sketch/ns">
    <!-- Generator: Sketch 3.3.1 (12002) - http://www.bohemiancoding.com/sketch -->
    <title>Knot</title>
    <desc>Created with Sketch.</desc>
    <defs></defs>
    <g id="Page-1" stroke="none" stroke-width="1" fill="none" fill-rule="evenodd" sketch:type="MSPage">
        <g id="Knot" sketch:type="MSLayerGroup" stroke-width="0.7498" stroke="#000000">
            <g id="Curtains" sketch:type="MSShapeGroup">
                <path d="M74.206,16.112 C74.813,15.164 75.467,14.022 76.069,13.126 C78.569,9.402 78.643,8.807 82.259,6.397" id="Shape"></path>
                <path d="M30.44,39.035 C28.01,38.744 25.979,38.328 24.697,37.709 C19.26,35.084 16.165,26.787 20.759,25.85 C25.353,24.912 29.529,22.904 22.779,18.31 C16.029,13.716 14.713,11.459 17.056,7.006 C19.4,2.552 27.369,1.193 29.9,4.005 C31.289,5.549 31.858,7.444 32.613,9.177 C33.348,10.865 35.705,13.275 37.533,10.819 C38.514,9.5 37.52,6.904 38.623,5.579 C42.116,1.385 48.45,7.382 49.567,10.38 C50.279,12.291 50.048,14.995 49.774,18.725 C49.01,29.091 53.313,32.561 62.799,28.142 C64.578,27.313 66.408,26.067 68.243,24.257 C68.965,23.544 69.705,22.639 70.455,21.618" id="Shape"></path>
                <path d="M56.699,41.16 C54.736,40.183 52.068,39.81 49.868,40.055" id="Shape"></path>
                <path d="M66.276,57.043 C66.333,54.65 66.127,51.255 65.525,49.85 C64.981,48.582 63.772,46.666 62.026,44.882" id="Shape"></path>
                <path d="M88.008,35.975 C87.767,35.893 87.334,35.749 87.088,35.664 C80.332,33.317 75.3,34.031 71.231,35.734" id="Shape"></path>
                <path d="M76.317,18.268 C76.893,17.073 77.629,15.374 78.435,13.634 C79.279,11.812 81.487,6.437 85.174,3.107 C87.845,0.697 92.431,-0.391 93.955,2.466 C94.96,4.352 90.83,9.943 95.124,10.539 C96.812,10.773 100.046,10.445 103.703,6.789 C109.578,0.915 122.043,10.056 117.087,18.977 C112.767,26.752 100.235,22.589 102.891,27.332 C103.323,28.103 104.375,28.838 105.932,29.377 C107.79,30.021 109.742,30.153 110.742,31.487 C112.831,34.277 107.261,37.507 105.182,38.238 C103.056,38.986 100.287,39.17 95.689,38.176" id="Shape"></path>
                <path d="M39.246,4.938 C39.246,4.938 41.59,3.322 43.746,5.15 C46.894,7.819 47.5,10.062 47.273,12.476 C46.923,16.191 44.441,20.15 44.969,25.439 C45.349,29.251 47.715,33.286 53.2,33.89 C61.402,34.792 67.749,30.365 72.614,24.146" id="Shape"></path>
                <path d="M37.467,11.02 C38.582,11.435 39.668,12.037 40.671,12.831 C43.529,15.094 44.751,17.16 45.593,19.111" id="Shape"></path>
                <path d="M24.975,19.957 C24.977,19.542 24.989,19.114 25.009,18.677 C25.259,13.362 29.026,10.494 33.304,10.334" id="Shape"></path>
                <path d="M35.455,34.6 C30.492,33.327 26.498,30.553 25.325,24.243" id="Shape"></path>
                <path d="M60.068,37.858 C59.077,37.38 58.097,37.03 56.931,36.723 C53.844,35.91 49.823,35.879 45.68,35.736" id="Shape"></path>
                <path d="M69.221,54.751 C69.349,49.813 68.484,45.272 64.967,41.963" id="Shape"></path>
                <path d="M64.244,70.802 C64.244,70.802 65.516,69.451 66.827,67.119" id="Shape"></path>
                <path d="M72.491,14.346 C75.162,11.823 77.313,8.352 80.169,6.067 C82.044,4.568 85.653,2.645 85.653,2.645" id="Shape"></path>
                <path d="M49.991,15.876 C50.87,17.706 52.394,20.596 53.755,21.771 C55.818,23.551 58.771,24.724 63.318,21.818 C64.024,21.367 64.75,20.857 65.473,20.32 C66.196,19.782 66.917,19.216 67.611,18.649" id="Shape"></path>
                <path d="M49.694,20.819 C49.845,23.778 51.356,25.72 53.427,26.758 C59.641,29.874 65.559,25.09 69.382,20.536" id="Shape"></path>
                <path d="M45.007,21.429 C42.144,16.296 39.465,14.648 36.242,14.111 C31.307,13.289 27.248,17.718 28.273,24.148 C29.304,30.616 33.429,32.82 36.148,33.804" id="Shape"></path>
                <path d="M44.479,34.466 C48.798,35.63 54.664,35.508 58.392,35.186" id="Shape"></path>
                <path d="M44.875,23.156 C40.644,18.719 33.843,18.052 32.986,24.711 C32.783,26.289 33.401,28.078 34.739,29.774 C35.521,30.766 36.565,31.402 37.953,32.017" id="Shape"></path>
                <path d="M77.682,29.376 C80.222,29.248 82.494,29.301 84.522,29.925 C88.175,31.05 90.691,32.159 94.439,34.411 C99.443,37.418 104.698,38.981 109.252,35.889" id="Shape"></path>
                <path d="M99.486,9.82 C105.89,12.489 109.849,18.747 104.672,24.662" id="Shape"></path>
                <path d="M76.359,18.287 C79.986,13.225 86.61,8.376 93.071,8.474" id="Shape"></path>
                <path d="M104.089,24.729 C104.701,22.128 103.956,18.909 101.117,15.161 C96.498,9.063 83.768,12.639 77.299,16.786" id="Shape"></path>
                <path d="M90.4,32.208 C95.328,32.48 100.474,30.746 102.885,27.364" id="Shape"></path>
                <path d="M77.795,19.961 C80.97,17.551 85.463,16.249 89.113,16.598 C94.306,17.094 97.128,21.751 94.905,26.347 C93.284,29.701 89.965,30.397 86.608,30.638" id="Shape"></path>
                <path d="M92.82,33.483 C100.444,33.507 102.133,32.617 105.664,29.276" id="Shape"></path>
                <path d="M109.931,30.741 C108.33,27.025 110.952,23.71 112.556,22.935" id="Shape"></path>
                <path d="M19.935,25.865 C22.848,22.525 19.875,16.35 18.13,14.685" id="Shape"></path>
                <path d="M109.932,13.748 C111.384,18.249 108.299,21.678 105.386,24.623" id="Shape"></path>
                <path d="M94.091,3.269 C96.463,6.549 100.888,7.455 104.683,6.013" id="Shape"></path>
                <path d="M38.904,5.267 C35.641,8.298 33.396,6.974 29.742,3.869" id="Shape"></path>
                <path d="M70.066,38.332 C73.482,35.429 83.188,35.333 87.55,36.551" id="Shape"></path>
                <path d="M86.884,45.365 C89.182,48.338 90.599,51.791 90.66,55.793" id="Shape"></path>
                <path d="M71.044,39.247 C75.178,38.311 79.169,39.218 82.454,41.324" id="Shape"></path>
                <path d="M84.421,47.895 C85.74,50.017 86.312,52.346 86.089,54.691" id="Shape"></path>
                <path d="M73.48,41.847 C76.005,41.745 78.317,42.452 80.254,43.671" id="Shape"></path>
                <path d="M83.864,48.499 C85.248,50.278 86.046,52.27 86.089,54.69" id="Shape"></path>
                <path d="M75.108,43.487 C76.476,43.55 77.94,43.969 79.338,44.68" id="Shape"></path>
                <path d="M38.203,67.986 C39.951,69.18 41.922,70.176 44.5,70.907" id="Shape"></path>
                <path d="M32.122,57.94 C32.29,59.861 32.851,61.713 33.845,63.413" id="Shape"></path>
                <path d="M40.762,40.532 C37.49,43.181 35.013,46.432 33.556,49.831" id="Shape"></path>
                <path d="M60.474,60.674 C59.731,61.947 58.837,63.06 57.85,63.899" id="Shape"></path>
                <path d="M60.425,46.293 C60.891,46.914 61.316,47.596 61.694,48.336 C62.438,49.796 62.732,51.5 62.673,53.257" id="Shape"></path>
                <path d="M51.171,41.476 C52.675,41.501 54.16,41.814 55.551,42.412" id="Shape"></path>
                <path d="M37.295,53.563 C38.539,48.845 40.942,45.703 43.896,43.702" id="Shape"></path>
                <path d="M45.222,45.262 C40.526,48.763 39.386,51.966 39.386,55.81" id="Shape"></path>
                <path d="M46.722,46.785 C42.993,49.647 42.717,51.303 42.524,55.129" id="Shape"></path>
                <path d="M81.259,65.435 C82.084,63.541 82.421,61.573 82.228,59.694" id="Shape"></path>
                <path d="M58.887,76.106 C62.141,76.162 65.267,76.021 68.453,75.25 C70.128,74.845 71.665,74.282 73.056,73.598" id="Shape"></path>
                <path d="M46.888,73.379 C43.398,73.544 39.872,74.125 36.18,75.67 C30.762,77.939 25.82,81.679 25.105,86.838 C24.424,91.757 25.5,97.689 26.652,100.831 C28.715,106.456 37.902,127.081 37.902,127.081 C42.759,138.952 49.181,154.944 32.372,159.705 C30.32,160.286 28.576,160.618 27.171,161.198 C21.401,163.577 24.638,166.713 25.86,170.959 C26.67,173.771 25.589,176.396 22.745,177.452 C18.456,179.044 15.668,175.2 13.397,177.679 C12.088,179.108 12.783,181.574 11.279,182.955 C8.575,185.439 5.616,183.352 2.961,185.004 C2.211,185.471 1.099,187.106 1.036,186.986 C0.04,185.081 0.564,181.299 2.832,180.293 C4.126,179.718 5.519,180.41 6.381,178.119 C6.599,177.54 6.606,176.846 6.317,176.019 C5.856,174.705 5.025,173.285 5.442,171.993 C5.754,171.027 6.641,170.346 7.981,170.25 C9.252,170.16 10.564,170.469 11.645,168.715 C12.362,167.551 12.295,165.891 11.361,164.201 C10.167,162.043 8.144,159.812 8.729,156.481 C9.217,153.702 11.883,152.809 13.943,151.096 C15.86,149.502 18.381,147.017 19.67,144.117 C21.92,139.054 23.983,129.866 24.545,124.242 C25.108,118.617 24.92,98.273 24.92,98.273 C24.92,93.385 25.613,87.974 28.69,83.978 C33.088,78.266 41.445,75.39 48.53,75.47" id="Shape"></path>
                <path d="M71.584,71.925 C70.708,72.36 69.761,72.696 68.746,72.894 C65.115,73.598 61.68,73.682 58.335,73.603" id="Shape"></path>
                <path d="M79.546,57.005 C80.373,60.611 79.031,64.562 76.713,67.584" id="Shape"></path>
                <path id="Shape" d="M69.074,49.947 C69.074,49.947 70.869,49.695 72.992,50.242"></path>
                <path d="M83.911,72.51 C86.366,72.294 88.926,72.382 91.097,73.126 C107.524,78.758 101.841,100.124 99.024,112.923 C96.066,126.357 93.586,144.238 103.658,150.321 C107.489,152.634 110.752,151.771 114.158,153.422 C117.128,154.86 118.258,157.579 117.558,161.805 C117.417,162.657 117.115,163.503 116.433,164.932 C115.355,167.187 114.187,169.4 115.733,170.463 C117.755,171.854 122.047,170.309 121.801,174.703 C121.536,179.446 121.927,180.408 124.721,181.606 C126.266,182.268 126.563,183.962 126.208,186.328 C126.208,186.328 125.247,186.14 124.637,185.765 C122.502,184.451 120.908,186.782 117.671,186.181 C116.031,185.877 114.667,184.93 114.559,183.163 C114.231,177.766 112.08,178.205 106.982,178.458 C104.03,178.604 101.895,177.035 101.466,172.639 C101.113,169.019 102.193,164.886 99.292,162.659 C96.508,160.521 91.554,161.359 88.119,158.555 C73.586,146.691 94.47,107.076 98.986,93.275 C101.555,85.422 99.678,79.884 99.725,79.896" id="Shape"></path>
                <path d="M38.268,127.97 C35.875,113.827 23,94.042 35.408,82.472 C37.881,80.166 40.987,78.96 45.793,78.41 M60.469,77.718 C63.748,77.824 67.606,77.379 70.923,76.085" id="Shape"></path>
                <path d="M9.795,154.299 C13.712,151.555 19.119,154.47 18.844,160.001 C18.842,160.04 18.805,160.142 18.838,160.119 C20.82,158.75 22.834,155.359 24.294,152.136 C28.655,142.511 29.664,125.726 28.354,115.68 C26.666,102.742 26.291,99.742 26.291,99.742" id="Shape"></path>
                <path d="M26.078,161.639 C30.904,155.002 32.99,143.196 33.153,137.379 C33.478,125.83 32.743,120.087 30.388,109.677" id="Shape"></path>
                <path d="M17.707,155.765 C16.903,156.698 15.965,158.004 15.528,159.411 C14.684,162.129 15.387,167.191 19.7,166.349 C21.201,166.055 22.681,165.252 23.912,164.161" id="Shape"></path>
                <path d="M7.583,170.344 C7.583,168.107 9.387,165.531 11.333,164.156" id="Shape"></path>
                <path d="M2.662,180.281 C2.662,178.399 4.297,176.233 6.06,175.078" id="Shape"></path>
                <path d="M11.708,182.578 C14.842,181.992 16.522,180.705 17.896,177.469" id="Shape"></path>
                <path d="M20.638,171.422 C12.939,171.569 13.985,162.454 15.622,159.187" id="Shape"></path>
                <path d="M33.424,159.401 C31.372,165.245 29.254,170.287 25.372,175.358" id="Shape"></path>
                <path d="M36.904,139.827 C36.66,147.158 32.65,156.198 27.295,161.108" id="Shape"></path>
                <path d="M29.218,107.154 C30.36,123.689 35.375,143.261 24.229,157.306 C22.51,159.471 25.98,151.357 29.218,147.7" id="Shape"></path>
                <path d="M42.187,81.897 C36.928,83.172 34.079,87.474 33.89,92.444 C33.702,97.366 33.375,101.116 35.812,108.803 C38.249,116.49 41.25,124.74 42.093,130.833 C42.937,136.928 43.218,144.615 43.218,144.615" id="Shape"></path>
                <path d="M44.576,71.045 C35.815,72.086 28.759,76.693 25.687,84.615" id="Shape"></path>
                <path d="M47.333,58.961 C47.267,62.165 47.927,63.133 49.203,66.057" id="Shape"></path>
                <path d="M59.299,72.563 C60.096,72.948 60.933,73.288 61.806,73.584" id="Shape"></path>
                <path d="M49.643,56.814 C49.922,62.417 51.765,66.535 54.761,69.437" id="Shape"></path>
                <path d="M51.283,55.314 C51.562,60.917 53.241,64.847 56.237,67.75" id="Shape"></path>
                <path d="M54.524,54.657 C54.827,59.277 56.348,62.727 58.811,65.2" id="Shape"></path>
                <path d="M62.369,69.54 C65.126,72.015 67.776,72.1 71.088,71.626" id="Shape"></path>
                <path d="M60.799,71.063 C62.981,73.013 65.616,73.076 68.854,72.861" id="Shape"></path>
                <path d="M79.257,62.423 C77.448,59.948 76.943,57.332 77.088,54.962" id="Shape"></path>
                <path d="M77.969,65.399 C76.16,62.924 75.327,59.535 75.355,56.791" id="Shape"></path>
                <path d="M72.986,64.01 C72.546,62.494 72.34,60.944 72.354,59.557" id="Shape"></path>
                <path d="M91.848,69.644 C89.767,70.99 87.408,71.955 84.145,72.353" id="Shape"></path>
                <path d="M98.104,57.962 C98.095,60.413 97.506,62.873 96.247,65.056" id="Shape"></path>
                <path d="M95.397,60.643 C95.333,61.617 95.359,62.189 94.7,63.497" id="Shape"></path>
                <path d="M88.223,44.11 C91.721,44.811 94.345,47.079 96.077,50.134" id="Shape"></path>
                <path d="M87.393,46.076 C90.658,47.227 92.644,49.84 93.358,52.994" id="Shape"></path>
                <path d="M88.5,80.109 C91.757,80.168 93.046,83.799 93.138,88.873 C93.239,94.491 91.092,101.736 89.721,108.227 C88.443,114.276 87.937,119.695 87.937,121.875" id="Shape"></path>
                <path d="M61.985,79.228 C63.734,79.464 66.451,79.403 68.43,78.689" id="Shape"></path>
                <path d="M83.955,75.294 C85.614,75.132 88.55,74.662 91.448,76.04 C99.45,79.845 98.13,87.674 94.966,96.009 C93.56,99.712 89.716,108.197 89.716,108.197" id="Shape"></path>
                <path d="M85.454,76.864 C86.583,76.716 89.163,76.683 91.168,77.948 C96.703,81.437 95.932,87.753 93.372,95.867 C92.316,99.215 90.027,107.048 90.027,107.048" id="Shape"></path>
                <path d="M98.204,149.937 C98.204,149.937 100.947,150.829 103.267,153.875 C105.587,156.922 105.705,158.75 104.392,157.625 C103.079,156.5 96.892,151.345 95.298,141.687 C92.705,125.974 97.028,115.59 100.632,101.031 C101.642,96.949 102.395,92.968 102.33,89.749" id="Shape"></path>
                <path d="M99.813,90.415 C100.332,94.965 98.827,98.432 98.075,100.945 C95.807,108.524 93.254,116.586 92.024,124.663 C90.571,134.203 90.961,143.766 95.842,152.582 C97.126,154.901 105.175,167.216 109.179,161.903 C111.38,158.982 105.801,152.462 104.467,150.988 C102.49,148.804 109.133,156.127 110.693,159.406 C112.046,162.248 112.616,165.275 111.376,168.038 C110.618,169.73 107.957,171.902 106.389,169.973" id="Shape"></path>
                <path d="M102.359,91.807 C102.359,91.807 101.703,98.135 101.234,108.541 C100.765,118.947 100.801,129.44 103.859,137.697 C105.799,142.936 109.729,149.915 114.805,153.775" id="Shape"></path>
                <path d="M89.669,141.035 C90.956,152.035 93.527,156.266 98.856,162.41" id="Shape"></path>
                <path d="M93.583,160.84 C94.546,166.205 98.923,170.525 101.435,172.629" id="Shape"></path>
                <path d="M110.083,178.441 C111.087,181.764 111.95,182.288 114.538,183.316" id="Shape"></path>
                <path d="M113.751,159.502 C115.413,161.731 115.603,164.362 115.075,168.326" id="Shape"></path>
                <path d="M116.881,164.024 C119.349,166.688 119.846,168.55 119.846,171.442" id="Shape"></path>
            </g>
            <g transform="translate(21.000000, 6.000000)" id="Shape" sketch:type="MSShapeGroup">
                <path d="M39.052,81.05 L19.002,60.136"></path>
                <path d="M56.897,72.578 L35.364,94.55 L43.864,103.175 L52.114,94.675 L43.779,86.065"></path>
                <path d="M56.838,40.218 L69.74,27.299 L85.615,43.174 L61.606,67.725"></path>
                <path d="M32.659,64.491 L52.448,44.676"></path>
                <path d="M17.642,77.406 L18.74,78.549 L27.864,69.38"></path>
                <path d="M32.111,47.325 L9.74,69.174 L10.718,70.22"></path>
                <path d="M30.532,12.519 L43.239,0.174 L61.49,18.674 L37.008,42.564"></path>
                <path d="M39.588,31.371 L36.168,27.98"></path>
                <path d="M63.447,56.002 L43.883,35.856"></path>
                <path d="M75.645,69.824 L76.239,69.174 L68.24,60.938"></path>
                <path d="M49.612,55.554 L69.676,76.361 L70.376,75.646"></path>
                <path d="M14.782,55.601 L1.362,41.736 L19.081,24.018 L45.604,51.424"></path>
                <path d="M41.918,29.057 L40.141,27.257"></path>
                <path d="M65.762,53.73 L46.162,33.631"></path>
                <path d="M77.889,72.406 L80.816,69.328 L70.474,58.654"></path>
                <path d="M47.32,57.82 L69.878,80.829 L71.738,78.857"></path>
                <path d="M17.169,53.186 L5.737,41.454 L18.753,28.704 L43.337,53.762"></path>
                <path d="M41.651,78.529 L21.492,57.706"></path>
                <path d="M54.494,70.073 L30.253,95.079 L43.378,108.204 L56.787,94.098 L46.213,83.459"></path>
                <path d="M58.985,42.411 L69.752,31.954 L80.752,42.704 L58.976,65.29"></path>
                <path d="M34.381,66.474 L54.525,46.814"></path>
                <path d="M15.1,79.901 L17.814,82.643 L29.735,71.366"></path>
                <path d="M29.978,45.262 L5.064,69.768 L7.979,72.711"></path>
                <path d="M31.999,15.005 L43.188,4.455 L57.063,18.517 L34.889,40.372"></path>
                <path d="M23.942,55.592 L43.857,76.269"></path>
                <path d="M40.87,56.197 L18.316,33.015 L9.93,41.165 L19.467,51.09"></path>
                <path d="M72.131,83.027 L69.691,85.515 L44.9,60.161"></path>
                <path d="M72.621,56.528 L85.191,69.39 L79.518,75.292"></path>
                <path d="M48.464,31.762 L67.862,51.593"></path>
                <path d="M42.97,26.128 L43.896,27.082"></path>
                <path d="M32.746,38.155 L52.691,18.89 L43.066,8.889 L34.417,16.93"></path>
                <path d="M5.922,75.924 L0.19,69.765 L27.868,43.035"></path>
                <path d="M31.591,73.281 L16.941,87.765 L13.244,83.792"></path>
                <path d="M56.317,48.711 L36.535,68.326"></path>
                <path d="M56.905,62.917 L76.316,43.015 L69.183,35.99 L60.783,44.355"></path>
                <path d="M48.456,81.165 L60.941,94.14 L43.066,113.14 L25.316,95.265 L52.304,67.691"></path>
            </g>
        </g>
    </g>
</svg>