<?xml version="1.0" encoding="UTF-8" standalone="no"?>
<svg width="121px" height="189px" viewBox="0 0 121 189" version="1.1" xmlns="http://www.w3.org/2000/svg" xmlns:xlink="http://www.w3.org/1999/xlink" xmlns:sketch="http://www.bohemiancoding.com/sketch/ns">
    <!-- Generator: Sketch 3.3.1 (12002) - http://www.bohemiancoding.com/sketch -->
    <title>Lotus</title>
    <desc>Created with Sketch.</desc>
    <defs></defs>
    <g id="Page-1" stroke="none" stroke-width="1" fill="none" fill-rule="evenodd" sketch:type="MSPage">
        <g id="Lotus" sketch:type="MSLayerGroup" stroke="#000000" stroke-width="0.7498">
            <g id="Water" transform="translate(25.000000, 164.000000)" sketch:type="MSShapeGroup">
                <path d="M35.498,23.768 C54.996,23.768 70.898,18.478 70.898,11.993 C70.898,5.508 54.996,0.218 35.498,0.218 C16,0.218 0.098,5.508 0.098,11.993 C0.098,18.478 16,23.768 35.498,23.768 L35.498,23.768 Z" id="Shape"></path>
                <path d="M35.498,19.118 C50.039,19.118 61.898,15.648 61.898,11.393 C61.898,7.138 50.039,3.667 35.498,3.667 C20.957,3.667 9.098,7.138 9.098,11.393 C9.098,15.648 20.957,19.118 35.498,19.118 L35.498,19.118 Z" id="Shape"></path>
                <path d="M35.498,15.583 C45.082,15.583 52.898,13.783 52.898,11.575 C52.898,9.367 45.082,7.567 35.498,7.567 C25.913,7.567 18.097,9.368 18.097,11.575 C18.097,13.783 25.913,15.583 35.498,15.583 L35.498,15.583 Z" id="Shape"></path>
                <path d="M35.498,13.117 C39.422,13.117 42.623,12.296 42.623,11.29 C42.623,10.283 39.422,9.462 35.498,9.462 C31.573,9.462 28.372,10.283 28.372,11.29 C28.372,12.296 31.573,13.117 35.498,13.117 L35.498,13.117 Z" id="Shape"></path>
            </g>
            <path d="M54.423,95.218 C59.486,118.068 57.921,153.368 57.185,176.818 C59.38,177.071 61.665,177.075 63.811,176.818 C63.075,153.368 61.51,118.068 66.573,95.218 L66.409,95.211 C66.464,94.962 66.517,94.714 66.573,94.468 C66.573,94.468 63.536,94.66 60.499,94.85 C57.461,94.661 54.424,94.468 54.424,94.468 C54.48,94.714 54.534,94.962 54.588,95.211 L54.423,95.218 L54.423,95.218 Z" id="Stick" fill="#FFFFFF" sketch:type="MSShapeGroup"></path>
            <g id="Curtain_x5F_Down" transform="translate(2.000000, 86.000000)" sketch:type="MSShapeGroup">
                <g id="Group">
                    <path d="M46.538,0.366 C53.059,19.381 51.415,26.421 49.763,46.041 C51.528,26.703 53.112,21.586 44.438,5.241" id="Shape"></path>
                    <g transform="translate(0.000000, 9.000000)" id="Shape">
                        <path d="M38.227,2.509 C42.102,15.358 44.298,27.75 39.097,40.108 C34.749,50.438 22.698,60.309 10.027,65.96 C9.208,66.325 13.692,65.028 17.001,65.603 C17.691,65.723 18.434,66.347 18.222,66.635 C16.944,68.371 10.414,71.89 8.76,72.966 C7.923,73.51 7.156,74.358 7.308,75.431 C7.515,76.893 7.984,77.438 7.984,77.438 C7.306,79.583 5.854,81.047 3.933,82.145 C1.04,83.432 0.719,85.554 1.063,88.446 C2.802,87.118 5.25,85.517 7.643,85.518 C10.043,85.519 12.084,88.012 14.33,86.066 C18.086,82.811 22.432,79.927 24.136,81.341 L24.906,81.979 C24.906,81.979 28.561,78.885 30.287,76.973 C32.012,75.06 33.512,73.298 33.512,73.298 C34.224,74.151 34.263,74.49 34.263,75.548 C34.263,75.548 40.075,70.561 42.7,62.76 C45.325,54.96 52.001,33.66 50.725,24.96 C49.45,16.26 47.575,8.01 45.326,2.61 C43.072,-2.792 38.271,2.383 38.227,2.509 L38.227,2.509 Z" fill="#FFFFFF"></path>
                        <path d="M8.778,72.998 C11.802,74.013 16.817,73.688 18.926,71.803 C21.279,69.699 19.126,66.233 17.154,65.635"></path>
                        <path d="M3.813,82.189 C5.604,82.471 7.638,82.113 8.824,80.692 C9.834,79.484 8.481,78.353 7.766,77.067"></path>
                        <path d="M14.874,85.601 C15.586,84.926 16.637,84.363 16.899,82.826 C17.129,81.472 17.811,80.097 18.878,79.483 C22,77.686 23.399,80.182 24.866,81.963"></path>
                        <path d="M27.052,80.087 C27.052,80.087 27.836,78.625 27.315,75.306 C26.443,69.767 31.082,69.736 33.896,73.862"></path>
                        <path d="M19.783,70.561 C23.979,68.507 29.033,64.186 33.3,59.295 C39.932,51.694 41.31,47.638 43.973,38.229"></path>
                        <path d="M27.159,73.756 C24.445,75.793 22.286,76.981 20.601,77.581 C16.368,79.088 13.163,76.29 15.863,73.207"></path>
                        <path d="M42.547,3.428 C51.661,24.187 47.813,55.223 30.461,71.041"></path>
                        <path d="M45.076,39.271 C41.904,51.748 37.198,58.231 32.367,64.162 C31.396,65.353 28.754,67.957 26.19,70.042 C23.608,72.142 21.107,73.717 21.153,73.025 C21.251,71.567 27.437,67.728 31.201,65.389"></path>
                        <path d="M12.395,80.409 C11.043,77.653 12.917,75.352 14.806,73.4"></path>
                    </g>
                </g>
                <g id="Group" transform="translate(65.000000, 0.000000)">
                    <path d="M5.457,0.366 C-1.064,19.381 0.58,26.421 2.232,46.041 C0.467,26.703 -1.117,21.586 7.557,5.241" id="Shape"></path>
                    <g transform="translate(1.000000, 9.000000)" id="Shape">
                        <path d="M12.769,2.509 C8.894,15.358 6.698,27.75 11.899,40.108 C16.248,50.438 28.299,60.309 40.969,65.96 C41.788,66.325 37.305,65.028 33.996,65.603 C33.305,65.723 32.563,66.347 32.775,66.635 C34.053,68.371 40.582,71.89 42.236,72.966 C43.073,73.51 43.84,74.358 43.688,75.431 C43.482,76.893 43.013,77.438 43.013,77.438 C43.691,79.583 45.142,81.047 47.063,82.145 C49.957,83.432 50.277,85.554 49.933,88.446 C48.194,87.118 45.746,85.517 43.353,85.518 C40.954,85.519 38.912,88.012 36.667,86.066 C32.911,82.811 28.564,79.927 26.86,81.341 L26.091,81.979 C26.091,81.979 22.435,78.885 20.71,76.973 C18.984,75.06 17.484,73.298 17.484,73.298 C16.773,74.151 16.734,74.49 16.734,75.548 C16.734,75.548 10.921,70.561 8.296,62.76 C5.671,54.96 -1.004,33.66 0.271,24.96 C1.546,16.26 3.421,8.01 5.671,2.61 C7.921,-2.79 12.724,2.383 12.769,2.509 L12.769,2.509 Z" fill="#FFFFFF"></path>
                        <path d="M42.218,72.998 C39.193,74.013 34.178,73.688 32.07,71.803 C29.717,69.699 31.869,66.233 33.841,65.635"></path>
                        <path d="M47.184,82.189 C45.393,82.471 43.359,82.113 42.172,80.692 C41.162,79.484 42.515,78.353 43.231,77.067"></path>
                        <path d="M36.121,85.601 C35.409,84.926 34.359,84.363 34.097,82.826 C33.866,81.472 33.185,80.097 32.118,79.483 C28.995,77.686 27.597,80.182 26.129,81.963"></path>
                        <path d="M23.944,80.087 C23.944,80.087 23.159,78.625 23.681,75.306 C24.552,69.767 19.914,69.736 17.099,73.862"></path>
                        <path d="M31.213,70.561 C27.017,68.507 21.963,64.186 17.695,59.295 C11.064,51.694 9.685,47.638 7.022,38.229"></path>
                        <path d="M23.836,73.756 C26.55,75.793 28.709,76.981 30.395,77.581 C34.627,79.088 37.832,76.29 35.132,73.207"></path>
                        <path d="M8.448,3.428 C-0.666,24.187 3.183,55.223 20.535,71.041"></path>
                        <path d="M5.919,39.271 C9.092,51.748 13.797,58.231 18.629,64.162 C19.599,65.353 22.241,67.957 24.806,70.042 C27.387,72.142 29.889,73.717 29.842,73.025 C29.745,71.567 23.558,67.728 19.794,65.389"></path>
                        <path d="M38.601,80.409 C39.953,77.653 38.079,75.352 36.19,73.4"></path>
                    </g>
                </g>
            </g>
            <g id="Curtain_x5F_Up" transform="translate(0.000000, 89.000000)" sketch:type="MSShapeGroup">
                <g id="Group">
                    <path d="M13.076,21.482 C15.988,21.482 18.364,19.107 18.364,16.195 C18.364,13.282 15.988,10.907 13.076,10.907 C10.164,10.907 7.789,13.282 7.789,16.195 C7.789,19.107 10.164,21.482 13.076,21.482 L13.076,21.482 Z" id="Shape" fill="#FFFFFF"></path>
                    <path d="M19.477,32.832 C22.39,32.832 24.765,30.457 24.765,27.544 C24.765,24.631 22.39,22.256 19.477,22.256 C16.565,22.256 14.19,24.631 14.19,27.544 C14.19,30.457 16.564,32.832 19.477,32.832 L19.477,32.832 Z" id="Shape" fill="#FFFFFF"></path>
                    <g id="Shape">
                        <path d="M50.808,0.364 C50.808,0.364 35.065,3.518 26.059,3.814 C23.396,3.901 19.033,3.865 15.528,4.638 C12.967,5.202 10.151,6.926 10.127,9.179 C10.087,13.034 16.965,13.022 13.107,16.714 C12.26,17.525 10.628,17.951 8.958,18.031 C2.831,18.326 -1.449,25.015 2.284,29.578 C4.983,32.878 9.014,32.859 11.865,31.059 C14.715,29.259 16.797,27.365 18.034,26.615 C22.082,24.161 23.51,28.281 23.3,29.579 C22.827,32.493 24.699,32.832 26.36,32.558 C34.22,31.255 38.348,19.876 43.568,10.746 C47.154,4.468 49.948,-0.498 50.808,0.364 L50.808,0.364 Z" fill="#FFFFFF"></path>
                        <path d="M44.055,7.005 C44.055,7.005 36.255,11.88 27.93,9.03 C23.001,7.343 15.933,4.35 10.981,7.005"></path>
                        <path d="M39.893,4.101 C39.893,4.101 33.535,9.324 26.748,6.848 C22.73,5.381 18.129,4.204 12.593,5.919"></path>
                        <path d="M13.013,12.924 C14.951,10.672 17.962,8.61 22.357,7.168"></path>
                        <path d="M16.264,27.902 C13.708,27.191 11.805,25.733 10.911,23.916 C10.114,22.295 9.843,20.156 10.388,17.903"></path>
                        <path d="M45.092,12.657 C40.906,16.957 35.905,20.912 33.858,22.618 C30.132,25.721 26.425,27.406 23.093,28.056"></path>
                        <path d="M42.771,11.138 C39.754,14.699 36.087,18.037 34.589,19.471 C27.051,26.688 19.039,25.473 16.855,21.712 C14.913,18.366 15.851,11.754 24.835,8.102"></path>
                        <path d="M40.581,10.167 C38.607,12.854 36.159,15.413 35.163,16.508 C30.148,22.023 24.38,21.552 22.638,18.98 C21.089,16.692 21.431,11.935 27.652,8.889"></path>
                        <path d="M39.854,9.727 C38.419,11.416 36.596,13.05 35.857,13.747 C32.138,17.255 27.48,17.213 25.939,15.746 C24.568,14.441 24.39,11.542 27.941,9.123"></path>
                    </g>
                </g>
                <g id="Group" transform="translate(70.000000, 0.000000)">
                    <path d="M37.919,21.482 C40.831,21.482 43.207,19.107 43.207,16.195 C43.207,13.282 40.831,10.907 37.919,10.907 C35.007,10.907 32.632,13.282 32.632,16.195 C32.632,19.107 35.007,21.482 37.919,21.482 L37.919,21.482 Z" id="Shape" fill="#FFFFFF"></path>
                    <path d="M31.519,32.832 C34.431,32.832 36.807,30.457 36.807,27.544 C36.807,24.631 34.431,22.256 31.519,22.256 C28.607,22.256 26.231,24.631 26.231,27.544 C26.231,30.457 28.606,32.832 31.519,32.832 L31.519,32.832 Z" id="Shape" fill="#FFFFFF"></path>
                    <g id="Shape">
                        <path d="M0.188,0.364 C0.188,0.364 15.931,3.518 24.938,3.814 C27.601,3.901 31.963,3.865 35.468,4.638 C38.029,5.202 40.846,6.926 40.869,9.179 C40.91,13.034 34.032,13.022 37.889,16.714 C38.736,17.525 40.368,17.951 42.038,18.031 C48.165,18.326 52.445,25.015 48.713,29.578 C46.013,32.878 41.982,32.859 39.132,31.059 C36.281,29.259 34.199,27.365 32.963,26.615 C28.914,24.161 27.486,28.281 27.697,29.579 C28.17,32.493 26.297,32.832 24.637,32.558 C16.776,31.255 12.648,19.876 7.428,10.746 C3.841,4.468 1.048,-0.498 0.188,0.364 L0.188,0.364 Z" fill="#FFFFFF"></path>
                        <path d="M6.94,7.005 C6.94,7.005 14.741,11.88 23.065,9.03 C27.994,7.343 35.063,4.35 40.015,7.005"></path>
                        <path d="M11.103,4.101 C11.103,4.101 17.462,9.324 24.249,6.848 C28.267,5.381 32.867,4.204 38.404,5.919"></path>
                        <path d="M37.982,12.924 C36.045,10.672 33.034,8.61 28.638,7.168"></path>
                        <path d="M34.732,27.902 C37.287,27.191 39.191,25.733 40.085,23.916 C40.881,22.295 41.152,20.156 40.608,17.903"></path>
                        <path d="M5.903,12.657 C10.089,16.957 15.09,20.912 17.138,22.618 C20.863,25.721 24.571,27.406 27.902,28.056"></path>
                        <path d="M8.225,11.138 C11.241,14.699 14.909,18.037 16.406,19.471 C23.944,26.688 31.957,25.473 34.14,21.712 C36.082,18.366 35.144,11.754 26.16,8.102"></path>
                        <path d="M10.415,10.167 C12.388,12.854 14.836,15.413 15.832,16.508 C20.848,22.023 26.616,21.552 28.357,18.98 C29.907,16.692 29.565,11.935 23.343,8.889"></path>
                        <path d="M11.142,9.727 C12.577,11.416 14.4,13.05 15.139,13.747 C18.858,17.255 23.516,17.213 25.057,15.746 C26.428,14.441 26.606,11.542 23.055,9.123"></path>
                    </g>
                </g>
            </g>
            <g id="Curtain_x5F_Central" transform="translate(35.000000, 76.000000)" sketch:type="MSShapeGroup">
                <g id="Group">
                    <path d="M5.574,60.164 C7.935,62 10.753,62.813 12.802,64.69 C14.732,66.459 14.429,69.873 14.032,72.252 C12.745,81.909 38.25,81.909 36.963,72.252 C36.567,69.874 36.264,66.459 38.194,64.69 C40.242,62.814 43.059,62 45.422,60.164 C57.419,51.953 47.286,17.029 39.233,7.901 C30.555,-1.934 20.442,-1.934 11.763,7.901 C3.709,17.028 -6.424,51.952 5.574,60.164 L5.574,60.164 L5.574,60.164 Z M25.498,7.117 C33.104,7.117 39.271,18.601 39.271,32.767 C39.271,46.934 33.104,58.417 25.498,58.417 C17.891,58.417 11.725,46.933 11.725,32.767 C11.725,18.601 17.891,7.117 25.498,7.117 L25.498,7.117 Z" id="Shape" fill="#FFFFFF"></path>
                    <path d="M25.498,4.718 C35.521,4.718 43.647,22.984 43.647,39.22 C43.647,55.457 35.521,63.518 25.498,63.518 C15.474,63.518 7.348,55.457 7.348,39.22 C7.348,22.983 15.474,4.718 25.498,4.718 L25.498,4.718 Z" id="Shape"></path>
                    <path d="M32.504,67.854 C30.088,69.681 27.708,70.586 25.667,70.586 C23.53,70.586 21.023,69.594 18.492,67.592" id="Shape"></path>
                    <path d="M12.789,62.646 C8.11,58.326 4.39,51.507 4.39,42.089 C4.39,24.377 13.84,1.967 25.498,1.967 C37.155,1.967 46.605,24.377 46.605,42.089 C46.605,51.593 42.817,58.45 38.078,62.764" id="Shape"></path>
                    <g transform="translate(10.000000, 62.000000)" id="Shape">
                        <path d="M0.228,0.734 C1.997,0.653 4.109,0.66 5.834,1.306 C8.314,2.235 9.991,4.482 7.176,7.565 C6.338,8.482 5.233,9.264 4.279,10.068"></path>
                        <path d="M30.768,0.734 C29,0.653 26.887,0.66 25.162,1.306 C22.682,2.235 21.005,4.482 23.821,7.565 C24.658,8.482 25.764,9.264 26.718,10.068"></path>
                    </g>
                </g>
                <path d="M25.498,12.163 C33.409,12.163 39.823,20.759 39.823,31.363 C39.823,41.967 33.409,50.563 25.498,50.563 C17.586,50.563 11.173,41.967 11.173,31.363 C11.173,20.759 17.586,12.163 25.498,12.163 L25.498,12.163 L25.498,12.163 Z M25.498,10.663 C15.599,10.663 7.572,21.879 7.572,35.713 C7.572,41.34 8.9,46.535 11.142,50.717 C14.411,56.816 19.624,60.763 25.497,60.763 C35.396,60.763 43.422,49.548 43.422,35.713 C43.422,21.878 35.397,10.663 25.498,10.663 L25.498,10.663 Z" id="Shape" fill="#FFFFFF"></path>
            </g>
            <g id="Flowers" transform="translate(2.000000, 0.000000)" sketch:type="MSShapeGroup">
                <g id="Group">
                    <path d="M13.567,19.779 C13.567,19.779 24.217,23.604 29.767,35.379 C35.317,47.154 35.317,52.479 35.317,52.479 L38.017,52.029 C38.017,52.029 34.642,35.304 28.791,27.129 C22.941,18.954 19.566,15.879 19.566,15.879 L13.567,19.779 L13.567,19.779 Z" id="Shape"></path>
                    <g transform="translate(5.000000, 5.000000)" id="Shape">
                        <path d="M15.13,15.881 C13.863,14.223 10.093,15.816 7.045,17.895 C1.707,21.536 2.944,22.414 0.449,27.654 C0.449,27.654 2.633,24.416 5.962,23.256 C7.934,22.569 10.838,22.848 12.823,21.543 C14.312,20.564 16.053,18.155 15.13,15.881 L15.13,15.881 Z" fill="#FFFFFF"></path>
                        <g transform="translate(14.000000, 0.000000)">
                            <path d="M1.019,15.94 C-0.119,15.009 0.215,12.842 1.167,10.561 C2.711,6.863 4.217,4.983 6.326,3.497 C7.825,2.441 9.629,1.584 11.969,0.414 C11.969,0.414 9.455,2.739 8.481,6.302 C7.904,8.412 7.723,11.093 6.529,13.2 C5.633,14.781 3.343,17 1.019,15.94 L1.019,15.94 Z" fill="#FFFFFF"></path>
                            <path d="M7.393,4.652 C3.989,7.509 5.217,12.018 1.505,14.252 C0.319,14.965 0.38,14.852 0.38,14.852"></path>
                        </g>
                        <path d="M5.172,21.726 C7.909,18.168 11.273,21.041 13.552,16.457 C14.178,15.198 14.137,15.299 14.137,15.299"></path>
                    </g>
                    <g id="Shape">
                        <path d="M0.386,0.695 C0.482,4.156 0.739,8.879 2.347,13.158 C4.299,18.353 8.536,22.757 14.256,22.661 C23.343,22.508 23.228,10.677 16.267,4.538 C11.291,0.15 1.854,0.458 0.536,0.526 C0.339,0.537 0.38,0.499 0.386,0.695 L0.386,0.695 Z" fill="#FFFFFF"></path>
                        <path d="M5.35,0.573 C11.47,6.479 2.026,15.202 10.431,22.079"></path>
                        <path d="M8.425,1.023 C14.305,6.929 4.506,15.651 12.632,22.529"></path>
                        <path d="M10.702,1.698 C14.028,5.022 10.135,9.406 9.316,13.677"></path>
                    </g>
                </g>
                <g id="Group" transform="translate(78.000000, 0.000000)">
                    <path d="M25.428,19.779 C25.428,19.779 14.779,23.604 9.228,35.379 C3.678,47.154 3.678,52.479 3.678,52.479 L0.979,52.029 C0.979,52.029 4.354,35.304 10.204,27.129 C16.054,18.954 19.429,15.879 19.429,15.879 L25.428,19.779 L25.428,19.779 Z" id="Shape"></path>
                    <g transform="translate(8.000000, 5.000000)" id="Shape">
                        <path d="M10.866,15.881 C12.133,14.223 15.902,15.816 18.95,17.895 C24.288,21.536 23.052,22.414 25.546,27.654 C25.546,27.654 23.362,24.416 20.033,23.256 C18.061,22.569 15.157,22.848 13.172,21.543 C11.684,20.564 9.942,18.155 10.866,15.881 L10.866,15.881 Z" fill="#FFFFFF"></path>
                        <g>
                            <path d="M10.978,15.94 C12.116,15.009 11.781,12.842 10.829,10.561 C9.286,6.863 7.78,4.983 5.67,3.497 C4.171,2.441 2.367,1.584 0.028,0.414 C0.028,0.414 2.541,2.739 3.515,6.302 C4.092,8.412 4.274,11.093 5.468,13.2 C6.363,14.781 8.653,17 10.978,15.94 L10.978,15.94 Z" fill="#FFFFFF"></path>
                            <path d="M4.603,4.652 C8.007,7.509 6.779,12.018 10.491,14.252 C11.677,14.965 11.616,14.852 11.616,14.852"></path>
                        </g>
                        <path d="M20.824,21.726 C18.087,18.168 14.722,21.041 12.444,16.457 C11.818,15.198 11.858,15.299 11.858,15.299"></path>
                    </g>
                    <g transform="translate(17.000000, 0.000000)" id="Shape">
                        <path d="M21.61,0.695 C21.514,4.156 21.257,8.879 19.649,13.158 C17.696,18.353 13.46,22.757 7.74,22.661 C-1.348,22.508 -1.232,10.677 5.729,4.538 C10.705,0.15 20.142,0.458 21.459,0.526 C21.656,0.537 21.615,0.499 21.61,0.695 L21.61,0.695 Z" fill="#FFFFFF"></path>
                        <path d="M16.646,0.573 C10.527,6.479 19.97,15.202 11.565,22.079"></path>
                        <path d="M13.57,1.023 C7.691,6.929 17.489,15.651 9.363,22.529"></path>
                        <path d="M11.294,1.698 C7.968,5.022 11.861,9.406 12.68,13.677"></path>
                    </g>
                </g>
            </g>
            <g id="Head" transform="translate(6.000000, 28.000000)" fill="#FFFFFF" sketch:type="MSShapeGroup">
                <g id="Group" transform="translate(26.000000, 0.000000)">
                    <path d="M28.39,0.36 C28.39,0.36 30.877,3.09 32.092,5.222 C33.182,7.133 34.538,9.562 35.219,12.038 C35.779,14.073 35.698,16.442 34.835,18.401 C33.731,20.904 31.56,22.26 28.877,22.418 C26.835,22.538 25.203,21.839 23.993,20.67 C21.889,18.636 21.193,15.689 21.484,12.725 C21.828,9.226 23.267,6.535 25.21,4.026 C26.17,2.785 27.323,1.603 28.39,0.36 L28.39,0.36 Z" id="Shape"></path>
                    <g transform="translate(0.000000, 2.000000)" id="Shape">
                        <g>
                            <path d="M14.484,0.272 C14.484,0.272 17.598,2.257 19.328,3.998 C20.879,5.558 22.824,7.549 24.128,9.761 C25.199,11.579 25.741,13.886 25.419,16.003 C25.008,18.707 23.265,20.584 20.717,21.436 C18.778,22.085 17.02,21.837 15.547,21.025 C12.984,19.612 11.542,16.948 11.049,14.011 C10.467,10.544 11.153,7.57 12.372,4.64 C12.975,3.192 13.779,1.75 14.484,0.272 L14.484,0.272 Z"></path>
                            <path d="M1.838,5.622 C1.838,5.622 5.362,6.725 7.487,7.953 C9.39,9.053 11.789,10.467 13.625,12.262 C15.134,13.737 16.261,15.823 16.502,17.95 C16.812,20.668 15.62,22.934 13.383,24.423 C11.681,25.556 9.919,25.776 8.285,25.377 C5.441,24.682 3.354,22.488 2.111,19.781 C0.642,16.586 0.529,13.536 0.94,10.39 C1.144,8.835 1.544,7.232 1.838,5.622 L1.838,5.622 Z"></path>
                        </g>
                        <g transform="translate(31.000000, 0.000000)">
                            <path d="M11.511,0.272 C11.511,0.272 8.397,2.257 6.667,3.998 C5.116,5.558 3.172,7.549 1.868,9.761 C0.797,11.579 0.255,13.886 0.576,16.003 C0.987,18.707 2.73,20.584 5.279,21.436 C7.217,22.085 8.975,21.837 10.448,21.025 C13.011,19.612 14.453,16.948 14.946,14.011 C15.529,10.544 14.842,7.57 13.623,4.64 C13.021,3.192 12.216,1.75 11.511,0.272 L11.511,0.272 Z"></path>
                            <path d="M24.157,5.622 C24.157,5.622 20.633,6.725 18.508,7.953 C16.605,9.053 14.207,10.467 12.37,12.262 C10.861,13.737 9.735,15.823 9.493,17.95 C9.183,20.668 10.376,22.934 12.612,24.423 C14.315,25.556 16.076,25.776 17.711,25.377 C20.554,24.682 22.642,22.488 23.885,19.781 C25.353,16.586 25.467,13.536 25.055,10.39 C24.852,8.835 24.452,7.232 24.157,5.622 L24.157,5.622 Z"></path>
                        </g>
                    </g>
                </g>
                <g id="Group" transform="translate(27.000000, 8.000000)">
                    <g id="Shape">
                        <g>
                            <g transform="translate(24.000000, 0.000000)">
                                <path d="M2.055,14.955 L2.055,14.955 C2.512,14.941 2.862,14.609 2.85,14.214 C2.663,9.822 2.501,5.594 2.371,1.568 C2.345,1.182 1.967,0.87 1.51,0.883 L1.51,0.883 C1.054,0.897 0.692,1.235 0.715,1.624 C0.902,5.738 1.05,9.974 1.188,14.27 C1.198,14.665 1.598,14.969 2.055,14.955 L2.055,14.955 Z"></path>
                                <path d="M1.496,0.407 C2.084,0.387 2.579,0.781 2.602,1.287 C2.625,1.793 2.167,2.219 1.58,2.239 C0.993,2.259 0.496,1.865 0.474,1.359 C0.45,0.853 0.908,0.427 1.496,0.407 L1.496,0.407 Z"></path>
                            </g>
                            <g transform="translate(22.000000, 0.000000)">
                                <path d="M2.406,15.216 L2.406,15.216 C2.859,15.189 3.183,14.848 3.16,14.455 C2.786,9.923 2.463,5.722 2.203,1.921 C2.15,1.545 1.771,1.245 1.318,1.272 L1.318,1.272 C0.865,1.299 0.517,1.652 0.564,2.033 C0.937,6.009 1.234,10.226 1.509,14.567 C1.531,14.96 1.953,15.243 2.406,15.216 L2.406,15.216 Z"></path>
                                <path d="M1.288,0.799 C1.87,0.759 2.379,1.132 2.426,1.633 C2.472,2.133 2.038,2.571 1.456,2.612 C0.875,2.652 0.365,2.279 0.319,1.778 C0.272,1.277 0.707,0.839 1.288,0.799 L1.288,0.799 Z"></path>
                            </g>
                            <g transform="translate(20.000000, 1.000000)">
                                <path d="M2.829,14.547 L2.829,14.547 C3.278,14.506 3.577,14.156 3.542,13.765 C2.98,9.093 2.496,4.918 2.105,1.344 C2.026,0.978 1.646,0.69 1.197,0.731 L1.197,0.731 C0.748,0.772 0.416,1.138 0.484,1.512 C1.045,5.349 1.489,9.548 1.903,13.933 C1.936,14.325 2.381,14.588 2.829,14.547 L2.829,14.547 Z"></path>
                                <path d="M1.15,0.262 C1.725,0.202 2.248,0.555 2.317,1.05 C2.387,1.545 1.977,1.995 1.402,2.055 C0.827,2.115 0.303,1.762 0.234,1.267 C0.165,0.771 0.575,0.322 1.15,0.262 L1.15,0.262 Z"></path>
                            </g>
                            <g transform="translate(18.000000, 1.000000)">
                                <path d="M3.426,14.95 L3.426,14.95 C3.871,14.896 4.143,14.537 4.097,14.148 C3.348,9.336 2.701,5.187 2.182,1.839 C2.077,1.483 1.695,1.207 1.25,1.262 L1.25,1.262 C0.804,1.316 0.486,1.697 0.578,2.064 C1.326,5.762 1.919,9.943 2.47,14.373 C2.513,14.763 2.98,15.004 3.426,14.95 L3.426,14.95 Z"></path>
                                <path d="M1.185,0.798 C1.754,0.718 2.29,1.05 2.383,1.54 C2.476,2.029 2.09,2.491 1.521,2.571 C0.952,2.651 0.416,2.319 0.323,1.829 C0.229,1.339 0.616,0.877 1.185,0.798 L1.185,0.798 Z"></path>
                            </g>
                            <g transform="translate(16.000000, 2.000000)">
                                <path d="M3.991,14.391 L3.991,14.391 C4.433,14.323 4.679,13.956 4.621,13.568 C3.684,8.618 2.877,4.494 2.226,1.372 C2.094,1.026 1.711,0.763 1.27,0.831 L1.27,0.831 C0.829,0.899 0.526,1.294 0.64,1.653 C1.575,5.212 2.316,9.375 3.004,13.849 C3.059,14.238 3.55,14.458 3.991,14.391 L3.991,14.391 Z"></path>
                                <path d="M1.187,0.37 C1.75,0.27 2.3,0.582 2.416,1.066 C2.531,1.55 2.169,2.024 1.606,2.124 C1.043,2.223 0.494,1.912 0.377,1.428 C0.262,0.943 0.624,0.47 1.187,0.37 L1.187,0.37 Z"></path>
                            </g>
                            <g transform="translate(14.000000, 2.000000)">
                                <path d="M4.429,14.765 L4.429,14.765 C4.867,14.683 5.086,14.309 5.017,13.922 C3.893,8.832 2.924,4.734 2.143,1.839 C1.986,1.503 1.602,1.252 1.164,1.333 L1.163,1.333 C0.725,1.415 0.437,1.824 0.575,2.176 C1.696,5.597 2.586,9.742 3.412,14.259 C3.477,14.646 3.99,14.847 4.429,14.765 L4.429,14.765 Z"></path>
                                <path d="M1.06,0.877 C1.616,0.757 2.18,1.048 2.319,1.527 C2.459,2.005 2.12,2.49 1.564,2.61 C1.007,2.729 0.443,2.439 0.304,1.96 C0.165,1.482 0.503,0.997 1.06,0.877 L1.06,0.877 Z"></path>
                            </g>
                            <g transform="translate(12.000000, 3.000000)">
                                <path d="M4.953,14.348 L4.953,14.348 C5.388,14.253 5.581,13.869 5.5,13.485 C4.188,8.256 3.059,4.183 2.147,1.514 C1.963,1.188 1.578,0.949 1.144,1.044 L1.144,1.044 C0.709,1.139 0.437,1.562 0.598,1.907 C1.905,5.189 2.943,9.316 3.908,13.878 C3.982,14.264 4.52,14.443 4.953,14.348 L4.953,14.348 Z"></path>
                                <path d="M1.018,0.594 C1.569,0.454 2.147,0.725 2.309,1.198 C2.471,1.672 2.157,2.169 1.606,2.308 C1.056,2.448 0.479,2.177 0.317,1.704 C0.155,1.231 0.468,0.733 1.018,0.594 L1.018,0.594 Z"></path>
                            </g>
                            <g transform="translate(10.000000, 4.000000)">
                                <path d="M5.492,13.92 L5.492,13.92 C5.923,13.811 6.09,13.419 5.997,13.036 C4.498,7.666 3.207,3.619 2.166,1.178 C1.956,0.863 1.569,0.635 1.139,0.744 L1.139,0.744 C0.708,0.853 0.451,1.29 0.634,1.628 C2.128,4.771 3.315,8.88 4.416,13.486 C4.503,13.87 5.062,14.029 5.492,13.92 L5.492,13.92 Z"></path>
                                <path d="M0.99,0.298 C1.534,0.138 2.125,0.388 2.31,0.856 C2.495,1.324 2.205,1.833 1.662,1.992 C1.118,2.152 0.526,1.902 0.342,1.434 C0.155,0.966 0.446,0.458 0.99,0.298 L0.99,0.298 Z"></path>
                            </g>
                            <g transform="translate(8.000000, 4.000000)">
                                <path d="M6.021,14.456 L6.021,14.456 C6.449,14.333 6.589,13.933 6.485,13.551 C4.798,8.043 3.345,4.021 2.174,1.806 C1.938,1.5 1.55,1.285 1.124,1.408 L1.123,1.408 C0.697,1.531 0.454,1.982 0.66,2.312 C2.341,5.316 3.676,9.407 4.915,14.058 C5.013,14.44 5.596,14.578 6.021,14.456 L6.021,14.456 Z"></path>
                                <path d="M0.951,0.968 C1.489,0.788 2.094,1.017 2.303,1.48 C2.511,1.942 2.245,2.463 1.707,2.643 C1.17,2.822 0.564,2.593 0.356,2.131 C0.147,1.667 0.414,1.147 0.951,0.968 L0.951,0.968 Z"></path>
                            </g>
                            <g transform="translate(6.000000, 5.000000)">
                                <path d="M6.543,14.116 L6.543,14.116 C6.966,13.98 7.08,13.571 6.965,13.191 C5.091,7.543 3.477,3.547 2.176,1.558 C1.912,1.263 1.525,1.059 1.102,1.195 L1.102,1.195 C0.678,1.331 0.45,1.797 0.68,2.12 C2.547,4.986 4.031,9.058 5.408,13.753 C5.515,14.135 6.12,14.252 6.543,14.116 L6.543,14.116 Z"></path>
                                <path d="M0.902,0.763 C1.433,0.563 2.052,0.772 2.284,1.229 C2.516,1.686 2.273,2.218 1.742,2.418 C1.211,2.617 0.593,2.409 0.361,1.952 C0.129,1.494 0.372,0.962 0.902,0.763 L0.902,0.763 Z"></path>
                            </g>
                            <g transform="translate(4.000000, 6.000000)">
                                <path d="M7.174,13.849 L7.174,13.849 C7.594,13.699 7.682,13.281 7.555,12.904 C5.494,7.116 3.718,3.147 2.287,1.383 C1.997,1.097 1.607,0.906 1.188,1.056 L1.188,1.056 C0.769,1.206 0.555,1.685 0.808,2.001 C2.863,4.728 4.494,8.783 6.008,13.522 C6.127,13.901 6.755,13.998 7.174,13.849 L7.174,13.849 Z"></path>
                                <path d="M0.963,0.629 C1.487,0.409 2.12,0.597 2.375,1.049 C2.63,1.5 2.411,2.044 1.887,2.264 C1.363,2.484 0.73,2.295 0.475,1.844 C0.22,1.393 0.438,0.849 0.963,0.629 L0.963,0.629 Z"></path>
                            </g>
                            <g transform="translate(2.000000, 7.000000)">
                                <path d="M7.676,13.687 L7.676,13.687 C8.092,13.523 8.154,13.097 8.015,12.721 C5.767,6.794 3.829,2.85 2.268,1.313 C1.953,1.038 1.562,0.858 1.147,1.022 L1.146,1.022 C0.731,1.185 0.533,1.679 0.808,1.987 C3.049,4.575 4.829,8.612 6.481,13.395 C6.609,13.774 7.261,13.85 7.676,13.687 L7.676,13.687 Z"></path>
                                <path d="M0.893,0.602 C1.411,0.362 2.057,0.53 2.335,0.976 C2.613,1.422 2.418,1.978 1.9,2.217 C1.381,2.456 0.735,2.289 0.457,1.842 C0.18,1.396 0.374,0.841 0.893,0.602 L0.893,0.602 Z"></path>
                            </g>
                            <g transform="translate(0.000000, 8.000000)">
                                <path d="M8.208,13.597 L8.208,13.597 C8.62,13.42 8.656,12.985 8.506,12.611 C6.07,6.544 3.971,2.626 2.28,1.316 C1.937,1.051 1.546,0.884 1.134,1.061 L1.133,1.061 C0.722,1.237 0.538,1.746 0.836,2.046 C3.265,4.495 5.191,8.515 6.982,13.341 C7.123,13.719 7.797,13.774 8.208,13.597 L8.208,13.597 Z"></path>
                                <path d="M0.851,0.647 C1.364,0.388 2.023,0.535 2.325,0.975 C2.627,1.416 2.456,1.983 1.943,2.243 C1.431,2.502 0.772,2.355 0.47,1.915 C0.168,1.475 0.339,0.906 0.851,0.647 L0.851,0.647 Z"></path>
                            </g>
                        </g>
                        <g transform="translate(28.000000, 0.000000)">
                            <g>
                                <path d="M0.941,14.955 L0.941,14.955 C0.484,14.941 0.133,14.609 0.145,14.214 C0.333,9.822 0.494,5.594 0.624,1.568 C0.649,1.182 1.027,0.87 1.484,0.883 L1.484,0.883 C1.94,0.897 2.302,1.235 2.28,1.624 C2.092,5.738 1.944,9.974 1.806,14.27 C1.797,14.665 1.397,14.969 0.941,14.955 L0.941,14.955 Z"></path>
                                <path d="M1.5,0.407 C0.912,0.387 0.416,0.781 0.393,1.287 C0.371,1.793 0.828,2.219 1.415,2.239 C2.002,2.259 2.499,1.865 2.522,1.359 C2.545,0.853 2.088,0.427 1.5,0.407 L1.5,0.407 Z"></path>
                            </g>
                            <g transform="translate(1.000000, 0.000000)">
                                <path d="M1.589,15.216 L1.589,15.216 C1.136,15.189 0.813,14.848 0.835,14.455 C1.21,9.923 1.533,5.722 1.793,1.921 C1.846,1.545 2.225,1.245 2.677,1.272 L2.678,1.272 C3.131,1.299 3.478,1.652 3.432,2.033 C3.058,6.009 2.762,10.226 2.486,14.567 C2.465,14.96 2.042,15.243 1.589,15.216 L1.589,15.216 Z"></path>
                                <path d="M2.707,0.799 C2.125,0.759 1.616,1.132 1.57,1.633 C1.523,2.133 1.958,2.571 2.539,2.612 C3.121,2.652 3.63,2.279 3.677,1.778 C3.723,1.277 3.289,0.839 2.707,0.799 L2.707,0.799 Z"></path>
                            </g>
                            <g transform="translate(3.000000, 1.000000)">
                                <path d="M1.166,14.547 L1.166,14.547 C0.717,14.506 0.419,14.156 0.453,13.765 C1.016,9.093 1.5,4.918 1.89,1.344 C1.969,0.978 2.35,0.69 2.798,0.731 L2.799,0.731 C3.248,0.772 3.58,1.138 3.511,1.512 C2.95,5.349 2.506,9.548 2.093,13.933 C2.061,14.325 1.615,14.588 1.166,14.547 L1.166,14.547 Z"></path>
                                <path d="M2.846,0.262 C2.27,0.202 1.747,0.555 1.678,1.05 C1.609,1.545 2.019,1.995 2.594,2.055 C3.168,2.115 3.692,1.762 3.761,1.267 C3.831,0.771 3.421,0.322 2.846,0.262 L2.846,0.262 Z"></path>
                            </g>
                            <g transform="translate(4.000000, 1.000000)">
                                <path d="M1.569,14.95 L1.569,14.95 C1.124,14.896 0.852,14.537 0.898,14.148 C1.648,9.336 2.294,5.187 2.814,1.839 C2.918,1.483 3.3,1.207 3.746,1.262 L3.746,1.262 C4.191,1.316 4.509,1.697 4.417,2.064 C3.67,5.762 3.077,9.943 2.526,14.373 C2.482,14.763 2.015,15.004 1.569,14.95 L1.569,14.95 Z"></path>
                                <path d="M3.811,0.798 C3.243,0.718 2.706,1.05 2.613,1.54 C2.52,2.029 2.907,2.491 3.475,2.571 C4.044,2.651 4.58,2.319 4.673,1.829 C4.766,1.339 4.38,0.877 3.811,0.798 L3.811,0.798 Z"></path>
                            </g>
                            <g transform="translate(6.000000, 2.000000)">
                                <path d="M1.004,14.391 L1.004,14.391 C0.563,14.323 0.316,13.956 0.375,13.568 C1.312,8.618 2.119,4.494 2.769,1.372 C2.901,1.026 3.284,0.763 3.725,0.831 L3.725,0.831 C4.167,0.899 4.47,1.294 4.355,1.653 C3.42,5.212 2.68,9.375 1.991,13.849 C1.937,14.238 1.446,14.458 1.004,14.391 L1.004,14.391 Z"></path>
                                <path d="M3.809,0.37 C3.246,0.27 2.697,0.582 2.58,1.066 C2.463,1.55 2.826,2.024 3.389,2.124 C3.952,2.223 4.502,1.912 4.618,1.428 C4.733,0.943 4.371,0.47 3.809,0.37 L3.809,0.37 Z"></path>
                            </g>
                            <g transform="translate(7.000000, 2.000000)">
                                <path d="M1.567,14.765 L1.567,14.765 C1.129,14.683 0.91,14.309 0.979,13.922 C2.103,8.832 3.072,4.734 3.852,1.839 C4.01,1.503 4.394,1.252 4.831,1.333 L4.831,1.333 C5.269,1.415 5.557,1.824 5.419,2.176 C4.298,5.597 3.409,9.742 2.582,14.259 C2.519,14.646 2.005,14.847 1.567,14.765 L1.567,14.765 Z"></path>
                                <path d="M4.937,0.877 C4.38,0.757 3.817,1.048 3.677,1.527 C3.538,2.005 3.876,2.49 4.433,2.61 C4.989,2.729 5.553,2.439 5.692,1.96 C5.831,1.482 5.492,0.997 4.937,0.877 L4.937,0.877 Z"></path>
                            </g>
                            <g transform="translate(9.000000, 3.000000)">
                                <path d="M1.042,14.348 L1.042,14.348 C0.607,14.253 0.414,13.869 0.495,13.485 C1.807,8.256 2.937,4.183 3.848,1.514 C4.033,1.188 4.417,0.949 4.851,1.044 L4.851,1.044 C5.286,1.139 5.558,1.562 5.398,1.907 C4.09,5.189 3.052,9.316 2.088,13.878 C2.013,14.264 1.477,14.443 1.042,14.348 L1.042,14.348 Z"></path>
                                <path d="M4.978,0.594 C4.427,0.454 3.85,0.725 3.688,1.198 C3.526,1.672 3.84,2.169 4.39,2.308 C4.94,2.447 5.518,2.177 5.68,1.704 C5.842,1.231 5.527,0.733 4.978,0.594 L4.978,0.594 Z"></path>
                            </g>
                            <g transform="translate(10.000000, 4.000000)">
                                <path d="M1.503,13.92 L1.503,13.92 C1.072,13.811 0.906,13.419 0.998,13.036 C2.497,7.666 3.789,3.619 4.829,1.178 C5.04,0.863 5.426,0.635 5.856,0.744 L5.856,0.744 C6.287,0.853 6.544,1.29 6.361,1.628 C4.867,4.771 3.68,8.88 2.579,13.486 C2.493,13.87 1.934,14.029 1.503,13.92 L1.503,13.92 Z"></path>
                                <path d="M6.006,0.298 C5.462,0.138 4.871,0.388 4.686,0.856 C4.501,1.324 4.79,1.833 5.334,1.992 C5.877,2.152 6.469,1.902 6.654,1.434 C6.84,0.966 6.549,0.458 6.006,0.298 L6.006,0.298 Z"></path>
                            </g>
                            <g transform="translate(12.000000, 4.000000)">
                                <path d="M0.974,14.456 L0.974,14.456 C0.547,14.333 0.407,13.933 0.51,13.551 C2.197,8.043 3.65,4.021 4.821,1.806 C5.057,1.5 5.445,1.285 5.871,1.408 L5.872,1.408 C6.299,1.531 6.542,1.982 6.335,2.312 C4.654,5.316 3.319,9.407 2.08,14.058 C1.982,14.44 1.4,14.578 0.974,14.456 L0.974,14.456 Z"></path>
                                <path d="M6.044,0.968 C5.507,0.788 4.902,1.017 4.693,1.48 C4.484,1.943 4.751,2.463 5.288,2.643 C5.825,2.822 6.431,2.593 6.64,2.131 C6.848,1.667 6.581,1.147 6.044,0.968 L6.044,0.968 Z"></path>
                            </g>
                            <g transform="translate(13.000000, 5.000000)">
                                <path d="M1.453,14.116 C1.453,14.116 1.452,14.116 1.453,14.116 C1.029,13.98 0.915,13.571 1.031,13.191 C2.904,7.543 4.518,3.547 5.819,1.558 C6.083,1.263 6.47,1.059 6.894,1.195 L6.894,1.195 C7.317,1.331 7.545,1.797 7.316,2.12 C5.448,4.986 3.965,9.058 2.587,13.753 C2.48,14.135 1.876,14.252 1.453,14.116 L1.453,14.116 Z"></path>
                                <path d="M7.093,0.763 C6.562,0.563 5.944,0.772 5.711,1.229 C5.48,1.686 5.722,2.218 6.253,2.418 C6.784,2.617 7.402,2.409 7.635,1.952 C7.866,1.494 7.624,0.962 7.093,0.763 L7.093,0.763 Z"></path>
                            </g>
                            <g transform="translate(15.000000, 6.000000)">
                                <path d="M0.821,13.849 L0.821,13.849 C0.401,13.699 0.313,13.281 0.44,12.904 C2.502,7.116 4.278,3.147 5.709,1.383 C5.998,1.097 6.388,0.906 6.807,1.056 L6.808,1.056 C7.227,1.206 7.441,1.685 7.188,2.001 C5.133,4.728 3.502,8.783 1.987,13.522 C1.868,13.901 1.24,13.998 0.821,13.849 L0.821,13.849 Z"></path>
                                <path d="M7.033,0.629 C6.508,0.409 5.876,0.597 5.621,1.049 C5.365,1.5 5.584,2.044 6.109,2.264 C6.633,2.484 7.266,2.295 7.521,1.844 C7.776,1.393 7.558,0.849 7.033,0.629 L7.033,0.629 Z"></path>
                            </g>
                            <g transform="translate(16.000000, 7.000000)">
                                <path d="M1.319,13.687 L1.319,13.687 C0.903,13.523 0.841,13.097 0.98,12.721 C3.228,6.794 5.167,2.85 6.727,1.313 C7.042,1.038 7.433,0.858 7.848,1.022 L7.849,1.022 C8.265,1.185 8.463,1.679 8.188,1.987 C5.946,4.575 4.167,8.612 2.514,13.395 C2.386,13.774 1.735,13.85 1.319,13.687 L1.319,13.687 Z"></path>
                                <path d="M8.104,0.602 C7.585,0.362 6.939,0.53 6.661,0.976 C6.384,1.422 6.578,1.978 7.097,2.217 C7.616,2.456 8.261,2.289 8.539,1.842 C8.817,1.395 8.621,0.841 8.104,0.602 L8.104,0.602 Z"></path>
                            </g>
                            <g transform="translate(18.000000, 8.000000)">
                                <path d="M0.787,13.597 L0.787,13.597 C0.375,13.42 0.34,12.985 0.49,12.611 C2.926,6.544 5.024,2.626 6.716,1.316 C7.058,1.051 7.45,0.884 7.862,1.061 L7.862,1.061 C8.274,1.237 8.458,1.746 8.159,2.046 C5.731,4.495 3.804,8.515 2.013,13.341 C1.873,13.719 1.199,13.774 0.787,13.597 L0.787,13.597 Z"></path>
                                <path d="M8.145,0.647 C7.632,0.388 6.973,0.535 6.672,0.975 C6.37,1.416 6.541,1.983 7.053,2.243 C7.565,2.503 8.225,2.355 8.527,1.915 C8.827,1.474 8.656,0.906 8.145,0.647 L8.145,0.647 Z"></path>
                            </g>
                        </g>
                    </g>
                    <g transform="translate(26.000000, 0.000000)">
                        <path d="M1.498,14.981 L1.498,14.981 C1.958,14.981 2.335,14.657 2.335,14.261 L2.335,1.502 C2.335,1.106 1.958,0.782 1.498,0.782 L1.498,0.782 C1.037,0.782 0.661,1.106 0.661,1.502 L0.661,14.261 C0.661,14.657 1.037,14.981 1.498,14.981 L1.498,14.981 Z" id="Shape"></path>
                        <ellipse id="Oval" cx="1.498" cy="1.227" rx="1.076" ry="0.926"></ellipse>
                    </g>
                </g>
                <g id="Group" transform="translate(4.000000, 39.000000)">
                    <g id="Shape">
                        <g>
                            <path d="M3.75,0.688 C13.477,6.196 12.383,4.194 21.457,5.252 C38.275,7.215 36.707,14.683 36.523,14.543 C33.395,12.151 19.261,19.996 10.107,12.005 C5.367,7.87 3.739,0.677 3.75,0.688 L3.75,0.688 Z"></path>
                            <path d="M0.938,10.299 C11.812,12.883 10.206,11.265 19.215,9.757 C35.916,6.964 36.486,14.573 36.272,14.489 C32.602,13.062 21.209,24.529 10.192,19.4 C4.488,16.747 0.924,10.292 0.938,10.299 L0.938,10.299 Z"></path>
                            <path d="M8.075,23.709 C11.484,23.239 13.767,22.009 15.692,20.566 C18.887,18.169 21.272,15.29 24.606,13.747 C28.543,11.925 31.65,11.612 36.136,12.49 C38.597,12.971 44.893,14.823 42.528,14.821 C38.59,14.819 31.2,28.705 19.073,27.914 C12.797,27.505 8.06,23.707 8.075,23.709 L8.075,23.709 Z"></path>
                            <path d="M22.631,32.013 C25.17,30.827 26.52,29.027 27.499,27.059 C29.125,23.792 30.21,20.621 32.277,18.267 C34.719,15.488 38.811,14.249 42.731,14.342 C44.882,14.393 50.459,14.804 48.73,15.662 C45.429,17.301 46.341,26.296 40.397,30.651 C37.474,32.793 33.294,34 29.906,33.895 C25.735,33.766 22.609,32.013 22.631,32.013 L22.631,32.013 Z"></path>
                        </g>
                        <g transform="translate(51.000000, 0.000000)">
                            <path d="M46.246,0.688 C36.519,6.196 37.612,4.194 28.539,5.252 C11.72,7.215 13.289,14.683 13.473,14.543 C16.6,12.151 30.734,19.996 39.889,12.005 C44.628,7.87 46.256,0.677 46.246,0.688 L46.246,0.688 Z"></path>
                            <path d="M49.059,10.299 C38.184,12.883 39.791,11.265 30.781,9.757 C14.08,6.964 13.51,14.573 13.725,14.489 C17.394,13.062 28.788,24.529 39.804,19.4 C45.507,16.747 49.071,10.292 49.059,10.299 L49.059,10.299 Z"></path>
                            <path d="M41.921,23.709 C38.512,23.239 36.228,22.009 34.303,20.566 C31.108,18.169 28.723,15.29 25.39,13.747 C21.452,11.925 18.345,11.612 13.859,12.49 C11.398,12.971 5.102,14.823 7.467,14.821 C11.405,14.819 18.796,28.705 30.922,27.914 C37.199,27.505 41.936,23.707 41.921,23.709 L41.921,23.709 Z"></path>
                            <path d="M27.365,32.013 C24.825,30.827 23.475,29.027 22.497,27.059 C20.87,23.792 19.785,20.621 17.718,18.267 C15.277,15.488 11.185,14.249 7.264,14.342 C5.113,14.393 -0.464,14.804 1.265,15.662 C4.567,17.301 3.655,26.296 9.598,30.651 C12.522,32.793 16.702,34 20.089,33.895 C24.26,33.766 27.387,32.013 27.365,32.013 L27.365,32.013 Z"></path>
                        </g>
                    </g>
                    <path d="M50.517,36.925 C53.634,33.196 60.661,32.387 61.903,25.016 C62.859,19.352 58.424,16.732 53.452,16.028 C51.622,15.739 49.376,15.74 47.545,16.028 C42.574,16.732 38.139,19.352 39.094,25.016 C40.241,31.828 46.674,33.237 50.517,36.925 L50.517,36.925 Z" id="Shape"></path>
                </g>
                <g id="Group" transform="translate(0.000000, 6.000000)">
                    <g id="Shape">
                        <g transform="translate(0.000000, 1.000000)">
                            <path d="M15.538,0.118 C20.204,2.107 24.378,5.356 27.669,9.358 C32.192,14.859 33.437,22.264 35.336,28.468 C38.324,38.228 39.562,40.033 45.838,46.168 C13.401,45.652 20.158,30.432 18.538,11.518 C18.088,6.268 15.538,0.268 15.538,0.118 L15.538,0.118 Z"></path>
                            <path d="M0.088,12.417 C5.086,12.039 10.005,13.347 14.074,15.928 C22.339,21.17 26.025,32.121 31.488,39.003 C34.373,42.636 37.483,45.244 42.613,45.043 C44.19,44.981 41.536,45.753 37.517,46.131 C30.091,46.83 24.729,45.619 20.741,42.383 C16.321,38.798 14.651,33.967 12.91,29.069 C11.247,24.39 9.516,19.649 5.263,15.868 C3.913,14.668 0.013,12.493 0.088,12.417 L0.088,12.417 Z"></path>
                        </g>
                        <path d="M31.363,0.143 C35.928,1.473 39.915,4.029 43.096,7.382 C45.611,10.032 49.153,15.345 51.609,21.027 C53.52,25.45 56.163,33.376 55.097,39.423 C54.532,42.634 52.918,45.317 49.595,46.662 C44.909,48.559 40.401,46.734 36.984,43.497 C32.586,39.329 31.557,34.381 31.444,31.048 C31.298,26.79 34.307,18.262 34.613,11.244 C34.757,7.941 33.758,2.519 31.363,0.143 L31.363,0.143 Z"></path>
                    </g>
                    <g transform="translate(53.000000, 0.000000)" id="Shape">
                        <path d="M40.458,1.118 C35.792,3.107 31.618,6.356 28.326,10.358 C23.804,15.859 22.559,23.264 20.66,29.468 C17.672,39.228 16.433,41.033 10.158,47.168 C42.595,46.652 35.838,31.432 37.458,12.518 C37.908,7.268 40.458,1.268 40.458,1.118 L40.458,1.118 Z"></path>
                        <path d="M55.908,13.417 C50.91,13.039 45.991,14.347 41.921,16.928 C33.657,22.17 29.971,33.121 24.508,40.003 C21.623,43.636 18.513,46.244 13.382,46.043 C11.806,45.981 14.46,46.753 18.479,47.131 C25.905,47.83 31.266,46.619 35.254,43.383 C39.674,39.798 41.344,34.967 43.086,30.069 C44.749,25.39 46.48,20.649 50.732,16.868 C52.083,15.668 55.982,13.493 55.908,13.417 L55.908,13.417 Z"></path>
                        <path d="M24.633,0.143 C20.068,1.473 16.08,4.029 12.899,7.382 C10.384,10.032 6.842,15.345 4.387,21.027 C2.475,25.45 -0.168,33.376 0.899,39.423 C1.464,42.634 3.077,45.317 6.4,46.662 C11.087,48.559 15.595,46.734 19.012,43.497 C23.41,39.329 24.439,34.381 24.552,31.048 C24.697,26.79 21.689,18.262 21.382,11.244 C21.238,7.941 22.238,2.519 24.633,0.143 L24.633,0.143 Z"></path>
                    </g>
                </g>
                <path d="M54.28,11.016 C54.28,11.016 59.268,16.491 61.706,20.766 C63.89,24.597 66.611,29.47 67.977,34.435 C69.098,38.515 68.938,43.267 67.206,47.195 C64.994,52.214 60.637,54.933 55.257,55.249 C51.164,55.489 47.892,54.088 45.465,51.744 C41.244,47.666 39.849,41.755 40.433,35.81 C41.122,28.793 44.01,23.397 47.904,18.365 C49.829,15.878 52.143,13.506 54.28,11.016 L54.28,11.016 Z" id="Shape"></path>
            </g>
        </g>
    </g>
</svg>