<?xml version="1.0" encoding="UTF-8" standalone="no"?>
<svg width="120px" height="195px" viewBox="0 0 120 195" version="1.1" xmlns="http://www.w3.org/2000/svg" xmlns:xlink="http://www.w3.org/1999/xlink" xmlns:sketch="http://www.bohemiancoding.com/sketch/ns">
    <!-- Generator: Sketch 3.3.1 (12002) - http://www.bohemiancoding.com/sketch -->
    <title>Parasol</title>
    <desc>Created with Sketch.</desc>
    <defs></defs>
    <g id="Page-1" stroke="none" stroke-width="1" fill="none" fill-rule="evenodd" sketch:type="MSPage">
        <g id="Parasol" sketch:type="MSLayerGroup" transform="translate(0.000000, 1.000000)" stroke="#000000">
            <g sketch:type="MSShapeGroup">
                <rect id="Handle" stroke-width="0.7498" fill="#FFFFFF" x="55.88" y="75.393" width="3.621" height="109.92"></rect>
                <g id="Lotus" transform="translate(44.000000, 175.000000)" stroke-width="0.7498" fill="#FFFFFF">
                    <path d="M8.918,0.298 C12.951,2.497 14.072,7.308 11.401,11.156 C11.282,11.328 11.156,11.495 11.026,11.657 C6.992,9.458 5.871,4.647 8.543,0.799 C8.663,0.627 8.788,0.46 8.918,0.298 L8.918,0.298 L8.918,0.298 Z M18.462,0.298 C14.429,2.497 13.308,7.308 15.979,11.156 C16.098,11.328 16.224,11.495 16.354,11.657 C20.387,9.458 21.508,4.647 18.837,0.799 C18.718,0.627 18.592,0.46 18.462,0.298 L18.462,0.298 Z" id="Shape"></path>
                    <path d="M3.522,7.868 C5.45,7.645 7.219,8.524 7.474,9.831 C7.728,11.138 6.37,12.379 4.442,12.603 C2.514,12.826 0.745,11.947 0.491,10.64 C0.236,9.333 1.594,8.092 3.522,7.868 L3.522,7.868 Z" id="Shape"></path>
                    <path d="M6.917,10.586 C9.089,10.267 11.083,11.294 11.369,12.88 C11.656,14.466 10.126,16.011 7.954,16.33 C5.781,16.649 3.788,15.622 3.502,14.035 C3.215,12.449 4.744,10.905 6.917,10.586 L6.917,10.586 Z" id="Shape"></path>
                    <path d="M23.859,7.868 C21.93,7.645 20.161,8.524 19.907,9.831 C19.653,11.138 21.011,12.379 22.938,12.603 C24.867,12.826 26.636,11.947 26.89,10.64 C27.144,9.333 25.787,8.092 23.859,7.868 L23.859,7.868 Z" id="Shape"></path>
                    <path d="M20.464,10.586 C18.291,10.267 16.298,11.294 16.012,12.88 C15.726,14.466 17.255,16.011 19.428,16.33 C21.6,16.649 23.594,15.622 23.88,14.035 C24.166,12.449 22.637,10.905 20.464,10.586 L20.464,10.586 Z" id="Shape"></path>
                    <path d="M13.691,18.619 C15.935,18.619 17.764,17.138 17.764,15.321 C17.764,13.504 15.934,12.023 13.691,12.023 C11.448,12.023 9.617,13.504 9.617,15.321 C9.617,17.138 11.447,18.619 13.691,18.619 L13.691,18.619 Z" id="Shape"></path>
                    <path d="M3.42,1.418 C8.767,1.568 12.472,5.966 11.734,11.369 C11.701,11.611 11.66,11.85 11.61,12.088 C6.263,11.938 2.558,7.54 3.295,2.137 C3.329,1.895 3.371,1.655 3.42,1.418 L3.42,1.418 L3.42,1.418 Z M23.96,1.418 C18.613,1.568 14.908,5.966 15.646,11.369 C15.679,11.611 15.721,11.85 15.77,12.088 C21.117,11.938 24.822,7.54 24.085,2.137 C24.052,1.895 24.01,1.655 23.96,1.418 L23.96,1.418 Z" id="Shape"></path>
                    <path d="M9.649,8.257 C9.649,5.537 11.707,1.869 13.69,0.48 C15.931,2.063 17.731,5.537 17.731,8.257 C17.731,14.23 9.649,14.059 9.649,8.257 L9.649,8.257 Z" id="Shape"></path>
                </g>
                <g id="Curtains" transform="translate(2.000000, 51.000000)" stroke-width="0.7498">
                    <g id="Curtain_x5F_Central" transform="translate(29.000000, 0.000000)">
                        <path d="M35.739,17.479 C45.671,26.893 45.902,47.392 37.212,57.734 C30.913,65.231 21.938,64.987 15.828,57.363 C7.449,46.905 7.754,26.617 17.743,17.35 C23.254,12.237 30.285,12.312 35.739,17.479 L35.739,17.479 L35.739,17.479 Z M17.37,71.735 C18.183,75.162 20.122,77.962 22.638,79.431 C22.697,79.465 22.755,79.499 22.814,79.532 L22.814,79.532 C22.873,79.565 22.932,79.597 22.992,79.628 L22.992,79.628 C23.052,79.66 23.112,79.69 23.172,79.72 L23.172,79.72 L23.353,79.807 L23.536,79.89 L23.537,79.89 C23.599,79.916 23.66,79.943 23.722,79.968 L23.722,79.968 L23.909,80.041 C23.971,80.064 24.034,80.087 24.097,80.11 L24.097,80.11 L24.286,80.174 C24.349,80.194 24.413,80.214 24.477,80.233 L24.477,80.233 L24.669,80.287 C24.733,80.305 24.798,80.321 24.863,80.336 L24.863,80.336 L25.058,80.38 L25.254,80.42 C25.32,80.432 25.386,80.444 25.452,80.454 L25.452,80.454 C25.518,80.464 25.584,80.474 25.651,80.483 L25.652,80.483 L25.852,80.507 C25.918,80.514 25.986,80.52 26.053,80.525 L26.053,80.525 C26.12,80.53 26.188,80.535 26.256,80.539 L26.256,80.539 C26.323,80.542 26.392,80.545 26.459,80.547 L26.46,80.547 C26.527,80.548 26.596,80.549 26.664,80.549 L26.664,80.549 C26.733,80.549 26.801,80.548 26.869,80.547 L26.87,80.547 C26.938,80.545 27.006,80.543 27.073,80.539 L27.074,80.539 C27.141,80.536 27.209,80.531 27.276,80.525 L27.276,80.525 C27.343,80.52 27.411,80.514 27.477,80.507 L27.478,80.507 C27.545,80.5 27.612,80.492 27.678,80.483 L27.679,80.483 C27.745,80.474 27.812,80.464 27.878,80.454 L27.878,80.454 C27.944,80.443 28.01,80.432 28.076,80.42 L28.076,80.42 C28.142,80.407 28.207,80.395 28.272,80.38 L28.273,80.38 C28.338,80.366 28.403,80.351 28.468,80.336 L28.468,80.336 C28.533,80.321 28.597,80.304 28.662,80.287 L28.662,80.287 C28.726,80.27 28.79,80.252 28.854,80.233 L28.854,80.233 C28.917,80.214 28.981,80.195 29.045,80.174 L29.045,80.174 C29.108,80.153 29.171,80.132 29.234,80.11 L29.235,80.11 C29.298,80.088 29.36,80.065 29.423,80.041 L29.424,80.041 C29.486,80.018 29.548,79.993 29.61,79.968 L29.61,79.968 C29.672,79.943 29.734,79.917 29.795,79.89 L29.796,79.89 L29.979,79.807 C30.04,79.779 30.1,79.75 30.16,79.72 L30.16,79.72 C30.22,79.69 30.28,79.66 30.34,79.628 L30.34,79.628 L30.518,79.532 L30.694,79.431 C33.21,77.963 35.149,75.16 35.963,71.735 L35.971,71.73 C41.263,68.759 44.135,63.955 45.864,58.301 C46.086,57.39 46.156,57.283 46.895,57.267 C60.939,54.377 47.778,11.307 37.835,4.45 C31.028,-0.245 22.999,-0.42 16.058,4.069 C5.057,11.185 -7.349,54.433 6.427,57.268 C7.091,57.363 7.227,57.353 7.458,58.302 C9.186,63.956 12.058,68.76 17.351,71.731 L17.37,71.735 L17.37,71.735 Z" id="Shape" fill="#FFFFFF"></path>
                        <g id="Group" transform="translate(5.000000, 9.000000)">
                            <path d="M21.672,58.229 C31.824,58.229 40.104,45.274 40.104,29.391 C40.104,13.507 31.824,0.553 21.672,0.553 C11.52,0.553 3.24,13.508 3.24,29.391 C3.24,45.274 11.52,58.229 21.672,58.229 L21.672,58.229 Z" id="Shape"></path>
                            <path d="M36.651,53.272 C32.814,58.84 27.519,62.284 21.671,62.284 C15.805,62.284 10.495,58.819 6.655,53.219" id="Shape"></path>
                            <path d="M3.482,47.308 C1.563,42.666 0.459,37.229 0.459,31.418 C0.459,14.371 9.956,0.552 21.671,0.552 C33.386,0.552 42.884,14.371 42.884,31.418 C42.884,37.293 41.756,42.785 39.797,47.46" id="Shape"></path>
                            <path d="M42.577,48.091 C41.264,48.512 40.671,47.862 39.991,47.526 C39.31,47.189 38.824,47.033 38.38,47.086 C36.268,47.336 36.323,49.88 36.483,51.421 C36.756,54.049 37.257,55.895 34.931,59.891" id="Shape"></path>
                            <path d="M0.791,48.091 C2.104,48.512 2.698,47.862 3.377,47.526 C4.058,47.189 4.544,47.033 4.987,47.086 C7.099,47.336 7.044,49.88 6.884,51.421 C6.612,54.049 6.11,55.895 8.436,59.891" id="Shape"></path>
                        </g>
                    </g>
                    <g id="Curtain_x5F_Left" transform="translate(0.000000, 25.000000)">
                        <path d="M0.019,76.78 C13.698,53.315 24.534,28.648 29.245,1.389 L34.288,0.743 C32.432,27.792 26.356,50.579 17.946,71.764 C17.809,72.009 17.579,72.212 17.097,72.306 L16.103,76.566 C15.754,77.387 15.147,77.661 14.163,77.69 L12.951,81.861 C12.946,82.254 12.229,83.019 11.787,83.122 L9.525,89.265 C9.5,88.316 9.446,87.574 9.321,86.856 C9.014,85.091 8.644,85.111 9.33,83.123 L10.688,80.035 C10.177,79.755 9.97,79.002 10.235,78.257 L11.787,74.652 C11.185,74.128 11.157,73.372 11.504,72.599 L13.629,67.943 C12.562,67.714 11.604,67.822 10.509,67.846 L9.006,71.871 C8.737,72.346 7.983,72.431 7.066,72.389 L5.991,75.307 C5.903,75.545 5.786,75.781 5.644,76.001 C5.119,76.814 4.246,77.402 3.235,77.023 C0.82,76.112 0.054,76.85 0.019,76.78 L0.019,76.78 Z" id="Shape" fill="#FFFFFF"></path>
                        <path d="M5.209,76.526 C6.57,74.912 4.693,74.707 4.129,73.841 C3.59,73.014 4.123,72.423 4.658,72.231 C5.461,71.943 6.636,72.331 7.116,72.388 C9.924,72.722 9.111,70.421 8.4,70.148 C7.444,69.78 7.173,68.85 8.65,68.206 C9.889,67.666 12.052,67.768 12.611,67.82 C13.84,67.934 15.062,68.304 16.355,68.938 C17.336,69.417 18.106,70.042 18.107,70.805 C18.113,74.192 12.413,70.822 11.512,72.712 C11.188,73.391 11.221,74.458 11.932,74.62 C12.807,74.819 16.053,74.951 16.102,76.042 C16.192,78.008 14.18,77.646 12.74,77.497 C12.49,77.471 11.069,77.355 10.499,78.035 C8.693,80.193 13.058,80.319 12.838,81.974 C12.771,82.475 12.499,82.718 12.143,82.912 C11.788,83.106 10.916,82.864 10.382,83.026 C9.849,83.188 9.153,83.688 9.056,84.141" id="Shape"></path>
                        <path d="M29.358,4.24 C23.649,31.528 18.639,44.479 7.891,69.157" id="Shape"></path>
                        <path d="M5.854,66.765 C6.562,65.665 8.616,65.34 9.411,65.698" id="Shape"></path>
                        <path d="M10.671,63.176 C12.972,61.97 15.041,61.986 17.338,63.286 C18.537,63.964 19.561,64.953 20.143,66.119" id="Shape"></path>
                    </g>
                    <g id="Curtain_x5F_Right" transform="translate(77.000000, 25.000000)">
                        <path d="M34.362,76.78 C20.683,53.315 9.846,28.648 5.136,1.389 L0.093,0.743 C1.949,27.792 8.025,50.579 16.435,71.764 C16.572,72.009 16.802,72.212 17.284,72.306 L18.278,76.566 C18.627,77.387 19.233,77.661 20.217,77.69 L21.429,81.861 C21.434,82.254 22.151,83.019 22.593,83.122 L24.856,89.265 C24.881,88.316 24.935,87.574 25.06,86.856 C25.367,85.091 25.736,85.111 25.05,83.123 L23.692,80.035 C24.203,79.755 24.409,79.002 24.145,78.257 L22.593,74.652 C23.195,74.128 23.223,73.372 22.876,72.599 L20.751,67.943 C21.818,67.714 22.777,67.822 23.871,67.846 L25.374,71.871 C25.643,72.346 26.397,72.431 27.314,72.389 L28.389,75.307 C28.477,75.545 28.594,75.781 28.736,76.001 C29.261,76.814 30.134,77.402 31.145,77.023 C33.561,76.112 34.327,76.85 34.362,76.78 L34.362,76.78 Z" id="Shape" fill="#FFFFFF"></path>
                        <path d="M29.171,76.526 C27.81,74.912 29.687,74.707 30.251,73.841 C30.791,73.014 30.257,72.423 29.722,72.231 C28.919,71.943 27.744,72.331 27.264,72.388 C24.456,72.722 25.269,70.421 25.98,70.148 C26.937,69.78 27.206,68.85 25.731,68.206 C24.491,67.666 22.329,67.768 21.769,67.82 C20.54,67.934 19.318,68.304 18.024,68.938 C17.043,69.417 16.273,70.042 16.272,70.805 C16.266,74.192 21.966,70.822 22.867,72.712 C23.191,73.391 23.158,74.458 22.447,74.62 C21.572,74.819 18.326,74.951 18.277,76.042 C18.187,78.008 20.199,77.646 21.639,77.497 C21.889,77.471 23.31,77.355 23.879,78.035 C25.685,80.193 21.32,80.319 21.54,81.974 C21.607,82.475 21.879,82.718 22.235,82.912 C22.59,83.106 23.462,82.864 23.995,83.026 C24.529,83.188 25.224,83.688 25.321,84.141" id="Shape"></path>
                        <path d="M5.023,4.24 C10.732,31.528 15.742,44.479 26.49,69.157" id="Shape"></path>
                        <path d="M28.527,66.765 C27.819,65.665 25.765,65.34 24.97,65.698" id="Shape"></path>
                        <path d="M23.709,63.176 C21.408,61.97 19.339,61.986 17.042,63.286 C15.843,63.964 14.819,64.953 14.236,66.119" id="Shape"></path>
                    </g>
                </g>
                <g id="Umbrella" transform="translate(0.000000, 22.000000)" stroke-width="0.7498">
                    <g id="Umbrell_x5F_Bottom" transform="translate(0.000000, 27.000000)">
                        <path d="M39.942,25.296 C39.942,25.296 37.808,26.912 36.709,27.882 C35.61,28.852 34.381,30.339 34.381,30.339" id="Shape"></path>
                        <path d="M22.326,7.62 C18.503,6.824 16.772,6.869 15.604,7.335 C11.757,8.873 12.648,9.776 10.881,11.693 C10.285,12.339 9.265,12.599 8.165,12.986 C5.446,13.945 1.524,13.319 0.988,18.353 C0.664,21.392 1.052,24.754 3.574,26.112 C6.095,27.469 9.652,26.629 10.946,26.241 C11.288,26.138 11.639,26.04 12.012,25.954 C13.046,25.718 14.243,25.58 15.86,25.723 C18.058,25.917 19.545,26.499 20.386,26.823 C21.226,27.146 21.938,27.534 21.938,27.534 C21.938,27.534 21.68,28.31 21.873,29.15 C22.588,32.251 26.315,32.985 29.195,32.557 C31.347,32.238 32.351,31.199 34.223,30.379 C35.258,29.926 37.262,29.15 38.426,29.086 C39.59,29.021 41.982,28.763 43.341,29.474 C44.698,30.185 46.897,32.19 47.867,32.901 C48.837,33.612 51.422,34.905 53.556,35.229 C55.69,35.553 59.827,35.812 61.509,35.553 C63.915,35.183 65.186,34.546 66.111,33.72 C67.379,32.588 67.996,31.1 69.997,29.46 C71.239,28.441 72.772,27.97 75.736,28.249 C79.216,28.575 82.064,31.74 86.146,31.74 C90.528,31.74 89.737,31.015 90.672,28.055 C91.069,26.797 92.171,26.047 93.5,25.638 C95.344,25.072 97.626,25.162 99.078,25.468 C101.535,25.986 103.282,26.955 106.192,26.697 C109.101,26.438 111.365,25.598 112.399,24.628 C113.433,23.658 114.274,22.236 115.89,21.848 C117.07,21.565 119.872,21.78 119.511,20.413 C118.885,18.038 114.587,15.81 112.399,15.318 C109.813,14.736 109.295,14.93 107.291,14.412 C105.287,13.895 101.989,12.408 101.989,12.408 C101.989,12.408 103.605,11.309 102.829,10.081 C100.933,7.077 96.095,7.11 92.871,7.042 L86.47,7.494 C86.47,7.494 38.307,7.546 27.819,7.601 C25.986,7.609 24.158,7.62 22.326,7.62 L22.326,7.62 Z" id="Shape" fill="#FFFFFF"></path>
                        <path d="M22.923,0.425 C22.897,0.719 22.659,3.205 21.81,5.876 C20.904,8.721 18.965,12.342 18.965,12.342 C18.253,13.03 17.177,13.792 16.516,14.743 C15.479,16.234 15.13,18.048 16.273,19.678 C17.252,21.076 19.377,21.717 21.814,21.296 C22.895,21.109 23.918,21.198 26.013,23.851 C26.983,25.079 28.664,25.726 29.957,25.984 C32.816,26.556 34.592,26.41 36.2,26.078 C37.968,25.713 39.533,25.122 42.114,25.015 C43.666,24.951 44.894,24.82 46.64,25.92 C48.386,27.019 49.162,28.765 52.459,28.895 C55.757,29.024 57.826,29.541 60.542,28.895 C62.192,28.502 64.334,28.287 65.763,27.472 C68.276,26.04 67.631,24.453 70.047,23.916 C72.068,23.466 72.829,24.757 75.739,25.274 C78.649,25.792 81.752,26.114 83.368,25.727 C88.223,24.562 88.033,21.866 90.157,21.653 C91.45,21.524 93.067,21.524 94.166,21.524 C96.263,21.524 98.261,21.075 99.341,19.721 C101.613,16.873 98.012,13.587 95.653,12.73 C94.942,12.472 93.972,12.148 93.972,12.148 C92.847,7.887 92.714,5.038 92.226,0.768 C92.226,0.768 24.339,0.341 22.947,0.393 C22.917,0.395 22.925,0.392 22.923,0.425 L22.923,0.425 Z" id="Shape" fill="#FFFFFF"></path>
                        <path d="M8.194,22.192 C6.754,20.527 6.602,16.445 8.032,15.015" id="Shape"></path>
                        <path d="M6.06,13.625 C6.73,14.501 8.277,15.352 9.415,15.109 C11.096,14.752 11.092,13.048 10.926,11.717" id="Shape"></path>
                        <path d="M20.803,21.44 C16.554,22.539 14.244,24.445 11.557,26.072" id="Shape"></path>
                        <path d="M25.006,22.838 C25.006,22.838 25.2,24.196 24.295,24.713 C23.389,25.23 21.967,27.622 21.967,27.622" id="Shape"></path>
                        <path d="M46.731,26.266 C46.731,26.266 46.343,27.752 46.213,28.852 C46.083,29.952 46.165,31.439 46.165,31.439" id="Shape"></path>
                        <path d="M19.057,12.105 C19.057,12.105 15.953,12.493 14.207,14.433 C12.461,16.372 11.944,18.571 12.332,19.67 C12.72,20.769 13.366,21.481 14.724,21.933 C16.082,22.386 17.634,22.467 17.634,22.467" id="Shape"></path>
                        <path d="M99.443,15.661 C99.443,15.661 99.363,15.015 99.944,14.304 C100.526,13.593 102.143,12.251 102.143,12.38" id="Shape"></path>
                        <path d="M99.783,16.421 C100.453,17.272 103.221,17.824 104.082,17.537 C104.47,17.408 105.052,18.572 105.052,19.153 C105.052,19.735 104.793,21.352 102.207,21.804 C99.584,22.262 95.151,22.167 92.476,21.577 C95.163,22.845 97.219,23.883 99.621,25.619" id="Shape"></path>
                        <path d="M91.135,27.122 C90.403,26.523 88.973,25.325 88.177,23.744 C87.965,23.324 88.048,23.226 88.048,23.226" id="Shape"></path>
                        <path d="M81.646,2.988 C81.646,2.988 81.581,8.42 82.357,12.428 C83.133,16.437 83.844,19.218 84.426,20.187 C85.008,21.157 87.465,23.517 87.465,23.517" id="Shape"></path>
                        <path d="M70.913,3.376 C70.913,3.376 71.107,8.095 71.624,11.652 C72.141,15.208 72.594,18.764 73.24,20.575 C73.886,22.386 76.053,25.263 76.053,25.263" id="Shape"></path>
                        <path d="M75.697,3.247 C75.697,3.247 75.956,10.101 76.215,12.106 C76.474,14.11 76.732,15.532 76.732,15.532" id="Shape"></path>
                        <path d="M86.561,2.6 C86.561,2.6 86.69,7.449 87.078,9.777 C87.466,12.105 87.692,14.513 87.692,14.513" id="Shape"></path>
                        <path d="M60.503,3.571 C60.503,3.571 60.115,7.386 60.374,10.813 C60.633,14.24 60.762,19.025 61.085,21.546 C61.408,24.067 62.378,28.529 62.378,28.529" id="Shape"></path>
                        <path d="M53.067,3.635 L53.067,11.265 C53.067,14.175 53.132,16.567 52.356,20.835 C51.581,25.102 50.74,28.594 50.74,28.594" id="Shape"></path>
                        <path d="M65.158,3.635 C65.158,3.635 65.223,7.062 65.223,9.39 C65.223,11.718 65.691,16.227 65.691,16.227" id="Shape"></path>
                        <path d="M49.317,3.571 C49.12,8.165 49.214,12.444 48.477,17.02" id="Shape"></path>
                        <path d="M43.563,3.377 C43.563,3.377 43.434,8.808 42.852,11.847 C42.27,14.886 41.3,19.671 40.524,21.546 C39.748,23.421 38.455,25.555 38.455,25.555" id="Shape"></path>
                        <path d="M38.971,3.183 C38.971,3.183 38.325,8.614 38.066,10.554 C37.808,12.494 36.999,16.244 36.999,16.244" id="Shape"></path>
                        <path d="M32.57,2.73 C32.57,2.73 31.794,7.127 31.341,10.166 C30.888,13.205 30.177,16.05 29.854,17.343 C29.531,18.636 27.785,20.64 27.785,20.64" id="Shape"></path>
                        <path d="M29.208,2.666 C29.208,2.666 28.367,6.287 27.656,9.132 C26.945,11.977 26.039,14.434 25.393,15.792 C24.747,17.15 23.906,18.313 23.906,18.313" id="Shape"></path>
                        <path d="M20.107,10.23 L21.966,14.11 L27.009,11.136 C27.009,11.136 27.85,12.493 28.755,12.623 C29.66,12.753 30.889,12.17 30.889,12.17 L33.217,15.08 L37.614,12.752 C37.614,12.752 38.002,13.592 39.36,13.851 C40.718,14.11 42.464,13.398 42.464,13.398 L44.598,17.536 L48.994,13.786 C48.994,13.786 49.382,14.368 50.352,14.432 C51.322,14.496 53.003,13.786 53.003,13.786 L56.495,17.601 L60.569,13.333 C60.569,13.333 61.344,14.174 62.056,14.303 C62.768,14.432 63.543,14.303 64.319,14.044 C65.095,13.786 65.354,13.074 65.354,13.074 L69.169,16.437 L71.95,13.333 C71.95,13.333 72.596,13.463 74.019,13.398 C75.442,13.333 76.282,11.976 76.282,11.976 L79.903,15.338 L82.231,11.459 C82.231,11.459 83.588,12.558 84.752,12.429 C85.916,12.3 87.338,10.942 87.338,10.942 L90.894,13.981 L93.432,10.279" id="Shape"></path>
                        <path d="M94.239,12.236 L91.604,17.021 L87.724,14.5 C85.736,15.457 84.923,15.278 82.875,14.823 L80.612,19.156 L76.603,15.47 C76.603,15.47 75.957,15.858 74.792,16.181 C73.628,16.504 72.465,15.857 72.465,15.857 L69.749,19.866 L65.675,16.116 C65.675,16.116 64.641,16.892 63.865,16.957 C63.089,17.021 60.826,16.374 60.826,16.374 L56.3,20.836 L52.744,17.344 C52.744,17.344 52.356,17.506 51.128,17.571 C49.9,17.636 48.574,16.827 48.574,16.827 L44.404,20.642 L41.688,17.247 C41.688,17.247 40.298,17.474 39.425,17.376 C38.552,17.279 37.032,16.147 37.032,16.147 L32.377,19.412 L30.203,15.419 C30.203,15.419 28.95,15.985 27.786,15.597 C26.622,15.209 25.911,14.498 25.911,14.498 L21.061,17.149 L18.668,12.688" id="Shape"></path>
                        <path d="M36.774,22.646 C37.971,21.25 38.488,19.386 38.778,17.183" id="Shape"></path>
                        <path d="M18.217,16.762 C18.956,15.699 19.23,15.423 19.316,14.111" id="Shape"></path>
                        <path d="M49.318,23.616 C49.318,23.616 49.641,21.741 49.771,20.512 C49.9,19.283 50.288,17.473 50.288,17.473" id="Shape"></path>
                        <path d="M65.095,23.939 C65.095,23.939 64.255,22.905 63.866,21.482 C63.477,20.059 63.22,16.956 63.22,16.956" id="Shape"></path>
                        <path d="M23.843,21.353 C23.843,21.353 25.136,20.836 26.364,19.219 C27.593,17.603 28.518,15.768 28.518,15.768" id="Shape"></path>
                        <path d="M74.728,16.245 C74.728,16.245 74.922,18.056 75.439,19.025 C75.957,19.995 77.12,21.805 77.12,21.805" id="Shape"></path>
                        <path d="M93.172,14.58 C93.172,14.58 93.349,15.793 94.32,16.633 C95.29,17.474 96.906,17.862 96.906,17.862" id="Shape"></path>
                        <path d="M99.914,14.241 C99.914,14.241 100.043,13.918 98.88,13.304 C97.715,12.689 97.554,12.593 96.52,12.269 C95.485,11.946 93.95,11.768 93.95,11.768" id="Shape"></path>
                        <path d="M104.311,17.571 C104.311,17.571 104.279,17.377 105.152,16.892 C106.025,16.407 106.995,15.987 107.9,15.599 C108.805,15.211 110.293,14.953 110.293,14.953" id="Shape"></path>
                        <path d="M72.855,24.425 C72.855,24.425 75.441,27.27 76.282,27.852 C77.123,28.434 78.028,28.887 78.028,28.887" id="Shape"></path>
                        <path d="M67.424,26.106 C67.424,26.106 67.941,26.947 68.006,28.11 C68.07,29.274 68.006,31.537 68.006,31.537" id="Shape"></path>
                        <circle id="Oval" fill="#FFFFFF" cx="20.741" cy="18.411" r="1.423"></circle>
                        <circle id="Oval" fill="#FFFFFF" cx="32.121" cy="20.61" r="1.423"></circle>
                        <circle id="Oval" fill="#FFFFFF" cx="44.406" cy="22.032" r="1.423"></circle>
                        <circle id="Oval" fill="#FFFFFF" cx="56.303" cy="21.968" r="1.423"></circle>
                        <circle id="Oval" fill="#FFFFFF" cx="69.881" cy="20.933" r="1.422"></circle>
                        <circle id="Oval" fill="#FFFFFF" cx="80.68" cy="20.157" r="1.423"></circle>
                        <circle id="Oval" fill="#FFFFFF" cx="92.124" cy="18.282" r="1.423"></circle>
                        <path d="M87.598,19.575 C87.598,19.575 86.951,19.317 86.369,18.088 C85.787,16.859 85.318,15.275 85.318,15.275" id="Shape"></path>
                    </g>
                    <g id="Unbrell_x5F_Top" transform="translate(19.000000, 0.000000)" fill="#FFFFFF">
                        <path d="M38.69,0.05 C59.313,0.05 76.03,18.8 76.03,20.514 C76.03,22.228 59.312,23.618 38.69,23.618 C18.068,23.618 1.35,22.228 1.35,20.514 C1.35,18.8 18.068,0.05 38.69,0.05 L38.69,0.05 Z" id="Shape"></path>
                        <path d="M38.691,25.987 C41.318,25.987 43.46,23.845 43.46,21.218 C43.46,18.591 41.318,16.449 38.691,16.449 C36.065,16.449 33.922,18.591 33.922,21.218 C33.922,23.845 36.064,25.987 38.691,25.987 L38.691,25.987 Z" id="Shape"></path>
                        <circle id="Oval" cx="38.69" cy="22.606" r="1.972"></circle>
                        <circle id="Oval" cx="38.69" cy="22.632" r="1.972"></circle>
                        <circle id="Oval" cx="38.69" cy="22.365" r="1.972"></circle>
                        <circle id="Oval" cx="38.69" cy="22.099" r="1.972"></circle>
                        <circle id="Oval" cx="38.69" cy="22.125" r="1.972"></circle>
                        <circle id="Oval" cx="38.69" cy="21.858" r="1.972"></circle>
                        <circle id="Oval" cx="38.69" cy="21.592" r="1.972"></circle>
                        <circle id="Oval" cx="38.69" cy="21.325" r="1.972"></circle>
                        <circle id="Oval" cx="38.69" cy="22.606" r="1.972"></circle>
                        <circle id="Oval" cx="38.69" cy="22.632" r="1.972"></circle>
                        <circle id="Oval" cx="38.69" cy="22.365" r="1.972"></circle>
                        <circle id="Oval" cx="38.69" cy="22.392" r="1.972"></circle>
                        <circle id="Oval" cx="38.69" cy="22.125" r="1.972"></circle>
                        <circle id="Oval" cx="38.69" cy="22.152" r="1.972"></circle>
                        <circle id="Oval" cx="38.69" cy="21.885" r="1.972"></circle>
                        <circle id="Oval" cx="38.69" cy="21.325" r="1.972"></circle>
                        <path d="M75.379,23.035 C76.055,22.962 77.017,22.929 77.114,23.969 C77.174,24.612 76.702,25.256 75.773,25.389 C69.489,26.288 56.988,27.57 38.82,27.505 C21.984,27.445 7.553,25.968 1.478,25.038 C0.821,24.937 0.194,24.543 0.268,24.07 C0.427,23.042 1.232,22.917 2.515,23.083 C9.089,23.936 22.877,25.404 38.821,25.404 C60.174,25.405 69.067,23.932 75.379,23.035 L75.379,23.035 Z" id="Shape"></path>
                        <path d="M75.379,20.301 C76.055,20.191 77.015,20.141 77.114,21.71 C77.175,22.681 76.703,23.21 75.773,23.41 C69.488,24.768 55.307,25.717 38.82,25.717 C21.984,25.717 7.552,24.728 1.478,23.323 C0.819,23.172 0.194,22.576 0.267,21.863 C0.427,20.312 1.231,20.125 2.514,20.375 C9.089,21.662 22.875,22.548 38.82,22.548 C55.261,22.548 69.067,21.654 75.379,20.301 L75.379,20.301 Z" id="Shape"></path>
                        <path d="M75.153,25.121 C75.829,25.011 76.79,24.962 76.888,26.53 C76.949,27.501 76.477,28.029 75.547,28.229 C69.262,29.588 55.081,30.536 38.594,30.536 C21.759,30.536 7.326,29.547 1.253,28.142 C0.594,27.992 -0.032,27.395 0.042,26.683 C0.202,25.132 1.006,24.945 2.289,25.194 C8.864,26.482 22.65,27.367 38.594,27.367 C55.035,27.367 68.842,26.474 75.153,25.121 L75.153,25.121 Z" id="Shape"></path>
                    </g>
                </g>
                <g id="Flowers" transform="translate(18.000000, 26.000000)" fill="#FFFFFF">
                    <g id="Flower_x5F_Center" transform="translate(33.000000, 3.000000)">
                        <ellipse id="Oval" stroke-width="0.749768725" transform="translate(4.795309, 9.714083) rotate(-53.933449) translate(-4.795309, -9.714083) " cx="4.7953094" cy="9.7140832" rx="1.75892663" ry="1.07695508"></ellipse>
                        <ellipse id="Oval" stroke-width="0.749843926" transform="translate(3.874616, 7.704886) rotate(-17.853369) translate(-3.874616, -7.704886) " cx="3.8746162" cy="7.7048862" rx="1.75910305" ry="1.07806315"></ellipse>
                        <ellipse id="Oval" stroke-width="0.749786458" transform="translate(3.713915, 5.592395) rotate(18.228394) translate(-3.713915, -5.592395) " cx="3.7139152" cy="5.5923954" rx="1.75896823" ry="1.07798053"></ellipse>
                        <ellipse id="Oval" stroke-width="0.749792" transform="translate(4.693375, 3.580091) rotate(54.302468) translate(-4.693375, -3.580091) " cx="4.6933748" cy="3.5800912" rx="1.75898123" ry="1.07698851"></ellipse>
                        <ellipse id="Oval" stroke-width="0.749752266" transform="translate(8.574786, 9.734140) rotate(233.925444) translate(-8.574786, -9.734140) " cx="8.5747858" cy="9.73414" rx="1.75888802" ry="1.07793137"></ellipse>
                        <ellipse id="Oval" stroke-width="0.749843926" transform="translate(9.518642, 7.692599) rotate(197.853369) translate(-9.518642, -7.692599) " cx="9.5186423" cy="7.6925992" rx="1.75910305" ry="1.07806315"></ellipse>
                        <ellipse id="Oval" stroke-width="0.749786458" transform="translate(9.667591, 5.606769) rotate(161.771606) translate(-9.667591, -5.606769) " cx="9.6675912" cy="5.6067686" rx="1.75896823" ry="1.07798053"></ellipse>
                        <ellipse id="Oval" stroke-width="0.749792" transform="translate(8.685145, 3.588207) rotate(125.697532) translate(-8.685145, -3.588207) " cx="8.6851448" cy="3.5882068" rx="1.75898123" ry="1.07698851"></ellipse>
                        <path d="M6.69,12.267 C7.253,12.267 7.711,11.518 7.711,10.6 C7.711,9.682 7.253,8.933 6.69,8.933 C6.128,8.933 5.669,9.682 5.669,10.6 C5.669,11.518 6.128,12.267 6.69,12.267 L6.69,12.267 Z" id="Shape" stroke-width="0.7498"></path>
                        <path d="M6.69,4.355 C7.314,4.355 7.822,3.525 7.822,2.507 C7.822,1.489 7.314,0.659 6.69,0.659 C6.067,0.659 5.558,1.489 5.558,2.507 C5.558,3.525 6.067,4.355 6.69,4.355 L6.69,4.355 Z" id="Shape" stroke-width="0.7498"></path>
                        <path d="M6.69,9.391 C7.563,9.391 8.274,8.229 8.274,6.805 C8.274,5.381 7.563,4.219 6.69,4.219 C5.817,4.219 5.106,5.381 5.106,6.805 C5.106,8.229 5.818,9.391 6.69,9.391 L6.69,9.391 Z" id="Shape" stroke-width="0.7498"></path>
                        <path d="M11.057,9.327 C11.466,9.493 10.854,10.111 11.493,10.092 C12.056,10.167 11.361,9.513 12.06,9.424 C12.758,9.335 12.986,9.813 12.917,10.28 C12.816,10.961 11.693,10.697 11.639,11.315 C11.586,11.915 12.568,11.183 12.594,12.188 C12.618,13.135 10.698,11.807 10.775,12.548 C10.821,12.992 11.121,13.327 10.176,13.514 C9.814,13.586 9.506,13.214 9.506,12.844 C9.506,12.13 10.395,12.569 10.395,9.99 C10.394,9.624 10.648,9.162 11.057,9.327 L11.057,9.327 Z" id="Shape" stroke-width="0.7498"></path>
                        <path d="M2.324,9.327 C1.915,9.493 2.527,10.111 1.888,10.092 C1.326,10.167 2.02,9.513 1.322,9.424 C0.624,9.335 0.396,9.813 0.465,10.28 C0.566,10.961 1.689,10.697 1.743,11.315 C1.796,11.915 0.814,11.183 0.788,12.188 C0.763,13.135 2.684,11.807 2.607,12.548 C2.561,12.992 2.261,13.327 3.206,13.514 C3.568,13.586 3.875,13.214 3.875,12.844 C3.875,12.13 2.987,12.569 2.987,9.99 C2.987,9.624 2.733,9.162 2.324,9.327 L2.324,9.327 Z" id="Shape" stroke-width="0.7498"></path>
                        <circle id="Oval" stroke-width="0.7498" cx="6.69" cy="14.059" r="1.972"></circle>
                        <circle id="Oval" stroke-width="0.7498" cx="6.69" cy="14.059" r="1.972"></circle>
                        <circle id="Oval" stroke-width="0.7498" cx="6.691" cy="14.218" r="1.73"></circle>
                    </g>
                    <g id="Flower_x5F_Left">
                        <ellipse id="Oval" stroke-width="0.749770026" transform="translate(1.373204, 11.003628) rotate(-81.355339) translate(-1.373204, -11.003628) " cx="1.3732038" cy="11.0036279" rx="1.71293152" ry="0.904963822"></ellipse>
                        <ellipse id="Oval" stroke-width="0.74982604" transform="translate(2.262766, 11.544354) rotate(259.566528) translate(-2.262766, -11.544354) " cx="2.2627658" cy="11.5443544" rx="1.71305949" ry="0.90503143"></ellipse>
                        <ellipse id="Oval" stroke-width="0.749783598" transform="translate(3.475878, 10.618574) rotate(238.431911) translate(-3.475878, -10.618574) " cx="3.4758785" cy="10.6185745" rx="1.71296253" ry="0.904980203"></ellipse>
                        <ellipse id="Oval" stroke-width="0.749772234" transform="translate(4.456912, 9.392879) rotate(214.661089) translate(-4.456912, -9.392879) " cx="4.456912" cy="9.392879" rx="1.71293657" ry="0.904966487"></ellipse>
                        <ellipse id="Oval" stroke-width="0.749788543" transform="translate(4.911324, 7.769582) rotate(190.882930) translate(-4.911324, -7.769582) " cx="4.9113244" cy="7.7695824" rx="1.71297383" ry="0.904986171"></ellipse>
                        <ellipse id="Oval" stroke-width="0.749786518" transform="translate(4.782305, 6.087986) rotate(167.114466) translate(-4.782305, -6.087986) " cx="4.7823046" cy="6.0879864" rx="1.7129692" ry="0.904983728"></ellipse>
                        <ellipse id="Oval" stroke-width="0.749759817" transform="translate(4.466748, 4.278599) rotate(143.335233) translate(-4.466748, -4.278599) " cx="4.4667478" cy="4.2785988" rx="1.71390814" ry="0.9049515"></ellipse>
                        <ellipse id="Oval" stroke-width="0.749815026" transform="translate(1.258954, 2.634665) rotate(81.963889) translate(-1.258954, -2.634665) " cx="1.2589538" cy="2.6346654" rx="1.71403435" ry="0.905018136"></ellipse>
                        <path d="M1.837,10.322 C2.656,10.322 3.324,8.826 3.324,6.992 C3.324,5.158 2.656,3.662 1.837,3.662 C1.018,3.662 0.35,5.158 0.35,6.992 C0.35,8.826 1.018,10.322 1.837,10.322 L1.837,10.322 Z" id="Shape" stroke-width="0.7498"></path>
                        <ellipse id="Oval" stroke-width="0.749810126" transform="translate(1.966038, 1.985498) rotate(95.796679) translate(-1.966038, -1.985498) " cx="1.9660381" cy="1.9854975" rx="1.71402315" ry="0.905012222"></ellipse>
                        <ellipse id="Oval" stroke-width="0.749807142" transform="translate(3.477943, 2.911316) rotate(119.577165) translate(-3.477943, -2.911316) " cx="3.4779433" cy="2.9113164" rx="1.71301632" ry="0.90500862"></ellipse>
                        <path d="M3.647,16.433 C4.68,16.433 5.522,15.591 5.522,14.558 C5.522,13.525 4.68,12.683 3.647,12.683 C2.614,12.683 1.772,13.525 1.772,14.558 C1.772,15.59 2.614,16.433 3.647,16.433 L3.647,16.433 Z" id="Shape" stroke-width="0.7498"></path>
                        <path d="M6.886,9.854 C7.383,9.854 7.795,10.216 7.874,10.691 C7.898,10.689 7.924,10.688 7.95,10.688 C8.504,10.688 8.952,11.137 8.952,11.69 C8.952,11.959 8.847,12.203 8.674,12.383 C8.928,12.565 9.093,12.862 9.093,13.199 C9.093,13.752 8.644,14.201 8.091,14.201 C7.947,14.201 7.81,14.17 7.686,14.116 C7.498,14.489 7.238,14.904 6.948,15.089 C6.363,15.461 5.866,15.249 5.724,14.929 C5.582,14.609 5.717,14.031 6.221,13.829 C7.932,13.145 6.223,11.864 5.884,10.857 C5.706,10.331 6.332,9.854 6.886,9.854 L6.886,9.854 Z" id="Shape" stroke-width="0.7498"></path>
                        <circle id="Oval" stroke-width="0.7498" cx="6.048" cy="12.852" r="0.8"></circle>
                    </g>
                    <g id="Flower_x5F_Right" transform="translate(70.000000, 0.000000)">
                        <ellipse id="Oval" stroke-width="0.749770026" transform="translate(7.994990, 11.012904) rotate(261.355339) translate(-7.994990, -11.012904) " cx="7.9949898" cy="11.0129041" rx="1.71393148" ry="0.904963822"></ellipse>
                        <ellipse id="Oval" stroke-width="0.74982604" transform="translate(7.126881, 11.539751) rotate(-79.566528) translate(-7.126881, -11.539751) " cx="7.1268814" cy="11.539751" rx="1.71305949" ry="0.90503143"></ellipse>
                        <ellipse id="Oval" stroke-width="0.749783598" transform="translate(5.896308, 10.626366) rotate(-58.431911) translate(-5.896308, -10.626366) " cx="5.8963085" cy="10.6263655" rx="1.71296253" ry="0.904980203"></ellipse>
                        <ellipse id="Oval" stroke-width="0.749833909" transform="translate(4.938577, 9.377985) rotate(-34.657831) translate(-4.938577, -9.377985) " cx="4.9385771" cy="9.3779848" rx="1.71307747" ry="0.905040928"></ellipse>
                        <ellipse id="Oval" stroke-width="0.749802703" transform="translate(4.471661, 7.777726) rotate(-10.888557) translate(-4.471661, -7.777726) " cx="4.4716612" cy="7.7777263" rx="1.71300618" ry="0.905003263"></ellipse>
                        <ellipse id="Oval" stroke-width="0.749786518" transform="translate(4.599303, 6.083277) rotate(12.885534) translate(-4.599303, -6.083277) " cx="4.5993034" cy="6.0832766" rx="1.7129692" ry="0.904983728"></ellipse>
                        <ellipse id="Oval" stroke-width="0.749835348" transform="translate(4.930358, 4.289457) rotate(36.653329) translate(-4.930358, -4.289457) " cx="4.9303578" cy="4.2894568" rx="1.7140808" ry="0.905042665"></ellipse>
                        <ellipse id="Oval" stroke-width="0.749825512" transform="translate(8.129377, 2.640438) rotate(98.041784) translate(-8.129377, -2.640438) " cx="8.1293773" cy="2.6404381" rx="1.71305828" ry="0.905030792"></ellipse>
                        <path d="M7.544,10.322 C8.363,10.322 9.031,8.826 9.031,6.992 C9.031,5.158 8.364,3.662 7.544,3.662 C6.724,3.662 6.057,5.158 6.057,6.992 C6.057,8.826 6.725,10.322 7.544,10.322 L7.544,10.322 Z" id="Shape" stroke-width="0.7498"></path>
                        <ellipse id="Oval" stroke-width="0.749802557" transform="translate(7.422778, 1.984661) rotate(84.209021) translate(-7.422778, -1.984661) " cx="7.4227775" cy="1.9846613" rx="1.71400584" ry="0.905003086"></ellipse>
                        <ellipse id="Oval" stroke-width="0.749835348" transform="translate(5.906400, 2.930874) rotate(60.430645) translate(-5.906400, -2.930874) " cx="5.9063996" cy="2.9308738" rx="1.71308076" ry="0.905042665"></ellipse>
                        <path d="M5.733,16.432 C6.766,16.432 7.608,15.59 7.608,14.557 C7.608,13.524 6.765,12.682 5.733,12.682 C4.701,12.682 3.858,13.525 3.858,14.557 C3.858,15.59 4.701,16.432 5.733,16.432 L5.733,16.432 Z" id="Shape" stroke-width="0.7498"></path>
                        <path d="M2.495,9.854 C1.998,9.854 1.586,10.216 1.507,10.691 C1.482,10.689 1.456,10.688 1.431,10.688 C0.877,10.688 0.429,11.136 0.429,11.69 C0.429,11.959 0.534,12.203 0.707,12.383 C0.453,12.565 0.288,12.862 0.288,13.198 C0.288,13.752 0.736,14.2 1.29,14.2 C1.435,14.2 1.572,14.169 1.695,14.114 C1.884,14.487 2.143,14.902 2.433,15.087 C3.018,15.46 3.516,15.247 3.658,14.927 C3.8,14.608 3.665,14.029 3.161,13.827 C1.45,13.143 3.158,11.862 3.498,10.855 C3.675,10.331 3.049,9.854 2.495,9.854 L2.495,9.854 Z" id="Shape" stroke-width="0.7498"></path>
                        <circle id="Oval" stroke-width="0.7498" cx="3.333" cy="12.851" r="0.8"></circle>
                    </g>
                </g>
                <g id="Top" transform="translate(47.000000, 0.000000)" stroke-width="0.7498">
                    <path d="M10.69,18.066 C16.395,18.066 21.019,19.952 21.019,22.871 C21.019,25.79 16.395,27.57 10.69,27.57 C4.985,27.57 0.361,25.79 0.361,22.871 C0.361,19.953 4.986,18.066 10.69,18.066 L10.69,18.066 Z" id="Shape" fill="#FFFFFF"></path>
                    <path d="M5.609,18.814 C6.432,19.566 6.253,21.17 5.209,22.397 C4.165,23.623 2.652,24.006 1.83,23.254 C1.008,22.502 1.187,20.897 2.23,19.671 C3.274,18.445 4.787,18.061 5.609,18.814 L5.609,18.814 Z" id="Shape" fill="#FFFFFF"></path>
                    <path d="M15.771,18.814 C14.949,19.566 15.128,21.17 16.171,22.397 C17.215,23.623 18.728,24.006 19.551,23.254 C20.374,22.502 20.195,20.897 19.151,19.671 C18.107,18.445 16.594,18.061 15.771,18.814 L15.771,18.814 Z" id="Shape" fill="#FFFFFF"></path>
                    <path d="M7.577,19.813 C8.722,20.288 9.141,22.031 8.515,23.708 C7.889,25.384 6.453,26.358 5.308,25.883 C4.163,25.408 3.744,23.664 4.37,21.988 C4.997,20.312 6.432,19.337 7.577,19.813 L7.577,19.813 Z" id="Shape" fill="#FFFFFF"></path>
                    <path d="M13.761,19.829 C12.623,20.32 12.228,22.07 12.879,23.736 C13.529,25.403 14.978,26.357 16.116,25.865 C17.254,25.373 17.649,23.624 16.998,21.957 C16.348,20.291 14.898,19.338 13.761,19.829 L13.761,19.829 Z" id="Shape" fill="#FFFFFF"></path>
                    <path d="M2.347,21.279 C2.901,19.847 4.401,18.631 5.742,18.919" id="Shape"></path>
                    <path d="M19.034,21.279 C18.48,19.847 16.98,18.631 15.639,18.919" id="Shape"></path>
                    <path d="M5.564,23.941 C5.856,21.691 6.624,19.627 7.338,19.747" id="Shape"></path>
                    <path d="M15.833,23.928 C15.508,21.682 14.711,19.629 13.998,19.76" id="Shape"></path>
                    <path d="M10.69,20.333 C10.761,20.349 11.075,20.102 11.618,20.257 C12.611,20.542 13.263,22.045 13.263,23.401 C13.263,25.194 12.112,26.648 10.69,26.648 C9.269,26.648 8.117,25.194 8.117,23.401 C8.117,22.191 8.669,21.012 9.42,20.468 C10.07,20 10.524,20.295 10.69,20.333 L10.69,20.333 Z" id="Shape" fill="#FFFFFF"></path>
                    <path d="M10.69,24.755 L10.69,20.196" id="Shape"></path>
                    <path d="M10.69,14.976 C14.076,14.976 16.82,16.013 16.82,18.217 C16.82,20.422 14.075,21.248 10.69,21.248 C7.305,21.248 4.56,20.421 4.56,18.217 C4.56,16.013 7.305,14.976 10.69,14.976 L10.69,14.976 Z" id="Shape" fill="#FFFFFF"></path>
                    <path d="M10.69,12.778 C12.809,12.778 14.525,13.514 14.525,15.078 C14.525,16.642 12.808,17.229 10.69,17.229 C8.572,17.229 6.854,16.642 6.854,15.078 C6.854,13.514 8.572,12.778 10.69,12.778 L10.69,12.778 Z" id="Shape" fill="#FFFFFF"></path>
                    <path d="M10.69,0.1 C11.592,0.1 12.323,0.83 12.323,1.732 C12.323,3.199 11.736,3.216 11.736,4.823 C11.736,7.705 13.971,8.584 13.971,11.209 C13.971,13.021 12.502,14.49 10.69,14.49 C8.878,14.49 7.408,13.021 7.408,11.209 C7.408,8.584 9.644,7.706 9.644,4.823 C9.644,3.216 9.057,3.198 9.057,1.732 C9.058,0.831 9.789,0.1 10.69,0.1 L10.69,0.1 Z" id="Shape" fill="#FFFFFF"></path>
                </g>
            </g>
        </g>
    </g>
</svg>