<?xml version="1.0" encoding="UTF-8" standalone="no"?>
<svg width="108px" height="188px" viewBox="0 0 108 188" version="1.1" xmlns="http://www.w3.org/2000/svg" xmlns:xlink="http://www.w3.org/1999/xlink" xmlns:sketch="http://www.bohemiancoding.com/sketch/ns">
    <!-- Generator: Sketch 3.3.1 (12002) - http://www.bohemiancoding.com/sketch -->
    <title>Shell</title>
    <desc>Created with Sketch.</desc>
    <defs></defs>
    <g id="Page-1" stroke="none" stroke-width="1" fill="none" fill-rule="evenodd" sketch:type="MSPage">
        <g id="Shell" sketch:type="MSLayerGroup">
            <g sketch:type="MSShapeGroup">
                <g id="Curtain_x5F_Bottom" transform="translate(3.000000, 121.000000)" stroke="#000000" stroke-width="0.7498">
                    <path d="M0.478,65.396 C4.467,60.896 0.3,58.49 1.853,55.271 C4.405,54.556 5.99,51.261 7.291,47.208 C3.21,41.121 4.556,38.126 8.228,36.458 C10.037,35.125 11.336,33.312 11.728,30.645 C7.439,31.224 7.725,26.962 10.603,19.957 C16.657,7.693 32.51,0.423 61.308,0.951 C78.167,1.261 92.451,12.276 94.855,29.3 C93.853,27.621 92.752,26.78 91.417,26.769 C91.857,31.4 93.707,35.076 96.73,37.957 C99.312,41.186 99.461,43.936 96.543,46.083 C96.471,48.245 96.906,50.379 98.418,52.458 C99.785,53.43 101.566,53.668 100.668,58.645 C101.319,60.576 102.352,62.403 103.918,64.083 C101.416,66.959 97.763,65.926 96.23,62.02 C94.687,59.895 92.669,58.29 90.292,57.082 C83.242,56.209 80.299,51.561 79.417,45.019 C77.832,42.479 77.23,38.956 76.979,35.081 C75.797,35.475 74.682,36.604 73.666,38.831 C73.099,28.043 72.362,6.078 50.704,8.649 C29.246,11.196 25.68,25.342 28.666,43.019 C27.243,41.772 25.881,41.078 24.541,40.581 C24.485,42.838 24.513,45.116 24.791,47.456 C24.944,52.761 21.92,55.726 16.072,56.612 C13.601,57.562 11.292,58.86 9.322,60.893 C8.134,64.235 4.656,66.179 0.478,65.396 L0.478,65.396 Z" id="Shape" fill="#FFFFFF"></path>
                    <path d="M96.344,37.536 C96.344,37.536 91.594,35.239 89.844,34.052 C88.094,32.864 86.583,30.612 86.969,29.239 C87.739,26.511 89.869,26.512 91.782,26.801" id="Shape"></path>
                    <path d="M99.016,52.817 C98.063,52.653 95.491,52.03 94.449,51.185 C93.23,50.197 92.412,48.882 93.08,47.567 C93.571,46.6 94.827,46.097 96.719,46.051" id="Shape"></path>
                    <path d="M100.696,58.622 C99.678,60.096 99.855,61.804 100.724,62.729 C101.341,63.386 102.371,63.671 103.876,64.005" id="Shape"></path>
                    <path d="M88.157,56.661 C90.984,57.631 94.091,56.038 95.809,57.831 C97.054,59.132 96.935,60.54 96.188,62.068" id="Shape"></path>
                    <path d="M76.845,35.162 C77.46,34.668 78.396,34.7 79.109,35.05 C80.604,35.784 81.549,37.649 82.371,39.453 C84.693,44.559 86.688,48.866 93.096,49.521" id="Shape"></path>
                    <path d="M88.994,48.256 C90.587,48.028 91.541,46.988 92.008,45.686 C92.27,44.957 92.334,43.737 92.274,42.432 C92.131,39.352 91.705,37.812 90.658,35.975 C90.17,35.119 87.829,31.868 88.579,33.069 C89.523,34.581 89.885,40.216 85.188,38.772 C83.779,38.338 81.875,35.834 79.75,30.959 C77.625,26.084 75.125,17.458 72.5,14.958 C69.875,12.459 65.375,6.958 58.5,6.083 C51.625,5.208 40.125,7.583 35.75,10.333 C31.375,13.083 30,14.209 27.875,16.959 C25.75,19.708 24.25,23.584 23.875,26.459" id="Shape"></path>
                    <path d="M90.438,42.021 C89.795,42.78 88.411,42.942 87.198,42.661 C83.76,41.865 82.073,38.431 80.188,35.708 L80.376,31.895" id="Shape"></path>
                    <path d="M79.431,45.091 C79.241,42.238 79.7,39.682 80.814,36.552" id="Shape"></path>
                    <path d="M79.204,20.724 C82.651,24.419 84.18,28.742 85.376,33.522 C80.853,29.583 80.542,21.964 77.313,16.772 C75.875,14.459 71.313,8.959 66.813,6.834 C63.328,5.188 58.626,3.952 53.699,4.065 C25.606,4.712 20.916,17.252 16.812,41.395 C16.583,42.741 17.244,43.478 17.923,43.85 C18.893,44.381 20.369,44.207 21.812,44.207 C23.949,44.207 23.999,44.515 24.679,46.16" id="Shape"></path>
                    <path d="M16.046,56.652 C11.306,56.149 10.722,55.632 9.312,60.941" id="Shape"></path>
                    <path d="M2.031,55.395 C8.426,58.611 10.078,51.638 7.234,47.106" id="Shape"></path>
                    <path d="M12.218,50.332 C16.99,49.967 18.437,46.382 17.968,43.832 C17.92,43.982 17.867,44.125 17.811,44.258 C17.304,45.452 16.251,46.515 15.397,46.515 C10.67,46.515 13.623,38.856 13.624,37.489" id="Shape"></path>
                    <path d="M7.811,36.699 C7.811,36.699 8.288,36.941 9.28,37.269 C12.395,38.299 14.365,37.303 15.337,35.835 C16.583,33.954 15.975,31.249 14.357,30.396 C13.549,29.969 12.671,30.464 11.416,30.699" id="Shape"></path>
                    <path d="M24.749,40.66 C20.1,38.573 17.976,39.963 15.249,42.707 C15.249,42.707 16.374,38.207 16.562,35.894 C16.757,33.49 16.896,31.242 17.132,29.069 C17.625,24.525 18.54,20.31 21.264,15.687 C23.132,12.517 25.803,9.847 30.038,7.491 C32.66,6.033 35.72,5.117 40.138,4.13 C62.829,-0.938 83.834,4.436 87,29.768" id="Shape"></path>
                    <path d="M37.563,2.893 C37.563,2.893 34.688,3.706 31.25,5.331 C19.656,10.81 15.195,20.157 15.906,33.206" id="Shape"></path>
                </g>
                <g id="Curtain_x5F_Middle" transform="translate(0.000000, 92.000000)" stroke="#000000" stroke-width="0.7498">
                    <path d="M7.499,25.802 C-1.833,24.594 -1.471,10.541 6.906,8.021 C7.64,2.416 88.669,-3.646 90.406,4.522 C92.809,5.507 94.628,6.786 96.031,8.272 C108.205,13.324 101.838,31.658 85.031,26.96 C86.81,32.301 80.512,33.358 76.406,28.273 C70.499,30.909 71.054,18.619 50.08,24.161 C42.107,26.268 30.084,37.706 26.656,32.148 C25.177,32.919 20.885,34.283 20.156,32.398 C18.323,33.314 11.77,31.825 16.468,28.773 C15.57,29.588 6.794,28.265 7.499,25.802 L7.499,25.802 Z" id="Shape" fill="#FFFFFF"></path>
                    <path d="M37.453,24.271 C37.735,28.881 30.909,32.192 26.999,32.603" id="Shape"></path>
                    <path d="M6.828,8.021 C7.879,7.758 9.361,7.569 10.922,7.493 C15.93,7.25 18.534,7.235 22.641,9.834 C24.387,10.938 17.945,10.014 15.776,10.829 C13.504,11.682 11.734,13.308 11.516,16.146 C11.202,20.234 14.521,22.856 17.074,23.988 C22.087,26.21 29.059,23.395 34.141,19.646 C34.141,19.646 32.453,23.209 31.078,24.834 C29.703,26.459 27.766,29.022 25.828,30.209 C23.89,31.396 19.953,32.522 19.953,32.522" id="Shape"></path>
                    <path d="M32.266,16.896 C30.574,19.628 27.739,20.942 24.604,19.965 C20.871,18.802 20.453,16.691 21.316,15.326 C22.402,13.61 25.776,13.097 27.828,12.02 C28.311,11.766 26.776,11.612 26.175,11.499 C22.884,10.881 18.338,12.058 16.612,14.638 C15.123,16.865 16.063,19.996 20.632,21.629 C23.499,22.652 25.959,22.436 28.289,21.599 C30.896,20.663 33.342,18.952 36.016,17.333 C36.248,18.457 36.15,20.346 35.806,22.188 C34.892,27.082 30.887,30.313 26.492,32.223" id="Shape"></path>
                    <path d="M6.578,18.521 C9.193,23.524 12.236,23.855 17.377,24.146 C18.226,24.194 18.842,27.606 24.516,27.584" id="Shape"></path>
                    <path d="M6.343,25.567 C6.343,25.567 8.077,26.036 9.328,25.848 C10.578,25.66 12.735,24.739 13.797,24.426 C15.181,24.019 19.111,24.052 18.64,26.364 C18.367,27.708 16.202,28.927 16.202,28.927" id="Shape"></path>
                    <path d="M80.508,31.271 C80.508,31.271 78.703,30.614 77.953,28.739 C77.203,26.865 76.828,24.427 76.14,22.801 C73.673,16.973 67.961,15.53 62.452,14.051 C64.98,16.896 68.709,17.99 71.702,21.614 C72.89,23.052 74.265,25.177 74.64,25.677 C75.015,26.177 76.39,28.303 76.39,28.303 C76.39,28.303 73.952,25.302 72.702,24.427 C70.334,22.771 66.308,21.325 63.311,21.365" id="Shape"></path>
                    <path d="M76.203,7.521 C79.096,6.917 83.328,6.245 86.535,6.221 C89.533,6.2 92.447,6.721 96.016,8.271 C96.016,8.271 94.078,6.037 90.406,4.552 C87.251,3.277 80.735,3.406 77.265,3.302" id="Shape"></path>
                    <path d="M87.37,22.997 C87.584,22.912 87.793,22.82 87.997,22.723 C89.139,22.175 90.318,21.273 91.071,20.148 C92.926,17.378 91.731,14.078 89.782,11.65 C88.404,9.933 86.759,8.901 84.934,8.295 C81.293,7.085 77.046,7.44 73.328,8.115 C73.102,8.156 73.707,8.218 74.671,8.297 C76.928,8.483 79.692,8.531 82.308,9.568 C85.542,10.85 88.319,13.48 86.872,17.781 C85.269,22.545 79.002,21.86 75.203,20.927" id="Shape"></path>
                    <path d="M76.297,23.224 C78.297,23.868 81.135,24.174 83.841,23.855" id="Shape"></path>
                    <path d="M69.703,13.302 C70.35,15.458 71.21,16.499 73.388,17.117 C75.653,17.759 78.27,17.283 78.227,14.582 C78.164,10.614 74.029,10.883 71.328,11.177 C68.306,11.506 75.152,9.494 78.514,11.021 C81.443,12.35 82.931,15.583 80.468,17.375 C79.473,18.1 77.904,18.351 76.264,18.329 C70.733,18.256 69.082,13.346 69.703,13.302 L69.703,13.302 Z" id="Shape" fill="#FFFFFF"></path>
                    <path d="M100.629,22.634 C100.004,23.509 98.579,25.552 95.703,25.614 C92.828,25.677 90.328,24.489 89.14,23.926 C87.952,23.363 86.327,22.488 85.202,22.738 C84.077,22.988 83.452,24.301 83.889,25.113 C84.326,25.925 84.936,26.82 85.182,27.367" id="Shape"></path>
                </g>
                <g id="Curtain_x5F_Top" transform="translate(6.000000, 13.000000)" stroke="#000000">
                    <g id="Group">
                        <path d="M5.133,6.685 C6.653,3.664 9.942,1.83 10.844,2.228 C13.781,3.526 13.223,5.831 16.161,7.055 C17.791,7.734 20.183,7.992 22.141,6.353 C27.758,1.654 26.68,13.906 25.64,16.317 C24.787,18.294 22.878,20.037 20.63,21.268 C10.161,27.004 -0.779,18.431 5.133,6.685 L5.133,6.685 Z" id="Shape" stroke-width="0.7498" fill="#FFFFFF"></path>
                        <path d="M9.776,29.454 C5.032,28.332 1.216,24.547 3.401,21.204 C4.219,19.952 6.219,20.815 7.807,20.661 C10.172,20.433 10.759,17.251 8.698,15.758 C6.678,14.294 2.798,13.711 1.464,11.157 C0.485,9.284 0.002,5.922 2.785,2.901 C5.085,0.405 8.789,-0.198 11.808,2.547 C14.558,5.047 13.902,8.515 16.277,10.641 C18.652,12.766 20.118,12.415 20.902,9.453 C24.108,-2.661 35.867,14.464 30.972,24.299 C28.559,29.146 22.438,32.449 9.776,29.454 L9.776,29.454 Z" id="Shape" stroke-width="0.7498" fill="#FFFFFF"></path>
                        <path d="M8.886,15.898 C9.185,14.169 9.948,12.679 11.197,11.609 C12.403,10.577 13.924,10.051 15.604,9.989" id="Shape" stroke-width="0.7498"></path>
                        <path d="M20.345,10.892 C22.967,11.927 25.637,13.822 27.892,16.443 C33.126,22.527 34.101,30.256 30.102,33.683 C26.102,37.109 18.627,34.945 13.407,28.849 C11.074,26.125 9.587,23.078 9.011,20.234" id="Shape" stroke-width="0.7498"></path>
                        <ellipse id="Oval" stroke-width="0.749792971" fill="#FFFFFF" transform="translate(20.629837, 22.644341) rotate(223.196802) translate(-20.629837, -22.644341) " cx="20.629837" cy="22.644341" rx="9.15391418" ry="6.00694368"></ellipse>
                        <ellipse id="Oval" stroke-width="0.749816293" fill="#FFFFFF" transform="translate(21.976747, 23.098040) rotate(216.976466) translate(-21.976747, -23.098040) " cx="21.9767466" cy="23.0980398" rx="5.79712597" ry="3.80408266"></ellipse>
                    </g>
                    <g id="Group" transform="translate(59.000000, 0.000000)">
                        <path d="M28.125,6.685 C26.605,3.664 23.316,1.83 22.414,2.228 C19.477,3.526 20.035,5.831 17.097,7.055 C15.468,7.734 13.075,7.992 11.117,6.353 C5.5,1.654 6.578,13.906 7.618,16.317 C8.471,18.294 10.38,20.037 12.628,21.268 C23.097,27.004 34.038,18.431 28.125,6.685 L28.125,6.685 Z" id="Shape" stroke-width="0.7498" fill="#FFFFFF"></path>
                        <path d="M23.482,29.454 C28.226,28.332 32.042,24.547 29.857,21.204 C29.039,19.952 27.039,20.815 25.451,20.661 C23.086,20.433 22.499,17.251 24.56,15.758 C26.58,14.294 30.46,13.711 31.794,11.157 C32.773,9.284 33.256,5.922 30.473,2.901 C28.173,0.405 24.469,-0.198 21.45,2.547 C18.7,5.047 19.356,8.515 16.981,10.641 C14.606,12.766 13.14,12.415 12.356,9.453 C9.15,-2.661 -2.609,14.464 2.286,24.299 C4.699,29.146 10.82,32.449 23.482,29.454 L23.482,29.454 Z" id="Shape" stroke-width="0.7498" fill="#FFFFFF"></path>
                        <path d="M24.372,15.898 C24.074,14.169 23.31,12.679 22.061,11.609 C20.855,10.577 19.334,10.051 17.654,9.989" id="Shape" stroke-width="0.7498"></path>
                        <path d="M12.913,10.892 C10.291,11.927 7.621,13.822 5.366,16.443 C0.133,22.527 -0.843,30.256 3.157,33.683 C7.157,37.109 14.631,34.945 19.852,28.849 C22.185,26.125 23.672,23.078 24.248,20.234" id="Shape" stroke-width="0.7498"></path>
                        <ellipse id="Oval" stroke-width="0.749792971" fill="#FFFFFF" transform="translate(12.600419, 22.666058) rotate(-43.196802) translate(-12.600419, -22.666058) " cx="12.600419" cy="22.666058" rx="9.15391418" ry="6.00694368"></ellipse>
                        <ellipse id="Oval" stroke-width="0.749816293" fill="#FFFFFF" transform="translate(11.276764, 23.122175) rotate(-36.976466) translate(-11.276764, -23.122175) " cx="11.2767639" cy="23.1221747" rx="5.79712597" ry="3.80408266"></ellipse>
                    </g>
                </g>
                <g id="Shell_x5F_Body" transform="translate(4.000000, 48.000000)" stroke="#000000" stroke-width="0.7498">
                    <path d="M49.17,108.729 C51.854,108.295 53.991,105.628 55.606,102.28 C57.632,98.079 58.622,93.548 59.406,88.914 C59.927,85.838 60.822,78.538 62.862,71.794 C65.408,63.376 67.118,58.754 70.741,54.041 C70.798,53.967 70.879,53.906 70.967,53.869 C78.866,50.597 86.513,44.588 89.342,35.736 C90.563,31.915 91.605,25.86 90.218,21.992 C89.031,18.68 88.155,15.179 85.843,11.054 C83.531,6.929 70.96,-0.328 50.718,1.054 C34.454,2.164 12.716,0.185 2.343,21.054 C-0.86,27.497 -0.631,36.912 3.093,42.804 C9.717,53.283 22.989,61.083 30.76,70.128 C35.866,76.073 38.516,83.835 39.343,91.554 C40.084,98.469 40.802,104.171 42.539,107.263 C45.514,112.56 49.621,110.565 49.17,108.729 L49.17,108.729 Z" id="Shape" fill="#FFFFFF"></path>
                    <path d="M52.584,49.351 C52.584,49.351 54.803,53.445 60.803,54.382 C66.803,55.319 70.974,53.874 70.974,53.874" id="Shape"></path>
                    <g id="Group" transform="translate(33.000000, 24.000000)">
                        <path d="M10.163,59.886 C8.764,58.48 8.502,55.625 11.101,54.323 C9.284,53.568 10.934,50.484 8.788,48.26 C9.804,48.338 11.069,48.369 11.788,48.823 C9.876,46.098 11.637,44.734 8.35,42.385 C9.978,41.929 11.737,42.507 12.944,43.776 C13.519,39.356 11.711,30.686 8.567,27.576 C7.017,26.043 6.478,28.259 8.226,29.886 L7.038,31.324 C3.578,29.575 2.812,27.219 3.6,24.511 C1.913,22.506 1.871,20.703 3.225,19.073 C1.72,17.438 2.199,15.318 0.35,14.073 C1.495,13.707 2.445,13.778 3.741,14.151 C1.236,10.625 4.512,10.02 2.975,5.056 C4.078,5.702 5.038,6.258 5.85,7.072 C7.929,-0.122 18.78,-2.108 24.038,6.635 C25.213,8.293 25.968,8.268 26.351,6.76 C27.164,3.508 32.556,8.908 26.913,12.635 C27.391,15.121 26.499,16.606 24.475,17.26 C23.99,21.494 20.433,21.706 19.475,19.009 C19.22,20.155 16.715,19.91 16.412,22.072 C15.891,21.33 15.829,20.168 16.85,18.009 C13.866,16.803 12.773,14.869 14.131,13.571 C13.605,12.088 14.751,11.107 16.225,11.571 C18.189,7.461 13.126,6.734 11.694,10.759 C10.735,15.17 13.836,21.373 16.169,27.838 C18.695,34.838 18.831,40.706 18.759,48.013 C18.702,53.723 18.288,60.112 18.159,65.732 C17.966,74.198 17.807,81.201 20.726,81.571 C20.734,82.619 19.863,83.721 18.726,83.509 C18.653,86.083 15.238,84.561 14.198,83.288 C11.757,80.301 11.768,73.397 12.476,65.384 C12.646,62.972 10.44,63.378 10.476,64.821 C10.763,65.906 10.224,66.499 9.617,66.52 C7.513,66.595 8.305,62.659 8.746,61.62 C9.198,60.559 9.747,60.113 10.163,59.886 L10.163,59.886 Z" id="Shape" fill="#FFFFFF"></path>
                        <path d="M6.298,10.827 C7.414,10.171 6.596,7.948 5.72,6.928" id="Shape"></path>
                        <path d="M6.079,16.827 C5.764,15.313 4.941,14.682 3.53,14.077" id="Shape"></path>
                        <path d="M6.267,19.952 C6.505,18.887 4.225,17.931 3.126,19.202" id="Shape"></path>
                        <path d="M7.792,24.476 C7.621,23.552 4.812,22.165 3.573,24.624" id="Shape"></path>
                        <path d="M20.111,17.015 C19.547,17.45 19.27,18.23 19.541,19.226" id="Shape"></path>
                        <path d="M22.018,14.733 C21.537,16.945 22.789,17.663 24.627,17.213" id="Shape"></path>
                        <path d="M23.986,11.296 C23.986,12.966 25.856,13.162 27.06,12.542" id="Shape"></path>
                        <path d="M16.08,11.53 C17.073,13.1 19.245,12.61 19.264,10.791 C19.297,7.741 15.153,7.782 13.994,8.257" id="Shape"></path>
                        <path d="M14.111,13.577 C15.865,15.813 18.216,16.465 20.426,14.523 C23.174,12.108 22.196,6.871 19.055,4.951 C15.28,2.643 9.578,5 8.117,9.316 C7.37,11.524 7.399,14.256 8.204,17.092 C8.738,18.972 9.465,20.891 10.191,22.604 C11.891,26.615 13.641,29.348 14.783,33.655 C16.035,38.376 16.115,42.612 15.86,47.468" id="Shape"></path>
                        <path d="M13.987,47.218 C14.151,46.073 13.49,44.669 12.862,43.592" id="Shape"></path>
                        <path d="M14.268,52.562 C14.331,50.446 13.187,49.65 11.51,48.609" id="Shape"></path>
                        <path d="M13.987,56.405 C13.987,55.113 12.275,53.506 10.784,54.494" id="Shape"></path>
                        <path d="M14.331,61.78 C14.83,59.286 11.612,58.89 9.851,60.089" id="Shape"></path>
                        <path d="M15.924,57.968 C15.924,57.968 15.674,67.281 15.549,70.906 C15.357,76.479 14.084,80.261 18.799,83.562" id="Shape"></path>
                    </g>
                </g>
                <g id="Top" transform="translate(5.000000, 17.000000)" stroke="#000000" stroke-width="0.7498" fill="#FFFFFF">
                    <path d="M47.822,18.332 C66.289,18.332 81.26,19.699 81.26,29.778 C81.26,39.857 66.289,48.028 47.822,48.028 C29.355,48.028 14.384,39.857 14.384,29.778 C14.384,19.699 29.355,18.332 47.822,18.332 L47.822,18.332 Z" id="Shape"></path>
                    <path d="M47.822,17.028 C64.84,17.028 78.635,18.232 78.635,27.098 C78.635,35.965 64.84,43.153 47.822,43.153 C30.804,43.153 17.009,35.965 17.009,27.098 C17.009,18.232 30.805,17.028 47.822,17.028 L47.822,17.028 Z" id="Shape"></path>
                    <path d="M47.822,17.028 C62.975,17.028 75.26,18.232 75.26,27.098 C75.26,35.965 62.976,43.153 47.822,43.153 C32.668,43.153 20.384,35.965 20.384,27.098 C20.384,18.232 32.669,17.028 47.822,17.028 L47.822,17.028 Z" id="Shape"></path>
                    <path d="M13.033,28.944 C18.069,28.506 22.276,32.811 27.918,36.595 C40.279,44.887 54.146,44.887 66.508,36.595 C72.15,32.811 76.357,28.506 81.393,28.944 C84.354,29.202 85.916,31.403 86.415,34.17 C87.071,37.804 84.082,42.738 82.876,44.434 C81.598,46.232 90.085,33.878 82.478,34.768 C78.083,35.282 71.636,39.656 65.404,43.535 C54.3,50.445 40.126,50.445 29.021,43.535 C22.789,39.656 16.335,35.359 11.947,34.768 C5.347,33.878 9.408,45.814 8.688,43.655 C8.012,41.629 7.355,37.804 8.01,34.171 C8.51,31.403 10.071,29.202 13.033,28.944 L13.033,28.944 Z" id="Shape"></path>
                    <path d="M8.597,33.811 C14.288,33.373 19.043,37.678 25.419,41.462 C39.389,49.754 55.06,49.754 69.03,41.462 C75.406,37.678 80.16,33.373 85.852,33.811 C89.199,34.069 90.964,36.27 91.528,39.037 C92.268,42.671 89.282,47.026 87.919,48.723 C86.474,50.521 95.675,38.745 87.079,39.634 C82.112,40.149 74.827,44.524 67.784,48.402 C55.234,55.312 39.216,55.312 26.667,48.402 C19.624,44.524 12.33,40.226 7.371,39.634 C3.873,39.217 3.025,41.951 3.027,44.749 C3.027,45.826 3.154,46.914 3.304,47.834 C3.315,47.902 3.348,47.972 3.338,48.037 L3.267,48.497 C3.257,48.563 3.177,48.137 3.163,48.068 C2.98,47.163 2.825,46.099 2.727,44.981 C2.553,42.984 2.561,40.809 2.922,39.037 C3.484,36.27 5.25,34.068 8.597,33.811 L8.597,33.811 Z" id="Shape"></path>
                    <path d="M6.913,38.249 C12.853,37.793 17.816,42.274 24.471,46.215 C39.052,54.847 55.408,54.847 69.988,46.215 C76.643,42.275 81.605,37.793 87.545,38.249 C91.039,38.518 92.881,40.809 93.469,43.689 C94.241,47.471 91.076,52.187 89.654,53.952 C88.146,55.824 97.798,43.386 88.825,44.31 C83.641,44.845 76.036,49.4 68.686,53.437 C55.588,60.63 38.87,60.63 25.771,53.437 C18.42,49.4 10.808,44.925 5.632,44.31 C3.088,44.007 1.887,45.297 1.393,47.093 C1.009,48.49 1.053,50.196 1.226,51.693 C1.238,51.801 1.296,51.914 1.266,52.016 L1.125,52.481 C1.085,52.613 1.071,52.207 1.046,52.067 C0.785,50.598 0.661,48.866 0.67,47.184 C0.676,45.957 0.772,44.752 0.989,43.689 C1.577,40.809 3.419,38.518 6.913,38.249 L6.913,38.249 Z" id="Shape"></path>
                    <path d="M47.822,35.904 C59.561,35.904 69.135,29.642 69.135,21.966 C69.135,14.29 59.561,8.028 47.822,8.028 C36.083,8.028 26.509,14.289 26.509,21.966 C26.509,29.643 36.083,35.904 47.822,35.904 L47.822,35.904 Z" id="Shape"></path>
                    <path d="M47.822,32.029 C58.666,32.029 67.51,26.414 67.51,19.528 C67.51,12.643 58.666,7.028 47.822,7.028 C36.979,7.028 28.134,12.643 28.134,19.528 C28.135,26.414 36.979,32.029 47.822,32.029 L47.822,32.029 Z" id="Shape"></path>
                    <path d="M47.822,4.638 C56.417,4.638 63.385,7.383 63.385,13.216 C63.385,19.05 56.417,23.779 47.822,23.779 C39.227,23.779 32.259,19.05 32.259,13.216 C32.259,7.383 39.227,4.638 47.822,4.638 L47.822,4.638 Z" id="Shape"></path>
                    <path d="M47.822,4.028 C54.967,4.028 60.76,6.341 60.76,11.255 C60.76,16.17 54.968,20.154 47.822,20.154 C40.676,20.154 34.884,16.17 34.884,11.255 C34.884,6.341 40.677,4.028 47.822,4.028 L47.822,4.028 Z" id="Shape"></path>
                    <path d="M47.822,2.528 C52.827,2.528 56.885,4.16 56.885,7.627 C56.885,11.094 52.827,13.904 47.822,13.904 C42.817,13.904 38.759,11.093 38.759,7.627 C38.759,4.161 42.817,2.528 47.822,2.528 L47.822,2.528 Z" id="Shape"></path>
                    <path d="M47.822,1.528 C51.792,1.528 55.01,2.801 55.01,5.507 C55.01,8.211 51.792,10.404 47.822,10.404 C43.852,10.404 40.634,8.211 40.634,5.507 C40.634,2.802 43.853,1.528 47.822,1.528 L47.822,1.528 Z" id="Shape"></path>
                    <path d="M47.822,0.903 C49.79,0.903 51.385,1.659 51.385,3.264 C51.385,4.869 49.79,6.171 47.822,6.171 C45.854,6.171 44.259,4.869 44.259,3.264 C44.259,1.659 45.854,0.903 47.822,0.903 L47.822,0.903 Z" id="Shape"></path>
                </g>
                <g id="Diamond" transform="translate(45.000000, 0.000000)">
                    <g id="Group" stroke="#000000">
                        <g transform="translate(0.000000, 2.000000)" id="Shape">
                            <g>
                                <g transform="translate(3.000000, 12.000000)">
                                    <path d="M3.844,0.738 C4.296,1.612 4.145,3.001 3.649,3.936 C2.5,6.104 0.133,4.814 1.277,2.657 C1.773,1.722 2.864,0.84 3.844,0.738 L3.844,0.738 Z" stroke-width="0.4997" fill="#FFFFFF"></path>
                                    <path d="M2.345,3.516 L3.384,1.591" stroke-width="0.216"></path>
                                </g>
                                <g transform="translate(2.000000, 11.000000)">
                                    <path d="M4.168,0.805 C4.151,1.789 3.359,2.94 2.478,3.528 C0.437,4.89 -1.034,2.631 0.998,1.275 C1.879,0.687 3.258,0.429 4.168,0.805 L4.168,0.805 Z" stroke-width="0.4997" fill="#FFFFFF"></path>
                                    <path d="M1.531,2.537 L3.359,1.336" stroke-width="0.216"></path>
                                </g>
                                <g transform="translate(0.000000, 9.000000)">
                                    <path d="M5.547,1.903 C5.065,2.762 3.821,3.398 2.767,3.498 C0.324,3.727 0.103,1.041 2.534,0.812 C3.588,0.714 4.924,1.142 5.547,1.903 L5.547,1.903 Z" stroke-width="0.4997" fill="#FFFFFF"></path>
                                    <path d="M2.402,2.177 L4.582,1.987" stroke-width="0.216"></path>
                                </g>
                                <g transform="translate(0.000000, 7.000000)">
                                    <path d="M5.572,2.051 C4.909,2.78 3.555,3.121 2.506,2.983 C0.074,2.66 0.459,-0.008 2.88,0.314 C3.929,0.452 5.135,1.168 5.572,2.051 L5.572,2.051 Z" stroke-width="0.4997" fill="#FFFFFF"></path>
                                    <path d="M2.446,1.613 L4.612,1.916" stroke-width="0.216"></path>
                                </g>
                                <g transform="translate(1.000000, 4.000000)">
                                    <path d="M4.795,3.725 C3.899,4.132 2.519,3.91 1.61,3.367 C-0.495,2.108 0.914,-0.19 3.01,1.063 C3.919,1.606 4.743,2.741 4.795,3.725 L4.795,3.725 Z" stroke-width="0.4997" fill="#FFFFFF"></path>
                                    <path d="M2.098,2.086 L3.967,3.222" stroke-width="0.216"></path>
                                </g>
                                <g transform="translate(2.000000, 2.000000)">
                                    <path d="M4.477,4.276 C3.508,4.452 2.225,3.9 1.476,3.151 C-0.258,1.416 1.669,-0.468 3.396,1.259 C4.144,2.009 4.667,3.31 4.477,4.276 L4.477,4.276 Z" stroke-width="0.4997" fill="#FFFFFF"></path>
                                    <path d="M2.261,2.028 L3.797,3.586" stroke-width="0.216"></path>
                                </g>
                                <g transform="translate(4.000000, 0.000000)">
                                    <path d="M2.953,5.363 C2.007,5.091 1.103,4.026 0.765,3.022 C-0.019,0.697 2.545,-0.134 3.325,2.18 C3.662,3.185 3.552,4.582 2.953,5.363 L2.953,5.363 Z" stroke-width="0.4997" fill="#FFFFFF"></path>
                                    <path d="M1.967,2.365 L2.65,4.443" stroke-width="0.216"></path>
                                </g>
                            </g>
                            <g transform="translate(8.000000, 0.000000)">
                                <g transform="translate(0.000000, 12.000000)">
                                    <path d="M0.801,0.738 C0.348,1.612 0.5,3.001 0.996,3.936 C2.145,6.104 4.512,4.814 3.368,2.657 C2.871,1.722 1.78,0.84 0.801,0.738 L0.801,0.738 Z" stroke-width="0.4997" fill="#FFFFFF"></path>
                                    <path d="M2.299,3.516 L1.261,1.591" stroke-width="0.216"></path>
                                </g>
                                <g transform="translate(1.000000, 11.000000)">
                                    <path d="M0.476,0.805 C0.493,1.789 1.285,2.94 2.166,3.528 C4.207,4.89 5.677,2.631 3.646,1.275 C2.765,0.687 1.386,0.429 0.476,0.805 L0.476,0.805 Z" stroke-width="0.4997" fill="#FFFFFF"></path>
                                    <path d="M3.113,2.537 L1.285,1.336" stroke-width="0.216"></path>
                                </g>
                                <g transform="translate(2.000000, 9.000000)">
                                    <path d="M0.097,1.903 C0.579,2.762 1.823,3.398 2.877,3.498 C5.32,3.727 5.542,1.041 3.11,0.812 C2.056,0.714 0.721,1.142 0.097,1.903 L0.097,1.903 Z" stroke-width="0.4997" fill="#FFFFFF"></path>
                                    <path d="M3.242,2.177 L1.063,1.987" stroke-width="0.216"></path>
                                </g>
                                <g transform="translate(2.000000, 7.000000)">
                                    <path d="M0.073,2.051 C0.735,2.78 2.089,3.121 3.139,2.983 C5.571,2.66 5.186,-0.008 2.765,0.314 C1.715,0.452 0.509,1.168 0.073,2.051 L0.073,2.051 Z" stroke-width="0.4997" fill="#FFFFFF"></path>
                                    <path d="M3.198,1.613 L1.032,1.916" stroke-width="0.216"></path>
                                </g>
                                <g transform="translate(1.000000, 4.000000)">
                                    <path d="M0.85,3.725 C1.746,4.132 3.125,3.91 4.035,3.367 C6.141,2.108 4.731,-0.19 2.635,1.063 C1.726,1.606 0.901,2.741 0.85,3.725 L0.85,3.725 Z" stroke-width="0.4997" fill="#FFFFFF"></path>
                                    <path d="M3.546,2.086 L1.677,3.222" stroke-width="0.216"></path>
                                </g>
                                <g transform="translate(1.000000, 2.000000)">
                                    <path d="M0.167,4.276 C1.136,4.452 2.419,3.9 3.168,3.151 C4.903,1.416 2.975,-0.468 1.249,1.259 C0.5,2.009 -0.022,3.31 0.167,4.276 L0.167,4.276 Z" stroke-width="0.4997" fill="#FFFFFF"></path>
                                    <path d="M2.383,2.028 L0.848,3.586" stroke-width="0.216"></path>
                                </g>
                                <g>
                                    <path d="M0.691,5.363 C1.637,5.091 2.542,4.026 2.88,3.022 C3.664,0.697 1.099,-0.134 0.319,2.18 C-0.018,3.185 0.092,4.582 0.691,5.363 L0.691,5.363 Z" stroke-width="0.4997" fill="#FFFFFF"></path>
                                    <path d="M1.678,2.365 L0.994,4.443" stroke-width="0.216"></path>
                                </g>
                            </g>
                        </g>
                        <g transform="translate(6.000000, 15.000000)" id="Shape">
                            <path d="M1.822,0.269 C2.635,0.824 3.162,2.118 3.17,3.176 C3.188,5.63 0.492,5.618 0.475,3.176 C0.467,2.117 1.009,0.823 1.822,0.269 L1.822,0.269 Z" stroke-width="0.4997" fill="#FFFFFF"></path>
                            <path d="M1.822,3.425 L1.822,1.237" stroke-width="0.216"></path>
                        </g>
                        <path d="M7.822,6.232 C8.399,5.838 8.832,5.073 9.037,4.283 C9.123,4.039 9.172,3.749 9.169,3.412 L9.168,3.375 L9.168,3.362 L9.169,3.325 C9.171,2.988 9.123,2.698 9.037,2.453 C8.831,1.664 8.399,0.898 7.822,0.505 C7.171,0.948 6.694,1.866 6.533,2.758 C6.496,2.93 6.475,3.118 6.474,3.325 L6.474,3.362 L6.474,3.375 L6.474,3.412 C6.475,3.618 6.496,3.808 6.533,3.979 C6.694,4.871 7.171,5.789 7.822,6.232 L7.822,6.232 Z" id="Shape" stroke-width="0.4997" fill="#FFFFFF"></path>
                        <path d="M7.822,3.077 L7.822,5.737" id="Shape" stroke-width="0.216"></path>
                        <path d="M7.822,5.56 C9.747,6.873 10.992,9.934 11.01,12.44 C11.052,18.246 4.674,18.219 4.633,12.44 C4.616,9.934 5.897,6.872 7.822,5.56 L7.822,5.56 Z" id="Shape" stroke-width="0.4997" fill="#FFFFFF"></path>
                    </g>
                    <path d="M7.822,7.33 C8.038,7.467 8.177,7.786 8.179,8.047 C8.184,8.651 7.47,8.649 7.465,8.047 C7.463,7.786 7.606,7.467 7.822,7.33 L7.822,7.33 Z" id="Shape" fill="#000000"></path>
                    <path d="M9.25,9.071 C9.174,9.463 8.489,10.481 7.537,9.646 C7.433,9.556 7.331,9.466 7.178,9.525 C6.982,9.601 6.896,9.731 6.892,9.864 L6.892,9.865 C6.89,9.926 6.903,9.99 6.93,10.05 L6.93,10.05 C6.958,10.114 7,10.176 7.053,10.227 C7.473,10.632 7.877,10.03 8.355,10.443 C8.577,10.635 8.603,10.86 8.522,11.059 C8.394,11.373 8.207,11.318 7.937,11.491 C7.041,12.088 8.227,12.493 8.445,12.447 L8.454,12.547 C7.879,12.56 7.62,12.427 7.408,12.109 C7.247,11.643 7.488,11.3 7.905,11.137 L7.905,11.137 C8.071,11.072 8.137,10.958 8.111,10.877 C8.052,10.697 7.76,10.778 7.641,10.801 C7.256,10.874 6.936,10.807 6.708,10.587 C6.607,10.489 6.527,10.373 6.474,10.25 L6.474,10.249 C6.419,10.122 6.391,9.985 6.395,9.851 C6.406,9.529 6.587,9.221 7.001,9.062 C7.434,8.896 7.648,9.083 7.865,9.273 C8.385,9.728 8.419,9.093 8.437,9.075 L9.25,9.071 L9.25,9.071 Z" id="Shape" stroke="#000000" stroke-width="0.216" fill="#000000"></path>
                </g>
            </g>
        </g>
    </g>
</svg>