<?xml version="1.0" encoding="UTF-8" standalone="no"?>
<svg width="119px" height="190px" viewBox="0 0 119 190" version="1.1" xmlns="http://www.w3.org/2000/svg" xmlns:xlink="http://www.w3.org/1999/xlink" xmlns:sketch="http://www.bohemiancoding.com/sketch/ns">
    <!-- Generator: Sketch 3.3.1 (12002) - http://www.bohemiancoding.com/sketch -->
    <title>Vessel</title>
    <desc>Created with Sketch.</desc>
    <defs></defs>
    <g id="Page-1" stroke="none" stroke-width="1" fill="none" fill-rule="evenodd" sketch:type="MSPage">
        <g id="Vessel" sketch:type="MSLayerGroup" transform="translate(1.000000, 0.000000)" stroke="#000000">
            <g id="CURTAIN" transform="translate(0.000000, 69.000000)" stroke-width="0.7498" sketch:type="MSShapeGroup">
                <g id="Group" transform="translate(1.000000, 0.000000)">
                    <g id="Shape">
                        <path d="M6.729,15.274 C7.871,16.496 9.188,17.96 8.933,19.858 C8.805,20.812 7.578,21.793 7.145,23.077 C6.73,24.306 6.706,25.661 7.179,27.874 C7.629,29.974 10.105,32.824 12.729,33.574 C15.354,34.324 19.554,34.774 22.179,34.774 C24.804,34.774 30.655,36.049 30.655,36.049 C31.842,30.064 34.008,20.74 29.83,15.424 C28.246,13.409 23.686,9.26 20.718,10.249 C20.207,10.419 18.395,11.334 17.013,11.159 C15.459,10.961 13.736,9.898 12.707,8.757 C9.393,5.077 1.57,9.748 6.729,15.274 L6.729,15.274 Z" fill="#FFFFFF"></path>
                        <path d="M4.704,12.125 C5.845,13.347 7.162,14.811 6.907,16.709 C6.779,17.663 5.553,18.644 5.119,19.928 C4.704,21.157 4.681,22.512 5.154,24.725 C5.603,26.825 8.079,29.675 10.704,30.425 C13.329,31.175 17.528,31.625 20.153,31.625 C22.779,31.625 28.629,32.9 28.629,32.9 C29.817,26.915 31.982,17.591 27.804,12.275 C26.221,10.26 21.661,6.111 18.692,7.1 C18.181,7.27 16.369,8.186 14.987,8.01 C13.433,7.812 11.71,6.749 10.681,5.608 C7.367,1.928 -0.455,6.598 4.704,12.125 L4.704,12.125 Z" fill="#FFFFFF"></path>
                        <path d="M2.979,9.95 C4.121,11.172 5.438,12.636 5.183,14.534 C5.055,15.488 3.828,16.469 3.395,17.753 C2.98,18.982 2.956,20.337 3.429,22.55 C3.879,24.65 6.355,27.5 8.979,28.25 C11.604,29 15.804,29.45 18.429,29.45 C21.054,29.45 26.905,30.725 26.905,30.725 C28.092,24.74 30.258,15.417 26.08,10.1 C24.496,8.084 19.937,3.936 16.968,4.925 C16.457,5.095 14.645,6.01 13.263,5.835 C11.709,5.637 9.986,4.574 8.957,3.433 C5.643,-0.248 -2.18,4.422 2.979,9.95 L2.979,9.95 Z" fill="#FFFFFF"></path>
                        <path d="M16.18,6.311 C15.858,4.38 16.967,3.611 18.917,3.761 C20.867,3.911 22.742,6.311 23.792,8.336 C27.13,14.774 25.827,20.545 25.143,27.536 C24.092,27.578 23.122,27.59 22.217,27.573 C20.375,27.541 15.194,27.033 10.693,25.626 C8.964,25.085 7.337,24.404 6.029,23.628 C4.602,22.78 3.462,21.634 3.003,20.253 C2.181,17.779 3.301,16.881 4.486,16.695 C5.291,16.569 7.029,17.579 8.263,17.242 C9.96,16.779 10.204,14.879 9.612,13.512 C8.406,10.73 6.58,13.292 3.647,11.6 C1.13,10.148 -0.884,6.746 0.906,3.447 C1.912,1.593 3.974,0.759 5.938,1.021 C9.025,1.434 10.027,2.924 10.445,4.528 C10.733,5.639 10.81,7.554 11.469,8.871 C12.113,10.157 13.268,10.527 14.301,10.221 C15.602,9.835 16.501,8.242 16.18,6.311 L16.18,6.311 Z" fill="#FFFFFF"></path>
                        <path d="M25.162,27.334 L25.148,27.477 C24.894,27.603 23.156,27.148 21.193,26.642 C19.717,26.261 18.023,25.732 16.432,25.121 C14.502,24.379 12.92,23.67 11.49,22.25 C10.092,20.862 9.021,19.044 8.772,17.04 C10.002,16.368 10.138,14.729 9.611,13.514 C9.544,13.359 9.474,13.222 9.404,13.099 C9.478,12.936 9.558,12.774 9.646,12.611 C10.176,11.627 11.215,10.614 12.384,9.952 C12.968,10.342 13.657,10.413 14.3,10.223 C14.841,10.062 15.313,9.692 15.656,9.176 C17.807,9.308 19.809,10.57 21.067,12.129 C22.377,13.753 23.02,15.741 23.378,17.675 L25.162,27.334 L25.162,27.334 Z"></path>
                        <path d="M22.822,18.876 L24.203,26.354 C24.241,26.558 22.797,26.18 21.145,25.753 C20.014,25.461 18.714,25.056 17.495,24.587 C16.016,24.018 14.802,23.475 13.705,22.385 C11.877,20.571 10.777,17.802 12.291,14.992 C12.877,13.904 14.274,12.77 15.612,12.462 C17.722,11.976 19.838,13.119 21.05,14.622 C22.055,15.868 22.549,17.393 22.822,18.876 L22.822,18.876 L22.822,18.876 Z M22.017,20.429 L23.567,25.743 C23.567,25.744 17.901,23.819 16.519,22.447 C15.312,21.249 14.061,19.719 15.06,17.864 C15.447,17.145 16.371,16.396 17.254,16.193 C18.649,15.872 20.045,16.627 20.846,17.62 C21.51,18.442 21.738,19.473 22.017,20.429 L22.017,20.429 Z"></path>
                    </g>
                    <g transform="translate(83.000000, 0.000000)" id="Shape">
                        <path d="M25.876,15.274 C24.735,16.496 23.417,17.96 23.673,19.858 C23.801,20.812 25.027,21.793 25.461,23.077 C25.876,24.306 25.899,25.661 25.426,27.874 C24.977,29.974 22.501,32.824 19.876,33.574 C17.251,34.324 13.052,34.774 10.426,34.774 C7.801,34.774 1.951,36.049 1.951,36.049 C0.763,30.064 -1.402,20.74 2.776,15.424 C4.359,13.409 8.919,9.26 11.888,10.249 C12.398,10.419 14.211,11.334 15.592,11.159 C17.147,10.961 18.87,9.898 19.899,8.757 C23.213,5.077 31.035,9.748 25.876,15.274 L25.876,15.274 Z" fill="#FFFFFF"></path>
                        <path d="M27.901,12.125 C26.76,13.347 25.442,14.811 25.697,16.709 C25.826,17.663 27.052,18.644 27.486,19.928 C27.9,21.157 27.924,22.512 27.451,24.725 C27.002,26.825 24.526,29.675 21.901,30.425 C19.276,31.175 15.076,31.625 12.451,31.625 C9.826,31.625 3.976,32.9 3.976,32.9 C2.788,26.915 0.622,17.591 4.8,12.275 C6.384,10.26 10.944,6.111 13.912,7.1 C14.423,7.27 16.235,8.186 17.617,8.01 C19.172,7.812 20.895,6.749 21.924,5.608 C25.238,1.928 33.06,6.598 27.901,12.125 L27.901,12.125 Z" fill="#FFFFFF"></path>
                        <path d="M29.626,9.95 C28.485,11.172 27.167,12.636 27.423,14.534 C27.551,15.488 28.777,16.469 29.211,17.753 C29.626,18.982 29.649,20.337 29.176,22.55 C28.727,24.65 26.251,27.5 23.626,28.25 C21.001,29 16.802,29.45 14.176,29.45 C11.551,29.45 5.701,30.725 5.701,30.725 C4.513,24.74 2.348,15.417 6.526,10.1 C8.109,8.084 12.669,3.936 15.638,4.925 C16.148,5.095 17.961,6.01 19.342,5.835 C20.897,5.637 22.62,4.574 23.649,3.433 C26.963,-0.248 34.785,4.422 29.626,9.95 L29.626,9.95 Z" fill="#FFFFFF"></path>
                        <path d="M16.426,6.311 C16.747,4.38 15.638,3.611 13.689,3.761 C11.739,3.911 9.864,6.311 8.813,8.336 C5.475,14.774 6.779,20.545 7.463,27.536 C8.513,27.578 9.483,27.59 10.389,27.573 C12.23,27.541 17.412,27.033 21.913,25.626 C23.642,25.085 25.269,24.404 26.576,23.628 C28.003,22.78 29.144,21.634 29.603,20.253 C30.424,17.779 29.304,16.881 28.12,16.695 C27.315,16.569 25.576,17.579 24.342,17.242 C22.646,16.779 22.402,14.879 22.994,13.512 C24.2,10.73 26.026,13.292 28.958,11.6 C31.476,10.148 33.49,6.746 31.699,3.447 C30.693,1.593 28.631,0.759 26.668,1.021 C23.581,1.434 22.578,2.924 22.161,4.528 C21.872,5.639 21.796,7.554 21.137,8.871 C20.492,10.157 19.338,10.527 18.305,10.221 C17.004,9.835 16.104,8.242 16.426,6.311 L16.426,6.311 Z" fill="#FFFFFF"></path>
                        <path d="M7.442,27.334 L7.457,27.477 C7.71,27.603 9.448,27.148 11.412,26.642 C12.888,26.261 14.582,25.732 16.172,25.121 C18.103,24.379 19.684,23.67 21.114,22.25 C22.513,20.862 23.584,19.044 23.832,17.04 C22.602,16.368 22.467,14.729 22.994,13.514 C23.06,13.359 23.13,13.222 23.201,13.099 C23.127,12.936 23.046,12.774 22.959,12.611 C22.429,11.627 21.39,10.614 20.221,9.952 C19.637,10.342 18.947,10.413 18.305,10.223 C17.763,10.062 17.291,9.692 16.949,9.176 C14.798,9.308 12.796,10.57 11.538,12.129 C10.227,13.753 9.584,15.741 9.226,17.675 L7.442,27.334 L7.442,27.334 Z"></path>
                        <path d="M9.782,18.876 L8.402,26.354 C8.364,26.558 9.807,26.18 11.459,25.753 C12.591,25.461 13.891,25.056 15.109,24.587 C16.589,24.018 17.802,23.475 18.9,22.385 C20.727,20.571 21.827,17.802 20.314,14.992 C19.728,13.904 18.33,12.77 16.992,12.462 C14.882,11.976 12.767,13.119 11.554,14.622 C10.55,15.868 10.057,17.393 9.782,18.876 L9.782,18.876 L9.782,18.876 Z M10.588,20.429 L9.039,25.743 C9.039,25.744 14.705,23.819 16.087,22.447 C17.293,21.249 18.545,19.719 17.545,17.864 C17.158,17.145 16.235,16.396 15.352,16.193 C13.957,15.872 12.561,16.627 11.76,17.62 C11.096,18.442 10.867,19.473 10.588,20.429 L10.588,20.429 Z"></path>
                    </g>
                </g>
                <g id="Group" transform="translate(0.000000, 45.000000)">
                    <g id="Shape">
                        <path d="M22.844,0.446 C20.073,17.464 12.415,29.828 1.243,38.846 C1.243,38.846 1.611,38.984 2.039,38.718 C3.671,37.705 7.698,35.145 9.718,37.046 C12.268,39.445 12.118,43.196 9.493,44.546 C8.373,45.122 7.04,45.588 5.786,45.717 C2.497,46.057 -1.539,49.548 1.168,52.796 C3.38,55.449 4.926,54.85 7.218,56.11 C9.035,57.109 9.762,61.145 6.268,61.946 C3.956,62.476 1.974,63.033 2.518,65.977 C3.062,68.921 4.092,69.409 3.643,71.209 C3.193,73.009 1.392,74.809 1.392,74.809 C2.542,75.178 4.205,74.773 5.536,74.008 C6.704,73.336 7.444,72.206 8.049,71.076 C8.958,69.377 8.208,68.051 10.843,67.534 C11.509,67.403 14.668,66.934 16.019,65.659 C16.706,65.01 17.353,64.279 17.573,63.492 C18.533,60.062 15.078,59.683 17.069,57.296 C18.675,55.37 24.067,58.292 24.642,53.576 C24.892,51.532 23.758,50.935 22.508,50.66 C20.641,50.247 18.177,50.144 18.343,47.808 C18.651,43.506 23.864,45.08 26.497,46.213 C26.694,46.298 26.997,46.634 27.043,46.458 C29.954,35.287 32.384,21.705 29.894,8.883 C29.893,8.886 22.843,0.335 22.844,0.446 L22.844,0.446 Z"></path>
                        <path d="M18.569,46.725 C18.569,46.725 25.507,34.088 25.957,23.588 C26.407,13.088 26.707,1.088 26.707,1.088"></path>
                        <path d="M9.2,44.733 C7.367,47.777 6.12,53.726 8.407,55.538 C14.521,60.384 17.73,52.28 18.494,48.75"></path>
                        <path d="M9.146,44.729 C7.42,49.705 9.304,54.82 14.903,52.649 C16.452,52.048 17.525,50.3 18.231,48.552"></path>
                        <path d="M24.033,9.254 C24.049,16.783 22.102,24.611 19.407,30.874 C16.279,38.141 12.544,43.391 16.054,45.056 C18.963,46.436 22.805,36.938 23.93,34.152"></path>
                        <path d="M24.907,0.038 C24.907,0.038 24.457,13.389 21.007,22.688 C18.316,29.944 13.888,38.297 11.074,42.971"></path>
                        <path d="M23.106,27.36 C23.006,27.766 15.918,42.533 18.643,39.698 C20.518,37.748 22.769,30.623 23.369,26.198 C23.969,21.773 25.393,4.673 25.393,4.673"></path>
                        <path d="M9.609,36.904 C8.131,40.434 3.737,44.557 1.092,48.324"></path>
                        <path d="M3.005,54.399 C5.845,57.753 5.99,59.495 3.83,62.649"></path>
                        <path d="M21.549,56.424 C19.232,57.393 17.609,59.3 17.742,61.919"></path>
                        <path d="M23.948,45.418 C23.219,47.763 23.26,49.748 23.981,51.343"></path>
                    </g>
                    <g transform="translate(86.000000, 0.000000)" id="Shape">
                        <path d="M8.762,0.446 C11.533,17.464 19.191,29.828 30.362,38.846 C30.362,38.846 29.994,38.984 29.566,38.718 C27.934,37.705 23.908,35.145 21.887,37.046 C19.337,39.445 19.487,43.196 22.112,44.546 C23.232,45.122 24.566,45.588 25.819,45.717 C29.108,46.057 33.145,49.548 30.437,52.796 C28.225,55.449 26.679,54.85 24.387,56.11 C22.571,57.109 21.843,61.145 25.337,61.946 C27.649,62.476 29.632,63.033 29.088,65.977 C28.543,68.921 27.513,69.409 27.963,71.209 C28.413,73.009 30.213,74.809 30.213,74.809 C29.063,75.178 27.4,74.773 26.069,74.008 C24.901,73.336 24.161,72.206 23.556,71.076 C22.648,69.377 23.397,68.051 20.762,67.534 C20.096,67.403 16.937,66.934 15.587,65.659 C14.899,65.01 14.252,64.279 14.032,63.492 C13.072,60.062 16.528,59.683 14.537,57.296 C12.93,55.37 7.538,58.292 6.963,53.576 C6.714,51.532 7.847,50.935 9.097,50.66 C10.965,50.247 13.429,50.144 13.262,47.808 C12.954,43.506 7.741,45.08 5.108,46.213 C4.911,46.298 4.608,46.634 4.562,46.458 C1.652,35.287 -0.779,21.705 1.712,8.883 C1.713,8.886 8.762,0.335 8.762,0.446 L8.762,0.446 Z"></path>
                        <path d="M13.035,46.725 C13.035,46.725 6.097,34.088 5.647,23.588 C5.197,13.088 4.897,1.088 4.897,1.088"></path>
                        <path d="M22.405,44.733 C24.237,47.777 25.484,53.726 23.198,55.538 C17.083,60.384 13.875,52.28 13.11,48.75"></path>
                        <path d="M22.459,44.729 C24.185,49.705 22.301,54.82 16.703,52.649 C15.153,52.048 14.08,50.3 13.374,48.552"></path>
                        <path d="M7.571,9.254 C7.555,16.783 9.502,24.611 12.197,30.874 C15.325,38.141 19.06,43.391 15.551,45.056 C12.641,46.436 8.799,36.938 7.675,34.152"></path>
                        <path d="M6.697,0.038 C6.697,0.038 7.148,13.389 10.597,22.688 C13.289,29.944 17.716,38.297 20.53,42.971"></path>
                        <path d="M8.498,27.36 C8.598,27.766 15.686,42.533 12.961,39.698 C11.086,37.748 8.836,30.623 8.235,26.198 C7.635,21.773 6.211,4.673 6.211,4.673"></path>
                        <path d="M21.995,36.904 C23.474,40.434 27.867,44.557 30.512,48.324"></path>
                        <path d="M28.6,54.399 C25.76,57.753 25.616,59.495 27.775,62.649"></path>
                        <path d="M10.057,56.424 C12.373,57.393 13.996,59.3 13.864,61.919"></path>
                        <path d="M7.656,45.418 C8.385,47.763 8.345,49.748 7.623,51.343"></path>
                    </g>
                </g>
            </g>
            <g id="BODY" transform="translate(13.000000, 87.000000)" stroke-width="0.7498" sketch:type="MSShapeGroup">
                <g id="Group" transform="translate(0.000000, 16.000000)" fill="#FFFFFF">
                    <path d="M8.284,3.449 C11.686,4.763 13.855,7.502 13.126,9.567 C12.397,11.632 9.048,12.241 5.645,10.927 C2.242,9.613 0.074,6.873 0.802,4.808 C1.531,2.743 4.881,2.134 8.284,3.449 L8.284,3.449 Z" id="Shape"></path>
                    <path d="M8.921,1.086 C12.324,2.4 14.492,5.14 13.764,7.205 C13.035,9.27 9.685,9.879 6.282,8.565 C2.88,7.251 0.711,4.511 1.44,2.446 C2.168,0.38 5.518,-0.228 8.921,1.086 L8.921,1.086 Z" id="Shape"></path>
                </g>
                <g id="Group" transform="translate(77.000000, 16.000000)" fill="#FFFFFF">
                    <path d="M6.231,3.449 C2.828,4.763 0.66,7.502 1.388,9.567 C2.117,11.632 5.467,12.241 8.87,10.927 C12.273,9.613 14.441,6.873 13.712,4.808 C12.984,2.743 9.635,2.134 6.231,3.449 L6.231,3.449 Z" id="Shape"></path>
                    <path d="M5.594,1.086 C2.192,2.4 0.023,5.14 0.752,7.205 C1.481,9.27 4.83,9.879 8.233,8.565 C11.636,7.251 13.804,4.511 13.076,2.446 C12.347,0.38 8.997,-0.228 5.594,1.086 L5.594,1.086 Z" id="Shape"></path>
                </g>
                <g id="Group" transform="translate(13.000000, 0.000000)" fill="#FFFFFF">
                    <g id="Shape">
                        <path d="M8.909,8.361 C12.017,8.361 14.553,6.601 14.553,4.443 C14.553,2.284 12.018,0.524 8.909,0.524 C5.8,0.524 3.265,2.284 3.265,4.443 C3.266,6.601 5.801,8.361 8.909,8.361 L8.909,8.361 Z"></path>
                        <path d="M5.909,9.711 C9.017,9.711 11.553,7.951 11.553,5.793 C11.553,3.634 9.018,1.874 5.909,1.874 C2.8,1.874 0.265,3.634 0.265,5.793 C0.266,7.951 2.801,9.711 5.909,9.711 L5.909,9.711 Z"></path>
                    </g>
                    <g transform="translate(49.000000, 0.000000)" id="Shape">
                        <path d="M5.884,8.361 C8.992,8.361 11.528,6.601 11.528,4.443 C11.528,2.284 8.993,0.524 5.884,0.524 C2.775,0.524 0.24,2.284 0.24,4.443 C0.24,6.601 2.775,8.361 5.884,8.361 L5.884,8.361 Z"></path>
                        <path d="M8.884,9.711 C11.992,9.711 14.529,7.951 14.529,5.793 C14.529,3.634 11.993,1.874 8.884,1.874 C5.775,1.874 3.24,3.634 3.24,5.793 C3.24,7.951 5.775,9.711 8.884,9.711 L8.884,9.711 Z"></path>
                    </g>
                </g>
                <path d="M8.894,33.53 C10.546,36.788 14.289,40.727 17.035,42.836 C34.155,55.983 70.23,52.786 81.648,33.53 C84.424,28.847 90.414,18.692 83.638,15.256 C77.722,12.255 30.764,12.638 11.417,14.679 C0.999,15.777 3.806,23.501 8.894,33.53 L8.894,33.53 Z" id="Shape" fill="#FFFFFF"></path>
                <path d="M45.803,8.841 C36.41,4.166 16.131,-2.973 14.419,11.757 C10.659,39.373 80.946,39.372 77.186,11.757 C75.474,-2.973 55.195,4.167 45.803,8.841 L45.803,8.841 Z" id="Shape" fill="#FFFFFF"></path>
                <path d="M88.639,24.859 C88.759,24.368 88.821,23.918 88.832,23.505 C88.769,21.474 87.398,20.461 85.648,20.286 C83.493,20.07 79.612,23.05 75.675,25.667 C67.852,30.867 60.163,35.736 50.839,37.323 C48.457,37.728 43.14,37.728 40.758,37.323 C32.053,35.842 19.832,29.377 12.606,23.138 C10.881,21.978 9.268,20.954 7.925,20.409 C4.483,19.69 2.089,21.462 2.984,24.957 C2.987,24.972 2.995,24.987 2.996,25.002 C3.006,25.201 3.009,25.238 2.996,25.286 C2.99,25.307 2.959,25.263 2.941,25.252 C0.746,23.874 0.253,21.259 0.562,18.85 C0.838,16.701 2.062,15.725 3.675,15.212 C8.961,13.535 12.422,16.856 17.089,19.19 C28.148,24.719 33.02,28.822 45.798,29.244 C58.577,28.822 63.449,24.719 74.508,19.19 C79.188,16.85 82.941,13.342 88.255,15.327 C89.681,15.859 90.753,16.826 91.025,18.774 C91.371,21.259 90.872,23.787 88.759,25.186 C88.45,25.391 88.557,25.206 88.639,24.859 L88.639,24.859 L88.639,24.859 Z M69.809,0.679 C68.989,0.6 69.116,0.587 69.796,0.804 C72.323,1.61 73.777,3.103 73.777,5.784 C73.777,13.656 61.253,20.036 45.802,20.036 C30.351,20.036 17.826,13.655 17.826,5.784 C17.826,3.089 19.296,1.594 21.847,0.791 C22.491,0.589 22.601,0.603 21.836,0.675 C16.281,1.208 12.876,2.867 12.876,7.286 C12.876,16.482 27.618,23.936 45.802,23.936 C63.986,23.936 78.727,16.481 78.727,7.286 C78.728,2.878 75.339,1.215 69.809,0.679 L69.809,0.679 Z" id="Shape" fill="#FFFFFF"></path>
                <g id="Group" transform="translate(0.000000, 3.000000)">
                    <path d="M77.819,0.976 C80.496,0.691 82.621,2.547 84.049,7.108 C88.062,6.785 90.088,8.658 89.725,13.172 C89.305,12.804 88.807,12.533 88.255,12.328 C82.941,10.343 79.188,13.851 74.508,16.191 C63.449,21.72 58.577,25.823 45.798,26.245 C33.02,25.823 28.148,21.72 17.089,16.191 C12.422,13.858 8.961,10.536 3.675,12.213 C2.483,12.591 1.503,13.224 0.962,14.396 C0.074,10.646 2.492,8.19 6.873,8.384 C7.189,3.226 10.191,1.09 14.364,0.271 C13.397,1.252 12.876,2.559 12.876,4.287 C12.876,13.483 27.618,20.937 45.802,20.937 C63.986,20.937 78.727,13.482 78.727,4.287 C78.728,2.943 78.412,1.855 77.819,0.976 L77.819,0.976 Z" id="Shape" fill="#FFFFFF"></path>
                    <path d="M11.396,10.583 C9.967,9.181 8.611,8.666 6.839,8.389" id="Shape"></path>
                    <path d="M79.628,9.271 C81.057,7.87 82.412,7.354 84.184,7.077" id="Shape"></path>
                </g>
            </g>
            <g id="FLOWER" transform="translate(24.000000, 119.000000)" stroke-width="0.7498" sketch:type="MSShapeGroup">
                <g id="Group">
                    <g id="Shape">
                        <path d="M2.143,0.513 C3.181,0.192 4.563,0.729 5.979,1.687 C9.303,3.937 9.604,6.468 10.591,9.245 C11.866,12.829 13.323,14.318 16.334,16.676 C19.28,18.985 25.684,21.973 24.393,21.667 C16.49,19.795 9.795,14.367 4.095,8.814 C2.413,7.176 -2.508,1.95 2.143,0.513 L2.143,0.513 Z" fill="#FFFFFF"></path>
                        <path d="M12.365,3.09 C20.156,1.444 18.808,10.902 23.845,17.945 C25.413,20.162 29.19,22.547 27.948,22.342 C26.041,21.963 23.218,21.353 20.408,19.606 C12.593,14.744 5.122,5.695 12.365,3.09 L12.365,3.09 Z" fill="#FFFFFF"></path>
                        <path d="M27.564,5.041 C29.39,6.58 29.396,7.958 29.708,11.169 C29.043,13.109 33.461,23.284 32.892,22.943 C24.433,23.888 17.318,11.195 20.373,5.498 C21.898,2.655 25.202,2.903 27.564,5.041 L27.564,5.041 Z" fill="#FFFFFF"></path>
                        <path d="M23.566,9.292 C24.801,13.975 26.194,19.935 32.129,23.017"></path>
                        <path d="M14.491,8.092 C17.067,13.504 19.929,18.368 26.565,21.967"></path>
                        <path d="M3.166,4.417 C7.924,10.692 12.747,16.333 20.834,20.506"></path>
                    </g>
                    <g transform="translate(36.000000, 0.000000)" id="Shape">
                        <path d="M31.463,0.513 C30.424,0.192 29.042,0.729 27.627,1.687 C24.303,3.937 24.002,6.468 23.014,9.245 C21.74,12.829 20.282,14.318 17.272,16.676 C14.325,18.985 7.922,21.973 9.212,21.667 C17.116,19.795 23.81,14.367 29.51,8.814 C31.191,7.176 36.113,1.95 31.463,0.513 L31.463,0.513 Z" fill="#FFFFFF"></path>
                        <path d="M21.24,3.09 C13.449,1.444 14.797,10.902 9.759,17.945 C8.192,20.162 4.415,22.547 5.656,22.342 C7.563,21.963 10.387,21.353 13.196,19.606 C21.013,14.744 28.482,5.695 21.24,3.09 L21.24,3.09 Z" fill="#FFFFFF"></path>
                        <path d="M6.041,5.041 C4.215,6.58 4.208,7.958 3.897,11.169 C4.562,13.109 0.144,23.284 0.712,22.943 C9.172,23.888 16.287,11.195 13.231,5.498 C11.707,2.655 8.403,2.903 6.041,5.041 L6.041,5.041 Z" fill="#FFFFFF"></path>
                        <path d="M10.039,9.292 C8.803,13.975 7.41,19.935 1.476,23.017"></path>
                        <path d="M19.114,8.092 C16.538,13.504 13.676,18.368 7.04,21.967"></path>
                        <path d="M30.439,4.417 C25.68,10.692 20.858,16.333 12.771,20.506"></path>
                    </g>
                </g>
                <g id="Group" transform="translate(29.000000, 3.000000)">
                    <path d="M6.061,0.97 C7.973,0.97 11.968,2.276 11.968,9.131 C11.968,15.986 8.348,20.693 6.061,20.693 C3.774,20.693 0.154,15.986 0.154,9.131 C0.154,2.276 4.147,0.97 6.061,0.97 L6.061,0.97 Z" id="Shape" fill="#FFFFFF"></path>
                    <path d="M6.643,6.292 C8.44,9.4 7.873,17.76 5.968,20.692" id="Shape"></path>
                </g>
            </g>
            <g id="BOTTOM" transform="translate(30.000000, 139.000000)" sketch:type="MSShapeGroup">
                <g id="Group" transform="translate(0.000000, 11.000000)">
                    <path d="M28.803,5.165 C44.501,5.165 57.228,7.372 57.228,14.289 C57.228,21.206 44.501,26.247 28.803,26.247 C13.104,26.247 0.377,21.206 0.377,14.289 C0.377,7.372 13.104,5.165 28.803,5.165 L28.803,5.165 Z" id="Shape" stroke-width="0.7498" fill="#FFFFFF"></path>
                    <path d="M28.803,0.815 C44.501,0.815 57.228,3.022 57.228,9.939 C57.228,16.856 44.501,21.897 28.803,21.897 C13.104,21.897 0.377,16.856 0.377,9.939 C0.377,3.022 13.104,0.815 28.803,0.815 L28.803,0.815 Z" id="Shape" stroke-width="0.7498" fill="#FFFFFF"></path>
                    <g transform="translate(3.000000, 2.000000)" id="Shape">
                        <path d="M25.803,0.193 C39.683,0.193 50.936,1.247 50.936,6.022 C50.936,10.797 39.683,14.668 25.803,14.668 C11.922,14.668 0.669,10.797 0.669,6.022 C0.669,1.247 11.922,0.193 25.803,0.193 L25.803,0.193 Z" stroke-width="0.7498" fill="#FFFFFF"></path>
                        <path stroke-width="0.7498" d="M25.803,14.652 L25.803,6.739"></path>
                        <g transform="translate(1.000000, 4.000000)">
                            <path d="M20.52,10.652 C20.52,10.652 20.258,7.133 21.871,3.321" stroke-width="0.7498"></path>
                            <path d="M22.509,9.189 C22.509,9.189 22.49,7.095 23.372,3.62" stroke-width="0.4997"></path>
                            <path d="M18.984,8.684 C18.984,8.684 19.077,6.589 20.142,3.115" stroke-width="0.4997"></path>
                            <path d="M15.966,8.496 C15.966,8.496 16.17,6.401 17.422,2.927" stroke-width="0.4997"></path>
                            <path d="M12.835,8.046 C12.835,8.046 13.152,5.951 14.591,2.477" stroke-width="0.4997"></path>
                            <path d="M9.854,7.278 C9.854,7.278 10.287,5.443 11.917,2.945" stroke-width="0.4997"></path>
                            <path d="M7.397,6.115 C7.397,6.115 8.054,4.094 9.934,1.852" stroke-width="0.4997"></path>
                            <path d="M4.453,4.953 C4.453,4.953 5.345,2.918 7.275,1.586" stroke-width="0.4997"></path>
                            <path d="M2.222,3.171 C2.222,3.171 2.652,2.192 3.56,1.146" stroke-width="0.4997"></path>
                            <path d="M17.351,10.408 C17.351,10.408 17.089,6.889 18.702,3.076" stroke-width="0.7498"></path>
                            <path d="M14.182,9.95 C14.182,9.95 14.078,6.84 15.86,3.471" stroke-width="0.7498"></path>
                            <path d="M11.042,9.26 C11.042,9.26 11.064,6.544 12.985,3.918" stroke-width="0.7498"></path>
                            <path d="M8.257,8.424 C8.257,8.424 8.379,5.659 10.406,3.443" stroke-width="0.7498"></path>
                            <path d="M5.473,7.629 C5.473,7.629 5.959,3.748 8.438,1.644" stroke-width="0.7498"></path>
                            <path d="M2.688,6.12 C2.688,6.12 3.644,1.571 6.317,1.692" stroke-width="0.7498"></path>
                            <path d="M0.25,3.982 C0.25,3.982 0.969,0.882 2.9,0.901" stroke-width="0.7498"></path>
                        </g>
                        <path d="M30.085,14.652 C30.085,14.652 30.348,11.133 28.735,7.321" stroke-width="0.7498"></path>
                        <path d="M28.096,13.189 C28.096,13.189 28.115,11.095 27.234,7.62" stroke-width="0.4997"></path>
                        <path d="M31.621,12.684 C31.621,12.684 31.528,10.589 30.463,7.115" stroke-width="0.4997"></path>
                        <path d="M34.64,12.496 C34.64,12.496 34.435,10.401 33.184,6.927" stroke-width="0.4997"></path>
                        <path d="M37.771,12.046 C37.771,12.046 37.454,9.951 36.014,6.477" stroke-width="0.4997"></path>
                        <path d="M40.752,11.278 C40.752,11.278 40.318,9.443 38.689,6.945" stroke-width="0.4997"></path>
                        <path d="M43.208,10.115 C43.208,10.115 42.487,7.902 40.431,5.449" stroke-width="0.4997"></path>
                        <path d="M46.152,8.953 C46.152,8.953 45.26,6.918 43.33,5.586" stroke-width="0.4997"></path>
                        <path d="M48.384,7.171 C48.384,7.171 47.954,6.192 47.046,5.146" stroke-width="0.4997"></path>
                        <path d="M33.254,14.408 C33.254,14.408 33.517,10.889 31.904,7.076" stroke-width="0.7498"></path>
                        <path d="M36.423,13.95 C36.423,13.95 36.528,10.84 34.746,7.471" stroke-width="0.7498"></path>
                        <path d="M39.563,13.26 C39.563,13.26 39.541,10.544 37.62,7.918" stroke-width="0.7498"></path>
                        <path d="M42.348,12.424 C42.348,12.424 42.227,9.659 40.199,7.443" stroke-width="0.7498"></path>
                        <path d="M45.133,11.629 C45.133,11.629 44.647,7.748 42.168,5.644" stroke-width="0.7498"></path>
                        <path d="M47.917,10.12 C47.917,10.12 46.961,5.571 44.288,5.692" stroke-width="0.7498"></path>
                        <path d="M50.354,7.982 C50.354,7.982 49.636,4.882 47.705,4.901" stroke-width="0.7498"></path>
                    </g>
                </g>
                <g id="Group" transform="translate(4.000000, 3.000000)" stroke-width="0.7498">
                    <g transform="translate(9.000000, 8.000000)" id="Shape" fill="#FFFFFF">
                        <g>
                            <path d="M7.68,0.948 C10.13,1.735 11.043,5.712 10.108,8.626 C9.171,11.539 6.74,12.287 4.29,11.5 C1.841,10.712 0.3,8.689 1.236,5.775 C2.171,2.861 5.23,0.161 7.68,0.948 L7.68,0.948 Z"></path>
                            <path d="M7.59,1.228 C9.021,1.688 9.359,4.616 8.643,6.846 C7.926,9.076 6.426,9.764 4.996,9.304 C3.566,8.844 2.747,7.411 3.463,5.181 C4.179,2.951 6.16,0.768 7.59,1.228 L7.59,1.228 Z"></path>
                        </g>
                        <g transform="translate(19.000000, 0.000000)">
                            <path d="M3.646,0.948 C1.196,1.735 0.283,5.712 1.218,8.626 C2.155,11.539 4.586,12.287 7.036,11.5 C9.485,10.712 11.026,8.689 10.091,5.775 C9.154,2.861 6.095,0.161 3.646,0.948 L3.646,0.948 Z"></path>
                            <path d="M3.735,1.228 C2.304,1.688 1.966,4.616 2.682,6.846 C3.399,9.076 4.899,9.764 6.329,9.304 C7.759,8.844 8.578,7.411 7.862,5.181 C7.146,2.951 5.165,0.768 3.735,1.228 L3.735,1.228 Z"></path>
                        </g>
                    </g>
                    <g id="Shape">
                        <g>
                            <path d="M0.269,12.835 C0.269,12.835 0.549,12.71 0.986,12.647 C6.433,11.859 13.758,2.445 15.372,1.491 C17.403,0.289 17.714,0.757 18.211,2.183 C20.009,7.35 16.275,13.899 9.88,15.446 C7.33,16.063 1.689,15.523 0.269,12.835 L0.269,12.835 Z" fill="#FFFFFF"></path>
                            <path d="M6.858,6.591 C5.431,9.691 5.288,10.774 2.096,10.454 C4.884,13.655 9.797,11.969 11.739,10.222 C15.172,7.134 16.903,2.635 14.502,2.238 C11.44,1.731 8.099,3.9 6.858,6.591 L6.858,6.591 Z" fill="#FFFFFF"></path>
                            <path d="M7.871,8.506 C10.323,8.373 9.773,3.818 15.277,2.45"></path>
                        </g>
                        <g transform="translate(30.000000, 0.000000)">
                            <path d="M19.337,12.835 C19.337,12.835 19.057,12.71 18.619,12.647 C13.173,11.859 5.847,2.445 4.233,1.491 C2.202,0.289 1.891,0.757 1.395,2.183 C-0.404,7.35 3.331,13.899 9.725,15.446 C12.274,16.063 17.916,15.523 19.337,12.835 L19.337,12.835 Z" fill="#FFFFFF"></path>
                            <path d="M12.746,6.591 C14.174,9.691 14.316,10.774 17.509,10.454 C14.721,13.655 9.807,11.969 7.865,10.222 C4.433,7.134 2.702,2.635 5.103,2.238 C8.164,1.731 11.507,3.9 12.746,6.591 L12.746,6.591 Z" fill="#FFFFFF"></path>
                            <path d="M11.734,8.506 C9.281,8.373 9.831,3.818 4.328,2.45"></path>
                        </g>
                    </g>
                </g>
                <g id="Group" transform="translate(21.000000, 4.000000)" stroke-width="0.7498">
                    <path d="M7.803,0.079 C12.069,0.079 15.528,5.893 15.528,10.967 C15.528,16.041 12.069,18.454 7.803,18.454 C3.536,18.454 0.077,16.041 0.077,10.967 C0.077,5.893 3.536,0.079 7.803,0.079 L7.803,0.079 Z" id="Shape" fill="#FFFFFF"></path>
                    <path d="M7.803,0.565 C10.293,0.565 12.313,5.015 12.313,8.899 C12.313,12.783 10.293,14.629 7.803,14.629 C5.312,14.629 3.292,12.783 3.292,8.899 C3.292,5.015 5.312,0.565 7.803,0.565 L7.803,0.565 Z" id="Shape" fill="#FFFFFF"></path>
                    <path id="Shape" d="M7.813,11.591 C7.813,11.591 7.762,10.569 7.792,9.792 C7.869,7.809 8.253,4.526 7.943,2.479"></path>
                    <path d="M5.722,8.459 C5.555,6.756 6.286,3.407 6.912,2.44" id="Shape"></path>
                    <path d="M10.119,8.459 C10.648,6.743 9.725,4.106 8.929,2.478" id="Shape"></path>
                </g>
                <path d="M18.325,6.527 C24.285,7.981 33.968,8.131 39.884,6.29 C42.13,5.59 43.814,4.408 43.91,2.88 C43.982,1.749 43.03,0.888 41.946,1.057 C32.821,3.44 24.239,3.58 15.114,0.963 C11.613,-0.021 10.429,4.601 18.325,6.527 L18.325,6.527 Z" id="Shape" stroke-width="0.7498" fill="#FFFFFF"></path>
            </g>
            <g id="NECK" transform="translate(38.000000, 80.000000)" stroke-width="0.7498" sketch:type="MSShapeGroup">
                <path d="M15.469,24.316 C16.33,24.551 17.342,23.594 17.729,22.177 C18.116,20.761 17.731,19.422 16.87,19.187 C16.009,18.952 14.997,19.909 14.61,21.326 C14.223,22.743 14.607,24.082 15.469,24.316 L15.469,24.316 L15.469,24.316 Z M6.89,21.011 C7.51,21.654 8.869,21.348 9.926,20.329 C10.983,19.31 11.337,17.963 10.717,17.32 C10.097,16.677 8.738,16.983 7.681,18.002 C6.624,19.021 6.27,20.368 6.89,21.011 L6.89,21.011 L6.89,21.011 Z M0.996,15.817 C1.416,16.605 2.807,16.684 4.102,15.993 C5.398,15.303 6.108,14.104 5.688,13.316 C5.267,12.528 3.876,12.449 2.582,13.14 C1.286,13.83 0.576,15.029 0.996,15.817 L0.996,15.817 L0.996,15.817 Z M26.136,24.316 C25.275,24.551 24.263,23.594 23.876,22.177 C23.489,20.761 23.874,19.422 24.735,19.187 C25.597,18.952 26.609,19.909 26.996,21.326 C27.383,22.743 26.997,24.082 26.136,24.316 L26.136,24.316 L26.136,24.316 Z M34.715,21.011 C34.096,21.654 32.736,21.348 31.68,20.329 C30.622,19.31 30.268,17.963 30.888,17.32 C31.508,16.677 32.867,16.983 33.924,18.002 C34.981,19.021 35.335,20.368 34.715,21.011 L34.715,21.011 L34.715,21.011 Z M40.608,15.817 C40.188,16.605 38.797,16.684 37.502,15.993 C36.206,15.303 35.496,14.104 35.917,13.316 C36.337,12.528 37.728,12.449 39.023,13.14 C40.318,13.831 41.028,15.029 40.608,15.817 L40.608,15.817 Z" id="Shape" fill="#FFFFFF"></path>
                <g id="Group" transform="translate(0.000000, 8.000000)">
                    <g id="Shape">
                        <g transform="translate(23.000000, 0.000000)">
                            <path d="M10.251,0.849 C8.379,1.646 8.364,3.431 10.22,4.836 C12.075,6.241 15.098,6.734 16.97,5.937 C18.842,5.14 18.857,3.355 17.001,1.95 C15.145,0.545 12.123,0.052 10.251,0.849 L10.251,0.849 Z" fill="#FFFFFF"></path>
                            <path d="M8.358,4.578 C6.136,5.143 5.456,7.032 6.837,8.797 C8.22,10.562 11.142,11.535 13.363,10.97 C15.586,10.405 16.266,8.516 14.884,6.751 C13.502,4.986 10.58,4.013 8.358,4.578 L8.358,4.578 Z" fill="#FFFFFF"></path>
                            <path d="M2.876,7.156 C0.58,7.254 -0.511,9.035 0.44,11.135 C1.392,13.235 4.026,14.858 6.323,14.76 C8.62,14.663 9.71,12.882 8.759,10.781 C7.807,8.682 5.173,7.059 2.876,7.156 L2.876,7.156 Z" fill="#FFFFFF"></path>
                            <path d="M5.217,11.865 C5.325,9.63 3.14,7.439 1.39,7.789"></path>
                            <path d="M12.153,8.584 C11.445,6.063 8.16,5.096 6.625,5.661"></path>
                            <path d="M14.965,3.754 C14.402,2.561 10.219,1.382 8.842,2.525"></path>
                        </g>
                        <g>
                            <path d="M8.354,0.849 C10.227,1.646 10.241,3.431 8.385,4.836 C6.53,6.241 3.508,6.734 1.635,5.937 C-0.237,5.14 -0.251,3.355 1.604,1.95 C3.46,0.544 6.481,0.052 8.354,0.849 L8.354,0.849 Z" fill="#FFFFFF"></path>
                            <path d="M10.246,4.578 C12.469,5.143 13.148,7.032 11.767,8.797 C10.384,10.562 7.462,11.535 5.241,10.97 C3.02,10.405 2.339,8.516 3.72,6.751 C5.103,4.985 8.024,4.013 10.246,4.578 L10.246,4.578 Z" fill="#FFFFFF"></path>
                            <path d="M15.729,7.156 C18.026,7.254 19.116,9.035 18.165,11.135 C17.213,13.235 14.579,14.858 12.282,14.76 C9.986,14.663 8.895,12.882 9.846,10.781 C10.798,8.682 13.432,7.059 15.729,7.156 L15.729,7.156 Z" fill="#FFFFFF"></path>
                            <path d="M13.388,11.865 C13.28,9.63 15.465,7.439 17.215,7.789"></path>
                            <path d="M6.451,8.584 C7.159,6.063 10.444,5.096 11.979,5.661"></path>
                            <path d="M3.641,3.754 C4.203,2.561 8.386,1.382 9.763,2.525"></path>
                        </g>
                    </g>
                    <path d="M21.139,16.93 C23.332,16.93 25.12,15.052 25.12,12.749 C25.12,10.446 23.332,8.568 21.139,8.568 C18.947,8.568 17.159,10.446 17.159,12.749 C17.159,15.052 18.946,16.93 21.139,16.93 L21.139,16.93 Z" id="Shape" fill="#FFFFFF"></path>
                    <path d="M20.821,13.518 C19.822,12.167 21.077,8.33 21.63,8.643" id="Shape"></path>
                </g>
                <path d="M10.806,0.226 C10.806,0.226 10.806,6.563 10.356,7.464 C9.293,9.59 8.849,6.057 8.931,11.289 C8.975,14.147 15.236,17.549 21.315,17.496 C27.052,17.445 32.631,14.104 32.675,11.289 C32.757,6.058 32.314,9.59 31.25,7.464 C30.8,6.564 30.8,0.226 30.8,0.226 C30.388,0.087 11.217,0.087 10.806,0.226 L10.806,0.226 Z" id="Shape" fill="#FFFFFF"></path>
                <path d="M31.598,7.817 L31.752,7.671 C31.972,7.461 32.874,7.534 33.01,8.234 L33.016,8.266 L33.017,8.268 L33.022,8.302 L33.022,8.304 L33.025,8.341 L33.027,8.38 L33.028,8.421 L33.028,10.221 L33.028,10.652 C33.028,14.35 26.92,17.675 20.824,17.636 L20.782,17.636 C14.687,17.676 8.578,14.35 8.578,10.652 L8.578,10.221 L8.578,8.421 L8.579,8.38 L8.581,8.341 L8.585,8.304 L8.585,8.302 L8.59,8.268 L8.59,8.266 L8.596,8.234 C8.733,7.533 9.634,7.46 9.854,7.671 L10.008,7.817 C11.238,11.122 15.606,13.566 20.804,13.566 C26.002,13.566 30.367,11.123 31.598,7.817 L31.598,7.817 Z" id="Shape" fill="#FFFFFF"></path>
            </g>
            <g id="HEAD" transform="translate(27.000000, 53.000000)" stroke-width="0.7498" sketch:type="MSShapeGroup">
                <g id="Group" transform="translate(0.000000, 1.000000)">
                    <g transform="translate(0.000000, 5.000000)" id="Shape" fill="#FFFFFF">
                        <path d="M31.803,22.989 C49.292,22.989 63.558,18.289 63.558,12.526 C63.558,6.764 49.292,2.064 31.803,2.064 C14.313,2.064 0.047,6.764 0.047,12.526 C0.047,18.289 14.313,22.989 31.803,22.989 L31.803,22.989 Z"></path>
                        <path d="M31.803,20.289 C48.301,20.289 61.758,15.808 61.758,10.314 C61.758,4.82 48.301,0.338 31.803,0.338 C15.304,0.338 1.848,4.819 1.848,10.314 C1.848,15.809 15.304,20.289 31.803,20.289 L31.803,20.289 Z"></path>
                    </g>
                    <path d="M12.395,15.193 C13.482,15.653 13.801,17.355 13.108,18.996 C12.415,20.637 10.971,21.594 9.884,21.134 C8.796,20.675 8.477,18.972 9.17,17.332 C9.863,15.692 11.307,14.734 12.395,15.193 L12.395,15.193 L12.395,15.193 Z M24.946,17.195 C26.54,17.267 27.712,18.767 27.563,20.545 C27.414,22.323 26.003,23.705 24.409,23.632 C22.815,23.559 21.644,22.06 21.792,20.281 C21.94,18.505 23.353,17.122 24.946,17.195 L24.946,17.195 L24.946,17.195 Z M51.211,15.193 C50.124,15.652 49.804,17.355 50.497,18.996 C51.19,20.637 52.634,21.594 53.722,21.135 C54.809,20.676 55.128,18.973 54.435,17.332 C53.742,15.691 52.298,14.734 51.211,15.193 L51.211,15.193 L51.211,15.193 Z M38.658,17.195 C37.064,17.267 35.893,18.767 36.041,20.545 C36.189,22.323 37.602,23.705 39.195,23.632 C40.788,23.559 41.961,22.059 41.812,20.281 C41.664,18.505 40.252,17.122 38.658,17.195 L38.658,17.195 Z" id="Shape" fill="#FFFFFF"></path>
                    <g transform="translate(2.000000, 8.000000)" id="Shape">
                        <g transform="translate(22.000000, 1.000000)">
                            <path d="M7.927,15.125 C11.913,15.125 15.165,11.857 15.165,7.85 C15.165,3.843 11.913,0.575 7.927,0.575 C3.941,0.575 0.69,3.843 0.69,7.85 C0.689,11.857 3.94,15.125 7.927,15.125 L7.927,15.125 Z" fill="#FFFFFF"></path>
                            <path d="M7.927,12.351 C8.216,9.795 8.239,7.106 7.927,4.25 M2.813,9.47 C3.228,6.566 4.216,5.253 5.032,4.25 M5.138,11.659 C5.059,9.284 5.483,6.909 6.404,4.534 M10.716,11.659 C11.008,9.239 10.759,6.854 9.45,4.534 M12.778,9.582 C12.931,7.46 12.07,5.772 10.822,4.25"></path>
                        </g>
                        <g>
                            <g>
                                <path d="M11.637,0.731 C14.04,2.173 13.912,5.335 11.351,7.793 C8.79,10.251 4.765,11.074 2.361,9.631 C-0.042,8.189 0.086,5.027 2.647,2.569 C5.208,0.111 9.232,-0.711 11.637,0.731 L11.637,0.731 Z" fill="#FFFFFF"></path>
                                <path d="M19.603,3.084 C22.806,4.263 24.166,7.788 22.642,10.957 C21.117,14.125 17.284,15.738 14.08,14.56 C10.877,13.381 9.517,9.856 11.041,6.687 C12.566,3.518 16.399,1.905 19.603,3.084 L19.603,3.084 Z" fill="#FFFFFF"></path>
                                <path d="M15.283,12.521 C15.36,10.31 16.122,8.707 18.208,5.982 M12.128,8.59 C13.563,6.422 14.854,5.678 15.888,5.128 M13.161,11.003 C13.999,9.106 15.239,7.358 16.879,5.756 M17.631,12.648 C17.423,10.575 18.274,8.019 19.808,6.43 M20.071,11.619 C20.577,9.37 20.182,9.32 21.69,6.837"></path>
                                <path d="M4.469,8.007 C5.377,6.154 6.458,4.853 9.35,2.848 M2.891,4.327 C5.048,2.018 7.292,1.172 8.378,1.372 M2.894,6.505 C4.212,4.654 6.446,2.819 8.666,2.078 M6.566,8.612 C7.169,6.683 8.71,4.483 10.679,3.506 M8.812,7.992 C9.31,6.637 10.14,5.301 11.638,4.224"></path>
                            </g>
                            <g transform="translate(36.000000, 0.000000)">
                                <path d="M11.969,0.731 C9.566,2.173 9.694,5.335 12.254,7.793 C14.816,10.251 18.841,11.074 21.244,9.631 C23.647,8.189 23.519,5.027 20.959,2.569 C18.397,0.112 14.372,-0.711 11.969,0.731 L11.969,0.731 Z" fill="#FFFFFF"></path>
                                <path d="M4.003,3.084 C0.8,4.263 -0.561,7.788 0.964,10.957 C2.488,14.125 6.321,15.738 9.525,14.56 C12.728,13.381 14.088,9.856 12.564,6.687 C11.04,3.518 7.206,1.905 4.003,3.084 L4.003,3.084 Z" fill="#FFFFFF"></path>
                                <path d="M8.321,12.521 C8.244,10.31 7.483,8.707 5.397,5.982 M11.477,8.59 C10.042,6.422 8.751,5.678 7.718,5.128 M10.444,11.003 C9.605,9.106 8.365,7.358 6.725,5.756 M5.974,12.648 C6.182,10.575 5.331,8.019 3.797,6.43 M3.533,11.619 C3.027,9.37 3.422,9.32 1.915,6.837"></path>
                                <path d="M19.136,8.007 C18.228,6.154 17.147,4.853 14.255,2.848 M20.714,4.327 C18.557,2.018 16.314,1.172 15.227,1.372 M20.711,6.505 C19.393,4.654 17.159,2.819 14.94,2.078 M17.039,8.612 C16.436,6.683 14.894,4.483 12.925,3.506 M14.793,7.992 C14.295,6.637 13.465,5.301 11.967,4.224"></path>
                            </g>
                        </g>
                    </g>
                    <g transform="translate(9.000000, 0.000000)" id="Shape" fill="#FFFFFF">
                        <path d="M23.04,15.408 C35.309,15.408 45.315,12.09 45.315,8.021 C45.315,3.952 35.308,0.633 23.04,0.633 C10.772,0.633 0.765,3.952 0.765,8.021 C0.765,12.09 10.771,15.408 23.04,15.408 L23.04,15.408 Z"></path>
                        <path d="M23.04,12.258 C33.863,12.258 42.69,9.647 42.69,6.446 C42.69,3.244 33.863,0.633 23.04,0.633 C12.217,0.633 3.39,3.244 3.39,6.446 C3.39,9.647 12.217,12.258 23.04,12.258 L23.04,12.258 Z"></path>
                    </g>
                    <path d="M27.845,2.987 C29.133,3.195 29.899,5.087 29.555,7.214 C29.212,9.34 27.89,10.895 26.602,10.687 C25.313,10.479 24.547,8.587 24.891,6.46 C25.235,4.333 26.557,2.779 27.845,2.987 L27.845,2.987 L27.845,2.987 Z M21.819,4.468 C22.546,5.262 22.073,6.878 20.762,8.078 C19.451,9.278 17.8,9.608 17.074,8.814 C16.346,8.02 16.82,6.404 18.13,5.204 C19.44,4.003 21.092,3.674 21.819,4.468 L21.819,4.468 L21.819,4.468 Z M16.487,3.657 C16.231,3.057 15.221,2.914 14.231,3.336 C13.242,3.758 12.647,4.586 12.902,5.187 C13.158,5.787 14.168,5.931 15.158,5.508 C16.148,5.085 16.743,4.257 16.487,3.657 L16.487,3.657 L16.487,3.657 Z M36.235,2.987 C34.947,3.195 34.181,5.087 34.525,7.214 C34.868,9.34 36.191,10.895 37.479,10.687 C38.767,10.479 39.533,8.587 39.189,6.46 C38.845,4.333 37.523,2.779 36.235,2.987 L36.235,2.987 L36.235,2.987 Z M42.261,4.468 C41.534,5.262 42.007,6.878 43.318,8.078 C44.629,9.278 46.28,9.608 47.006,8.814 C47.734,8.02 47.261,6.404 45.95,5.204 C44.64,4.003 42.988,3.674 42.261,4.468 L42.261,4.468 L42.261,4.468 Z M47.593,3.657 C47.849,3.057 48.859,2.914 49.849,3.336 C50.839,3.758 51.434,4.586 51.178,5.187 C50.922,5.787 49.912,5.931 48.922,5.508 C47.932,5.085 47.337,4.257 47.593,3.657 L47.593,3.657 Z" id="Shape" fill="#FFFFFF"></path>
                </g>
                <g id="Group" transform="translate(14.000000, 0.000000)">
                    <g transform="translate(20.000000, 0.000000)" id="Shape">
                        <path d="M5.58,0.804 C4.569,1.934 5.618,2.571 6.858,3.651 C7.528,4.235 8.188,5.168 8.674,6.029 C10.04,8.449 13.124,8.624 14.404,7.246 C17.872,3.516 7.137,-0.938 5.58,0.804 L5.58,0.804 Z" fill="#FFFFFF"></path>
                        <path d="M0.874,1.232 C-0.443,2.227 0.543,3.128 1.64,4.545 C2.234,5.311 2.743,6.447 3.081,7.471 C4.031,10.346 7.291,11.183 8.95,9.98 C13.442,6.723 2.905,-0.302 0.874,1.232 L0.874,1.232 Z" fill="#FFFFFF"></path>
                        <path d="M12.225,5.1 C10.165,2.654 8.416,1.828 5.55,0.862"></path>
                        <path d="M6.826,7.8 C5.772,4.78 4.394,4.511 2.06,2.588"></path>
                    </g>
                    <g>
                        <g id="Shape">
                            <path d="M10.5,0.804 C11.51,1.934 10.461,2.571 9.222,3.651 C8.552,4.235 7.892,5.168 7.405,6.029 C6.039,8.449 2.956,8.624 1.676,7.246 C-1.792,3.516 8.943,-0.938 10.5,0.804 L10.5,0.804 Z" fill="#FFFFFF"></path>
                            <path d="M15.206,1.232 C16.523,2.227 15.537,3.128 14.439,4.545 C13.846,5.311 13.336,6.447 12.999,7.471 C12.048,10.346 8.789,11.183 7.13,9.98 C2.637,6.723 13.174,-0.302 15.206,1.232 L15.206,1.232 Z" fill="#FFFFFF"></path>
                            <path d="M3.855,5.1 C5.915,2.654 7.664,1.828 10.53,0.862"></path>
                            <path d="M9.254,7.8 C10.307,4.78 11.685,4.511 14.02,2.588"></path>
                        </g>
                        <ellipse id="Oval" fill="#FFFFFF" cx="18.143" cy="6.225" rx="4.125" ry="5.25"></ellipse>
                        <path d="M18.21,9 C17.143,5.876 18.058,4.924 18.688,2.063" id="Shape"></path>
                    </g>
                </g>
            </g>
            <g id="TOP" transform="translate(44.000000, 0.000000)" sketch:type="MSShapeGroup">
                <path d="M15.04,56.69 C20.059,56.69 24.152,55.089 24.152,53.127 C24.152,51.165 20.058,49.564 15.04,49.564 C10.02,49.564 5.928,51.165 5.928,53.127 C5.928,55.09 10.021,56.69 15.04,56.69 L15.04,56.69 Z" id="Shape" stroke-width="0.7498" fill="#FFFFFF"></path>
                <path d="M15.04,52.774 C19.067,52.774 22.353,51.059 22.353,48.957 C22.353,46.854 19.068,45.14 15.04,45.14 C11.012,45.14 7.727,46.855 7.727,48.957 C7.728,51.06 11.012,52.774 15.04,52.774 L15.04,52.774 Z" id="Shape" stroke-width="0.7498" fill="#FFFFFF"></path>
                <path d="M15.04,48.215 C18.304,48.215 20.966,46.578 20.966,44.569 C20.966,42.561 18.304,40.923 15.04,40.923 C11.775,40.923 9.114,42.561 9.114,44.569 C9.114,46.578 11.775,48.215 15.04,48.215 L15.04,48.215 Z" id="Shape" stroke-width="0.7498" fill="#FFFFFF"></path>
                <g id="Group">
                    <path d="M4.443,37.484 C0.413,35.171 0.173,32.136 2.194,28.671 C0.025,25.47 0.487,22.509 2.718,19.708 C1.658,26.891 7.521,26.62 5.775,19.52 C4.891,17.19 4.275,14.119 7.389,13.565 C8.143,13.431 8.561,12.686 8.512,10.989 C8.4,9.446 9.274,8.1 10.462,6.807 C10.162,8.514 11.606,9.451 11.249,11.026 C10.388,13.805 13.513,14.519 13.633,10.871 C13.674,9.627 12.783,8.579 12.713,7.196 C12.668,6.315 12.935,5.466 13.724,4.67 C14.914,3.4 14.847,2.065 14.136,0.694 C14.906,1.018 15.606,1.477 15.994,2.56 C16.804,4.816 15.919,5.091 15.771,6.631 C15.496,9.507 18.185,8.711 19.69,9.298 C21.614,10.048 22.443,11.581 21.66,13.956 C21.259,15.171 20.446,16.801 20.553,18.129 C20.738,20.421 24.059,20.549 23.68,17.066 C23.559,15.963 23.917,15.103 24.862,14.53 C25.029,15.96 25.595,17.213 26.662,18.243 C30.07,21.82 26.418,24.671 25.888,27.666 C25.596,29.316 26.212,30.347 27.638,30.394 C27.369,28.994 28.46,28.794 28.688,27.769 C29.732,29.809 29.584,32.831 27,33.769 C27.767,37.422 26.334,39.424 22.65,39.826 C20.576,43.71 18.347,44.742 15.974,43.126 C12.976,44.589 10.709,44.276 9.112,42.339 C9.52,41.603 10.265,41.1 11.474,40.914 C16.693,40.174 19.359,38.368 21.224,36.226 C25.996,28.788 21.148,22.97 14.587,17.438 C10.975,21.351 1.587,28.525 8.587,36.263 C9.675,37.098 10.762,37.284 11.85,36.919 C13.573,36.24 13.509,35.479 11.981,34.65 C10.288,34.669 9.888,33.906 10.594,32.475 C11.795,31.608 13.186,31.468 14.738,31.95 C16.634,32.728 17.9,34.034 17.343,36.863 C17.09,38.333 16.584,39.269 15.881,39.788 C15.239,40.038 14.405,40.368 13.578,40.536 C11.698,40.917 9.731,41.09 9.288,42.051 C9.118,42.426 4.229,42.849 4.443,37.484 L4.443,37.484 Z" id="Shape" stroke-width="0.7498" fill="#FFFFFF"></path>
                    <path d="M14.693,5.345 C14.193,9.945 18.13,12.213 15.106,17.795" id="Shape" stroke-width="0.4997"></path>
                    <path d="M14.974,11.565 C14.8,13.339 15.544,15.187 14.131,17.794" id="Shape" stroke-width="0.4997"></path>
                    <path d="M13.536,15.512 C13.533,16.546 13.809,17.67 13.081,19.013" id="Shape" stroke-width="0.4997"></path>
                    <path id="Shape" stroke-width="0.4997" d="M12.486,16.394 C12.483,17.428 12.197,18.852 12.031,19.895"></path>
                    <path id="Shape" stroke-width="0.4997" d="M11.062,17.05 C10.964,18.515 11.354,19.733 11.188,20.777"></path>
                    <path d="M9.864,16.094 C9.875,18.238 10.57,20.018 10.436,21.546" id="Shape" stroke-width="0.4997"></path>
                    <path d="M9.336,13.468 C7.358,18.128 9.624,20.584 9.592,22.595" id="Shape" stroke-width="0.4997"></path>
                    <path d="M7.69,16.383 C6.719,20.087 8.495,22.219 8.466,24.001" id="Shape" stroke-width="0.4997"></path>
                    <path id="Shape" stroke-width="0.4997" d="M6.364,25.144 C6.575,25.825 6.751,26.432 6.742,27.001"></path>
                    <path d="M5.277,25.763 C5.393,26.856 6.188,27.876 6.179,28.446" id="Shape" stroke-width="0.4997"></path>
                    <path d="M3.921,26.016 C4.192,28.28 5.724,29.577 5.886,30.124" id="Shape" stroke-width="0.4997"></path>
                    <path d="M3.227,27.516 C3.498,29.78 6.249,32.427 6.412,32.973" id="Shape" stroke-width="0.4997"></path>
                    <path d="M3.4,31.598 C4.789,33.12 7.119,34.268 7.385,34.647" id="Shape" stroke-width="0.4997"></path>
                    <path d="M3.794,33.624 C5.183,35.146 6.706,35.676 7.967,35.585" id="Shape" stroke-width="0.4997"></path>
                    <path id="Shape" stroke-width="0.4997" d="M5.168,36.359 C6.548,36.963 7.896,36.776 8.866,36.424"></path>
                    <path d="M5.961,37.993 C7.468,37.982 8.696,37.579 9.44,36.862" id="Shape" stroke-width="0.4997"></path>
                    <path d="M6.242,39.475 C7.749,39.463 9.52,37.917 10.263,37.2" id="Shape" stroke-width="0.4997"></path>
                    <path d="M8.417,40.13 C9.924,40.119 10.721,38.047 11.239,37.199" id="Shape" stroke-width="0.4997"></path>
                    <path d="M11.179,39.583 C11.845,38.762 12.013,37.454 12.24,36.77" id="Shape" stroke-width="0.4997"></path>
                    <path id="Shape" stroke-width="0.4997" d="M13,38.857 C12.985,37.995 12.7,37.134 12.618,36.587"></path>
                    <path d="M14.371,37.95 C13.924,37.212 13.244,36.613 12.897,36.181" id="Shape" stroke-width="0.4997"></path>
                    <path d="M15.316,36.501 C14.558,36.089 13.669,35.915 13.152,35.717" id="Shape" stroke-width="0.4997"></path>
                    <path id="Shape" stroke-width="0.4997" d="M15.161,34.815 C14.299,34.841 13.442,35.138 12.896,35.229"></path>
                    <path d="M13.636,33.694 C13.132,34.102 12.712,34.565 12.387,34.834" id="Shape" stroke-width="0.4997"></path>
                    <path d="M12.192,33.395 C11.687,33.803 11.605,34.209 11.28,34.478" id="Shape" stroke-width="0.4997"></path>
                    <path d="M17.355,11.345 C17.625,13.376 17.79,15.681 16.137,18.733" id="Shape" stroke-width="0.4997"></path>
                    <path d="M18.987,12.227 C19.257,14.258 18.765,16.863 17.056,19.427" id="Shape" stroke-width="0.4997"></path>
                    <path d="M19.107,18.549 C18.829,19.169 18.485,19.796 18.068,20.42" id="Shape" stroke-width="0.4997"></path>
                    <path d="M19.876,19.505 C19.598,20.125 19.254,20.752 18.838,21.376" id="Shape" stroke-width="0.4997"></path>
                    <path d="M20.645,20.462 C20.367,21.082 20.023,21.709 19.607,22.333" id="Shape" stroke-width="0.4997"></path>
                    <path d="M21.601,21.118 C21.323,21.738 20.791,22.665 20.375,23.289" id="Shape" stroke-width="0.4997"></path>
                    <path d="M22.933,20.593 C22.467,22.375 21.523,23.658 21.107,24.282" id="Shape" stroke-width="0.4997"></path>
                    <path d="M24.32,19.187 C24.116,22.244 22.722,24.409 21.893,25.258" id="Shape" stroke-width="0.4997"></path>
                    <path d="M25.501,18.362 C25.747,22.526 23.341,25.666 22.513,26.514" id="Shape" stroke-width="0.4997"></path>
                    <path d="M26.159,22.243 C25.519,25.583 23.929,26.713 22.906,28.071" id="Shape" stroke-width="0.4997"></path>
                    <path d="M25.938,26.479 C25.17,28.222 23.987,28.695 23.168,29.458" id="Shape" stroke-width="0.4997"></path>
                    <path d="M25.641,28.717 C24.888,29.914 23.888,30.254 23.169,30.846" id="Shape" stroke-width="0.4997"></path>
                    <path d="M25.734,30.254 C24.981,31.452 23.887,31.454 23.169,32.046" id="Shape" stroke-width="0.4997"></path>
                    <path d="M25.865,31.717 C25.113,32.915 23.606,33.104 22.756,33.396" id="Shape" stroke-width="0.4997"></path>
                    <path d="M27.215,32.129 C25.694,34.002 23.156,34.884 22.306,34.708" id="Shape" stroke-width="0.4997"></path>
                    <path d="M25.725,34.873 C24.253,35.82 22.437,36.035 21.744,35.758" id="Shape" stroke-width="0.4997"></path>
                    <path id="Shape" stroke-width="0.4997" d="M25.181,36.532 C23.709,37.205 21.893,37.082 21.201,36.678"></path>
                    <path id="Shape" stroke-width="0.4997" d="M25.087,37.675 C23.615,38.349 20.993,37.963 20.3,37.558"></path>
                    <path d="M22.157,39.113 C20.942,38.947 19.711,38.513 19.268,38.196" id="Shape" stroke-width="0.4997"></path>
                    <path d="M20.863,40.237 C19.648,40.072 18.736,39.15 18.294,38.833" id="Shape" stroke-width="0.4997"></path>
                    <path d="M20.15,41.531 C18.935,41.366 17.78,39.863 17.337,39.546" id="Shape" stroke-width="0.4997"></path>
                    <path d="M18.669,42.225 C17.886,41.966 16.674,40.669 16.212,39.977" id="Shape" stroke-width="0.4997"></path>
                    <path d="M16.708,42.085 C16.057,41.571 15.371,40.795 15.05,40.314" id="Shape" stroke-width="0.4997"></path>
                    <path d="M15.291,42.085 C14.773,41.571 14.29,40.795 14.093,40.314" id="Shape" stroke-width="0.4997"></path>
                    <path d="M13.809,42.085 C13.444,41.571 13.191,40.795 13.137,40.314" id="Shape" stroke-width="0.4997"></path>
                    <path id="Shape" stroke-width="0.4997" d="M12.372,42.479 C12.212,41.965 12.267,41.189 12.405,40.708"></path>
                    <path d="M10.958,41.991 C11.181,41.668 11.441,41.159 11.674,40.914" id="Shape" stroke-width="0.4997"></path>
                    <path d="M2.781,20.276 C3.641,24.833 6.728,21.26 5.444,18.664" id="Shape" stroke-width="0.7498"></path>
                    <path d="M23.726,16.115 C22.922,18.926 20.039,16.722 21.239,15.121" id="Shape" stroke-width="0.7498"></path>
                    <path d="M13.601,11.465 C13.455,18.644 8.414,14.997 11.151,11.483" id="Shape" stroke-width="0.7498"></path>
                    <path d="M11.031,25.79 C13.681,27.269 16.331,27.511 18.981,25.79" id="Shape" stroke-width="0.4997"></path>
                    <path d="M11.969,23.71 C13.994,24.829 16.019,24.991 18.044,23.71" id="Shape" stroke-width="0.4997"></path>
                    <path id="Shape" stroke-width="0.4997" d="M13.132,22.158 C14.381,22.755 15.631,22.841 16.881,22.158"></path>
                </g>
            </g>
        </g>
    </g>
</svg>