<?xml version="1.0" encoding="UTF-8" standalone="no"?>
<svg width="126px" height="188px" viewBox="0 0 126 188" version="1.1" xmlns="http://www.w3.org/2000/svg" xmlns:xlink="http://www.w3.org/1999/xlink" xmlns:sketch="http://www.bohemiancoding.com/sketch/ns">
    <!-- Generator: Sketch 3.3.1 (12002) - http://www.bohemiancoding.com/sketch -->
    <title>Wheel</title>
    <desc>Created with Sketch.</desc>
    <defs></defs>
    <g id="Page-1" stroke="none" stroke-width="1" fill="none" fill-rule="evenodd" sketch:type="MSPage">
        <g id="Wheel" sketch:type="MSLayerGroup" stroke="#000000">
            <g id="Curtain" transform="translate(0.000000, 104.000000)" stroke-width="0.7498" sketch:type="MSShapeGroup">
                <g id="Group">
                    <path d="M14.486,60.443 C20.237,61.81 12.636,70.994 9.01,72.068 C4.96,73.268 4.285,76.156 3.835,77.693 C3.386,79.23 5.635,79.718 15.686,74.543 C25.736,69.368 22.098,79.081 25.173,75.818 C47.477,52.153 52.568,51.509 53.191,17.822 C53.348,9.27 52.517,0.218 48.161,0.218 C46.211,0.218 41.695,1.418 41.711,2.918 C41.861,17.617 43.361,30.691 34.379,44.799 C25.281,59.086 14.349,60.41 14.486,60.443 L14.486,60.443 Z" id="Shape" fill="#FFFFFF"></path>
                    <path d="M51.835,22.624 C51.01,38.074 50.635,42.274 48.234,47.749 C47.245,50.007 49.667,45.27 50.677,34.761 C51.449,26.719 51.116,13.526 49.472,8.112 C48.924,6.309 48.47,5.138 48.118,4.381 C48.056,4.249 46.255,1.131 47.972,1.775 C51.887,3.242 51.985,19.797 51.835,22.624 L51.835,22.624 Z" id="Shape"></path>
                    <path d="M0.549,82.649 C0.539,81.51 0.659,79.342 1.627,78.213 C2.977,76.639 6.276,77.088 7.777,76.113 C9.277,75.137 9.352,72.812 9.502,71.312 C9.652,69.813 10.385,67.235 12.952,67.788 C19.497,69.197 26.294,60.644 15.952,61.713 C12.732,62.046 12.027,58.372 14.785,55.715 C16.666,53.902 19.454,52.927 20.601,52.338 C47.038,38.781 40.856,-0.113 38.301,0.738 C38.301,0.738 44.227,-1.211 46.326,7.339 C49.317,19.516 53.638,55.573 41.938,63.101 C35.901,66.986 32.864,62.531 29.359,64.998 C24.658,68.31 29.768,80.21 21.05,76.563 C18.049,75.308 16.666,77.841 14.759,79.819 C13.21,81.425 11.315,82.666 7.925,81.214 C3.961,79.515 3.66,80.758 1.034,82.986 C0.446,83.487 0.557,83.601 0.549,82.649 L0.549,82.649 Z" id="Shape" fill="#FFFFFF"></path>
                    <path d="M27.675,67.4 C26.816,67.629 26.012,67.6 25.295,67.272 C22.485,65.989 22.444,62.772 24.845,60.522 C53.31,33.839 42.043,2.819 42.095,2.922 C42.095,2.922 46.895,15.821 45.995,26.922 C45.727,30.226 45.786,33.493 45.384,36.726 C44.143,46.68 38.082,58.553 32.424,64.219" id="Shape"></path>
                    <path d="M35.382,55.142 C33.865,57.027 32.077,57.852 30.979,58.877 C26.353,63.195 28.184,64.038 31.145,60.654 C43.125,46.961 47.986,23.855 43.22,6.579 C40.82,-2.121 41.72,1.478 41.72,1.478" id="Shape"></path>
                    <path d="M27.204,68.789 C23.449,72.338 17.573,75.07 13.369,70.93" id="Shape"></path>
                    <path d="M17.145,67.462 C15.487,70.417 15.835,73.295 18.873,72.983" id="Shape"></path>
                    <path d="M23.606,62.115 C22.763,62.406 21.981,62.785 21.266,63.224" id="Shape"></path>
                </g>
                <g id="Group" transform="translate(72.000000, 0.000000)">
                    <path d="M39.268,60.443 C33.517,61.81 41.118,70.994 44.744,72.068 C48.794,73.268 49.47,76.156 49.919,77.693 C50.368,79.23 48.119,79.718 38.069,74.543 C28.018,69.368 31.656,79.081 28.581,75.818 C6.277,52.153 1.186,51.509 0.563,17.822 C0.406,9.27 1.237,0.218 5.593,0.218 C7.543,0.218 12.059,1.418 12.043,2.918 C11.893,17.617 10.393,30.691 19.375,44.799 C28.473,59.086 39.405,60.41 39.268,60.443 L39.268,60.443 Z" id="Shape" fill="#FFFFFF"></path>
                    <path d="M1.919,22.624 C2.744,38.074 3.119,42.274 5.52,47.749 C6.509,50.007 4.087,45.27 3.077,34.761 C2.305,26.719 2.637,13.526 4.282,8.112 C4.83,6.309 5.285,5.138 5.636,4.381 C5.698,4.249 7.499,1.131 5.782,1.775 C1.867,3.242 1.769,19.797 1.919,22.624 L1.919,22.624 Z" id="Shape"></path>
                    <path d="M53.205,82.649 C53.215,81.51 53.095,79.342 52.127,78.213 C50.777,76.639 47.478,77.088 45.978,76.113 C44.477,75.137 44.403,72.812 44.252,71.312 C44.102,69.813 43.369,67.235 40.802,67.788 C34.257,69.197 27.46,60.644 37.802,61.713 C41.022,62.046 41.727,58.372 38.969,55.715 C37.088,53.902 34.3,52.927 33.153,52.338 C6.716,38.781 12.898,-0.113 15.453,0.738 C15.453,0.738 9.527,-1.211 7.428,7.339 C4.437,19.516 0.116,55.573 11.816,63.101 C17.853,66.986 20.89,62.531 24.395,64.998 C29.096,68.31 23.986,80.21 32.704,76.563 C35.705,75.308 37.088,77.841 38.995,79.819 C40.544,81.425 42.439,82.666 45.829,81.214 C49.793,79.515 50.094,80.758 52.72,82.986 C53.308,83.487 53.197,83.601 53.205,82.649 L53.205,82.649 Z" id="Shape" fill="#FFFFFF"></path>
                    <path d="M26.079,67.4 C26.938,67.629 27.742,67.6 28.459,67.272 C31.269,65.989 31.31,62.772 28.909,60.522 C0.444,33.839 11.711,2.819 11.659,2.922 C11.659,2.922 6.859,15.821 7.759,26.922 C8.028,30.226 7.968,33.493 8.37,36.726 C9.611,46.68 15.672,58.553 21.33,64.219" id="Shape"></path>
                    <path d="M18.372,55.142 C19.889,57.027 21.677,57.852 22.775,58.877 C27.401,63.195 25.57,64.038 22.609,60.654 C10.629,46.961 5.768,23.855 10.534,6.579 C12.934,-2.121 12.034,1.478 12.034,1.478" id="Shape"></path>
                    <path d="M26.55,68.789 C30.305,72.338 36.181,75.07 40.385,70.93" id="Shape"></path>
                    <path d="M36.609,67.462 C38.267,70.417 37.919,73.295 34.881,72.983" id="Shape"></path>
                    <path d="M30.146,62.115 C30.99,62.406 31.772,62.785 32.487,63.224" id="Shape"></path>
                </g>
            </g>
            <g id="Clouds" transform="translate(2.000000, 0.000000)" sketch:type="MSShapeGroup">
                <g id="Group">
                    <path d="M4.545,15.695 C6.2,14.04 9.548,14.705 12.024,17.18 C14.499,19.655 15.163,23.002 13.508,24.658 C11.853,26.312 8.505,25.647 6.03,23.173 C3.555,20.699 2.891,17.351 4.545,15.695 L4.545,15.695 L4.545,15.695 Z M11.698,31.998 C12.209,29.714 15.392,28.482 18.808,29.246 C22.223,30.011 24.578,32.482 24.067,34.766 C23.556,37.05 20.373,38.282 16.957,37.517 C13.542,36.753 11.188,34.281 11.698,31.998 L11.698,31.998 L11.698,31.998 Z M14.66,5.58 C13.006,7.235 13.671,10.583 16.145,13.058 C18.619,15.533 21.967,16.198 23.623,14.543 C25.277,12.888 24.613,9.54 22.138,7.064 C19.663,4.59 16.315,3.926 14.66,5.58 L14.66,5.58 L14.66,5.58 Z M30.963,12.733 C28.679,13.244 27.447,16.427 28.212,19.842 C28.977,23.258 31.447,25.613 33.732,25.102 C36.015,24.59 37.247,21.407 36.483,17.992 C35.718,14.577 33.246,12.223 30.963,12.733 L30.963,12.733 Z" id="Shape" stroke-width="0.7498" fill="#FFFFFF"></path>
                    <g>
                        <path d="M1.771,2.51 C4.568,-0.287 10.253,0.462 14.222,4.431 C16.535,6.744 17.553,14.118 20.674,13.283 C23.409,12.552 21.352,8.908 24.816,7.135 C26.734,6.153 31.834,9.442 33.676,15.777 C35.52,22.111 34.541,28.513 31.49,30.076 C30.904,30.376 30.285,30.474 29.654,30.395 C29.733,31.027 29.634,31.646 29.335,32.231 C27.772,35.282 21.37,36.26 15.036,34.417 C8.701,32.574 4.832,28.607 6.394,25.557 C7.898,22.619 11.878,23.896 12.541,21.416 C13.377,18.294 6.003,17.275 3.69,14.963 C-0.276,10.992 -1.026,5.307 1.771,2.51 L1.771,2.51 Z" id="Shape" stroke-width="0.7498" fill="#FFFFFF"></path>
                        <path d="M22.434,11.012 C23.563,11.739 24.662,12.619 25.69,13.647 C30.962,18.919 32.375,26.055 28.845,29.584 C25.316,33.114 18.181,31.701 12.908,26.429 C11.877,25.398 10.992,24.294 10.264,23.161" id="Shape" stroke-width="0.7498"></path>
                        <path d="M7.937,17.27 C7.53,14.594 8.099,12.147 9.753,10.492 C11.401,8.844 13.838,8.273 16.502,8.672" id="Shape" stroke-width="0.7498"></path>
                        <ellipse id="Oval" stroke-width="0.749792809" fill="#FFFFFF" transform="translate(20.371940, 21.114592) rotate(225.000000) translate(-20.371940, -21.114592) " cx="20.3719398" cy="21.114592" rx="8.90991455" ry="4.94995253"></ellipse>
                        <ellipse id="Oval" stroke-width="0.749792809" fill="#FFFFFF" transform="translate(21.866747, 22.567253) rotate(225.000000) translate(-21.866747, -22.567253) " cx="21.8667469" cy="22.5672529" rx="6.46893796" ry="4.16396007"></ellipse>
                    </g>
                </g>
                <g id="Group" transform="translate(85.000000, 0.000000)">
                    <path d="M32.209,15.695 C30.555,14.04 27.206,14.705 24.731,17.18 C22.256,19.655 21.591,23.002 23.246,24.658 C24.901,26.312 28.249,25.647 30.724,23.173 C33.199,20.698 33.863,17.351 32.209,15.695 L32.209,15.695 L32.209,15.695 Z M25.056,31.998 C24.545,29.714 21.362,28.482 17.947,29.246 C14.531,30.011 12.176,32.482 12.687,34.766 C13.199,37.05 16.382,38.282 19.797,37.517 C23.212,36.753 25.566,34.281 25.056,31.998 L25.056,31.998 L25.056,31.998 Z M22.094,5.58 C23.748,7.235 23.084,10.583 20.609,13.058 C18.134,15.533 14.787,16.198 13.131,14.543 C11.477,12.888 12.142,9.54 14.616,7.064 C17.091,4.59 20.439,3.926 22.094,5.58 L22.094,5.58 L22.094,5.58 Z M5.792,12.733 C8.075,13.244 9.307,16.427 8.543,19.842 C7.778,23.258 5.307,25.613 3.023,25.102 C0.739,24.59 -0.493,21.407 0.271,17.992 C1.036,14.577 3.508,12.223 5.792,12.733 L5.792,12.733 Z" id="Shape" stroke-width="0.7498" fill="#FFFFFF"></path>
                    <g transform="translate(2.000000, 0.000000)">
                        <path d="M32.983,2.51 C30.185,-0.287 24.501,0.462 20.532,4.431 C18.219,6.744 17.201,14.118 14.079,13.283 C11.344,12.552 13.401,8.908 9.937,7.135 C8.019,6.153 2.92,9.442 1.077,15.777 C-0.766,22.111 0.213,28.513 3.263,30.076 C3.849,30.376 4.468,30.474 5.1,30.395 C5.021,31.027 5.12,31.646 5.419,32.231 C6.981,35.282 13.383,36.26 19.718,34.417 C26.053,32.574 29.921,28.607 28.36,25.557 C26.855,22.619 22.875,23.896 22.212,21.416 C21.377,18.294 28.75,17.275 31.064,14.963 C35.031,10.992 35.78,5.307 32.983,2.51 L32.983,2.51 Z" id="Shape" stroke-width="0.7498" fill="#FFFFFF"></path>
                        <path d="M12.32,11.012 C11.191,11.739 10.092,12.619 9.064,13.647 C3.793,18.919 2.379,26.055 5.909,29.584 C9.438,33.114 16.574,31.701 21.846,26.429 C22.878,25.398 23.762,24.294 24.49,23.161" id="Shape" stroke-width="0.7498"></path>
                        <path d="M26.818,17.27 C27.224,14.594 26.656,12.147 25.001,10.492 C23.353,8.844 20.917,8.273 18.252,8.672" id="Shape" stroke-width="0.7498"></path>
                        <ellipse id="Oval" stroke-width="0.749792809" fill="#FFFFFF" transform="translate(14.385900, 21.137647) rotate(-45.000000) translate(-14.385900, -21.137647) " cx="14.3859003" cy="21.1376475" rx="8.90991455" ry="4.95095252"></ellipse>
                        <ellipse id="Oval" stroke-width="0.749792809" fill="#FFFFFF" transform="translate(12.904900, 22.534994) rotate(-45.000000) translate(-12.904900, -22.534994) " cx="12.9049003" cy="22.5349937" rx="6.46893796" ry="4.16396007"></ellipse>
                    </g>
                </g>
            </g>
            <g id="Details" transform="translate(3.000000, 2.000000)" sketch:type="MSShapeGroup">
                <g id="Group" stroke-width="0.7498" fill="#FFFFFF">
                    <g transform="translate(53.000000, 0.000000)" id="Shape">
                        <g>
                            <path d="M6.877,6.863 C8.612,6.863 10.027,5.448 10.027,3.713 C10.027,1.978 8.612,0.564 6.877,0.564 C5.142,0.564 3.728,1.978 3.728,3.713 C3.728,5.448 5.142,6.863 6.877,6.863 L6.877,6.863 Z"></path>
                            <g transform="translate(0.000000, 4.000000)">
                                <path d="M3.727,6.988 C5.462,6.988 6.877,5.573 6.877,3.838 C6.877,2.104 5.462,0.689 3.727,0.689 C1.993,0.689 0.578,2.104 0.578,3.838 C0.577,5.573 1.992,6.988 3.727,6.988 L3.727,6.988 Z"></path>
                                <path d="M10.027,6.988 C11.761,6.988 13.177,5.573 13.177,3.838 C13.177,2.104 11.761,0.689 10.027,0.689 C8.292,0.689 6.877,2.104 6.877,3.838 C6.877,5.573 8.292,6.988 10.027,6.988 L10.027,6.988 Z"></path>
                            </g>
                        </g>
                        <g transform="translate(0.000000, 108.000000)">
                            <path d="M6.877,10.764 C8.612,10.764 10.027,9.349 10.027,7.614 C10.027,5.88 8.612,4.465 6.877,4.465 C5.142,4.465 3.728,5.88 3.728,7.614 C3.728,9.349 5.142,10.764 6.877,10.764 L6.877,10.764 Z"></path>
                            <g>
                                <path d="M3.727,6.639 C5.462,6.639 6.877,5.224 6.877,3.489 C6.877,1.754 5.462,0.34 3.727,0.34 C1.993,0.34 0.578,1.754 0.578,3.489 C0.578,5.224 1.992,6.639 3.727,6.639 L3.727,6.639 Z"></path>
                                <path d="M10.027,6.639 C11.761,6.639 13.177,5.224 13.177,3.489 C13.177,1.754 11.761,0.34 10.027,0.34 C8.292,0.34 6.877,1.754 6.877,3.489 C6.877,5.224 8.292,6.639 10.027,6.639 L10.027,6.639 Z"></path>
                            </g>
                        </g>
                    </g>
                    <g transform="translate(17.000000, 16.000000)" id="Oval">
                        <g>
                            <circle cx="3.314" cy="4.101" r="3.15"></circle>
                            <g transform="translate(0.000000, 1.000000)">
                                <circle cx="4.003" cy="8.245" r="3.15"></circle>
                                <circle cx="8.458" cy="3.79" r="3.15"></circle>
                            </g>
                        </g>
                        <g transform="translate(74.000000, 74.000000)">
                            <circle cx="8.44" cy="9.227" r="3.15"></circle>
                            <g>
                                <circle cx="3.295" cy="8.537" r="3.15"></circle>
                                <circle cx="7.75" cy="4.082" r="3.15"></circle>
                            </g>
                        </g>
                    </g>
                    <g transform="translate(0.000000, 53.000000)" id="Oval">
                        <g>
                            <circle cx="3.927" cy="6.664" r="3.149"></circle>
                            <g transform="translate(4.000000, 0.000000)">
                                <circle cx="4.052" cy="9.813" r="3.15"></circle>
                                <circle cx="4.052" cy="3.514" r="3.15"></circle>
                            </g>
                        </g>
                        <g transform="translate(108.000000, 0.000000)">
                            <circle cx="7.828" cy="6.664" r="3.15"></circle>
                            <g>
                                <circle cx="3.702" cy="9.813" r="3.15"></circle>
                                <circle cx="3.702" cy="3.514" r="3.15"></circle>
                            </g>
                        </g>
                    </g>
                    <g transform="translate(17.000000, 16.000000)" id="Oval">
                        <g transform="translate(0.000000, 74.000000)">
                            <circle cx="3.314" cy="9.227" r="3.15"></circle>
                            <g>
                                <circle cx="8.458" cy="8.537" r="3.15"></circle>
                                <circle cx="4.003" cy="4.082" r="3.15"></circle>
                            </g>
                        </g>
                        <g transform="translate(74.000000, 0.000000)">
                            <circle cx="8.44" cy="4.101" r="3.15"></circle>
                            <g transform="translate(0.000000, 1.000000)">
                                <circle cx="7.75" cy="8.245" r="3.15"></circle>
                                <circle cx="3.295" cy="3.79" r="3.15"></circle>
                            </g>
                        </g>
                    </g>
                </g>
                <g id="Group" transform="translate(18.000000, 18.000000)" stroke-width="0.7498">
                    <g transform="translate(20.000000, 0.000000)" id="Shape">
                        <g>
                            <g transform="translate(31.000000, 0.000000)">
                                <path d="M6.508,0.921 C8.821,1.832 13.012,3.046 12.549,6.221 C12.301,7.913 10.484,9.238 8.399,7.642 C8.839,10.361 6.146,10.616 4.534,10.135 C2.851,9.633 0.735,7.702 3.103,5.677 C1.166,6.005 0.045,3.997 0.48,2.668 C1.454,-0.323 4.313,0.055 6.508,0.921 L6.508,0.921 Z" fill="#FFFFFF"></path>
                                <path d="M5.409,2.897 C4.219,2.855 4.024,3.858 4.5,4.433 C5.69,5.873 8.649,4.007 7.321,2.157 C6.183,0.573 4.315,0.058 2.379,0.492"></path>
                            </g>
                            <g>
                                <path d="M6.246,0.921 C3.933,1.832 -0.258,3.046 0.206,6.221 C0.453,7.913 2.271,9.238 4.355,7.642 C3.915,10.361 6.608,10.616 8.22,10.135 C9.904,9.633 12.02,7.702 9.651,5.677 C11.588,6.005 12.709,3.997 12.275,2.668 C11.3,-0.323 8.441,0.055 6.246,0.921 L6.246,0.921 Z" fill="#FFFFFF"></path>
                                <path d="M7.346,2.897 C8.535,2.855 8.73,3.858 8.254,4.433 C7.064,5.873 4.105,4.007 5.433,2.157 C6.571,0.573 8.439,0.058 10.375,0.492"></path>
                            </g>
                        </g>
                        <g transform="translate(0.000000, 72.000000)">
                            <g>
                                <path d="M6.246,10.406 C3.933,9.495 -0.258,8.281 0.205,5.106 C0.453,3.414 2.27,2.089 4.355,3.685 C3.915,0.966 6.608,0.711 8.22,1.192 C9.903,1.694 12.02,3.625 9.651,5.65 C11.588,5.322 12.709,7.33 12.275,8.659 C11.3,11.65 8.441,11.272 6.246,10.406 L6.246,10.406 Z" fill="#FFFFFF"></path>
                                <path d="M7.345,8.43 C8.535,8.472 8.73,7.469 8.254,6.894 C7.064,5.454 4.105,7.32 5.433,9.17 C6.571,10.754 8.439,11.269 10.375,10.835"></path>
                            </g>
                            <g transform="translate(31.000000, 0.000000)">
                                <path d="M6.508,10.406 C8.821,9.495 13.012,8.281 12.548,5.106 C12.301,3.414 10.483,2.089 8.399,3.685 C8.839,0.966 6.146,0.711 4.534,1.192 C2.85,1.694 0.734,3.625 3.103,5.65 C1.166,5.322 0.045,7.33 0.479,8.659 C1.454,11.65 4.313,11.272 6.508,10.406 L6.508,10.406 Z" fill="#FFFFFF"></path>
                                <path d="M5.409,8.43 C4.219,8.472 4.024,7.469 4.5,6.894 C5.69,5.454 8.649,7.32 7.321,9.17 C6.183,10.754 4.315,11.269 2.379,10.835"></path>
                            </g>
                        </g>
                    </g>
                    <g transform="translate(0.000000, 19.000000)" id="Shape">
                        <g>
                            <g>
                                <path d="M1.135,7.032 C2.046,4.719 3.259,0.528 6.434,0.992 C8.126,1.239 9.451,3.057 7.856,5.142 C10.574,4.701 10.83,7.394 10.349,9.006 C9.846,10.69 7.915,12.806 5.891,10.438 C6.218,12.374 4.211,13.495 2.881,13.061 C-0.11,12.086 0.269,9.229 1.135,7.032 L1.135,7.032 Z" fill="#FFFFFF"></path>
                                <path d="M3.11,8.132 C3.069,9.322 4.072,9.517 4.646,9.041 C6.086,7.85 4.221,4.892 2.371,6.219 C0.786,7.357 0.272,9.225 0.705,11.161"></path>
                            </g>
                            <g transform="translate(0.000000, 32.000000)">
                                <path d="M1.135,6.295 C2.046,8.608 3.259,12.799 6.434,12.335 C8.126,12.088 9.451,10.27 7.856,8.185 C10.574,8.626 10.83,5.933 10.349,4.321 C9.846,2.637 7.915,0.521 5.891,2.889 C6.218,0.952 4.211,-0.168 2.881,0.266 C-0.11,1.24 0.269,4.099 1.135,6.295 L1.135,6.295 Z" fill="#FFFFFF"></path>
                                <path d="M3.11,5.195 C3.069,4.005 4.072,3.81 4.646,4.286 C6.086,5.477 4.221,8.435 2.371,7.108 C0.786,5.97 0.272,4.102 0.705,2.166"></path>
                            </g>
                        </g>
                        <g transform="translate(73.000000, 0.000000)">
                            <g transform="translate(0.000000, 32.000000)">
                                <path d="M9.619,6.295 C8.708,8.608 7.495,12.799 4.32,12.335 C2.628,12.088 1.303,10.27 2.899,8.186 C0.18,8.626 -0.076,5.933 0.405,4.321 C0.908,2.637 2.839,0.521 4.863,2.89 C4.536,0.953 6.543,-0.168 7.873,0.266 C10.864,1.241 10.485,4.099 9.619,6.295 L9.619,6.295 Z" fill="#FFFFFF"></path>
                                <path d="M7.644,5.195 C7.685,4.006 6.682,3.81 6.107,4.286 C4.668,5.477 6.533,8.435 8.383,7.108 C9.968,5.97 10.482,4.102 10.049,2.166"></path>
                            </g>
                            <g>
                                <path d="M9.619,7.032 C8.708,4.719 7.495,0.528 4.32,0.992 C2.628,1.239 1.303,3.057 2.899,5.142 C0.18,4.701 -0.076,7.395 0.405,9.006 C0.908,10.69 2.839,12.806 4.863,10.438 C4.536,12.375 6.543,13.495 7.873,13.061 C10.864,12.087 10.485,9.229 9.619,7.032 L9.619,7.032 Z" fill="#FFFFFF"></path>
                                <path d="M7.644,8.132 C7.685,9.322 6.682,9.517 6.107,9.041 C4.668,7.85 6.533,4.892 8.383,6.22 C9.968,7.357 10.482,9.225 10.049,11.161"></path>
                            </g>
                        </g>
                    </g>
                </g>
                <g id="Group" transform="translate(14.000000, 14.000000)" fill="#FFFFFF">
                    <g transform="translate(39.000000, 0.000000)" stroke-width="0.7498">
                        <g id="Shape">
                            <g>
                                <path d="M6.792,1.707 L6.952,6.87 C7.158,13.537 2.974,11.791 2.547,11.122 C2.163,10.521 3.592,10.113 3.389,7.779 C2.995,3.27 0.794,2.645 0.973,1.723 C1.278,0.141 6.735,-0.109 6.792,1.707 L6.792,1.707 Z"></path>
                                <path d="M6.962,1.707 L6.802,6.87 C6.596,13.537 10.78,11.791 11.207,11.122 C11.591,10.521 10.162,10.113 10.365,7.779 C10.759,3.27 12.96,2.645 12.781,1.723 C12.476,0.141 7.019,-0.109 6.962,1.707 L6.962,1.707 Z"></path>
                            </g>
                            <path d="M6.877,13.459 C7.929,13.459 8.786,12.116 8.786,10.469 C8.786,8.823 7.929,7.48 6.877,7.48 C5.825,7.48 4.968,8.823 4.968,10.469 C4.968,12.116 5.825,13.459 6.877,13.459 L6.877,13.459 Z"></path>
                            <g transform="translate(2.000000, 10.000000)">
                                <path d="M4.868,7.354 L4.896,3.412 C4.912,1.226 2.823,0.735 1.412,1.081 C0.535,1.297 -0.412,1.908 0.235,2.623 C2.667,5.311 1.334,7.508 2.074,8.268 C2.811,9.022 4.856,8.986 4.868,7.354 L4.868,7.354 Z"></path>
                                <path d="M4.886,7.354 L4.858,3.412 C4.842,1.226 6.932,0.735 8.342,1.081 C9.219,1.297 10.166,1.908 9.519,2.623 C7.088,5.311 8.42,7.508 7.68,8.268 C6.944,9.022 4.897,8.986 4.886,7.354 L4.886,7.354 Z"></path>
                            </g>
                        </g>
                        <g transform="translate(0.000000, 72.000000)">
                            <g transform="translate(0.000000, 7.000000)" id="Shape">
                                <path d="M6.962,10.826 L6.802,5.663 C6.596,-1.004 10.78,0.742 11.207,1.411 C11.591,2.012 10.162,2.42 10.365,4.753 C10.759,9.263 12.96,9.887 12.781,10.809 C12.476,12.393 7.019,12.643 6.962,10.826 L6.962,10.826 Z"></path>
                                <path d="M6.792,10.826 L6.952,5.663 C7.158,-1.004 2.974,0.742 2.547,1.411 C2.163,2.012 3.592,2.42 3.389,4.753 C2.995,9.263 0.794,9.887 0.973,10.809 C1.278,12.393 6.735,12.643 6.792,10.826 L6.792,10.826 Z"></path>
                            </g>
                            <ellipse id="Oval" cx="6.877" cy="9.063" rx="1.909" ry="2.99"></ellipse>
                            <g transform="translate(2.000000, 0.000000)" id="Shape">
                                <path d="M4.886,2.178 L4.858,6.121 C4.842,8.307 6.931,8.798 8.342,8.451 C9.219,8.236 10.166,7.625 9.519,6.91 C7.087,4.222 8.42,2.024 7.68,1.265 C6.943,0.511 4.897,0.547 4.886,2.178 L4.886,2.178 Z"></path>
                                <path d="M4.868,2.178 L4.896,6.121 C4.912,8.307 2.822,8.798 1.412,8.451 C0.535,8.236 -0.412,7.625 0.235,6.91 C2.666,4.222 1.334,2.024 2.074,1.265 C2.81,0.511 4.856,0.547 4.868,2.178 L4.868,2.178 Z"></path>
                            </g>
                        </g>
                    </g>
                    <g transform="translate(10.000000, 10.000000)">
                        <g>
                            <g id="Shape" stroke-width="0.7498">
                                <path d="M4.662,4.672 L8.426,8.21 C13.286,12.778 9.093,14.502 8.318,14.331 C7.622,14.178 8.343,12.879 6.55,11.372 C3.083,8.462 1.085,9.577 0.56,8.799 C-0.344,7.463 3.338,3.428 4.662,4.672 L4.662,4.672 Z"></path>
                                <path d="M4.782,4.552 L8.32,8.316 C12.888,13.176 14.612,8.983 14.441,8.208 C14.288,7.512 12.989,8.233 11.482,6.44 C8.572,2.973 9.687,0.975 8.909,0.45 C7.573,-0.455 3.538,3.228 4.782,4.552 L4.782,4.552 Z"></path>
                            </g>
                            <ellipse id="Oval" stroke-width="0.749792809" transform="translate(10.919819, 10.813645) rotate(225.000000) translate(-10.919819, -10.813645) " cx="10.919819" cy="10.8136454" rx="2.98997133" ry="1.90898169"></ellipse>
                            <g transform="translate(8.000000, 8.000000)" id="Shape" stroke-width="0.7498">
                                <path d="M7.781,7.683 L5.012,4.874 C3.478,3.318 1.654,4.448 0.901,5.69 C0.433,6.462 0.195,7.564 1.159,7.613 C4.778,7.794 5.389,10.29 6.45,10.303 C7.505,10.317 8.927,8.845 7.781,7.683 L7.781,7.683 Z"></path>
                                <path d="M7.793,7.67 L4.984,4.902 C3.428,3.368 4.558,1.543 5.8,0.79 C6.572,0.322 7.675,0.085 7.723,1.049 C7.904,4.668 10.4,5.279 10.413,6.339 C10.428,7.394 8.955,8.815 7.793,7.67 L7.793,7.67 Z"></path>
                            </g>
                        </g>
                        <g transform="translate(53.000000, 53.000000)">
                            <g transform="translate(4.000000, 4.000000)" id="Shape" stroke-width="0.7498">
                                <path d="M10.092,9.861 L6.328,6.323 C1.468,1.755 5.661,0.031 6.436,0.202 C7.132,0.355 6.411,1.654 8.204,3.16 C11.671,6.071 13.669,4.956 14.194,5.734 C15.098,7.07 11.416,11.105 10.092,9.861 L10.092,9.861 Z"></path>
                                <path d="M9.972,9.981 L6.434,6.217 C1.866,1.357 0.142,5.55 0.313,6.325 C0.466,7.021 1.765,6.3 3.272,8.093 C6.182,11.56 5.067,13.558 5.845,14.083 C7.181,14.987 11.216,11.306 9.972,9.981 L9.972,9.981 Z"></path>
                            </g>
                            <ellipse id="Oval" stroke-width="0.749792809" transform="translate(7.834181, 7.718990) rotate(45.000000) translate(-7.834181, -7.718990) " cx="7.834181" cy="7.7189902" rx="2.98997133" ry="1.90898169"></ellipse>
                            <g id="Shape" stroke-width="0.7498">
                                <path d="M2.973,2.851 L5.742,5.66 C7.276,7.216 9.1,6.086 9.853,4.844 C10.322,4.072 10.559,2.969 9.595,2.921 C5.976,2.74 5.365,0.243 4.304,0.231 C3.249,0.216 1.827,1.688 2.973,2.851 L2.973,2.851 Z"></path>
                                <path d="M2.961,2.862 L5.769,5.631 C7.326,7.165 6.196,8.99 4.954,9.742 C4.182,10.211 3.079,10.448 3.031,9.484 C2.85,5.865 0.354,5.254 0.341,4.194 C0.326,3.139 1.799,1.717 2.961,2.862 L2.961,2.862 Z"></path>
                            </g>
                        </g>
                    </g>
                    <g transform="translate(0.000000, 39.000000)" stroke-width="0.7498">
                        <g>
                            <g id="Shape">
                                <path d="M1.817,6.852 L6.98,6.692 C13.647,6.486 11.901,10.67 11.232,11.097 C10.631,11.481 10.223,10.052 7.89,10.255 C3.38,10.649 2.755,12.849 1.833,12.671 C0.251,12.365 0.001,6.908 1.817,6.852 L1.817,6.852 Z"></path>
                                <path d="M1.817,6.682 L6.98,6.842 C13.647,7.048 11.901,2.864 11.232,2.437 C10.631,2.053 10.223,3.482 7.89,3.279 C3.38,2.885 2.755,0.684 1.833,0.863 C0.251,1.168 0.001,6.625 1.817,6.682 L1.817,6.682 Z"></path>
                            </g>
                            <ellipse id="Oval" cx="10.58" cy="6.767" rx="2.99" ry="1.909"></ellipse>
                            <g transform="translate(11.000000, 1.000000)" id="Shape">
                                <path d="M6.465,5.775 L2.523,5.747 C0.337,5.731 -0.154,7.82 0.193,9.231 C0.408,10.108 1.019,11.055 1.734,10.408 C4.422,7.976 6.62,9.309 7.379,8.569 C8.133,7.833 8.097,5.786 6.465,5.775 L6.465,5.775 Z"></path>
                                <path d="M6.465,5.758 L2.523,5.786 C0.337,5.802 -0.154,3.712 0.193,2.302 C0.408,1.425 1.019,0.478 1.734,1.125 C4.422,3.556 6.62,2.224 7.379,2.963 C8.133,3.699 8.097,5.746 6.465,5.758 L6.465,5.758 Z"></path>
                            </g>
                        </g>
                        <g transform="translate(72.000000, 0.000000)">
                            <g transform="translate(7.000000, 0.000000)" id="Shape">
                                <path d="M10.937,6.682 L5.774,6.842 C-0.893,7.048 0.853,2.864 1.522,2.437 C2.123,2.053 2.531,3.482 4.864,3.279 C9.374,2.885 9.999,0.684 10.92,0.863 C12.503,1.168 12.753,6.625 10.937,6.682 L10.937,6.682 Z"></path>
                                <path d="M10.937,6.852 L5.774,6.692 C-0.893,6.486 0.853,10.67 1.522,11.097 C2.123,11.481 2.531,10.052 4.864,10.255 C9.374,10.649 9.999,12.849 10.92,12.671 C12.503,12.365 12.753,6.908 10.937,6.852 L10.937,6.852 Z"></path>
                            </g>
                            <ellipse id="Oval" cx="9.174" cy="6.767" rx="2.99" ry="1.909"></ellipse>
                            <g transform="translate(0.000000, 1.000000)" id="Shape">
                                <path d="M2.289,5.758 L6.231,5.786 C8.417,5.802 8.908,3.713 8.562,2.302 C8.346,1.425 7.735,0.478 7.02,1.125 C4.332,3.557 2.134,2.224 1.375,2.963 C0.621,3.7 0.657,5.746 2.289,5.758 L2.289,5.758 Z"></path>
                                <path d="M2.289,5.775 L6.231,5.747 C8.417,5.731 8.908,7.82 8.562,9.231 C8.346,10.108 7.735,11.055 7.02,10.408 C4.332,7.976 2.134,9.309 1.375,8.569 C0.621,7.834 0.657,5.787 2.289,5.775 L2.289,5.775 Z"></path>
                            </g>
                        </g>
                    </g>
                    <g transform="translate(10.000000, 10.000000)">
                        <g transform="translate(0.000000, 53.000000)">
                            <g transform="translate(0.000000, 4.000000)" id="Shape" stroke-width="0.7498">
                                <path d="M4.782,9.981 L8.32,6.217 C12.888,1.357 14.612,5.55 14.441,6.325 C14.288,7.021 12.989,6.3 11.482,8.093 C8.572,11.56 9.687,13.558 8.909,14.083 C7.573,14.987 3.538,11.306 4.782,9.981 L4.782,9.981 Z"></path>
                                <path d="M4.662,9.861 L8.426,6.323 C13.286,1.755 9.093,0.031 8.318,0.202 C7.622,0.355 8.343,1.654 6.55,3.16 C3.083,6.071 1.085,4.956 0.56,5.734 C-0.344,7.07 3.338,11.105 4.662,9.861 L4.662,9.861 Z"></path>
                            </g>
                            <ellipse id="Oval" stroke-width="0.749792809" transform="translate(10.924228, 7.724063) rotate(135.000000) translate(-10.924228, -7.724063) " cx="10.9242276" cy="7.7240632" rx="2.98997133" ry="1.90898169"></ellipse>
                            <g transform="translate(8.000000, 0.000000)" id="Shape" stroke-width="0.7498">
                                <path d="M7.793,2.862 L4.984,5.631 C3.428,7.165 4.558,8.989 5.8,9.742 C6.572,10.21 7.675,10.448 7.723,9.484 C7.904,5.865 10.4,5.254 10.413,4.193 C10.428,3.139 8.955,1.717 7.793,2.862 L7.793,2.862 Z"></path>
                                <path d="M7.781,2.851 L5.012,5.659 C3.478,7.216 1.653,6.086 0.9,4.844 C0.432,4.072 0.195,2.969 1.159,2.921 C4.778,2.74 5.389,0.243 6.449,0.231 C7.504,0.216 8.926,1.688 7.781,2.851 L7.781,2.851 Z"></path>
                            </g>
                        </g>
                        <g transform="translate(53.000000, 0.000000)">
                            <g transform="translate(4.000000, 0.000000)" id="Shape" stroke-width="0.7498">
                                <path d="M9.972,4.552 L6.434,8.316 C1.866,13.176 0.142,8.983 0.313,8.208 C0.466,7.512 1.765,8.233 3.272,6.44 C6.182,2.973 5.067,0.975 5.845,0.45 C7.181,-0.455 11.216,3.228 9.972,4.552 L9.972,4.552 Z"></path>
                                <path d="M10.092,4.672 L6.328,8.21 C1.468,12.778 5.661,14.502 6.436,14.331 C7.132,14.178 6.411,12.879 8.204,11.372 C11.671,8.462 13.669,9.577 14.194,8.799 C15.098,7.463 11.416,3.428 10.092,4.672 L10.092,4.672 Z"></path>
                            </g>
                            <ellipse id="Oval" stroke-width="0.749792809" transform="translate(7.829572, 10.809701) rotate(-45.000000) translate(-7.829572, -10.809701) " cx="7.8295724" cy="10.8097012" rx="2.98997133" ry="1.90898169"></ellipse>
                            <g transform="translate(0.000000, 8.000000)" id="Shape" stroke-width="0.7498">
                                <path d="M2.961,7.671 L5.77,4.902 C7.326,3.368 6.196,1.544 4.954,0.791 C4.182,0.322 3.079,0.085 3.031,1.049 C2.85,4.668 0.354,5.279 0.341,6.34 C0.326,7.395 1.799,8.816 2.961,7.671 L2.961,7.671 Z"></path>
                                <path d="M2.974,7.683 L5.742,4.874 C7.276,3.318 9.101,4.448 9.854,5.69 C10.322,6.462 10.559,7.564 9.595,7.613 C5.976,7.794 5.365,10.29 4.305,10.303 C3.25,10.317 1.828,8.845 2.974,7.683 L2.974,7.683 Z"></path>
                            </g>
                        </g>
                    </g>
                </g>
                <g id="Group" transform="translate(36.000000, 35.000000)" fill="#FFFFFF">
                    <g transform="translate(18.000000, 0.000000)" stroke-width="0.7498">
                        <g id="Shape">
                            <path d="M5.886,1.555 L5.899,6.227 C5.9,6.915 5.616,9.396 4.995,9.223 C2.177,8.437 4.224,8.685 3.334,7.343 C3.163,7.087 2.858,6.825 2.74,6.728 C2.68,6.68 2.684,6.706 2.713,6.639 C3.529,4.693 -0.037,3.42 0.275,2.299 C0.587,1.178 5.882,0.269 5.886,1.555 L5.886,1.555 Z"></path>
                            <path d="M5.868,1.555 L5.855,6.227 C5.854,6.915 6.138,9.396 6.76,9.223 C9.577,8.437 7.531,8.685 8.421,7.343 C8.591,7.087 8.896,6.825 9.014,6.728 C9.074,6.68 9.07,6.706 9.041,6.639 C8.225,4.693 11.791,3.42 11.479,2.299 C11.167,1.178 5.872,0.269 5.868,1.555 L5.868,1.555 Z"></path>
                        </g>
                        <ellipse id="Oval" cx="5.877" cy="7.353" rx="1.345" ry="1.446"></ellipse>
                        <g transform="translate(2.000000, 7.000000)" id="Shape">
                            <path d="M3.816,4.582 L3.84,2.131 C3.853,0.793 2.778,0.399 1.902,0.717 C0.668,1.165 0.449,2.363 1.272,3.434 C1.666,3.945 3.801,6.244 3.816,4.582 L3.816,4.582 Z"></path>
                            <path d="M3.938,4.582 L3.915,2.131 C3.901,0.793 4.976,0.399 5.853,0.717 C7.087,1.165 7.306,2.363 6.484,3.434 C6.088,3.945 3.953,6.244 3.938,4.582 L3.938,4.582 Z"></path>
                        </g>
                    </g>
                    <g transform="translate(18.000000, 37.000000)" stroke-width="0.7498">
                        <g transform="translate(0.000000, 3.000000)" id="Shape">
                            <path d="M5.868,7.772 L5.855,3.1 C5.854,2.412 6.138,-0.069 6.76,0.105 C9.577,0.89 7.531,0.643 8.421,1.984 C8.591,2.24 8.896,2.503 9.014,2.599 C9.074,2.648 9.07,2.622 9.041,2.689 C8.225,4.635 11.791,5.908 11.479,7.029 C11.169,8.149 5.872,9.059 5.868,7.772 L5.868,7.772 Z"></path>
                            <path d="M5.886,7.772 L5.899,3.1 C5.9,2.412 5.616,-0.069 4.995,0.105 C2.177,0.89 4.224,0.643 3.334,1.984 C3.163,2.24 2.858,2.503 2.74,2.599 C2.68,2.648 2.684,2.622 2.713,2.689 C3.529,4.635 -0.037,5.908 0.275,7.029 C0.585,8.149 5.882,9.059 5.886,7.772 L5.886,7.772 Z"></path>
                        </g>
                        <ellipse id="Oval" cx="5.877" cy="4.975" rx="1.345" ry="1.446"></ellipse>
                        <g transform="translate(2.000000, 0.000000)" id="Shape">
                            <path d="M3.938,0.746 L3.914,3.197 C3.901,4.534 4.976,4.928 5.852,4.61 C7.086,4.163 7.305,2.964 6.482,1.894 C6.088,1.382 3.953,-0.917 3.938,0.746 L3.938,0.746 Z"></path>
                            <path d="M3.816,0.746 L3.839,3.197 C3.853,4.534 2.778,4.928 1.901,4.61 C0.667,4.163 0.448,2.964 1.27,1.894 C1.666,1.382 3.801,-0.917 3.816,0.746 L3.816,0.746 Z"></path>
                        </g>
                    </g>
                    <g transform="translate(0.000000, 19.000000)" stroke-width="0.7498">
                        <g>
                            <g id="Shape">
                                <path d="M0.768,5.655 L5.44,5.642 C6.128,5.64 8.61,5.925 8.436,6.546 C7.651,9.364 7.898,7.317 6.557,8.207 C6.301,8.377 6.038,8.682 5.942,8.801 C5.893,8.86 5.919,8.856 5.852,8.828 C3.906,8.011 2.633,11.578 1.512,11.266 C0.391,10.955 -0.519,5.658 0.768,5.655 L0.768,5.655 Z"></path>
                                <path d="M0.768,5.672 L5.44,5.685 C6.128,5.687 8.61,5.402 8.436,4.781 C7.651,1.964 7.898,4.01 6.557,3.12 C6.301,2.95 6.038,2.645 5.942,2.526 C5.893,2.467 5.919,2.471 5.852,2.499 C3.906,3.316 2.633,-0.25 1.512,0.061 C0.391,0.372 -0.519,5.669 0.768,5.672 L0.768,5.672 Z"></path>
                            </g>
                            <ellipse id="Oval" cx="6.566" cy="5.664" rx="1.447" ry="1.345"></ellipse>
                            <g transform="translate(6.000000, 2.000000)" id="Shape">
                                <path d="M4.795,3.724 L2.344,3.701 C1.006,3.687 0.613,4.763 0.93,5.639 C1.378,6.872 2.576,7.092 3.647,6.269 C4.158,5.874 6.458,3.739 4.795,3.724 L4.795,3.724 Z"></path>
                                <path d="M4.795,3.604 L2.344,3.627 C1.006,3.64 0.613,2.565 0.93,1.689 C1.378,0.456 2.576,0.236 3.647,1.059 C4.158,1.452 6.458,3.588 4.795,3.604 L4.795,3.604 Z"></path>
                            </g>
                        </g>
                        <g transform="translate(36.000000, 0.000000)">
                            <g transform="translate(3.000000, 0.000000)" id="Shape">
                                <path d="M7.986,5.672 L3.314,5.685 C2.626,5.687 0.145,5.402 0.318,4.781 C1.103,1.964 0.856,4.01 2.198,3.12 C2.454,2.95 2.716,2.645 2.812,2.526 C2.861,2.467 2.835,2.471 2.902,2.499 C4.848,3.316 6.121,-0.25 7.242,0.061 C8.363,0.372 9.272,5.669 7.986,5.672 L7.986,5.672 Z"></path>
                                <path d="M7.986,5.655 L3.314,5.642 C2.626,5.64 0.145,5.925 0.318,6.546 C1.103,9.364 0.856,7.317 2.198,8.207 C2.454,8.377 2.716,8.682 2.812,8.801 C2.861,8.86 2.835,8.856 2.902,8.828 C4.848,8.011 6.121,11.578 7.242,11.266 C8.363,10.955 9.272,5.658 7.986,5.655 L7.986,5.655 Z"></path>
                            </g>
                            <ellipse id="Oval" cx="5.188" cy="5.664" rx="1.447" ry="1.345"></ellipse>
                            <g transform="translate(0.000000, 2.000000)" id="Shape">
                                <path d="M0.959,3.604 L3.41,3.627 C4.748,3.641 5.142,2.565 4.824,1.689 C4.376,0.455 3.178,0.235 2.107,1.058 C1.596,1.453 -0.703,3.588 0.959,3.604 L0.959,3.604 Z"></path>
                                <path d="M0.959,3.724 L3.41,3.701 C4.748,3.688 5.142,4.763 4.824,5.639 C4.376,6.872 3.178,7.092 2.107,6.269 C1.596,5.875 -0.703,3.74 0.959,3.724 L0.959,3.724 Z"></path>
                            </g>
                        </g>
                    </g>
                    <g transform="translate(4.000000, 4.000000)">
                        <g>
                            <g>
                                <g id="Shape" stroke-width="0.7498">
                                    <path d="M3.543,4.317 L6.855,7.611 C7.342,8.096 8.896,10.052 8.334,10.369 C5.786,11.807 7.408,10.534 5.83,10.215 C5.529,10.154 5.128,10.185 4.976,10.2 C4.9,10.207 4.92,10.222 4.893,10.156 C4.095,8.202 0.673,9.824 0.101,8.811 C-0.472,7.798 2.631,3.41 3.543,4.317 L3.543,4.317 Z"></path>
                                    <path d="M3.53,4.329 L6.825,7.642 C7.31,8.129 9.265,9.683 9.583,9.121 C11.021,6.572 9.748,8.195 9.429,6.617 C9.368,6.315 9.399,5.915 9.413,5.763 C9.421,5.687 9.436,5.707 9.369,5.68 C7.416,4.881 9.037,1.459 8.024,0.887 C7.011,0.315 2.623,3.417 3.53,4.329 L3.53,4.329 Z"></path>
                                </g>
                                <ellipse id="Oval" stroke-width="0.749792839" transform="translate(7.608276, 8.436424) rotate(224.983794) translate(-7.608276, -8.436424) " cx="7.6082759" cy="8.4364237" rx="1.44598619" ry="1.34498716"></ellipse>
                                <g transform="translate(6.000000, 7.000000)" id="Shape" stroke-width="0.7498">
                                    <path d="M4.584,4.456 L2.868,2.706 C1.93,1.751 0.892,2.231 0.497,3.076 C-0.059,4.265 0.634,5.268 1.973,5.443 C2.613,5.526 5.749,5.643 4.584,4.456 L4.584,4.456 Z"></path>
                                    <path d="M4.669,4.37 L2.92,2.654 C1.965,1.717 2.445,0.678 3.29,0.284 C4.479,-0.272 5.481,0.42 5.656,1.759 C5.74,2.4 5.856,5.535 4.669,4.37 L4.669,4.37 Z"></path>
                                </g>
                            </g>
                            <g transform="translate(28.000000, 28.000000)">
                                <g transform="translate(1.000000, 2.000000)" id="Shape" stroke-width="0.7498">
                                    <path d="M7.212,7.01 L3.899,3.716 C3.412,3.231 1.858,1.275 2.42,0.958 C4.969,-0.48 3.346,0.793 4.924,1.112 C5.225,1.173 5.626,1.142 5.778,1.127 C5.854,1.12 5.834,1.105 5.861,1.172 C6.66,3.125 10.081,1.503 10.654,2.516 C11.227,3.529 8.123,7.918 7.212,7.01 L7.212,7.01 Z"></path>
                                    <path d="M7.224,6.998 L3.929,3.685 C3.445,3.198 1.489,1.644 1.171,2.206 C-0.266,4.754 1.007,3.132 1.325,4.71 C1.386,5.011 1.356,5.411 1.341,5.564 C1.333,5.639 1.319,5.619 1.385,5.646 C3.338,6.445 1.717,9.867 2.73,10.439 C3.743,11.011 8.131,7.91 7.224,6.998 L7.224,6.998 Z"></path>
                                </g>
                                <ellipse id="Oval" stroke-width="0.749792809" transform="translate(4.116212, 4.898363) rotate(45.000000) translate(-4.116212, -4.898363) " cx="4.1162123" cy="4.8983633" rx="1.44698612" ry="1.34398711"></ellipse>
                                <g id="Shape" stroke-width="0.7498">
                                    <path d="M1.17,1.872 L2.887,3.621 C3.824,4.577 4.862,4.096 5.257,3.251 C5.813,2.062 5.12,1.059 3.781,0.885 C3.141,0.801 0.006,0.685 1.17,1.872 L1.17,1.872 Z"></path>
                                    <path d="M1.085,1.957 L2.835,3.673 C3.79,4.611 3.309,5.649 2.464,6.043 C1.275,6.6 0.273,5.907 0.098,4.568 C0.014,3.928 -0.103,0.793 1.085,1.957 L1.085,1.957 Z"></path>
                                </g>
                            </g>
                        </g>
                        <g>
                            <g transform="translate(0.000000, 28.000000)">
                                <g transform="translate(0.000000, 2.000000)" id="Shape" stroke-width="0.7498">
                                    <path d="M3.53,6.998 L6.825,3.685 C7.31,3.198 9.265,1.644 9.583,2.206 C11.021,4.754 9.748,3.132 9.429,4.709 C9.368,5.011 9.399,5.411 9.413,5.563 C9.421,5.639 9.436,5.619 9.369,5.646 C7.416,6.445 9.037,9.867 8.024,10.439 C7.011,11.011 2.623,7.91 3.53,6.998 L3.53,6.998 Z"></path>
                                    <path d="M3.543,7.01 L6.855,3.716 C7.342,3.231 8.896,1.275 8.334,0.958 C5.786,-0.48 7.408,0.793 5.83,1.112 C5.529,1.173 5.128,1.142 4.976,1.127 C4.9,1.12 4.92,1.105 4.893,1.172 C4.095,3.125 0.673,1.503 0.101,2.516 C-0.472,3.529 2.631,7.917 3.543,7.01 L3.543,7.01 Z"></path>
                                </g>
                                <ellipse id="Oval" stroke-width="0.749792839" transform="translate(7.636820, 4.872389) rotate(135.016206) translate(-7.636820, -4.872389) " cx="7.6368196" cy="4.8723892" rx="1.44598619" ry="1.34498716"></ellipse>
                                <g transform="translate(6.000000, 0.000000)" id="Shape" stroke-width="0.7498">
                                    <path d="M4.669,1.956 L2.919,3.673 C1.964,4.61 2.445,5.649 3.29,6.043 C4.479,6.599 5.481,5.906 5.656,4.568 C5.74,3.927 5.856,0.792 4.669,1.956 L4.669,1.956 Z"></path>
                                    <path d="M4.584,1.871 L2.867,3.621 C1.93,4.576 0.892,4.096 0.497,3.25 C-0.059,2.061 0.634,1.059 1.973,0.884 C2.613,0.801 5.748,0.685 4.584,1.871 L4.584,1.871 Z"></path>
                                </g>
                            </g>
                            <g transform="translate(28.000000, 0.000000)">
                                <g transform="translate(1.000000, 0.000000)" id="Shape" stroke-width="0.7498">
                                    <path d="M7.224,4.329 L3.929,7.642 C3.445,8.129 1.489,9.683 1.171,9.121 C-0.266,6.573 1.007,8.196 1.325,6.617 C1.386,6.316 1.356,5.916 1.341,5.763 C1.333,5.688 1.319,5.708 1.385,5.681 C3.338,4.882 1.717,1.46 2.73,0.888 C3.743,0.316 8.131,3.417 7.224,4.329 L7.224,4.329 Z"></path>
                                    <path d="M7.212,4.317 L3.899,7.611 C3.412,8.096 1.858,10.052 2.42,10.369 C4.969,11.807 3.346,10.534 4.924,10.215 C5.225,10.154 5.626,10.185 5.778,10.2 C5.854,10.207 5.834,10.222 5.861,10.155 C6.66,8.202 10.081,9.824 10.654,8.811 C11.227,7.798 8.123,3.41 7.212,4.317 L7.212,4.317 Z"></path>
                                </g>
                                <ellipse id="Oval" stroke-width="0.749792809" transform="translate(4.111034, 8.423558) rotate(-45.000000) translate(-4.111034, -8.423558) " cx="4.111034" cy="8.4235584" rx="1.44698612" ry="1.34398711"></ellipse>
                                <g transform="translate(0.000000, 7.000000)" id="Shape" stroke-width="0.7498">
                                    <path d="M1.085,4.37 L2.835,2.654 C3.79,1.717 3.309,0.678 2.464,0.284 C1.276,-0.272 0.273,0.42 0.098,1.759 C0.015,2.4 -0.102,5.535 1.085,4.37 L1.085,4.37 Z"></path>
                                    <path d="M1.17,4.456 L2.887,2.706 C3.824,1.751 4.863,2.231 5.257,3.076 C5.813,4.265 5.12,5.268 3.781,5.443 C3.141,5.526 0.006,5.643 1.17,4.456 L1.17,4.456 Z"></path>
                                </g>
                            </g>
                        </g>
                    </g>
                </g>
            </g>
            <g id="Circles" transform="translate(12.000000, 10.000000)" stroke-width="0.7498" sketch:type="MSShapeGroup">
                <g id="Group">
                    <path d="M50.877,0.964 C78.878,0.964 101.577,23.663 101.577,51.664 C101.577,79.664 78.878,102.364 50.877,102.364 C22.876,102.364 0.177,79.664 0.177,51.664 C0.177,23.663 22.876,0.964 50.877,0.964 L50.877,0.964 L50.877,0.964 Z M50.877,8.163 C26.853,8.163 7.377,27.639 7.377,51.664 C7.377,75.688 26.853,95.164 50.877,95.164 C74.902,95.164 94.378,75.688 94.378,51.664 C94.378,27.639 74.902,8.163 50.877,8.163 L50.877,8.163 Z" id="Shape" fill="#FFFFFF"></path>
                    <path d="M50.877,98.764 C76.819,98.764 97.978,77.606 97.978,51.663 C97.978,25.72 76.82,4.563 50.877,4.563 C24.934,4.563 3.776,25.72 3.776,51.663 C3.776,77.606 24.935,98.764 50.877,98.764 L50.877,98.764 Z" id="Shape"></path>
                </g>
                <g id="Group" transform="translate(22.000000, 22.000000)">
                    <path d="M28.877,0.863 C44.783,0.863 57.678,13.758 57.678,29.664 C57.678,45.57 44.783,58.464 28.877,58.464 C12.971,58.464 0.076,45.57 0.076,29.664 C0.076,13.758 12.971,0.863 28.877,0.863 L28.877,0.863 L28.877,0.863 Z M28.877,7.464 C16.616,7.464 6.678,17.403 6.678,29.664 C6.678,41.924 16.616,51.863 28.877,51.863 C41.138,51.863 51.077,41.924 51.077,29.664 C51.077,17.403 41.138,7.464 28.877,7.464 L28.877,7.464 Z" id="Shape" fill="#FFFFFF"></path>
                    <path d="M28.877,55.163 C42.922,55.163 54.377,43.708 54.377,29.663 C54.377,15.618 42.922,4.163 28.877,4.163 C14.832,4.163 3.377,15.618 3.377,29.663 C3.377,43.708 14.832,55.163 28.877,55.163 L28.877,55.163 Z" id="Shape"></path>
                </g>
                <path d="M50.877,38.464 C58.167,38.464 64.077,44.373 64.077,51.664 C64.077,58.954 58.167,64.864 50.877,64.864 C43.587,64.864 37.677,58.954 37.677,51.664 C37.677,44.373 43.587,38.464 50.877,38.464 L50.877,38.464 L50.877,38.464 Z M50.877,40.114 C44.498,40.114 39.327,45.285 39.327,51.664 C39.327,58.043 44.498,63.214 50.877,63.214 C57.256,63.214 62.428,58.043 62.428,51.664 C62.428,45.285 57.256,40.114 50.877,40.114 L50.877,40.114 Z" id="Shape" fill="#000000"></path>
                <path d="M50.877,59.988 C55.462,59.988 59.201,56.248 59.201,51.663 C59.201,47.078 55.462,43.339 50.877,43.339 C46.292,43.339 42.553,47.078 42.553,51.663 C42.553,56.248 46.292,59.988 50.877,59.988 L50.877,59.988 Z" id="Shape"></path>
                <g id="Group" transform="translate(42.000000, 43.000000)">
                    <path d="M17.128,9.29 C16.824,4.585 10.49,2.4 9.086,8.674 C7.66,15.041 0.365,12.589 0.633,8.008" id="Shape"></path>
                    <path d="M8.251,16.915 C12.955,16.61 15.14,10.277 8.867,8.872 C2.5,7.446 4.951,0.151 9.532,0.42" id="Shape"></path>
                </g>
            </g>
        </g>
    </g>
</svg>